<svg width="72" height="72" viewBox="0 0 72 72" fill="none" xmlns="http://www.w3.org/2000/svg">
<path d="M68.9757 58.8239H67.8957L67.6797 50.9039C67.8957 50.9039 68.0397 50.7599 68.0397 50.5439C68.0397 50.3279 67.8957 50.1839 67.6797 50.1839H67.6077L67.3197 41.5439H67.4637C67.6797 41.5439 67.8237 41.3999 67.8237 41.1839C67.8237 40.9679 67.6797 40.8239 67.4637 40.8239H67.3197L67.1757 35.0639C67.3917 35.0639 67.5357 34.9199 67.5357 34.7039C67.5357 34.4879 67.3917 34.3439 67.1757 34.3439V33.5519C67.1757 33.1199 66.9597 32.6879 66.5997 32.4719L66.4557 32.3999V31.8959C66.4557 31.6799 66.3117 31.5359 66.0957 31.5359C65.8797 31.5359 65.7357 31.6799 65.7357 31.8959V32.3999L65.6637 32.4719C65.3037 32.6879 65.0877 33.1199 65.0877 33.5519V34.3439C64.8717 34.3439 64.7277 34.4879 64.7277 34.7039C64.7277 34.9199 64.8717 35.0639 65.0877 35.0639L64.9437 40.8239H64.7997C64.5837 40.8239 64.4397 40.9679 64.4397 41.1839C64.4397 41.3999 64.5837 41.5439 64.7997 41.5439L64.5117 50.1839H64.4397C64.2237 50.1839 64.0797 50.3279 64.0797 50.5439C64.0797 50.7599 64.2237 50.9039 64.4397 50.9039H64.5117L64.2957 58.8239H61.4157L61.1997 53.7839C61.4157 53.7839 61.5597 53.6399 61.5597 53.4239C61.5597 53.2079 61.4157 53.0639 61.1997 53.0639H61.1277L60.9117 48.0239H60.9837C61.1997 48.0239 61.3437 47.8799 61.3437 47.6639C61.3437 47.4479 61.1997 47.3039 60.9837 47.3039H60.8397L60.6237 42.2639C60.8397 42.2639 60.9837 42.1199 60.9837 41.9039C60.9837 41.6879 60.8397 41.5439 60.6237 41.5439V40.7519C60.6237 40.3199 60.4077 39.8879 60.0477 39.6719L59.9757 39.5999V39.0959C59.9757 38.8799 59.8317 38.7359 59.6157 38.7359C59.3997 38.7359 59.2557 38.8799 59.2557 39.0959V39.5999L59.1837 39.6719C58.8237 39.8879 58.6077 40.3199 58.6077 40.7519V41.5439C58.3917 41.5439 58.2477 41.6879 58.2477 41.9039C58.2477 42.1199 58.3917 42.2639 58.6077 42.2639L58.3917 47.3039H58.2477C58.0317 47.3039 57.8877 47.4479 57.8877 47.6639C57.8877 47.8799 58.0317 48.0239 58.2477 48.0239H58.3917L58.1757 53.0639H58.1037C57.8877 53.0639 57.7437 53.2079 57.7437 53.4239C57.7437 53.6399 57.8877 53.7839 58.1037 53.7839H58.1757L57.9597 58.8959H55.0797V40.5359C55.0797 40.3199 54.9357 40.1759 54.7197 40.1759C54.5037 40.1759 54.3597 40.3199 54.3597 40.5359V42.3359H53.6397V41.6159C53.6397 41.3999 53.4957 41.2559 53.2797 41.2559C53.0637 41.2559 52.9197 41.3999 52.9197 41.6159V42.3359H48.5997V40.7519L48.6717 40.5359C49.2477 39.4559 48.9597 38.1599 47.9517 37.5119L46.7277 36.7199V35.5679C46.7277 35.3519 46.5837 35.2079 46.3677 35.2079C46.1517 35.2079 46.0077 35.3519 46.0077 35.5679V36.7919L44.7837 37.4399C43.7757 38.0879 43.4877 39.4559 44.0637 40.4639L44.1357 40.5359V42.2639H43.4157V38.9519C44.9277 35.7119 43.9917 31.7519 41.0397 29.6639L36.5757 26.6399V24.6959C36.5757 24.4799 36.4317 24.3359 36.2157 24.3359C35.9997 24.3359 35.8557 24.4799 35.8557 24.6959V26.6399L31.3917 29.7359C28.4397 31.8239 27.4317 35.7119 29.0157 39.0239V42.3359H28.2957V40.6079L28.3677 40.5359C28.9437 39.4559 28.6557 38.1599 27.6477 37.5119L26.4957 36.7199V35.4959C26.4957 35.2799 26.3517 35.1359 26.1357 35.1359C25.9197 35.1359 25.7757 35.2799 25.7757 35.4959V36.6479L24.5517 37.4399C23.5437 38.0879 23.2557 39.4559 23.8317 40.4639L23.9037 40.6799V42.2639H19.5837V41.5439C19.5837 41.3279 19.4397 41.1839 19.2237 41.1839C19.0077 41.1839 18.8637 41.3279 18.8637 41.5439V42.2639H18.1437V40.4639C18.1437 40.2479 17.9997 40.1039 17.7837 40.1039C17.5677 40.1039 17.4237 40.2479 17.4237 40.4639V58.8239H14.5437L14.3997 53.7839C14.6157 53.7839 14.7597 53.6399 14.7597 53.4239C14.7597 53.2079 14.6157 53.0639 14.3997 53.0639H14.3277L14.1117 48.0239H14.2557C14.4717 48.0239 14.6157 47.8799 14.6157 47.6639C14.6157 47.4479 14.4717 47.3039 14.2557 47.3039H14.1117L13.8957 42.2639C14.1117 42.2639 14.2557 42.1199 14.2557 41.9039C14.2557 41.6879 14.1117 41.5439 13.8957 41.5439V40.7519C13.8957 40.3199 13.6797 39.8879 13.3197 39.6719L13.1757 39.5999V39.0959C13.1757 38.8799 13.0317 38.7359 12.8157 38.7359C12.5997 38.7359 12.4557 38.8799 12.4557 39.0959V39.5999L12.3117 39.6719C11.9517 39.8879 11.7357 40.3199 11.7357 40.7519V41.5439C11.5197 41.5439 11.3757 41.6879 11.3757 41.9039C11.3757 42.1199 11.5197 42.2639 11.7357 42.2639L11.5197 47.3039H11.3757C11.1597 47.3039 11.0157 47.4479 11.0157 47.6639C11.0157 47.8799 11.1597 48.0239 11.3757 48.0239H11.4477L11.2317 53.0639H11.1597C10.9437 53.0639 10.7997 53.2079 10.7997 53.4239C10.7997 53.6399 10.9437 53.7839 11.1597 53.7839L10.9437 58.8959H8.1357L7.9197 50.9759C8.1357 50.9759 8.2797 50.8319 8.2797 50.6159C8.2797 50.3999 8.1357 50.2559 7.9197 50.2559H7.8477L7.5597 41.6159H7.7037C7.9197 41.6159 8.0637 41.4719 8.0637 41.2559C8.0637 41.0399 7.9197 40.8959 7.7037 40.8959H7.5597L7.4157 35.1359C7.6317 35.1359 7.7757 34.9919 7.7757 34.7759C7.7757 34.5599 7.6317 34.4159 7.4157 34.4159V33.6239C7.4157 33.1919 7.1997 32.7599 6.8397 32.5439L6.6957 32.3999V31.8959C6.6957 31.6799 6.5517 31.5359 6.3357 31.5359C6.1197 31.5359 5.9757 31.6799 5.9757 31.8239V32.3999L5.8317 32.4719C5.4717 32.6879 5.2557 33.1199 5.2557 33.5519V34.3439C5.0397 34.3439 4.8957 34.4879 4.8957 34.7039C4.8957 34.9199 5.0397 35.0639 5.2557 35.0639L5.1117 40.8239H4.8957C4.6797 40.8239 4.5357 40.9679 4.5357 41.1839C4.5357 41.3999 4.6797 41.5439 4.8957 41.5439H5.0397L4.7517 50.1839H4.6797C4.5357 50.1839 4.3197 50.3999 4.3197 50.5439C4.3197 50.6879 4.4637 50.9039 4.6797 50.9039H4.7517L4.5357 58.8239H3.4557C3.2397 58.8239 3.0957 58.9679 3.0957 59.1839C3.0957 59.3999 3.2397 59.5439 3.4557 59.5439H68.9757C69.1917 59.5439 69.3357 59.3999 69.3357 59.1839C69.3357 58.9679 69.1917 58.8239 68.9757 58.8239ZM6.2637 33.0479L6.3357 32.9759L6.4077 33.0479C6.5517 33.1919 6.6957 33.3359 6.6957 33.5519V34.3439H5.9757V33.5519C5.9757 33.3359 6.0477 33.1919 6.2637 33.0479ZM5.9757 35.0639H6.6957L6.8397 40.8239H5.7597L5.9757 35.0639ZM5.7597 41.5439H6.9117L7.1997 50.1839H5.4717L5.7597 41.5439ZM5.2557 58.8239L5.4717 50.9039H7.1277L7.3437 58.8239H5.2557ZM59.2557 40.7519C59.2557 40.5359 59.3277 40.3919 59.5437 40.2479L59.6157 40.1759L59.6877 40.2479C59.8317 40.3919 59.9757 40.5359 59.9757 40.7519V41.5439H59.2557V40.7519ZM59.2557 42.2639H59.9757L60.1917 47.2319H59.0397L59.2557 42.2639ZM58.9677 48.0239H60.1917L60.4077 53.0639H58.7517L58.9677 48.0239ZM52.7757 50.9039H51.3357V47.0159C51.3357 46.6559 51.5517 46.2959 51.8397 46.0799L52.0557 45.9359L52.2717 46.0799C52.5597 46.2959 52.7757 46.5839 52.7757 47.0159V50.9039ZM52.6317 45.5039L52.1997 45.2159C52.0557 45.1439 51.9117 45.1439 51.8397 45.2159L51.4077 45.5039C50.9037 45.8639 50.5437 46.3679 50.5437 47.0159V50.9039H49.8237V44.4959H54.1437V50.9039H53.4237V47.0159C53.4957 46.3679 53.2077 45.8639 52.6317 45.5039ZM44.8557 50.9039V48.0239C44.8557 47.3039 45.2157 46.6559 45.7917 46.2959L46.2957 46.0079L46.7997 46.3679C47.3757 46.7279 47.7357 47.3759 47.7357 48.0959V50.9759H44.8557V50.9039ZM47.1597 45.6479L46.4397 45.2159C46.2957 45.1439 46.1517 45.1439 46.0797 45.2159L45.3597 45.6479C44.5677 46.1519 44.0637 47.0159 44.0637 47.9519V50.9039H43.3437V44.4959H49.1037V50.9039H48.3837V47.9519C48.4557 47.0879 47.9517 46.2239 47.1597 45.6479ZM41.9757 40.1039C41.7597 40.1039 41.6157 40.2479 41.6157 40.4639V40.8239H40.8957V40.4639C40.8957 40.2479 40.7517 40.1039 40.5357 40.1039C40.3197 40.1039 40.1757 40.2479 40.1757 40.4639V40.8239H39.4557V40.4639C39.4557 40.2479 39.3117 40.1039 39.0957 40.1039C38.8797 40.1039 38.7357 40.2479 38.7357 40.4639V40.8239H38.0157V40.4639C38.0157 40.2479 37.8717 40.1039 37.6557 40.1039C37.4397 40.1039 37.2957 40.2479 37.2957 40.4639V40.8239H36.5757V40.4639C36.5757 40.2479 36.4317 40.1039 36.2157 40.1039C35.9997 40.1039 35.8557 40.2479 35.8557 40.4639V40.8239H35.1357V40.4639C35.1357 40.2479 34.9917 40.1039 34.7757 40.1039C34.5597 40.1039 34.4157 40.2479 34.4157 40.4639V40.8239H33.6957V40.4639C33.6957 40.2479 33.5517 40.1039 33.3357 40.1039C33.1197 40.1039 32.9757 40.2479 32.9757 40.4639V40.8239H32.2557V40.4639C32.2557 40.2479 32.1117 40.1039 31.8957 40.1039C31.6797 40.1039 31.5357 40.2479 31.5357 40.4639V40.8239H30.8157V40.4639C30.8157 40.2479 30.6717 40.1039 30.4557 40.1039C30.2397 40.1039 30.0957 40.2479 30.0957 40.4639V40.8239H29.7357V39.3839H42.6957V40.8239H42.3357V40.4639C42.3357 40.3199 42.1917 40.1039 41.9757 40.1039ZM27.5757 50.9039H24.6957V47.9519C24.6957 47.2319 25.0557 46.5839 25.6317 46.2239L26.1357 45.8639L26.6397 46.1519C27.2157 46.5119 27.5757 47.1599 27.5757 47.8799V50.9039ZM26.9997 45.6479L26.2797 45.2159C26.1357 45.1439 25.9917 45.1439 25.9197 45.2159L25.1997 45.6479C24.4077 46.1519 23.9037 47.0159 23.9037 47.9519V50.9039H23.1837V44.4959H28.9437V50.9039H28.2237V47.9519C28.2957 47.0879 27.7917 46.1519 26.9997 45.6479ZM21.0957 50.9039H19.6557V47.0159C19.6557 46.6559 19.8717 46.2959 20.1597 46.0799L20.3757 45.9359L20.5917 46.0799C20.8797 46.2959 21.0957 46.6559 21.0957 47.0159V50.9039ZM20.9517 45.5039L20.5197 45.2159C20.3757 45.1439 20.2317 45.1439 20.1597 45.2159L19.7277 45.5039C19.2237 45.8639 18.9357 46.3679 18.9357 47.0159V50.9039H18.2157V44.4959H22.5357V50.9039H21.8157V47.0159C21.8157 46.3679 21.5277 45.7919 20.9517 45.5039ZM54.2157 43.7759H49.8957V42.9839H54.2157V43.7759ZM45.2157 38.0159L46.3677 37.2239L47.5197 38.0159C48.2397 38.4479 48.3837 39.3839 48.0237 40.1039H44.8557C44.3517 39.3839 44.5677 38.5199 45.2157 38.0159ZM44.8557 40.8239H47.7357V42.2639H46.6557V41.9039C46.6557 41.6879 46.5117 41.5439 46.2957 41.5439C46.0797 41.5439 45.9357 41.6879 45.9357 41.9039V42.2639H44.8557V40.8239ZM44.4957 42.9839H49.1757V43.7759H43.4157V42.9839H44.4957ZM34.2717 28.5839L36.2157 27.2159L38.1597 28.5839H34.2717ZM31.8237 30.3119L33.0477 29.4479V29.6639C33.0477 29.8799 33.1917 30.0239 33.4077 30.0239C33.6237 30.0239 33.7677 29.8799 33.7677 29.6639V29.3039H34.4877V29.6639C34.4877 29.8799 34.6317 30.0239 34.8477 30.0239C35.0637 30.0239 35.2077 29.8799 35.2077 29.6639V29.3039H35.9277V29.6639C35.9277 29.8799 36.0717 30.0239 36.2877 30.0239C36.5037 30.0239 36.6477 29.8799 36.6477 29.6639V29.3039H37.3677V29.6639C37.3677 29.8799 37.5117 30.0239 37.7277 30.0239C37.9437 30.0239 38.0877 29.8799 38.0877 29.6639V29.3039H38.8077V29.6639C38.8077 29.8799 38.9517 30.0239 39.1677 30.0239C39.3837 30.0239 39.5277 29.8799 39.5277 29.6639V29.5199L40.6797 30.3119C43.3437 32.1839 44.2077 35.7119 42.8397 38.6639H29.6637C28.2957 35.7119 29.1597 32.1839 31.8237 30.3119ZM29.0157 43.7759H23.2557V42.9839H29.0157V43.7759ZM24.9837 38.0159L26.1357 37.2239L27.2877 38.0159C28.0077 38.4479 28.1517 39.3839 27.7917 40.1039H24.4797C24.0477 39.3839 24.2637 38.5199 24.9837 38.0159ZM24.6957 40.8239H27.5757V42.2639H26.4957V41.9039C26.4957 41.6879 26.3517 41.5439 26.1357 41.5439C25.9197 41.5439 25.7757 41.6879 25.7757 41.9039V42.2639H24.6957V40.8239ZM22.5357 43.7759H18.2157V42.9839H22.5357V43.7759ZM12.7437 40.2479L12.8157 40.1759L12.8877 40.2479C13.0317 40.3919 13.1757 40.5359 13.1757 40.7519V41.5439H12.4557V40.7519C12.4557 40.5359 12.5277 40.3919 12.7437 40.2479ZM12.4557 42.2639H13.1757L13.3917 47.2319H12.2397L12.4557 42.2639ZM12.1677 48.0239H13.3917L13.6077 53.0639H11.9517L12.1677 48.0239ZM11.7357 58.8239L11.9517 53.7119H13.6797L13.8957 58.8239H11.7357ZM18.2157 51.6239H22.5357V58.8239H21.8157V54.9359C21.8157 54.2879 21.5277 53.7839 20.9517 53.4239L20.5197 53.1359C20.3757 53.0639 20.2317 53.0639 20.1597 53.1359L19.7277 53.4239C19.2237 53.7839 18.9357 54.2879 18.9357 54.9359V58.8239H18.2157V51.6239ZM19.6557 58.8239V54.9359C19.6557 54.5759 19.8717 54.2159 20.1597 53.9999L20.3757 53.8559L20.5917 53.9999C20.8797 54.2159 21.0957 54.5759 21.0957 54.9359V58.8239H19.6557ZM23.2557 51.6239H29.0157V58.8239H28.2957V55.8719C28.2957 54.9359 27.7917 54.0719 26.9997 53.5679L26.2797 53.1359C26.1357 53.0639 25.9917 53.0639 25.9197 53.1359L25.1997 53.5679C24.4077 54.0719 23.9037 54.9359 23.9037 55.8719V58.8239H23.1837V51.6239H23.2557ZM24.6957 58.8239V55.8719C24.6957 55.1519 25.0557 54.5039 25.6317 54.1439L26.1357 53.7839L26.6397 54.0719C27.2157 54.4319 27.5757 55.0799 27.5757 55.7999V58.7519H24.6957V58.8239ZM29.7357 42.6239V41.5439H42.6957V58.8239H41.2557V50.4719C41.2557 48.1679 40.1037 46.1519 38.2317 44.9279L36.4317 43.7759C36.2877 43.7039 36.1437 43.7039 36.0717 43.7759L34.2717 44.9279C32.3997 46.1519 31.2477 48.2399 31.2477 50.4719V58.8239H29.8077V42.6239H29.7357ZM34.0557 58.8239H31.8957V51.6239H40.5357V58.8239H38.3757V55.8719C38.3757 54.9359 37.8717 54.0719 37.0797 53.5679L36.3597 53.1359C36.2157 53.0639 36.0717 53.0639 35.9997 53.1359L35.2797 53.5679C34.4877 54.0719 33.9837 54.9359 33.9837 55.8719V58.8239H34.0557ZM40.5357 50.9039H38.3757V49.3919C38.3757 48.4559 37.8717 47.5919 37.0797 47.0879L36.3597 46.6559C36.2157 46.5839 36.0717 46.5839 35.9997 46.6559L35.2797 47.0879C34.4877 47.5919 33.9837 48.4559 33.9837 49.3919V50.9039H31.8237V50.4719C31.8237 48.4559 32.8317 46.5839 34.5597 45.5039L36.2157 44.4959L37.7997 45.5039C39.5277 46.5839 40.5357 48.4559 40.5357 50.4719V50.9039ZM37.6557 50.9039H34.7757V49.3919C34.7757 48.6719 35.1357 48.0239 35.7117 47.6639L36.2157 47.3039L36.7197 47.5919C37.2957 47.9519 37.6557 48.5999 37.6557 49.3199V50.9039ZM34.7757 58.8239V55.8719C34.7757 55.1519 35.1357 54.5039 35.7117 54.1439L36.2157 53.7839L36.7197 54.0719C37.2957 54.4319 37.6557 55.0799 37.6557 55.7999V58.7519H34.7757V58.8239ZM43.4157 51.6239H49.1757V58.8239H48.4557V55.8719C48.4557 54.9359 47.9517 54.0719 47.1597 53.5679L46.4397 53.1359C46.2957 53.0639 46.1517 53.0639 46.0797 53.1359L45.3597 53.5679C44.5677 54.0719 44.0637 54.9359 44.0637 55.8719V58.8239H43.3437V51.6239H43.4157ZM47.7357 58.8239H44.8557V55.8719C44.8557 55.1519 45.2157 54.5039 45.7917 54.1439L46.2957 53.8559L46.7997 54.2159C47.3757 54.5759 47.7357 55.2239 47.7357 55.9439V58.8239ZM51.3357 58.8239V54.9359C51.3357 54.5759 51.5517 54.2159 51.8397 53.9999L52.0557 53.8559L52.2717 53.9999C52.5597 54.2159 52.7757 54.5039 52.7757 54.9359V58.8239H51.3357ZM53.4957 58.8239V54.9359C53.4957 54.2879 53.2077 53.7839 52.7037 53.4239L52.2717 53.1359C52.1277 53.0639 51.9837 53.0639 51.9117 53.1359L51.4797 53.4239C50.9757 53.7839 50.6157 54.2879 50.6157 54.9359V58.8239H49.8957V51.6239H54.2157V58.8239H53.4957ZM58.5357 58.8239L58.7517 53.7119H60.4797L60.6957 58.8239H58.5357ZM66.4557 34.3439H65.7357V33.5519C65.7357 33.3359 65.8077 33.1919 66.0237 33.0479L66.0957 32.9759L66.1677 33.0479C66.3117 33.1919 66.4557 33.3359 66.4557 33.5519V34.3439ZM65.7357 35.0639H66.4557L66.5997 40.8239H65.5197L65.7357 35.0639ZM65.5197 41.5439H66.6717L66.9597 50.1839H65.3037L65.5197 41.5439ZM65.0157 58.8239L65.2317 50.9039H66.9597L67.1757 58.8239H65.0157Z" fill="#27357E"/>
</svg>
