<svg width="98" height="87" viewBox="0 0 98 87" fill="none" xmlns="http://www.w3.org/2000/svg">
<path d="M49 0.181909C48.8674 0.181909 48.7402 0.234587 48.6464 0.328355C48.5527 0.422123 48.5 0.5493 48.5 0.681909V6.21091H46.512L46.5 4.70691C46.4989 4.57499 46.4458 4.44884 46.3521 4.35594C46.2585 4.26303 46.1319 4.2109 46 4.21091H45.996C45.9303 4.21143 45.8654 4.22488 45.805 4.25049C45.7445 4.27611 45.6897 4.31338 45.6436 4.36018C45.5976 4.40698 45.5612 4.4624 45.5365 4.52326C45.5119 4.58413 45.4995 4.64925 45.5 4.71491L45.516 6.71491V9.18191H45C44.8674 9.18191 44.7402 9.23459 44.6464 9.32836C44.5527 9.42212 44.5 9.5493 44.5 9.68191C44.5 9.81452 44.5527 9.94169 44.6464 10.0355C44.7402 10.1292 44.8674 10.1819 45 10.1819H45.318L43.424 16.1819H42.5V14.6819C42.5 14.5493 42.4473 14.4221 42.3536 14.3284C42.2598 14.2346 42.1326 14.1819 42 14.1819C41.8674 14.1819 41.7402 14.2346 41.6464 14.3284C41.5527 14.4221 41.5 14.5493 41.5 14.6819V22.1819C41.5 22.2019 41.51 22.2169 41.512 22.2359L39.523 28.5309C39.518 28.5479 39.523 28.5659 39.52 28.5839C39.513 28.6169 39.5 28.6469 39.5 28.6819V57.1819H17.5V56.2109H18.027C18.1596 56.2109 18.2868 56.1582 18.3806 56.0645C18.4743 55.9707 18.527 55.8435 18.527 55.7109C18.527 55.5783 18.4743 55.4511 18.3806 55.3574C18.2868 55.2636 18.1596 55.2109 18.027 55.2109H17.375L14.707 47.2109H15.016C15.1486 47.2109 15.2758 47.1582 15.3696 47.0645C15.4633 46.9707 15.516 46.8435 15.516 46.7109C15.516 46.5783 15.4633 46.4511 15.3696 46.3574C15.2758 46.2636 15.1486 46.2109 15.016 46.2109H13.514V41.7109C13.514 41.5783 13.4613 41.4511 13.3676 41.3574C13.2738 41.2636 13.1466 41.2109 13.014 41.2109C12.8814 41.2109 12.7542 41.2636 12.6604 41.3574C12.5667 41.4511 12.514 41.5783 12.514 41.7109V43.2109H7.514V41.7109C7.514 41.5783 7.46132 41.4511 7.36755 41.3574C7.27379 41.2636 7.14661 41.2109 7.014 41.2109C6.88139 41.2109 6.75421 41.2636 6.66045 41.3574C6.56668 41.4511 6.514 41.5783 6.514 41.7109V46.2109H5.02C4.88739 46.2109 4.76021 46.2636 4.66645 46.3574C4.57268 46.4511 4.52 46.5783 4.52 46.7109C4.52 46.8435 4.57268 46.9707 4.66645 47.0645C4.76021 47.1582 4.88739 47.2109 5.02 47.2109H5.312L2.64 55.2109H2.01C1.87739 55.2109 1.75021 55.2636 1.65645 55.3574C1.56268 55.4511 1.51 55.5783 1.51 55.7109C1.51 55.8435 1.56268 55.9707 1.65645 56.0645C1.75021 56.1582 1.87739 56.2109 2.01 56.2109H2.5V85.1809H1C0.867392 85.1809 0.740215 85.2336 0.646447 85.3274C0.552678 85.4211 0.5 85.5483 0.5 85.6809C0.5 85.8135 0.552678 85.9407 0.646447 86.0345C0.740215 86.1282 0.867392 86.1809 1 86.1809H97C97.1326 86.1809 97.2598 86.1282 97.3536 86.0345C97.4473 85.9407 97.5 85.8135 97.5 85.6809C97.5 85.5483 97.4473 85.4211 97.3536 85.3274C97.2598 85.2336 97.1326 85.1809 97 85.1809H95.5V56.2109H96C96.1326 56.2109 96.2598 56.1582 96.3536 56.0645C96.4473 55.9707 96.5 55.8435 96.5 55.7109C96.5 55.5783 96.4473 55.4511 96.3536 55.3574C96.2598 55.2636 96.1326 55.2109 96 55.2109H95.37L92.701 47.2109H93.01C93.1426 47.2109 93.2698 47.1582 93.3636 47.0645C93.4573 46.9707 93.51 46.8435 93.51 46.7109C93.51 46.5783 93.4573 46.4511 93.3636 46.3574C93.2698 46.2636 93.1426 46.2109 93.01 46.2109H91.508V41.7109C91.508 41.5783 91.4553 41.4511 91.3616 41.3574C91.2678 41.2636 91.1406 41.2109 91.008 41.2109C90.8754 41.2109 90.7482 41.2636 90.6544 41.3574C90.5607 41.4511 90.508 41.5783 90.508 41.7109V43.2109H85.508V41.7109C85.508 41.5783 85.4553 41.4511 85.3616 41.3574C85.2678 41.2636 85.1406 41.2109 85.008 41.2109C84.8754 41.2109 84.7482 41.2636 84.6544 41.3574C84.5607 41.4511 84.508 41.5783 84.508 41.7109V46.2109H83.014C82.8814 46.2109 82.7542 46.2636 82.6604 46.3574C82.5667 46.4511 82.514 46.5783 82.514 46.7109C82.514 46.8435 82.5667 46.9707 82.6604 47.0645C82.7542 47.1582 82.8814 47.2109 83.014 47.2109H83.304L80.643 55.1809H80.002C79.8694 55.1809 79.7422 55.2336 79.6484 55.3274C79.5547 55.4211 79.502 55.5483 79.502 55.6809C79.502 55.8135 79.5547 55.9407 79.6484 56.0345C79.7422 56.1282 79.8694 56.1809 80.002 56.1809H80.502V57.1809H58.502V28.6809C58.502 28.6469 58.489 28.6169 58.482 28.5839C58.479 28.5659 58.485 28.5479 58.479 28.5309L56.49 22.2359C56.492 22.2169 56.5 22.2009 56.5 22.1819V14.6819C56.5 14.5493 56.4473 14.4221 56.3536 14.3284C56.2598 14.2346 56.1326 14.1819 56 14.1819C55.8674 14.1819 55.7402 14.2346 55.6464 14.3284C55.5527 14.4221 55.5 14.5493 55.5 14.6819V16.1819H54.578L52.684 10.1819H53C53.1326 10.1819 53.2598 10.1292 53.3536 10.0355C53.4473 9.94169 53.5 9.81452 53.5 9.68191C53.5 9.5493 53.4473 9.42212 53.3536 9.32836C53.2598 9.23459 53.1326 9.18191 53 9.18191H52.516V6.70691L52.5 4.70691C52.4989 4.57499 52.4458 4.44884 52.3521 4.35594C52.2585 4.26303 52.1319 4.2109 52 4.21091H51.996C51.9303 4.21143 51.8654 4.22488 51.805 4.25049C51.7445 4.27611 51.6897 4.31338 51.6436 4.36018C51.5976 4.40698 51.5612 4.4624 51.5365 4.52326C51.5119 4.58413 51.4995 4.64925 51.5 4.71491L51.512 6.21091H49.5V0.680908C49.5 0.5483 49.4473 0.421124 49.3536 0.327355C49.2598 0.233587 49.1326 0.180908 49 0.180908V0.181909ZM46.516 7.21091H47.5V9.18091H46.516V7.21091ZM48.5 7.21091H49.5V9.18091H48.5V7.21091ZM50.5 7.21091H51.516V9.18091H50.5V7.21091ZM46.357 10.2109H51.645L57.318 28.1809H54.502V25.6809C54.502 25.5483 54.4493 25.4211 54.3556 25.3274C54.2618 25.2336 54.1346 25.1809 54.002 25.1809H52.268L49.473 17.5109C49.4379 17.415 49.3744 17.332 49.291 17.2731C49.2075 17.2141 49.1081 17.182 49.006 17.1809H49.002C48.9008 17.1809 48.802 17.2115 48.7186 17.2689C48.6353 17.3262 48.5712 17.4074 48.535 17.5019L45.575 25.1819H44.002C43.8694 25.1819 43.7422 25.2346 43.6484 25.3284C43.5547 25.4221 43.502 25.5493 43.502 25.6819V28.1819H40.686L46.357 10.2109ZM42.5 17.1799H43.11L42.5 19.1039V17.1799ZM54.893 17.1799H55.5V19.1039L54.893 17.1799ZM48.988 19.1029L51.448 25.8509C51.448 25.8539 51.451 25.8529 51.453 25.8559C51.486 25.9419 51.543 26.0109 51.615 26.0669C51.631 26.0789 51.645 26.0909 51.662 26.1009C51.7377 26.1501 51.8257 26.1771 51.916 26.1789H53.5V28.6789C53.5 28.8115 53.5527 28.9387 53.6464 29.0325C53.7402 29.1262 53.8674 29.1789 54 29.1789H57.5V29.2709C57.3399 29.2117 57.1707 29.1806 57 29.1789C56.615 29.1789 56.266 29.3289 56 29.5689C55.7267 29.3192 55.3702 29.1802 55 29.1789C54.173 29.1789 53.5 29.8519 53.5 30.6789V31.6789C53.5 31.8115 53.5527 31.9387 53.6464 32.0325C53.7402 32.1262 53.8674 32.1789 54 32.1789C54.1326 32.1789 54.2598 32.1262 54.3536 32.0325C54.4473 31.9387 54.5 31.8115 54.5 31.6789V30.6789C54.5 30.4039 54.725 30.1789 55 30.1789C55.275 30.1789 55.5 30.4039 55.5 30.6789V31.6789C55.5 31.8115 55.5527 31.9387 55.6464 32.0325C55.7402 32.1262 55.8674 32.1789 56 32.1789C56.1326 32.1789 56.2598 32.1262 56.3536 32.0325C56.4473 31.9387 56.5 31.8115 56.5 31.6789V30.6789C56.5 30.4039 56.725 30.1789 57 30.1789C57.275 30.1789 57.5 30.4039 57.5 30.6789V37.1789H40.5V30.6789C40.5 30.4039 40.725 30.1789 41 30.1789C41.275 30.1789 41.5 30.4039 41.5 30.6789V31.6789C41.5 31.8115 41.5527 31.9387 41.6464 32.0325C41.7402 32.1262 41.8674 32.1789 42 32.1789C42.1326 32.1789 42.2598 32.1262 42.3536 32.0325C42.4473 31.9387 42.5 31.8115 42.5 31.6789V30.6789C42.5 30.4039 42.725 30.1789 43 30.1789C43.275 30.1789 43.5 30.4039 43.5 30.6789V31.6789C43.5 31.8115 43.5527 31.9387 43.6464 32.0325C43.7402 32.1262 43.8674 32.1789 44 32.1789C44.1326 32.1789 44.2598 32.1262 44.3536 32.0325C44.4473 31.9387 44.5 31.8115 44.5 31.6789V30.6789C44.4995 30.2849 44.344 29.9069 44.0671 29.6265C43.7901 29.3462 43.414 29.1862 43.02 29.1809H44C44.1326 29.1809 44.2598 29.1282 44.3536 29.0345C44.4473 28.9407 44.5 28.8135 44.5 28.6809V26.1809H45.918L45.926 26.1789C45.951 26.1779 45.974 26.1679 45.998 26.1629C46.0823 26.1505 46.1618 26.1164 46.229 26.064C46.2961 26.0116 46.3485 25.9426 46.381 25.8639C46.381 25.8619 46.381 25.8599 46.383 25.8579L48.988 19.1019V19.1029ZM40.5 29.1819H40.99C40.8228 29.1842 40.6571 29.2146 40.5 29.2719V29.1819ZM41.02 29.1819H42.98C42.617 29.1875 42.2685 29.3255 42 29.5699C41.7315 29.3255 41.383 29.1875 41.02 29.1819ZM49 29.1819C47.07 29.1819 45.5 30.7519 45.5 32.6819C45.5 34.6119 47.071 36.1819 49 36.1819C50.93 36.1819 52.5 34.6119 52.5 32.6819C52.5 30.7519 50.93 29.1819 49 29.1819ZM49 30.1819C50.379 30.1819 51.5 31.3019 51.5 32.6819C51.5 34.0609 50.379 35.1819 49 35.1819C48.3371 35.1814 47.7015 34.9178 47.2328 34.4491C46.7641 33.9804 46.5005 33.3448 46.5 32.6819C46.5 31.3019 47.621 30.1819 49 30.1819ZM49 31.1819C48.8674 31.1819 48.7402 31.2346 48.6464 31.3284C48.5527 31.4221 48.5 31.5493 48.5 31.6819V32.6819C48.5 32.8145 48.5527 32.9417 48.6464 33.0355C48.7402 33.1292 48.8674 33.1819 49 33.1819C49.009 33.1819 49.018 33.1779 49.027 33.1779C49.037 33.1779 49.044 33.1819 49.053 33.1819H50.5C50.6326 33.1819 50.7598 33.1292 50.8536 33.0355C50.9473 32.9417 51 32.8145 51 32.6819C51 32.5493 50.9473 32.4221 50.8536 32.3284C50.7598 32.2346 50.6326 32.1819 50.5 32.1819H49.5V31.6819C49.5 31.5493 49.4473 31.4221 49.3536 31.3284C49.2598 31.2346 49.1326 31.1819 49 31.1819ZM40.5 38.1819H45.5V39.6819C45.5 39.8709 45.608 40.0439 45.777 40.1289L47.5 40.9899V42.6819C47.5 42.8145 47.5527 42.9417 47.6464 43.0355C47.7402 43.1292 47.8674 43.1819 48 43.1819H48.5V45.1819C48.3674 45.1819 48.2402 45.2346 48.1464 45.3284C48.0527 45.4221 48 45.5493 48 45.6819C48 45.8145 48.0527 45.9417 48.1464 46.0355C48.2402 46.1292 48.3674 46.1819 48.5 46.1819H49.5C49.6326 46.1819 49.7598 46.1292 49.8536 46.0355C49.9473 45.9417 50 45.8145 50 45.6819C50 45.5493 49.9473 45.4221 49.8536 45.3284C49.7598 45.2346 49.6326 45.1819 49.5 45.1819V43.1819H50C50.1326 43.1819 50.2598 43.1292 50.3536 43.0355C50.4473 42.9417 50.5 42.8145 50.5 42.6819V40.9899L52.225 40.1289C52.3078 40.0872 52.3773 40.0233 52.4259 39.9444C52.4744 39.8655 52.5001 39.7746 52.5 39.6819V38.1819H57.5V50.1819H53.5V48.1819C53.5 47.0789 52.603 46.1819 51.5 46.1819C50.397 46.1819 49.5 47.0789 49.5 48.1819V50.1819H48.5V48.1819C48.5 47.0789 47.603 46.1819 46.5 46.1819C45.397 46.1819 44.5 47.0789 44.5 48.1819V50.1819H40.5V38.1819ZM46.5 38.1839H51.5V39.3739L49.777 40.2339C49.6939 40.2756 49.6239 40.3396 49.575 40.4187C49.5261 40.4978 49.5001 40.5889 49.5 40.6819V42.1819H48.5V40.6819C48.5003 40.5891 48.4747 40.498 48.4261 40.4189C48.3776 40.3397 48.3079 40.2757 48.225 40.2339L46.5 39.3739V38.1839ZM7.516 44.2099H8.5V46.1799H7.516V44.2099ZM9.5 44.2099H10.5V46.1799H9.5V44.2099ZM11.5 44.2099H12.516V46.1799H11.5V44.2099ZM85.508 44.2099H86.494V46.1799H85.508V44.2099ZM87.494 44.2099H88.494V46.1799H87.494V44.2099ZM89.492 44.2099H90.508V46.1799H89.492V44.2099ZM46.5 47.1809C46.7652 47.1809 47.0196 47.2863 47.2071 47.4738C47.3946 47.6613 47.5 47.9157 47.5 48.1809V55.1809H45.5V48.1809C45.5 47.9157 45.6054 47.6613 45.7929 47.4738C45.9804 47.2863 46.2348 47.1809 46.5 47.1809ZM51.5 47.1809C51.7652 47.1809 52.0196 47.2863 52.2071 47.4738C52.3946 47.6613 52.5 47.9157 52.5 48.1809V55.1809H50.5V48.1809C50.5 47.9157 50.6054 47.6613 50.7929 47.4738C50.9804 47.2863 51.2348 47.1809 51.5 47.1809ZM6.367 47.2109H13.657L16.322 55.2109H13.225L10.371 52.3309C10.325 52.2838 10.2701 52.2463 10.2095 52.2206C10.1489 52.1948 10.0838 52.1813 10.018 52.1809H10.016C9.9502 52.1808 9.88503 52.1937 9.82426 52.2189C9.76349 52.2441 9.70834 52.2812 9.662 52.3279L6.792 55.2109H3.696L6.367 47.2109ZM84.359 47.2109H91.649L94.314 55.2109H91.217L88.363 52.3309C88.317 52.2838 88.2621 52.2463 88.2015 52.2206C88.1409 52.1948 88.0758 52.1813 88.01 52.1809H88.008C87.9422 52.1808 87.877 52.1937 87.8163 52.2189C87.7555 52.2441 87.7003 52.2812 87.654 52.3279L84.787 55.2109H83.148C83.101 55.1969 83.053 55.1809 83.002 55.1809H81.699L84.359 47.2109ZM40.5 51.1799H44.5V55.1799H44C43.8674 55.1799 43.7402 55.2326 43.6464 55.3264C43.5527 55.4201 43.5 55.5473 43.5 55.6799V57.6799C43.5 57.8125 43.5527 57.9397 43.6464 58.0335C43.7402 58.1272 43.8674 58.1799 44 58.1799H54C54.1326 58.1799 54.2598 58.1272 54.3536 58.0335C54.4473 57.9397 54.5 57.8125 54.5 57.6799V55.6799C54.5 55.5473 54.4473 55.4201 54.3536 55.3264C54.2598 55.2326 54.1326 55.1799 54 55.1799H53.5V51.1799H57.5V70.1799H53.5V62.6799C53.5 61.3019 52.379 60.1799 51 60.1799C50.179 60.1799 49.456 60.5839 49 61.1959C48.7691 60.8822 48.468 60.627 48.1206 60.4507C47.7733 60.2744 47.3895 60.182 47 60.1809C46.3371 60.1814 45.7015 60.445 45.2328 60.9137C44.7641 61.3825 44.5005 62.018 44.5 62.6809V70.1809H40.5V51.1799ZM48.5 51.1799H49.5V52.1799H48.5V51.1799ZM48.5 53.1799H49.5V55.1799H48.5V53.1799ZM10.014 53.3919L12.66 56.0619C12.7066 56.1089 12.7621 56.1462 12.8232 56.1716C12.8843 56.197 12.9498 56.21 13.016 56.2099H16.5V57.2719C16.3398 57.213 16.1707 57.1822 16 57.1809C15.615 57.1809 15.266 57.3309 15 57.5709C14.7267 57.3212 14.3702 57.1822 14 57.1809C13.173 57.1809 12.5 57.8539 12.5 58.6809V59.6809C12.5 59.8135 12.5527 59.9407 12.6464 60.0345C12.7402 60.1282 12.8674 60.1809 13 60.1809C13.1326 60.1809 13.2598 60.1282 13.3536 60.0345C13.4473 59.9407 13.5 59.8135 13.5 59.6809V58.6809C13.5 58.4059 13.725 58.1809 14 58.1809C14.275 58.1809 14.5 58.4059 14.5 58.6809V59.6809C14.5 59.8135 14.5527 59.9407 14.6464 60.0345C14.7402 60.1282 14.8674 60.1809 15 60.1809C15.1326 60.1809 15.2598 60.1282 15.3536 60.0345C15.4473 59.9407 15.5 59.8135 15.5 59.6809V58.6809C15.5 58.4059 15.725 58.1809 16 58.1809C16.275 58.1809 16.5 58.4059 16.5 58.6809V85.1809H14.45V81.6709C14.45 79.1899 12.43 77.1709 9.95 77.1709C8.75693 77.1722 7.61311 77.6468 6.76948 78.4904C5.92585 79.334 5.45132 80.4778 5.45 81.6709V85.1809H3.5V58.6809C3.5 58.4059 3.725 58.1809 4 58.1809C4.275 58.1809 4.5 58.4059 4.5 58.6809V59.6809C4.5 59.8135 4.55268 59.9407 4.64645 60.0345C4.74021 60.1282 4.86739 60.1809 5 60.1809C5.13261 60.1809 5.25979 60.1282 5.35355 60.0345C5.44732 59.9407 5.5 59.8135 5.5 59.6809V58.6809C5.5 58.4059 5.725 58.1809 6 58.1809C6.275 58.1809 6.5 58.4059 6.5 58.6809V59.6809C6.5 59.8135 6.55268 59.9407 6.64645 60.0345C6.74021 60.1282 6.86739 60.1809 7 60.1809C7.13261 60.1809 7.25979 60.1282 7.35355 60.0345C7.44732 59.9407 7.5 59.8135 7.5 59.6809V58.6809C7.5 57.8539 6.827 57.1809 6 57.1809C5.615 57.1809 5.266 57.3309 5 57.5709C4.72669 57.3212 4.37021 57.1822 4 57.1809C3.824 57.1809 3.657 57.2159 3.5 57.2719V56.2099H7C7.06593 56.2099 7.13121 56.1969 7.19212 56.1717C7.25303 56.1465 7.30838 56.1095 7.355 56.0629L10.014 53.3919ZM88.006 53.3919L90.652 56.0619C90.6986 56.1089 90.7541 56.1462 90.8152 56.1716C90.8763 56.197 90.9418 56.21 91.008 56.2099H94.5V57.2719C94.3398 57.213 94.1707 57.1822 94 57.1809C93.615 57.1809 93.266 57.3309 93 57.5709C92.7267 57.3212 92.3702 57.1822 92 57.1809C91.173 57.1809 90.5 57.8539 90.5 58.6809V59.6809C90.5 59.8135 90.5527 59.9407 90.6464 60.0345C90.7402 60.1282 90.8674 60.1809 91 60.1809C91.1326 60.1809 91.2598 60.1282 91.3536 60.0345C91.4473 59.9407 91.5 59.8135 91.5 59.6809V58.6809C91.5 58.4059 91.725 58.1809 92 58.1809C92.275 58.1809 92.5 58.4059 92.5 58.6809V59.6809C92.5 59.8135 92.5527 59.9407 92.6464 60.0345C92.7402 60.1282 92.8674 60.1809 93 60.1809C93.1326 60.1809 93.2598 60.1282 93.3536 60.0345C93.4473 59.9407 93.5 59.8135 93.5 59.6809V58.6809C93.5 58.4059 93.725 58.1809 94 58.1809C94.275 58.1809 94.5 58.4059 94.5 58.6809V85.1809H92.45V81.6709C92.45 79.1899 90.43 77.1709 87.95 77.1709C86.7569 77.1722 85.6131 77.6468 84.7695 78.4904C83.9258 79.334 83.4513 80.4778 83.45 81.6709V85.1809H81.502V58.6809C81.502 58.4059 81.727 58.1809 82.002 58.1809C82.277 58.1809 82.502 58.4059 82.502 58.6809V59.6809C82.502 59.8135 82.5547 59.9407 82.6484 60.0345C82.7422 60.1282 82.8694 60.1809 83.002 60.1809C83.1346 60.1809 83.2618 60.1282 83.3556 60.0345C83.4493 59.9407 83.502 59.8135 83.502 59.6809V58.6809C83.502 58.4059 83.727 58.1809 84.002 58.1809C84.277 58.1809 84.502 58.4059 84.502 58.6809V59.6809C84.502 59.8135 84.5547 59.9407 84.6484 60.0345C84.7422 60.1282 84.8694 60.1809 85.002 60.1809C85.1346 60.1809 85.2618 60.1282 85.3556 60.0345C85.4493 59.9407 85.502 59.8135 85.502 59.6809V58.6809C85.502 57.8539 84.829 57.1809 84.002 57.1809C83.617 57.1809 83.268 57.3309 83.002 57.5709C82.7287 57.3212 82.3722 57.1822 82.002 57.1809C81.826 57.1809 81.659 57.2159 81.502 57.2719V56.2099H84.994C85.127 56.2099 85.254 56.1569 85.348 56.0629L88.006 53.3919ZM10 55.1819C9.173 55.1819 8.5 55.8549 8.5 56.6819V59.6819C8.5 59.8145 8.55268 59.9417 8.64645 60.0355C8.74021 60.1292 8.86739 60.1819 9 60.1819H11C11.1326 60.1819 11.2598 60.1292 11.3536 60.0355C11.4473 59.9417 11.5 59.8145 11.5 59.6819V56.6819C11.5 55.8549 10.827 55.1819 10 55.1819ZM88 55.1819C87.173 55.1819 86.5 55.8549 86.5 56.6819V59.6819C86.5 59.8145 86.5527 59.9417 86.6464 60.0355C86.7402 60.1292 86.8674 60.1819 87 60.1819H89C89.1326 60.1819 89.2598 60.1292 89.3536 60.0355C89.4473 59.9417 89.5 59.8145 89.5 59.6819V56.6819C89.5 55.8549 88.827 55.1819 88 55.1819ZM10 56.1819C10.275 56.1819 10.5 56.4069 10.5 56.6819V59.1819H9.5V56.6819C9.5 56.4069 9.725 56.1819 10 56.1819ZM44.5 56.1819H45.5V57.1819H44.5V56.1819ZM46.5 56.1819H47.5V57.1819H46.5V56.1819ZM48.5 56.1819H49.5V57.1819H48.5V56.1819ZM50.5 56.1819H51.5V57.1819H50.5V56.1819ZM52.5 56.1819H53.5V57.1819H52.5V56.1819ZM88 56.1819C88.275 56.1819 88.5 56.4069 88.5 56.6819V59.1819H87.5V56.6819C87.5 56.4069 87.725 56.1819 88 56.1819ZM17.5 58.1819H39.5V62.1819H17.5V58.1819ZM58.5 58.1819H80.5V62.1819H58.5V58.1819ZM47 61.1819C47.827 61.1819 48.5 61.8549 48.5 62.6819V70.1819H45.5V62.6819C45.5 61.8549 46.173 61.1819 47 61.1819ZM51 61.1819C51.827 61.1819 52.5 61.8549 52.5 62.6819V70.1819H49.5V62.6819C49.5 61.8549 50.173 61.1819 51 61.1819ZM10 63.1719C7.947 63.1719 6.231 64.5599 5.693 66.4429C5.66084 66.5016 5.6411 66.5663 5.635 66.6329C5.555 66.9679 5.502 67.3119 5.502 67.6719V74.6719C5.501 74.9469 5.724 75.1719 6 75.1719H14C14.1326 75.1719 14.2598 75.1192 14.3536 75.0255C14.4473 74.9317 14.5 74.8045 14.5 74.6719V67.6719C14.5 67.3089 14.446 66.9589 14.365 66.6219C14.3588 66.5599 14.3404 66.4998 14.311 66.4449C13.774 64.5609 12.054 63.1719 10 63.1719ZM88.002 63.1719C85.949 63.1719 84.232 64.5599 83.693 66.4429C83.6615 66.5017 83.6424 66.5664 83.637 66.6329C83.557 66.9679 83.502 67.3119 83.502 67.6719V74.6719C83.502 74.8045 83.5547 74.9317 83.6484 75.0255C83.7422 75.1192 83.8694 75.1719 84.002 75.1719H92.002C92.1346 75.1719 92.2618 75.1192 92.3556 75.0255C92.4493 74.9317 92.502 74.8045 92.502 74.6719V67.6719C92.502 67.3089 92.448 66.9609 92.367 66.6229C92.3592 66.5607 92.3402 66.5004 92.311 66.4449C91.774 64.5609 90.057 63.1719 88.002 63.1719ZM17.5 63.1819H39.5V71.1819H38.5V66.9319C38.5 65.9669 37.715 65.1819 36.75 65.1819C36.26 65.1819 35.818 65.3859 35.5 65.7109C35.3378 65.5433 35.1436 65.41 34.9288 65.319C34.7141 65.2279 34.4832 65.181 34.25 65.1809C33.285 65.1809 32.5 65.9669 32.5 66.9309V71.1809H31.5V66.9309C31.5 65.9669 30.715 65.1809 29.75 65.1809C29.26 65.1809 28.818 65.3859 28.5 65.7109C28.3378 65.5433 28.1436 65.41 27.9288 65.319C27.7141 65.2279 27.4832 65.181 27.25 65.1809C26.285 65.1809 25.5 65.9669 25.5 66.9309V71.1809H24.5V66.9309C24.5 65.9669 23.715 65.1809 22.75 65.1809C22.26 65.1809 21.818 65.3859 21.5 65.7109C21.3378 65.5433 21.1436 65.41 20.9288 65.319C20.7141 65.2279 20.4832 65.181 20.25 65.1809C19.285 65.1809 18.5 65.9669 18.5 66.9309V71.1809H17.5V63.1819ZM58.5 63.1819H80.5V71.1819H79.5V66.9319C79.5 65.9669 78.715 65.1819 77.75 65.1819C77.26 65.1819 76.818 65.3859 76.5 65.7109C76.3378 65.5433 76.1436 65.41 75.9288 65.319C75.7141 65.2279 75.4832 65.181 75.25 65.1809C74.285 65.1809 73.5 65.9669 73.5 66.9309V71.1809H72.5V66.9309C72.5 65.9669 71.715 65.1809 70.75 65.1809C70.26 65.1809 69.818 65.3859 69.5 65.7109C69.3378 65.5433 69.1436 65.41 68.9288 65.319C68.7141 65.2279 68.4832 65.181 68.25 65.1809C67.285 65.1809 66.5 65.9669 66.5 66.9309V71.1809H65.5V66.9309C65.5 65.9669 64.715 65.1809 63.75 65.1809C63.26 65.1809 62.818 65.3859 62.5 65.7109C62.3378 65.5433 62.1436 65.41 61.9288 65.319C61.7141 65.2279 61.4832 65.181 61.25 65.1809C60.285 65.1809 59.5 65.9669 59.5 66.9309V71.1809H58.5V63.1819ZM10 64.1719C11.395 64.1719 12.594 64.9979 13.156 66.1819H6.846C7.12714 65.5824 7.5729 65.0751 8.13132 64.7192C8.68974 64.3633 9.33782 64.1735 10 64.1719ZM88 64.1719C89.395 64.1719 90.594 64.9979 91.156 66.1819H84.846C85.1271 65.5824 85.5729 65.0751 86.1313 64.7192C86.6898 64.3633 87.3378 64.1735 88 64.1719ZM20.25 66.1819C20.663 66.1819 21 66.5189 21 66.9319V71.1819H19.5V66.9319C19.5 66.5189 19.837 66.1819 20.25 66.1819ZM22.75 66.1819C23.163 66.1819 23.5 66.5189 23.5 66.9319V71.1819H22V66.9319C22 66.5189 22.337 66.1819 22.75 66.1819ZM27.25 66.1819C27.663 66.1819 28 66.5189 28 66.9319V71.1819H26.5V66.9319C26.5 66.5189 26.837 66.1819 27.25 66.1819ZM29.75 66.1819C30.163 66.1819 30.5 66.5189 30.5 66.9319V71.1819H29V66.9319C29 66.5189 29.337 66.1819 29.75 66.1819ZM34.25 66.1819C34.663 66.1819 35 66.5189 35 66.9319V71.1819H33.5V66.9319C33.5 66.5189 33.837 66.1819 34.25 66.1819ZM36.75 66.1819C37.163 66.1819 37.5 66.5189 37.5 66.9319V71.1819H36V66.9319C36 66.5189 36.337 66.1819 36.75 66.1819ZM61.25 66.1819C61.663 66.1819 62 66.5189 62 66.9319V71.1819H60.5V66.9319C60.5 66.5189 60.837 66.1819 61.25 66.1819ZM63.75 66.1819C64.163 66.1819 64.5 66.5189 64.5 66.9319V71.1819H63V66.9319C63 66.5189 63.337 66.1819 63.75 66.1819ZM68.25 66.1819C68.663 66.1819 69 66.5189 69 66.9319V71.1819H67.5V66.9319C67.5 66.5189 67.837 66.1819 68.25 66.1819ZM70.75 66.1819C71.163 66.1819 71.5 66.5189 71.5 66.9319V71.1819H70V66.9319C70 66.5189 70.337 66.1819 70.75 66.1819ZM75.25 66.1819C75.663 66.1819 76 66.5189 76 66.9319V71.1819H74.5V66.9319C74.5 66.5189 74.837 66.1819 75.25 66.1819ZM77.75 66.1819C78.163 66.1819 78.5 66.5189 78.5 66.9319V71.1819H77V66.9319C77 66.5189 77.337 66.1819 77.75 66.1819ZM6.55 67.1819H7.5V68.1819H6.5V67.6719C6.5 67.5039 6.528 67.3419 6.55 67.1819ZM8.5 67.1819H9.5V68.1819H8.5V67.1819ZM10.5 67.1819H11.5V68.1819H10.5V67.1819ZM12.5 67.1819H13.451C13.475 67.3419 13.5 67.5039 13.5 67.6719V68.1819H12.5V67.1819ZM84.55 67.1819H85.5V68.1819H84.5V67.6719C84.5 67.5039 84.528 67.3419 84.55 67.1819ZM86.5 67.1819H87.5V68.1819H86.5V67.1819ZM88.5 67.1819H89.5V68.1819H88.5V67.1819ZM90.5 67.1819H91.451C91.474 67.3419 91.5 67.5049 91.5 67.6719V68.1819H90.5V67.1819ZM6.5 69.1819H7.5V74.1719H6.5V69.1819ZM8.5 69.1819H9.5V74.1719H8.5V69.1819ZM10.5 69.1819H11.5V74.1719H10.5V69.1819ZM12.5 69.1819H13.5V74.1719H12.5V69.1819ZM84.5 69.1819H85.5V74.1719H84.5V69.1819ZM86.5 69.1819H87.5V74.1719H86.5V69.1819ZM88.5 69.1819H89.5V74.1719H88.5V69.1819ZM90.5 69.1819H91.5V74.1719H90.5V69.1819ZM40.502 71.1819H57.5V85.1819H54.45V78.6719C54.45 75.6399 51.981 73.1719 48.95 73.1719C47.4919 73.1738 46.094 73.7538 45.063 74.7849C44.0319 75.8159 43.4519 77.2138 43.45 78.6719V85.1819H40.502V71.1819ZM17.5 72.1819H39.5V85.1819H38.5V81.1759C38.5 79.5219 37.154 78.1759 35.5 78.1759C33.846 78.1759 32.5 79.5219 32.5 81.1759V85.1819H31.5V81.1759C31.5 79.5219 30.154 78.1759 28.5 78.1759C26.846 78.1759 25.5 79.5219 25.5 81.1759V85.1819H24.5V81.1759C24.5 79.5219 23.154 78.1759 21.5 78.1759C19.846 78.1759 18.5 79.5219 18.5 81.1759V85.1819H17.5V72.1819ZM58.5 72.1819H80.5V85.1819H79.5V81.1759C79.5 79.5219 78.154 78.1759 76.5 78.1759C74.846 78.1759 73.5 79.5219 73.5 81.1759V85.1819H72.5V81.1759C72.5 79.5219 71.154 78.1759 69.5 78.1759C67.846 78.1759 66.5 79.5219 66.5 81.1759V85.1819H65.5V81.1759C65.5 79.5219 64.154 78.1759 62.5 78.1759C60.846 78.1759 59.5 79.5219 59.5 81.1759V85.1819H58.5V72.1819ZM19 73.1719C18.8674 73.1719 18.7402 73.2246 18.6464 73.3184C18.5527 73.4121 18.5 73.5393 18.5 73.6719V76.1719C18.5 76.3045 18.5527 76.4317 18.6464 76.5255C18.7402 76.6192 18.8674 76.6719 19 76.6719H24C24.1326 76.6719 24.2598 76.6192 24.3536 76.5255C24.4473 76.4317 24.5 76.3045 24.5 76.1719V73.6719C24.5 73.5393 24.4473 73.4121 24.3536 73.3184C24.2598 73.2246 24.1326 73.1719 24 73.1719H19ZM26 73.1719C25.8674 73.1719 25.7402 73.2246 25.6464 73.3184C25.5527 73.4121 25.5 73.5393 25.5 73.6719V76.1719C25.5 76.3045 25.5527 76.4317 25.6464 76.5255C25.7402 76.6192 25.8674 76.6719 26 76.6719H31C31.1326 76.6719 31.2598 76.6192 31.3536 76.5255C31.4473 76.4317 31.5 76.3045 31.5 76.1719V73.6719C31.5 73.5393 31.4473 73.4121 31.3536 73.3184C31.2598 73.2246 31.1326 73.1719 31 73.1719H26ZM33 73.1719C32.8674 73.1719 32.7402 73.2246 32.6464 73.3184C32.5527 73.4121 32.5 73.5393 32.5 73.6719V76.1719C32.5 76.3045 32.5527 76.4317 32.6464 76.5255C32.7402 76.6192 32.8674 76.6719 33 76.6719H38C38.1326 76.6719 38.2598 76.6192 38.3536 76.5255C38.4473 76.4317 38.5 76.3045 38.5 76.1719V73.6719C38.5 73.5393 38.4473 73.4121 38.3536 73.3184C38.2598 73.2246 38.1326 73.1719 38 73.1719H33ZM60 73.1719C59.8674 73.1719 59.7402 73.2246 59.6464 73.3184C59.5527 73.4121 59.5 73.5393 59.5 73.6719V76.1719C59.5 76.3045 59.5527 76.4317 59.6464 76.5255C59.7402 76.6192 59.8674 76.6719 60 76.6719H65C65.1326 76.6719 65.2598 76.6192 65.3536 76.5255C65.4473 76.4317 65.5 76.3045 65.5 76.1719V73.6719C65.5 73.5393 65.4473 73.4121 65.3536 73.3184C65.2598 73.2246 65.1326 73.1719 65 73.1719H60ZM67 73.1719C66.8674 73.1719 66.7402 73.2246 66.6464 73.3184C66.5527 73.4121 66.5 73.5393 66.5 73.6719V76.1719C66.5 76.3045 66.5527 76.4317 66.6464 76.5255C66.7402 76.6192 66.8674 76.6719 67 76.6719H72C72.1326 76.6719 72.2598 76.6192 72.3536 76.5255C72.4473 76.4317 72.5 76.3045 72.5 76.1719V73.6719C72.5 73.5393 72.4473 73.4121 72.3536 73.3184C72.2598 73.2246 72.1326 73.1719 72 73.1719H67ZM74 73.1719C73.8674 73.1719 73.7402 73.2246 73.6464 73.3184C73.5527 73.4121 73.5 73.5393 73.5 73.6719V76.1719C73.5 76.3045 73.5527 76.4317 73.6464 76.5255C73.7402 76.6192 73.8674 76.6719 74 76.6719H79C79.1326 76.6719 79.2598 76.6192 79.3536 76.5255C79.4473 76.4317 79.5 76.3045 79.5 76.1719V73.6719C79.5 73.5393 79.4473 73.4121 79.3536 73.3184C79.2598 73.2246 79.1326 73.1719 79 73.1719H74ZM19.5 74.1719H21V75.6719H19.5V74.1719ZM22 74.1719H23.5V75.6719H22V74.1719ZM26.5 74.1719H28V75.6719H26.5V74.1719ZM29 74.1719H30.5V75.6719H29V74.1719ZM33.5 74.1719H35V75.6719H33.5V74.1719ZM36 74.1719H37.5V75.6719H36V74.1719ZM48.95 74.1719C51.43 74.1719 53.45 76.1909 53.45 78.6719V85.1719H44.45V78.6719C44.45 76.1909 46.468 74.1719 48.95 74.1719ZM60.5 74.1719H62V75.6719H60.5V74.1719ZM63 74.1719H64.5V75.6719H63V74.1719ZM67.5 74.1719H69V75.6719H67.5V74.1719ZM70 74.1719H71.5V75.6719H70V74.1719ZM74.5 74.1719H76V75.6719H74.5V74.1719ZM77 74.1719H78.5V75.6719H77V74.1719ZM9.95 78.1719C11.88 78.1719 13.45 79.7419 13.45 81.6719V85.1719H6.45V81.6719C6.45 79.7419 8.02 78.1719 9.95 78.1719ZM87.95 78.1719C89.88 78.1719 91.45 79.7419 91.45 81.6719V85.1719H84.45V81.6719C84.45 79.7419 86.02 78.1719 87.95 78.1719ZM21.5 79.1759C22.603 79.1759 23.5 80.0729 23.5 81.1759V85.1819H19.5V81.1759C19.5 80.0729 20.397 79.1759 21.5 79.1759ZM28.5 79.1759C29.603 79.1759 30.5 80.0729 30.5 81.1759V85.1819H26.5V81.1759C26.5 80.0729 27.397 79.1759 28.5 79.1759ZM35.5 79.1759C36.603 79.1759 37.5 80.0729 37.5 81.1759V85.1819H33.5V81.1759C33.5 80.0729 34.397 79.1759 35.5 79.1759ZM62.5 79.1759C63.603 79.1759 64.5 80.0729 64.5 81.1759V85.1819H60.5V81.1759C60.5 80.0729 61.397 79.1759 62.5 79.1759ZM69.5 79.1759C70.603 79.1759 71.5 80.0729 71.5 81.1759V85.1819H67.5V81.1759C67.5 80.0729 68.397 79.1759 69.5 79.1759ZM76.5 79.1759C77.603 79.1759 78.5 80.0729 78.5 81.1759V85.1819H74.5V81.1759C74.5 80.0729 75.397 79.1759 76.5 79.1759Z" fill="#3C498B"/>
</svg>
