<svg width="72" height="72" viewBox="0 0 72 72" fill="none" xmlns="http://www.w3.org/2000/svg">
<path d="M59.6162 59.04H58.5362V34.2C58.5362 33.408 58.1762 32.688 57.5282 32.184L56.9522 31.752C56.8082 31.68 56.6642 31.68 56.5202 31.752L55.9442 32.184C55.8722 32.256 55.7282 32.328 55.6562 32.472V30.744C55.6562 29.952 55.2242 29.232 54.5762 28.8L53.4963 28.224V27C53.4963 26.784 53.3522 26.64 53.1362 26.64C52.9202 26.64 52.7762 26.784 52.7762 27V28.224L51.6962 28.8C51.5522 28.872 51.4082 29.016 51.3362 29.088V26.928C51.3362 26.136 50.9762 25.416 50.3282 24.912L49.7522 24.48C49.6082 24.408 49.4642 24.408 49.3202 24.48L48.7442 24.912C48.6722 24.984 48.5282 25.056 48.4562 25.2V24.768C48.4562 23.976 48.0962 23.256 47.4482 22.752L46.8722 22.32C46.7282 22.248 46.5842 22.248 46.4402 22.32L45.8643 22.752C45.7202 22.824 45.6482 22.968 45.5042 23.112C45.3602 22.464 45.0002 21.888 44.4242 21.6L43.3442 21.024V19.8C43.3442 19.584 43.2002 19.44 42.9842 19.44C42.7682 19.44 42.6242 19.584 42.6242 19.8V21.024L41.5442 21.6C41.4002 21.672 41.2562 21.816 41.1122 21.888C41.1122 21.096 40.7522 20.376 40.1042 19.872L39.5282 19.44C39.3842 19.368 39.2402 19.368 39.0962 19.44L38.5202 19.872C38.3042 20.016 38.1602 20.232 38.0162 20.376C37.8002 19.944 37.5122 19.584 37.1522 19.368L36.0722 18.792V17.568C36.0722 17.352 35.9282 17.208 35.7122 17.208C35.4962 17.208 35.3522 17.352 35.3522 17.568V18.792L34.2722 19.368C33.8402 19.584 33.5522 19.944 33.4082 20.376C33.2642 20.16 33.1202 20.016 32.9042 19.872L32.3282 19.44C32.1842 19.368 32.0402 19.368 31.8962 19.44L31.3202 19.872C30.6722 20.304 30.3122 21.096 30.3122 21.888C30.1682 21.744 30.0962 21.672 29.8802 21.6L28.8002 21.024V19.8C28.8002 19.584 28.6562 19.44 28.4402 19.44C28.2242 19.44 28.0802 19.584 28.0802 19.8V21.024L27.0002 21.6C26.4242 21.96 26.0642 22.464 25.9202 23.112C25.8482 22.968 25.7042 22.896 25.5602 22.752L24.9842 22.32C24.8402 22.248 24.6962 22.248 24.5522 22.32L23.9762 22.752C23.3282 23.256 22.9682 23.976 22.9682 24.768V25.2L22.6802 24.912L22.1042 24.48C21.9602 24.408 21.8162 24.408 21.6722 24.48L21.0962 24.912C20.4482 25.416 20.0882 26.136 20.0882 26.928V29.088C19.9442 28.944 19.8722 28.872 19.7282 28.8L18.6482 28.224V27C18.6482 26.784 18.5042 26.64 18.2882 26.64C18.0722 26.64 17.9282 26.784 17.9282 27V28.224L16.8482 28.8C16.1282 29.16 15.7682 29.952 15.7682 30.744V32.472L15.4802 32.184L14.9042 31.752C14.7602 31.68 14.6162 31.68 14.4722 31.752L13.8962 32.184C13.2482 32.688 12.8882 33.408 12.8882 34.2V59.04H11.8082C11.5922 59.04 11.4482 59.184 11.4482 59.4C11.4482 59.616 11.5922 59.76 11.8082 59.76H59.3282C59.5442 59.76 59.6882 59.616 59.6882 59.4C59.6882 59.184 59.8322 59.04 59.6162 59.04ZM13.8962 39.24C13.8962 38.664 14.1842 38.16 14.6162 37.8L14.9762 37.512L15.3362 37.8C15.7682 38.16 16.0562 38.664 16.0562 39.24V42.552L15.7682 42.264L15.1922 41.832C15.0482 41.76 14.9042 41.76 14.7602 41.832L14.1842 42.264C14.1122 42.336 13.9682 42.408 13.8962 42.552V39.24ZM16.7762 33.624C16.7762 33.12 17.0642 32.616 17.4962 32.328L18.5762 31.752L19.6562 32.328C20.0882 32.616 20.3762 33.12 20.3762 33.624V37.08C20.2322 36.936 20.1602 36.864 20.0162 36.792L18.7922 36.072C18.6482 36 18.5762 36 18.4322 36.072L17.2082 36.792C17.0642 36.864 16.9202 37.008 16.8482 37.08V33.624H16.7762ZM16.7762 38.664C16.7762 38.16 17.0642 37.656 17.4962 37.368L18.5762 36.792L19.6562 37.368C20.0882 37.656 20.3762 38.16 20.3762 38.664V42.12C20.2322 41.976 20.1602 41.904 20.0162 41.832L18.7922 41.112C18.6482 41.04 18.5762 41.04 18.4322 41.112L17.2082 41.832C17.0642 41.904 16.9202 42.048 16.8482 42.12V38.664H16.7762ZM51.3362 43.704C51.3362 43.2 51.6242 42.696 52.0562 42.408L53.1362 41.832L54.2162 42.408C54.6482 42.696 54.9362 43.2 54.9362 43.704V47.52H51.3362V43.704ZM54.9362 39.24V42.12C54.7922 41.976 54.7202 41.904 54.5762 41.832L53.3522 41.112C53.2082 41.04 53.1362 41.04 52.9922 41.112L51.7682 41.832C51.6242 41.904 51.4802 42.048 51.4082 42.12V38.664C51.4082 38.16 51.6962 37.656 52.1282 37.368L53.2082 36.792L54.2882 37.368C54.7202 37.656 55.0082 38.16 55.0082 38.664V39.24H54.9362ZM50.6162 38.664V41.112L50.3282 40.824L49.7522 40.392C49.6082 40.32 49.4642 40.32 49.3202 40.392L48.7442 40.824C48.6722 40.896 48.5282 40.968 48.4562 41.112V37.8C48.4562 37.224 48.7442 36.72 49.1762 36.36L49.5362 36.072L49.8962 36.36C50.3282 36.72 50.6162 37.224 50.6162 37.8V38.664ZM47.7362 37.8V41.112L47.4482 40.824L46.8722 40.392C46.7282 40.32 46.5842 40.32 46.4402 40.392L45.8643 40.824C45.7922 40.896 45.6482 40.968 45.5762 41.112V37.08C45.5762 36.504 45.8642 36 46.2962 35.64L46.6562 35.352L47.0162 35.64C47.4482 36 47.7362 36.504 47.7362 37.08V37.8ZM41.2562 47.52V42.984C41.2562 42.48 41.5442 41.976 41.9762 41.688L43.0562 41.112L44.1362 41.688C44.5682 41.976 44.8562 42.48 44.8562 42.984V47.52H41.2562ZM44.8562 37.08V41.4C44.7122 41.256 44.6402 41.184 44.4962 41.112L43.2722 40.392C43.1282 40.32 43.0562 40.32 42.9122 40.392L41.6882 41.112C41.5442 41.184 41.4002 41.328 41.3282 41.4V36.504C41.3282 36 41.6162 35.496 42.0482 35.208L43.1282 34.632L44.2082 35.208C44.6402 35.496 44.9282 36 44.9282 36.504V37.08H44.8562ZM40.5362 36.504V41.112L40.2482 40.824L39.6722 40.392C39.5282 40.32 39.3842 40.32 39.2402 40.392L38.6642 40.824C38.5922 40.896 38.4482 40.968 38.3762 41.112V35.64C38.3762 35.064 38.6642 34.56 39.0962 34.2L39.4562 33.912L39.8162 34.2C40.2482 34.56 40.5362 35.064 40.5362 35.64V36.504ZM34.0562 47.52V42.984C34.0562 42.48 34.3442 41.976 34.7762 41.688L35.8562 41.112L36.9362 41.688C37.3682 41.976 37.6562 42.48 37.6562 42.984V47.52H34.0562ZM37.6562 39.672V41.4C37.5122 41.256 37.4402 41.184 37.2962 41.112L36.0722 40.392C35.9282 40.32 35.8562 40.32 35.7122 40.392L34.4882 41.112C34.3442 41.184 34.2002 41.328 34.1282 41.4V35.784C34.1282 35.28 34.4162 34.776 34.8482 34.488L35.9282 33.912L37.0082 34.488C37.4402 34.776 37.7282 35.28 37.7282 35.784V39.672H37.6562ZM33.3362 35.784V41.112L33.0482 40.824L32.4722 40.392C32.3282 40.32 32.1842 40.32 32.0402 40.392L31.4642 40.824C31.3922 40.896 31.2482 40.968 31.1762 41.112V35.64C31.1762 35.064 31.4642 34.56 31.8962 34.2L32.2562 33.912L32.6162 34.2C33.0482 34.56 33.3362 35.064 33.3362 35.64V35.784ZM26.8562 47.52V42.984C26.8562 42.48 27.1442 41.976 27.5762 41.688L28.6562 41.112L29.7362 41.688C30.1682 41.976 30.4562 42.48 30.4562 42.984V47.52H26.8562ZM30.4562 40.392V41.4C30.3122 41.256 30.2402 41.184 30.0962 41.112L28.8722 40.392C28.7282 40.32 28.6562 40.32 28.5122 40.392L27.2882 41.112C27.1442 41.184 27.0002 41.328 26.9282 41.4V36.504C26.9282 36 27.2162 35.496 27.6482 35.208L28.7282 34.632L29.8082 35.208C30.2402 35.496 30.5282 36 30.5282 36.504V40.392H30.4562ZM26.1362 40.392V41.112L25.8482 40.824L25.2722 40.392C25.1282 40.32 24.9842 40.32 24.8402 40.392L24.2642 40.824C24.1922 40.896 24.0482 40.968 23.9762 41.112V37.08C23.9762 36.504 24.2642 36 24.6962 35.64L25.0562 35.352L25.4162 35.64C25.8482 36 26.1362 36.504 26.1362 37.08V40.392ZM23.2562 41.112L22.9682 40.824L22.3922 40.392C22.2482 40.32 22.1042 40.32 21.9602 40.392L21.3842 40.824C21.3122 40.896 21.1682 40.968 21.0962 41.112V37.8C21.0962 37.224 21.3842 36.72 21.8162 36.36L22.1762 36.072L22.5362 36.36C22.9682 36.72 23.2562 37.224 23.2562 37.8V41.112ZM16.7762 44.28V43.704C16.7762 43.2 17.0642 42.696 17.4962 42.408L18.5762 41.832L19.6562 42.408C20.0882 42.696 20.3762 43.2 20.3762 43.704V47.52H16.7762V44.28ZM16.7762 49.32V48.24H20.3762V50.472C20.1602 50.4 20.0162 50.4 19.8002 50.4C19.5842 49.968 19.0802 49.68 18.5762 49.68C18.0722 49.68 17.5682 49.968 17.3522 50.4C17.1362 50.328 16.9922 50.4 16.7762 50.472V49.32ZM21.0962 43.704V42.84C21.0962 42.264 21.3842 41.76 21.8162 41.4L22.1762 41.112L22.5362 41.4C22.9682 41.76 23.2562 42.264 23.2562 42.84V47.52H21.0962V43.704ZM23.9762 42.84C23.9762 42.264 24.2642 41.76 24.6962 41.4L25.0562 41.112L25.4162 41.4C25.8482 41.76 26.1362 42.264 26.1362 42.84V47.52H23.9762V42.84ZM26.8562 48.24H30.4562V50.472C30.2402 50.4 30.0962 50.4 29.8802 50.4C29.6642 49.968 29.1602 49.68 28.6562 49.68C28.1522 49.68 27.6482 49.968 27.4322 50.4C27.2162 50.328 27.0722 50.4 26.8562 50.472V48.24ZM31.1762 46.872V42.84C31.1762 42.264 31.4642 41.76 31.8962 41.4L32.2562 41.112L32.6162 41.4C33.0482 41.76 33.3362 42.264 33.3362 42.84V47.52H31.1762V46.872ZM34.0562 48.24H37.6562V50.472C37.4402 50.4 37.2962 50.4 37.0802 50.4C36.8642 49.968 36.3602 49.68 35.8562 49.68C35.3522 49.68 34.8482 49.968 34.6322 50.4C34.4162 50.328 34.2722 50.4 34.0562 50.472V48.24ZM38.3762 46.872V42.84C38.3762 42.264 38.6642 41.76 39.0962 41.4L39.4562 41.112L39.8162 41.4C40.2482 41.76 40.5362 42.264 40.5362 42.84V47.52H38.3762V46.872ZM41.2562 48.24H44.8562V50.472C44.6402 50.4 44.4962 50.4 44.2802 50.4C44.0642 49.968 43.5602 49.68 43.0562 49.68C42.5522 49.68 42.0482 49.968 41.8322 50.4C41.6162 50.328 41.4722 50.4 41.2562 50.472V48.24ZM45.5762 46.872V42.84C45.5762 42.264 45.8642 41.76 46.2962 41.4L46.6562 41.112L47.0162 41.4C47.4482 41.76 47.7362 42.264 47.7362 42.84V47.52H45.5762V46.872ZM48.4562 42.84C48.4562 42.264 48.7442 41.76 49.1762 41.4L49.5362 41.112L49.8962 41.4C50.3282 41.76 50.6162 42.264 50.6162 42.84V47.52H48.4562V42.84ZM51.3362 48.24H54.9362V50.472C54.7202 50.4 54.5762 50.4 54.3602 50.4C54.1442 49.968 53.6402 49.68 53.1362 49.68C52.6322 49.68 52.1282 49.968 51.9122 50.4C51.6962 50.328 51.5522 50.4 51.3362 50.472V48.24ZM55.6562 44.28C55.6562 43.704 55.9442 43.2 56.3762 42.84L56.7362 42.552L57.0962 42.84C57.5282 43.2 57.8162 43.704 57.8162 44.28V47.52H55.6562V44.28ZM57.8162 42.552L57.5282 42.264L56.9522 41.832C56.8082 41.76 56.6642 41.76 56.5202 41.832L55.9442 42.264C55.8722 42.336 55.7282 42.408 55.6562 42.552V39.24C55.6562 38.664 55.9442 38.16 56.3762 37.8L56.7362 37.512L57.0962 37.8C57.5282 38.16 57.8162 38.664 57.8162 39.24V42.552ZM54.9362 34.2V37.08C54.7922 36.936 54.7202 36.864 54.5762 36.792L53.3522 36.072C53.2082 36 53.1362 36 52.9922 36.072L51.7682 36.792C51.6242 36.864 51.4802 37.008 51.4082 37.08V33.624C51.4082 33.12 51.6962 32.616 52.1282 32.328L53.2082 31.752L54.2882 32.328C54.7202 32.616 55.0082 33.12 55.0082 33.624V34.2H54.9362ZM50.6162 33.624V36.072L50.3282 35.784L49.7522 35.352C49.6082 35.28 49.4642 35.28 49.3202 35.352L48.7442 35.784C48.6722 35.856 48.5282 35.928 48.4562 36.072V32.04C48.4562 31.464 48.7442 30.96 49.1762 30.6L49.5362 30.312L49.8962 30.6C50.3282 30.96 50.6162 31.464 50.6162 32.04V33.624ZM47.7362 32.04V35.352L47.4482 35.064L46.8722 34.632C46.7282 34.56 46.5842 34.56 46.4402 34.632L45.8643 35.064C45.7922 35.136 45.6482 35.208 45.5762 35.352V31.32C45.5762 30.744 45.8642 30.24 46.2962 29.88L46.6562 29.592L47.0162 29.88C47.4482 30.24 47.7362 30.744 47.7362 31.32V32.04ZM44.8562 31.32V34.92C44.7122 34.776 44.6402 34.704 44.4962 34.632L43.2722 33.912C43.1282 33.84 43.0562 33.84 42.9122 33.912L41.6882 34.632C41.5442 34.704 41.4002 34.848 41.3282 34.92V30.024C41.3282 29.52 41.6162 29.016 42.0482 28.728L43.1282 28.152L44.2082 28.728C44.6402 29.016 44.9282 29.52 44.9282 30.024V31.32H44.8562ZM40.5362 29.88V33.912L40.2482 33.624L39.6722 33.192C39.5282 33.12 39.3842 33.12 39.2402 33.192L38.6642 33.624C38.5922 33.696 38.4482 33.768 38.3762 33.912V29.16C38.3762 28.584 38.6642 28.08 39.0962 27.72L39.4562 27.432L39.8162 27.72C40.2482 28.08 40.5362 28.584 40.5362 29.16V29.88ZM37.6562 29.16V34.2C37.5122 34.056 37.4402 33.984 37.2962 33.912L36.0722 33.192C35.9282 33.12 35.8562 33.12 35.7122 33.192L34.4882 33.912C34.3442 33.984 34.2002 34.128 34.1282 34.2V28.584C34.1282 28.08 34.4162 27.576 34.8482 27.288L35.9282 26.712L37.0082 27.288C37.4402 27.576 37.7282 28.08 37.7282 28.584V29.16H37.6562ZM33.3362 32.472V33.912L33.0482 33.624L32.4722 33.192C32.3282 33.12 32.1842 33.12 32.0402 33.192L31.4642 33.624C31.3922 33.696 31.2482 33.768 31.1762 33.912V29.16C31.1762 28.584 31.4642 28.08 31.8962 27.72L32.2562 27.432L32.6162 27.72C33.0482 28.08 33.3362 28.584 33.3362 29.16V32.472ZM30.4562 33.912V34.92C30.3122 34.776 30.2402 34.704 30.0962 34.632L28.8722 33.912C28.7282 33.84 28.6562 33.84 28.5122 33.912L27.2882 34.632C27.1442 34.704 27.0002 34.848 26.9282 34.92V30.024C26.9282 29.52 27.2162 29.016 27.6482 28.728L28.7282 28.152L29.8082 28.728C30.2402 29.016 30.5282 29.52 30.5282 30.024V33.912H30.4562ZM26.1362 33.912V35.352L25.8482 35.064L25.2722 34.632C25.1282 34.56 24.9842 34.56 24.8402 34.632L24.2642 35.064C24.1922 35.136 24.0482 35.208 23.9762 35.352V31.32C23.9762 30.744 24.2642 30.24 24.6962 29.88L25.0562 29.592L25.4162 29.88C25.8482 30.24 26.1362 30.744 26.1362 31.32V33.912ZM23.2562 36.072L22.9682 35.784L22.3922 35.352C22.2482 35.28 22.1042 35.28 21.9602 35.352L21.3842 35.784C21.3122 35.856 21.1682 35.928 21.0962 36.072V32.04C21.0962 31.464 21.3842 30.96 21.8162 30.6L22.1762 30.312L22.5362 30.6C22.9682 30.96 23.2562 31.464 23.2562 32.04V36.072ZM13.8962 44.28C13.8962 43.704 14.1842 43.2 14.6162 42.84L14.9762 42.552L15.3362 42.84C15.7682 43.2 16.0562 43.704 16.0562 44.28V47.52H13.8962V44.28ZM16.7762 59.04V51.48C16.7762 51.264 16.9202 51.12 17.1362 51.12C17.2082 51.12 17.2802 51.12 17.3522 51.192C17.4242 51.264 17.5682 51.264 17.7122 51.192C17.8562 51.12 17.9282 51.048 17.9282 50.904C18.0002 50.544 18.2882 50.328 18.6482 50.328C19.0082 50.328 19.2962 50.544 19.3682 50.904C19.3682 51.048 19.4402 51.12 19.5842 51.192C19.7282 51.264 19.8002 51.192 19.9442 51.192C20.0162 51.12 20.0882 51.12 20.1602 51.12C20.3762 51.12 20.5202 51.264 20.5202 51.48V59.04H16.7762ZM21.0962 59.04V48.24H23.2562V59.04H21.0962ZM23.9762 59.04V48.24H26.1362V59.04H23.9762ZM26.8562 59.04V51.48C26.8562 51.264 27.0002 51.12 27.2162 51.12C27.2882 51.12 27.3602 51.12 27.4322 51.192C27.5042 51.264 27.6482 51.264 27.7922 51.192C27.9362 51.12 28.0082 51.048 28.0082 50.904C28.0802 50.544 28.3682 50.328 28.7282 50.328C29.0882 50.328 29.3762 50.544 29.4482 50.904C29.4482 51.048 29.5202 51.12 29.6642 51.192C29.7362 51.264 29.8802 51.192 30.0242 51.192C30.0962 51.12 30.1682 51.12 30.2402 51.12C30.4562 51.12 30.6002 51.264 30.6002 51.48V59.04H26.8562ZM31.1762 59.04V48.24H33.3362V59.04H31.1762ZM34.0562 59.04V51.48C34.0562 51.264 34.2002 51.12 34.4162 51.12C34.4882 51.12 34.5602 51.12 34.6322 51.192C34.7042 51.264 34.8482 51.264 34.9922 51.192C35.1362 51.12 35.2082 51.048 35.2082 50.904C35.2802 50.544 35.5682 50.328 35.9282 50.328C36.2882 50.328 36.5762 50.544 36.6482 50.904C36.6482 51.048 36.7202 51.12 36.8642 51.192C36.9362 51.264 37.0802 51.192 37.2242 51.192C37.2962 51.12 37.3682 51.12 37.4402 51.12C37.6562 51.12 37.8002 51.264 37.8002 51.48V59.04H34.0562ZM38.3762 59.04V48.24H40.5362V59.04H38.3762ZM41.2562 59.04V51.48C41.2562 51.264 41.4002 51.12 41.6162 51.12C41.6882 51.12 41.7602 51.12 41.8322 51.192C41.9042 51.264 42.0482 51.264 42.1922 51.192C42.3362 51.12 42.4082 51.048 42.4082 50.904C42.4802 50.544 42.7682 50.328 43.1282 50.328C43.4882 50.328 43.7762 50.544 43.8482 50.904C43.8482 51.048 43.9202 51.12 44.0642 51.192C44.1362 51.264 44.2802 51.192 44.4242 51.192C44.4963 51.12 44.5682 51.12 44.6402 51.12C44.8562 51.12 45.0002 51.264 45.0002 51.48V59.04H41.2562ZM45.5762 59.04V48.24H47.7362V59.04H45.5762ZM48.4562 59.04V48.24H50.6162V59.04H48.4562ZM51.3362 59.04V51.48C51.3362 51.264 51.4802 51.12 51.6962 51.12C51.7682 51.12 51.8402 51.12 51.9122 51.192C51.9842 51.264 52.1282 51.264 52.2722 51.192C52.4162 51.12 52.4882 51.048 52.4882 50.904C52.5602 50.544 52.8482 50.328 53.2082 50.328C53.5682 50.328 53.8562 50.544 53.9282 50.904C53.9282 51.048 54.0002 51.12 54.1442 51.192C54.2162 51.264 54.3602 51.192 54.5042 51.192C54.5762 51.12 54.6482 51.12 54.7202 51.12C54.9362 51.12 55.0802 51.264 55.0802 51.48V59.04H51.3362ZM55.6562 59.04V48.24H57.8162V59.04H55.6562ZM56.3762 32.76L56.7362 32.472L57.0962 32.76C57.5282 33.12 57.8162 33.624 57.8162 34.2V37.512L57.5282 37.224L56.9522 36.792C56.8082 36.72 56.6642 36.72 56.5202 36.792L55.9442 37.224C55.8722 37.296 55.7282 37.368 55.6562 37.512V34.2C55.6562 33.624 55.9442 33.12 56.3762 32.76ZM52.0562 29.448L53.1362 28.872L54.2162 29.448C54.6482 29.736 54.9362 30.24 54.9362 30.744V32.04C54.7922 31.896 54.7202 31.824 54.5762 31.752L53.3522 31.032C53.2082 30.96 53.1362 30.96 52.9922 31.032L51.7682 31.752C51.6242 31.824 51.4802 31.968 51.4082 32.04V30.744C51.3362 30.24 51.6242 29.736 52.0562 29.448ZM49.1762 25.56L49.5362 25.272L49.8962 25.56C50.3282 25.92 50.6162 26.424 50.6162 27V30.312L50.3282 30.024L49.7522 29.592C49.6082 29.52 49.4642 29.52 49.3202 29.592L48.7442 30.024C48.6722 30.096 48.5282 30.168 48.4562 30.312V27C48.4562 26.424 48.7442 25.92 49.1762 25.56ZM46.2962 23.4L46.6562 23.112L47.0162 23.4C47.4482 23.76 47.7362 24.264 47.7362 24.84V29.592L47.4482 29.304L46.8722 28.872C46.7282 28.8 46.5842 28.8 46.4402 28.872L45.8643 29.304C45.7922 29.376 45.6482 29.448 45.5762 29.592V24.84C45.5762 24.264 45.8642 23.76 46.2962 23.4ZM41.9762 22.248L43.0562 21.672L44.1362 22.248C44.5682 22.536 44.8562 23.04 44.8562 23.544V28.44C44.7122 28.296 44.6402 28.224 44.4962 28.152L43.2722 27.432C43.1282 27.36 43.0562 27.36 42.9122 27.432L41.6882 28.152C41.5442 28.224 41.4002 28.368 41.3282 28.44V23.544C41.2562 23.04 41.5442 22.536 41.9762 22.248ZM39.0962 20.52L39.4562 20.232L39.8162 20.52C40.2482 20.88 40.5362 21.384 40.5362 21.96V27.432L40.2482 27.144L39.6722 26.712C39.5282 26.64 39.3842 26.64 39.2402 26.712L38.6642 27.144C38.5922 27.216 38.4482 27.288 38.3762 27.432V21.96C38.3762 21.384 38.6642 20.88 39.0962 20.52ZM34.0562 21.384C34.0562 20.88 34.3442 20.376 34.7762 20.088L35.8562 19.512L36.9362 20.088C37.3682 20.376 37.6562 20.88 37.6562 21.384V27C37.5122 26.856 37.4402 26.784 37.2962 26.712L36.0722 25.992C35.9282 25.92 35.8562 25.92 35.7122 25.992L34.4882 26.712C34.3442 26.784 34.2002 26.928 34.1282 27V21.384H34.0562ZM31.1762 21.96C31.1762 21.384 31.4642 20.88 31.8962 20.52L32.2562 20.232L32.6162 20.52C33.0482 20.88 33.3362 21.384 33.3362 21.96V27.432L33.0482 27.144L32.4722 26.712C32.3282 26.64 32.1842 26.64 32.0402 26.712L31.4642 27.144C31.3922 27.216 31.2482 27.288 31.1762 27.432V21.96ZM26.8562 23.544C26.8562 23.04 27.1442 22.536 27.5762 22.248L28.6562 21.672L29.7362 22.248C30.1682 22.536 30.4562 23.04 30.4562 23.544V28.44C30.3122 28.296 30.2402 28.224 30.0962 28.152L28.8722 27.432C28.7282 27.36 28.6562 27.36 28.5122 27.432L27.2882 28.152C27.1442 28.224 27.0002 28.368 26.9282 28.44V23.544H26.8562ZM23.9762 24.84C23.9762 24.264 24.2642 23.76 24.6962 23.4L25.0562 23.112L25.4162 23.4C25.8482 23.76 26.1362 24.264 26.1362 24.84V29.592L25.8482 29.304L25.2722 28.872C25.1282 28.8 24.9842 28.8 24.8402 28.872L24.2642 29.304C24.1922 29.376 24.0482 29.448 23.9762 29.592V24.84ZM21.8162 25.56L22.1762 25.272L22.5362 25.56C22.9682 25.92 23.2562 26.424 23.2562 27V30.312L22.9682 30.024L22.3922 29.592C22.2482 29.52 22.1042 29.52 21.9602 29.592L21.3842 30.024C21.3122 30.096 21.1682 30.168 21.0962 30.312V27C21.0962 26.424 21.3842 25.92 21.8162 25.56ZM17.4962 29.448L18.5762 28.872L19.6562 29.448C20.0882 29.736 20.3762 30.24 20.3762 30.744V32.04C20.2322 31.896 20.1602 31.824 20.0162 31.752L18.7922 31.032C18.6482 30.96 18.5762 30.96 18.4322 31.032L17.2082 31.752C17.0642 31.824 16.9202 31.968 16.8482 32.04V30.744C16.7762 30.24 17.0642 29.736 17.4962 29.448ZM14.6162 32.76L14.9762 32.472L15.3362 32.76C15.7682 33.12 16.0562 33.624 16.0562 34.2V37.512L15.7682 37.224L15.1922 36.792C15.0482 36.72 14.9042 36.72 14.7602 36.792L14.1842 37.224C14.1122 37.296 13.9682 37.368 13.8962 37.512V34.2C13.8962 33.624 14.1842 33.12 14.6162 32.76ZM13.8962 49.32V48.24H16.0562V59.04H13.8962V49.32Z" fill="#27357E"/>
<path d="M17.8562 35.28H19.2962C19.5122 35.28 19.6562 35.136 19.6562 34.92V33.552C19.6562 33.192 19.4402 32.904 19.1522 32.688L18.7202 32.472C18.5762 32.4 18.5042 32.4 18.3602 32.472L18.0002 32.688C17.7122 32.832 17.4962 33.192 17.4962 33.552V34.92C17.4962 35.136 17.6402 35.28 17.8562 35.28ZM18.2162 33.552C18.2162 33.48 18.2882 33.408 18.3602 33.336L18.5762 33.192L18.7922 33.336C18.8642 33.408 18.9362 33.48 18.9362 33.552V34.56H18.2162V33.552ZM36.4322 42.048L36.0002 41.832C35.8562 41.76 35.7842 41.76 35.6402 41.832L35.2802 42.048C34.9922 42.192 34.7762 42.552 34.7762 42.912V44.28C34.7762 44.496 34.9202 44.64 35.1362 44.64H36.5762C36.7922 44.64 36.9362 44.496 36.9362 44.28V42.912C36.9362 42.552 36.7202 42.192 36.4322 42.048ZM36.2162 43.92H35.4962V42.912C35.4962 42.84 35.5682 42.768 35.6402 42.696L35.8562 42.552L36.0722 42.696C36.1442 42.768 36.2162 42.84 36.2162 42.912V43.92ZM36.4322 27.648L36.0002 27.432C35.8562 27.36 35.7842 27.36 35.6402 27.432L35.2802 27.648C34.9922 27.792 34.7762 28.152 34.7762 28.512V29.88C34.7762 30.096 34.9202 30.24 35.1362 30.24H36.5762C36.7922 30.24 36.9362 30.096 36.9362 29.88V28.512C36.9362 28.152 36.7202 27.792 36.4322 27.648ZM36.2162 29.52H35.4962V28.512C35.4962 28.44 35.5682 28.368 35.6402 28.296L35.8562 28.152L36.0722 28.296C36.1442 28.368 36.2162 28.44 36.2162 28.512V29.52ZM35.1362 23.04H36.5762C36.7922 23.04 36.9362 22.896 36.9362 22.68V21.312C36.9362 20.952 36.7202 20.664 36.4322 20.448L36.0002 20.232C35.8562 20.16 35.7842 20.16 35.6402 20.232L35.2802 20.448C34.9922 20.592 34.7762 20.952 34.7762 21.312V22.68C34.7762 22.896 34.9202 23.04 35.1362 23.04ZM35.4962 21.312C35.4962 21.24 35.5682 21.168 35.6402 21.096L35.8562 20.952L36.0722 21.096C36.1442 21.168 36.2162 21.24 36.2162 21.312V22.32H35.4962V21.312ZM42.3362 25.2H43.7762C43.9922 25.2 44.1362 25.056 44.1362 24.84V23.472C44.1362 23.112 43.9202 22.824 43.6322 22.608L43.2002 22.392C43.0562 22.32 42.9842 22.32 42.8402 22.392L42.4802 22.608C42.1922 22.752 41.9762 23.112 41.9762 23.472V24.84C41.9762 25.056 42.1202 25.2 42.3362 25.2ZM42.6962 23.472C42.6962 23.4 42.7682 23.328 42.8402 23.256L43.0562 23.112L43.2722 23.256C43.3442 23.328 43.4162 23.4 43.4162 23.472V24.48H42.6962V23.472ZM43.6322 29.088L43.2002 28.872C43.0562 28.8 42.9842 28.8 42.8402 28.872L42.4802 29.088C42.1922 29.232 41.9762 29.592 41.9762 29.952V31.32C41.9762 31.536 42.1202 31.68 42.3362 31.68H43.7762C43.9922 31.68 44.1362 31.536 44.1362 31.32V29.952C44.1362 29.592 43.9202 29.232 43.6322 29.088ZM43.4162 30.96H42.6962V29.952C42.6962 29.88 42.7682 29.808 42.8402 29.736L43.0562 29.592L43.2722 29.736C43.3442 29.808 43.4162 29.88 43.4162 29.952V30.96ZM43.6322 42.048L43.2002 41.832C43.0562 41.76 42.9842 41.76 42.8402 41.832L42.4802 42.048C42.1922 42.192 41.9762 42.552 41.9762 42.912V44.28C41.9762 44.496 42.1202 44.64 42.3362 44.64H43.7762C43.9922 44.64 44.1362 44.496 44.1362 44.28V42.912C44.1362 42.552 43.9202 42.192 43.6322 42.048ZM43.4162 43.92H42.6962V42.912C42.6962 42.84 42.7682 42.768 42.8402 42.696L43.0562 42.552L43.2722 42.696C43.3442 42.768 43.4162 42.84 43.4162 42.912V43.92ZM27.9362 25.2H29.3762C29.5922 25.2 29.7362 25.056 29.7362 24.84V23.472C29.7362 23.112 29.5202 22.824 29.2322 22.608L28.8002 22.392C28.6562 22.32 28.5842 22.32 28.4402 22.392L28.0802 22.608C27.7922 22.752 27.5762 23.112 27.5762 23.472V24.84C27.5762 25.056 27.7202 25.2 27.9362 25.2ZM28.2962 23.472C28.2962 23.4 28.3682 23.328 28.4402 23.256L28.6562 23.112L28.8722 23.256C28.9442 23.328 29.0162 23.4 29.0162 23.472V24.48H28.2962V23.472ZM29.2322 29.088L28.8002 28.872C28.6562 28.8 28.5842 28.8 28.4402 28.872L28.0802 29.088C27.7922 29.232 27.5762 29.592 27.5762 29.952V31.32C27.5762 31.536 27.7202 31.68 27.9362 31.68H29.3762C29.5922 31.68 29.7362 31.536 29.7362 31.32V29.952C29.7362 29.592 29.5202 29.232 29.2322 29.088ZM29.0162 30.96H28.2962V29.952C28.2962 29.88 28.3682 29.808 28.4402 29.736L28.6562 29.592L28.8722 29.736C28.9442 29.808 29.0162 29.88 29.0162 29.952V30.96ZM29.2322 42.048L28.8002 41.832C28.6562 41.76 28.5842 41.76 28.4402 41.832L28.0802 42.048C27.7922 42.192 27.5762 42.552 27.5762 42.912V44.28C27.5762 44.496 27.7202 44.64 27.9362 44.64H29.3762C29.5922 44.64 29.7362 44.496 29.7362 44.28V42.912C29.7362 42.552 29.5202 42.192 29.2322 42.048ZM29.0162 43.92H28.2962V42.912C28.2962 42.84 28.3682 42.768 28.4402 42.696L28.6562 42.552L28.8722 42.696C28.9442 42.768 29.0162 42.84 29.0162 42.912V43.92ZM53.7122 42.768L53.2802 42.552C53.1362 42.48 53.0642 42.48 52.9202 42.552L52.5602 42.768C52.2722 42.912 52.0562 43.272 52.0562 43.632V45C52.0562 45.216 52.2002 45.36 52.4162 45.36H53.8562C54.0722 45.36 54.2162 45.216 54.2162 45V43.632C54.2162 43.272 54.0002 42.912 53.7122 42.768ZM53.4962 44.64H52.7762V43.632C52.7762 43.56 52.8482 43.488 52.9202 43.416L53.1362 43.272L53.3522 43.416C53.4242 43.488 53.4962 43.56 53.4962 43.632V44.64ZM53.7122 32.688L53.2802 32.472C53.1362 32.4 53.0642 32.4 52.9202 32.472L52.5602 32.688C52.2722 32.832 52.0562 33.192 52.0562 33.552V34.92C52.0562 35.136 52.2002 35.28 52.4162 35.28H53.8562C54.0722 35.28 54.2162 35.136 54.2162 34.92V33.552C54.2162 33.192 54.0002 32.832 53.7122 32.688ZM53.4962 34.56H52.7762V33.552C52.7762 33.48 52.8482 33.408 52.9202 33.336L53.1362 33.192L53.3522 33.336C53.4242 33.408 53.4962 33.48 53.4962 33.552V34.56ZM29.3762 52.56H27.9362C27.7202 52.56 27.5762 52.704 27.5762 52.92V55.8C27.5762 56.016 27.7202 56.16 27.9362 56.16H29.3762C29.5922 56.16 29.7362 56.016 29.7362 55.8V52.92C29.7362 52.704 29.5922 52.56 29.3762 52.56ZM29.0162 55.44H28.2962V53.28H29.0162V55.44ZM19.2962 52.56H17.8562C17.6402 52.56 17.4962 52.704 17.4962 52.92V55.8C17.4962 56.016 17.6402 56.16 17.8562 56.16H19.2962C19.5122 56.16 19.6562 56.016 19.6562 55.8V52.92C19.6562 52.704 19.5122 52.56 19.2962 52.56ZM18.9362 55.44H18.2162V53.28H18.9362V55.44ZM36.5762 52.56H35.1362C34.9202 52.56 34.7762 52.704 34.7762 52.92V55.8C34.7762 56.016 34.9202 56.16 35.1362 56.16H36.5762C36.7922 56.16 36.9362 56.016 36.9362 55.8V52.92C36.9362 52.704 36.7922 52.56 36.5762 52.56ZM36.2162 55.44H35.4962V53.28H36.2162V55.44ZM43.7762 52.56H42.3362C42.1202 52.56 41.9762 52.704 41.9762 52.92V55.8C41.9762 56.016 42.1202 56.16 42.3362 56.16H43.7762C43.9922 56.16 44.1362 56.016 44.1362 55.8V52.92C44.1362 52.704 43.9922 52.56 43.7762 52.56ZM43.4162 55.44H42.6962V53.28H43.4162V55.44ZM53.8562 52.56H52.4162C52.2002 52.56 52.0562 52.704 52.0562 52.92V55.8C52.0562 56.016 52.2002 56.16 52.4162 56.16H53.8562C54.0722 56.16 54.2162 56.016 54.2162 55.8V52.92C54.2162 52.704 54.0722 52.56 53.8562 52.56ZM53.4962 55.44H52.7762V53.28H53.4962V55.44ZM19.1522 42.768L18.7202 42.552C18.5762 42.48 18.5042 42.48 18.3602 42.552L18.0002 42.768C17.7122 42.912 17.4962 43.272 17.4962 43.632V45C17.4962 45.216 17.6402 45.36 17.8562 45.36H19.2962C19.5122 45.36 19.6562 45.216 19.6562 45V43.632C19.6562 43.272 19.4402 42.912 19.1522 42.768ZM18.9362 44.64H18.2162V43.632C18.2162 43.56 18.2882 43.488 18.3602 43.416L18.5762 43.272L18.7922 43.416C18.8642 43.488 18.9362 43.56 18.9362 43.632V44.64ZM17.8562 40.32H19.2962C19.5122 40.32 19.6562 40.176 19.6562 39.96V38.592C19.6562 38.232 19.4402 37.944 19.1522 37.728L18.7202 37.512C18.5762 37.44 18.5042 37.44 18.3602 37.512L18.0002 37.728C17.7122 37.872 17.4962 38.232 17.4962 38.592V39.96C17.4962 40.176 17.6402 40.32 17.8562 40.32ZM18.2162 38.592C18.2162 38.52 18.2882 38.448 18.3602 38.376L18.5762 38.232L18.7922 38.376C18.8642 38.448 18.9362 38.52 18.9362 38.592V39.6H18.2162V38.592ZM36.4322 34.848L36.0002 34.632C35.8562 34.56 35.7842 34.56 35.6402 34.632L35.2802 34.848C34.9922 34.992 34.7762 35.352 34.7762 35.712V37.08C34.7762 37.296 34.9202 37.44 35.1362 37.44H36.5762C36.7922 37.44 36.9362 37.296 36.9362 37.08V35.712C36.9362 35.352 36.7202 34.992 36.4322 34.848ZM36.2162 36.72H35.4962V35.712C35.4962 35.64 35.5682 35.568 35.6402 35.496L35.8562 35.352L36.0722 35.496C36.1442 35.568 36.2162 35.64 36.2162 35.712V36.72ZM43.6322 35.568L43.2002 35.352C43.0562 35.28 42.9842 35.28 42.8402 35.352L42.4802 35.568C42.1922 35.712 41.9762 36.072 41.9762 36.432V37.8C41.9762 38.016 42.1202 38.16 42.3362 38.16H43.7762C43.9922 38.16 44.1362 38.016 44.1362 37.8V36.432C44.1362 36.072 43.9202 35.712 43.6322 35.568ZM43.4162 37.44H42.6962V36.432C42.6962 36.36 42.7682 36.288 42.8402 36.216L43.0562 36.072L43.2722 36.216C43.3442 36.288 43.4162 36.36 43.4162 36.432V37.44ZM29.2322 35.568L28.8002 35.352C28.6562 35.28 28.5842 35.28 28.4402 35.352L28.0802 35.568C27.7922 35.712 27.5762 36.072 27.5762 36.432V37.8C27.5762 38.016 27.7202 38.16 27.9362 38.16H29.3762C29.5922 38.16 29.7362 38.016 29.7362 37.8V36.432C29.7362 36.072 29.5202 35.712 29.2322 35.568ZM29.0162 37.44H28.2962V36.432C28.2962 36.36 28.3682 36.288 28.4402 36.216L28.6562 36.072L28.8722 36.216C28.9442 36.288 29.0162 36.36 29.0162 36.432V37.44ZM53.7122 37.728L53.2802 37.512C53.1362 37.44 53.0642 37.44 52.9202 37.512L52.5602 37.728C52.2722 37.872 52.0562 38.232 52.0562 38.592V39.96C52.0562 40.176 52.2002 40.32 52.4162 40.32H53.8562C54.0722 40.32 54.2162 40.176 54.2162 39.96V38.592C54.2162 38.232 54.0002 37.872 53.7122 37.728ZM53.4962 39.6H52.7762V38.592C52.7762 38.52 52.8482 38.448 52.9202 38.376L53.1362 38.232L53.3522 38.376C53.4242 38.448 53.4962 38.52 53.4962 38.592V39.6ZM39.4562 28.8C39.2402 28.8 39.0962 28.944 39.0962 29.16V32.04C39.0962 32.256 39.2402 32.4 39.4562 32.4C39.6722 32.4 39.8162 32.256 39.8162 32.04V29.16C39.8162 28.944 39.6722 28.8 39.4562 28.8ZM39.4562 35.28C39.2402 35.28 39.0962 35.424 39.0962 35.64V39.24C39.0962 39.456 39.2402 39.6 39.4562 39.6C39.6722 39.6 39.8162 39.456 39.8162 39.24V35.64C39.8162 35.424 39.6722 35.28 39.4562 35.28ZM32.2562 28.8C32.0402 28.8 31.8962 28.944 31.8962 29.16V32.04C31.8962 32.256 32.0402 32.4 32.2562 32.4C32.4722 32.4 32.6162 32.256 32.6162 32.04V29.16C32.6162 28.944 32.4722 28.8 32.2562 28.8ZM39.4562 25.92C39.6722 25.92 39.8162 25.776 39.8162 25.56V21.96C39.8162 21.744 39.6722 21.6 39.4562 21.6C39.2402 21.6 39.0962 21.744 39.0962 21.96V25.56C39.0962 25.776 39.2402 25.92 39.4562 25.92ZM32.2562 25.92C32.4722 25.92 32.6162 25.776 32.6162 25.56V21.96C32.6162 21.744 32.4722 21.6 32.2562 21.6C32.0402 21.6 31.8962 21.744 31.8962 21.96V25.56C31.8962 25.776 32.0402 25.92 32.2562 25.92ZM32.2562 35.28C32.0402 35.28 31.8962 35.424 31.8962 35.64V39.24C31.8962 39.456 32.0402 39.6 32.2562 39.6C32.4722 39.6 32.6162 39.456 32.6162 39.24V35.64C32.6162 35.424 32.4722 35.28 32.2562 35.28ZM25.0562 30.96C24.8402 30.96 24.6962 31.104 24.6962 31.32V33.48C24.6962 33.696 24.8402 33.84 25.0562 33.84C25.2722 33.84 25.4162 33.696 25.4162 33.48V31.32C25.4162 31.104 25.2722 30.96 25.0562 30.96ZM25.0562 36.72C24.8402 36.72 24.6962 36.864 24.6962 37.08V39.24C24.6962 39.456 24.8402 39.6 25.0562 39.6C25.2722 39.6 25.4162 39.456 25.4162 39.24V37.08C25.4162 36.864 25.2722 36.72 25.0562 36.72ZM22.1762 31.68C21.9602 31.68 21.8162 31.824 21.8162 32.04V34.2C21.8162 34.416 21.9602 34.56 22.1762 34.56C22.3922 34.56 22.5362 34.416 22.5362 34.2V32.04C22.5362 31.824 22.3922 31.68 22.1762 31.68ZM25.0562 28.08C25.2722 28.08 25.4162 27.936 25.4162 27.72V24.84C25.4162 24.624 25.2722 24.48 25.0562 24.48C24.8402 24.48 24.6962 24.624 24.6962 24.84V27.72C24.6962 27.936 24.8402 28.08 25.0562 28.08ZM22.1762 28.8C22.3922 28.8 22.5362 28.656 22.5362 28.44V27C22.5362 26.784 22.3922 26.64 22.1762 26.64C21.9602 26.64 21.8162 26.784 21.8162 27V28.44C21.8162 28.656 21.9602 28.8 22.1762 28.8ZM22.1762 37.44C21.9602 37.44 21.8162 37.584 21.8162 37.8V39.24C21.8162 39.456 21.9602 39.6 22.1762 39.6C22.3922 39.6 22.5362 39.456 22.5362 39.24V37.8C22.5362 37.584 22.3922 37.44 22.1762 37.44ZM14.9762 36C15.1922 36 15.3362 35.856 15.3362 35.64V34.2C15.3362 33.984 15.1922 33.84 14.9762 33.84C14.7602 33.84 14.6162 33.984 14.6162 34.2V35.64C14.6162 35.856 14.7602 36 14.9762 36ZM14.9762 41.04C15.1922 41.04 15.3362 40.896 15.3362 40.68V39.24C15.3362 39.024 15.1922 38.88 14.9762 38.88C14.7602 38.88 14.6162 39.024 14.6162 39.24V40.68C14.6162 40.896 14.7602 41.04 14.9762 41.04ZM14.9762 43.92C14.7602 43.92 14.6162 44.064 14.6162 44.28V46.44C14.6162 46.656 14.7602 46.8 14.9762 46.8C15.1922 46.8 15.3362 46.656 15.3362 46.44V44.28C15.3362 44.064 15.1922 43.92 14.9762 43.92ZM22.1762 50.4C21.9602 50.4 21.8162 50.544 21.8162 50.76V56.52C21.8162 56.736 21.9602 56.88 22.1762 56.88C22.3922 56.88 22.5362 56.736 22.5362 56.52V50.76C22.5362 50.544 22.3922 50.4 22.1762 50.4ZM25.0562 50.4C24.8402 50.4 24.6962 50.544 24.6962 50.76V56.52C24.6962 56.736 24.8402 56.88 25.0562 56.88C25.2722 56.88 25.4162 56.736 25.4162 56.52V50.76C25.4162 50.544 25.2722 50.4 25.0562 50.4ZM32.2562 50.4C32.0402 50.4 31.8962 50.544 31.8962 50.76V56.52C31.8962 56.736 32.0402 56.88 32.2562 56.88C32.4722 56.88 32.6162 56.736 32.6162 56.52V50.76C32.6162 50.544 32.4722 50.4 32.2562 50.4ZM56.7362 38.88C56.5202 38.88 56.3762 39.024 56.3762 39.24V40.68C56.3762 40.896 56.5202 41.04 56.7362 41.04C56.9522 41.04 57.0962 40.896 57.0962 40.68V39.24C57.0962 39.024 56.9522 38.88 56.7362 38.88ZM56.7362 43.92C56.5202 43.92 56.3762 44.064 56.3762 44.28V46.44C56.3762 46.656 56.5202 46.8 56.7362 46.8C56.9522 46.8 57.0962 46.656 57.0962 46.44V44.28C57.0962 44.064 56.9522 43.92 56.7362 43.92ZM14.9762 50.4C14.7602 50.4 14.6162 50.544 14.6162 50.76V56.52C14.6162 56.736 14.7602 56.88 14.9762 56.88C15.1922 56.88 15.3362 56.736 15.3362 56.52V50.76C15.3362 50.544 15.1922 50.4 14.9762 50.4ZM39.4562 50.4C39.2402 50.4 39.0962 50.544 39.0962 50.76V56.52C39.0962 56.736 39.2402 56.88 39.4562 56.88C39.6722 56.88 39.8162 56.736 39.8162 56.52V50.76C39.8162 50.544 39.6722 50.4 39.4562 50.4ZM46.6562 50.4C46.4402 50.4 46.2962 50.544 46.2962 50.76V56.52C46.2962 56.736 46.4402 56.88 46.6562 56.88C46.8722 56.88 47.0162 56.736 47.0162 56.52V50.76C47.0162 50.544 46.8722 50.4 46.6562 50.4ZM49.5362 50.4C49.3202 50.4 49.1762 50.544 49.1762 50.76V56.52C49.1762 56.736 49.3202 56.88 49.5362 56.88C49.7522 56.88 49.8962 56.736 49.8962 56.52V50.76C49.8962 50.544 49.7522 50.4 49.5362 50.4ZM56.7362 50.4C56.5202 50.4 56.3762 50.544 56.3762 50.76V56.52C56.3762 56.736 56.5202 56.88 56.7362 56.88C56.9522 56.88 57.0962 56.736 57.0962 56.52V50.76C57.0962 50.544 56.9522 50.4 56.7362 50.4ZM39.4562 42.48C39.2402 42.48 39.0962 42.624 39.0962 42.84V46.44C39.0962 46.656 39.2402 46.8 39.4562 46.8C39.6722 46.8 39.8162 46.656 39.8162 46.44V42.84C39.8162 42.624 39.6722 42.48 39.4562 42.48ZM32.2562 42.48C32.0402 42.48 31.8962 42.624 31.8962 42.84V46.44C31.8962 46.656 32.0402 46.8 32.2562 46.8C32.4722 46.8 32.6162 46.656 32.6162 46.44V42.84C32.6162 42.624 32.4722 42.48 32.2562 42.48ZM25.0562 42.48C24.8402 42.48 24.6962 42.624 24.6962 42.84V46.44C24.6962 46.656 24.8402 46.8 25.0562 46.8C25.2722 46.8 25.4162 46.656 25.4162 46.44V42.84C25.4162 42.624 25.2722 42.48 25.0562 42.48ZM22.1762 42.48C21.9602 42.48 21.8162 42.624 21.8162 42.84V46.44C21.8162 46.656 21.9602 46.8 22.1762 46.8C22.3922 46.8 22.5362 46.656 22.5362 46.44V42.84C22.5362 42.624 22.3922 42.48 22.1762 42.48ZM56.7362 36C56.9522 36 57.0962 35.856 57.0962 35.64V34.2C57.0962 33.984 56.9522 33.84 56.7362 33.84C56.5202 33.84 56.3762 33.984 56.3762 34.2V35.64C56.3762 35.856 56.5202 36 56.7362 36ZM46.6562 30.96C46.4402 30.96 46.2962 31.104 46.2962 31.32V33.48C46.2962 33.696 46.4402 33.84 46.6562 33.84C46.8722 33.84 47.0162 33.696 47.0162 33.48V31.32C47.0162 31.104 46.8722 30.96 46.6562 30.96ZM46.6562 36.72C46.4402 36.72 46.2962 36.864 46.2962 37.08V39.24C46.2962 39.456 46.4402 39.6 46.6562 39.6C46.8722 39.6 47.0162 39.456 47.0162 39.24V37.08C47.0162 36.864 46.8722 36.72 46.6562 36.72ZM46.6562 42.48C46.4402 42.48 46.2962 42.624 46.2962 42.84V46.44C46.2962 46.656 46.4402 46.8 46.6562 46.8C46.8722 46.8 47.0162 46.656 47.0162 46.44V42.84C47.0162 42.624 46.8722 42.48 46.6562 42.48ZM49.5362 31.68C49.3202 31.68 49.1762 31.824 49.1762 32.04V34.2C49.1762 34.416 49.3202 34.56 49.5362 34.56C49.7522 34.56 49.8962 34.416 49.8962 34.2V32.04C49.8962 31.824 49.7522 31.68 49.5362 31.68ZM46.6562 28.08C46.8722 28.08 47.0162 27.936 47.0162 27.72V24.84C47.0162 24.624 46.8722 24.48 46.6562 24.48C46.4402 24.48 46.2962 24.624 46.2962 24.84V27.72C46.2962 27.936 46.4402 28.08 46.6562 28.08ZM49.5362 28.8C49.7522 28.8 49.8962 28.656 49.8962 28.44V27C49.8962 26.784 49.7522 26.64 49.5362 26.64C49.3202 26.64 49.1762 26.784 49.1762 27V28.44C49.1762 28.656 49.3202 28.8 49.5362 28.8ZM49.5362 37.44C49.3202 37.44 49.1762 37.584 49.1762 37.8V39.24C49.1762 39.456 49.3202 39.6 49.5362 39.6C49.7522 39.6 49.8962 39.456 49.8962 39.24V37.8C49.8962 37.584 49.7522 37.44 49.5362 37.44ZM49.5362 42.48C49.3202 42.48 49.1762 42.624 49.1762 42.84V46.44C49.1762 46.656 49.3202 46.8 49.5362 46.8C49.7522 46.8 49.8962 46.656 49.8962 46.44V42.84C49.8962 42.624 49.7522 42.48 49.5362 42.48Z" fill="#27357E"/>
</svg>
