<svg width="73" height="72" viewBox="0 0 73 72" fill="none" xmlns="http://www.w3.org/2000/svg">
<path d="M59.0342 58.6801H57.2342V43.5601H58.3142C58.4582 43.5601 58.6022 43.4881 58.6742 43.3441L59.3942 41.1841C59.4662 41.0401 59.3942 40.9681 59.3222 40.8241C59.2502 40.7521 59.1782 40.6801 59.0342 40.6801H57.2342V37.8001H57.5942C57.8102 37.8001 57.9542 37.6561 57.9542 37.4401V35.2801C57.9542 35.0641 57.8102 34.9201 57.5942 34.9201H47.1542V32.4001C47.1542 32.1841 47.0102 32.0401 46.7942 32.0401H46.4342V27.0001C46.4342 26.3521 46.0022 25.7761 45.3542 25.6321V24.4801C45.3542 24.2641 45.2102 24.1201 44.9942 24.1201C44.7782 24.1201 44.6342 24.2641 44.6342 24.4801V25.6321C43.9862 25.7761 43.5542 26.3521 43.5542 27.0001V29.8801H29.8742V27.0001C29.8742 26.3521 29.4422 25.7761 28.7942 25.6321V24.4801C28.7942 24.2641 28.6502 24.1201 28.4342 24.1201C28.2182 24.1201 28.0742 24.2641 28.0742 24.4801V25.6321C27.4262 25.7761 26.9942 26.3521 26.9942 27.0001V32.0401H26.6342C26.4182 32.0401 26.2742 32.1841 26.2742 32.4001V34.9201H15.8342C15.6182 34.9201 15.4742 35.0641 15.4742 35.2801V37.4401C15.4742 37.6561 15.6182 37.8001 15.8342 37.8001H16.1942V40.6801H14.3942C14.2502 40.6801 14.1782 40.7521 14.1062 40.8241C14.0342 40.8961 14.0342 41.0401 14.0342 41.1841L14.7542 43.3441C14.8262 43.4881 14.9702 43.5601 15.1142 43.5601H16.1942V58.6801H14.3942C14.1782 58.6801 14.0342 58.8241 14.0342 59.0401C14.0342 59.2561 14.1782 59.4001 14.3942 59.4001H59.0342C59.2502 59.4001 59.3942 59.2561 59.3942 59.0401C59.3942 58.8241 59.2502 58.6801 59.0342 58.6801ZM58.0262 42.8401H47.1542V41.4001H58.5302L58.0262 42.8401ZM30.5942 32.7601H42.8342V37.0801H30.5942V32.7601ZM46.4342 32.7601V37.0801H43.5542V32.7601H46.4342ZM34.1942 37.8001V40.6801H32.7542V37.8001H34.1942ZM34.9142 37.8001H36.3542V40.6801H34.9142V37.8001ZM37.0742 37.8001H38.5142V40.6801H37.0742V37.8001ZM39.2342 37.8001H40.6742V40.6801H39.2342V37.8001ZM41.3942 37.8001H42.8342V40.6801H41.3942V37.8001ZM43.5542 40.6801V37.8001H46.4342V40.6801H43.5542ZM32.0342 37.8001V40.6801H30.5942V37.8001H32.0342ZM29.8742 40.6801H26.9942V37.8001H29.8742V40.6801ZM29.8742 41.4001V42.8401H26.9942V41.4001H29.8742ZM43.5542 41.4001H46.4342V42.8401H43.5542V41.4001ZM56.5142 40.6801H47.1542V37.8001H56.5142V40.6801ZM57.2342 35.6401V37.0801H47.1542V35.6401H57.2342ZM44.2742 32.0401V28.4401H45.7142V32.0401H44.2742ZM44.9942 26.2801C45.4262 26.2801 45.7142 26.5681 45.7142 27.0001V27.7201H44.2742V27.0001C44.2742 26.5681 44.5622 26.2801 44.9942 26.2801ZM43.5542 30.6001V32.0401H29.8742V30.6001H43.5542ZM28.4342 26.2801C28.8662 26.2801 29.1542 26.5681 29.1542 27.0001V27.7201H27.7142V27.0001C27.7142 26.5681 28.0022 26.2801 28.4342 26.2801ZM27.7142 28.4401H29.1542V32.0401H27.7142V28.4401ZM27.3542 32.7601H29.8742V37.0801H26.9942V32.7601H27.3542ZM16.1942 35.6401H26.2742V37.0801H16.1942V35.6401ZM16.9142 37.8001H26.2742V40.6801H16.9142V37.8001ZM14.8982 41.4001H26.2742V42.8401H15.4022L14.8982 41.4001ZM16.9142 43.5601H26.2742V58.6801H25.1942V50.4721C25.1942 48.5281 24.1142 46.8001 22.3142 45.9361C22.0982 45.7921 21.8102 45.7921 21.5222 45.9361C19.7942 46.8001 18.7142 48.5281 18.6422 50.4721V58.6801H16.8422V43.5601H16.9142ZM20.1542 58.6801H19.4342V50.7601H24.4742V58.6801H23.7542V54.0001C23.7542 52.1281 22.1702 51.5521 22.0982 51.4801H21.8822C21.8102 51.4801 20.1542 52.1281 20.1542 54.0001V58.6801ZM19.4342 50.0401C19.5782 48.5281 20.4422 47.1601 21.8822 46.4401H22.0262C23.3942 47.1601 24.3302 48.4561 24.4742 50.0401H19.4342ZM20.8742 58.6801V54.0001C20.8742 52.9201 21.6662 52.4161 21.9542 52.2001C22.3142 52.4161 23.0342 52.9201 23.0342 54.0001V58.6801H20.8742ZM26.9942 58.6801V43.5601H29.8742V58.6801H26.9942ZM32.0342 58.6801V50.8321C32.0342 48.6721 33.1142 46.6561 34.9862 45.5041L36.7142 44.3521L38.4422 45.4321C40.3142 46.5841 41.3942 48.6001 41.3942 50.8321V58.7521H32.0342V58.6801ZM38.8022 44.8561L36.8582 43.6321C36.7142 43.5601 36.5702 43.5601 36.4982 43.6321L34.5542 44.8561C32.5382 46.1521 31.3142 48.3841 31.3142 50.8321V58.6801H30.5942V41.4001H42.8342V58.6801H42.1142V50.7601C42.1142 48.3841 40.8902 46.1521 38.8022 44.8561ZM43.5542 58.6801V43.5601H46.4342V58.6801H43.5542ZM48.9542 50.7601H53.9942V58.6801H53.2742V54.0001C53.2742 52.1281 51.6902 51.5521 51.6182 51.4801H51.4022C51.3302 51.4801 49.6742 52.1281 49.6742 54.0001V58.6801H48.9542V50.7601ZM48.9542 50.0401C49.0982 48.5281 49.9622 47.1601 51.4022 46.4401H51.5462C52.9142 47.1601 53.8502 48.4561 53.9942 50.0401H48.9542ZM50.3942 58.6801V54.0001C50.3942 52.9201 51.1862 52.4161 51.4742 52.2001C51.8342 52.4161 52.5542 52.9201 52.5542 54.0001V58.6801H50.3942ZM54.7142 58.6801V50.4721C54.7142 48.5281 53.6342 46.8001 51.8342 45.8641C51.6182 45.7201 51.3302 45.7201 51.0422 45.8641C49.3142 46.7281 48.1622 48.5281 48.1622 50.4721V58.6801H47.0822V43.5601H56.4422V58.6801H54.7142Z" fill="#27357E"/>
</svg>
