<svg width="48" height="48" viewBox="0 0 48 48" fill="none" xmlns="http://www.w3.org/2000/svg">
<path opacity="0.1" fill-rule="evenodd" clip-rule="evenodd" d="M17.3919 34.6724C16.7252 34.6731 16.0781 34.4064 15.5575 33.916C15.0368 33.4257 14.6737 32.7411 14.528 31.9752L12.304 13.9878H27.2C27.0191 14.8902 26.9278 15.8143 26.9279 16.7415C26.9237 19.7097 27.8161 22.5831 29.4458 24.8481C31.0755 27.1131 33.3362 28.6222 35.824 29.1057L35.4879 31.8782C35.3544 32.6628 34.9949 33.3691 34.4702 33.8779C33.9455 34.3866 33.2877 34.6666 32.608 34.6705H17.3919V34.6724Z" fill="white"/>
<path fill-rule="evenodd" clip-rule="evenodd" d="M35.8292 27.4197C37.8913 27.0914 39.7546 26.0009 41.0495 24.3645C42.3445 22.7281 42.9766 20.6653 42.8204 18.5851C42.6642 16.505 41.7312 14.5594 40.2064 13.1343C38.6816 11.7091 36.6763 10.9085 34.5883 10.8911C33.1767 10.8904 31.7888 11.2538 30.5591 11.9462C29.3293 12.6385 28.2994 13.6363 27.5689 14.843H14.3827L13.5679 11.737C13.2975 10.6889 12.6872 9.75984 11.8322 9.09503C10.9772 8.43023 9.92588 8.06714 8.84245 8.0625H6.48597C6.15566 8.06985 5.84136 8.20609 5.61035 8.44205C5.37935 8.67801 5.25 8.99494 5.25 9.32499C5.25 9.65504 5.37935 9.97197 5.61035 10.2079C5.84136 10.4439 6.15566 10.5801 6.48597 10.5875H8.84245C9.37134 10.5892 9.88469 10.7661 10.3021 11.0906C10.7195 11.4151 11.0173 11.8688 11.1488 12.3806L12.2017 16.3831L12.2142 16.4213L14.1445 29.7568C14.291 30.4736 14.5997 31.1473 15.047 31.7265C14.3063 32.1556 13.7069 32.791 13.3218 33.555C12.9367 34.319 12.7828 35.1785 12.8788 36.0284C12.9748 36.8784 13.3165 37.682 13.8623 38.3411C14.408 39.0002 15.1342 39.4862 15.9519 39.7397C16.7697 39.9932 17.6437 40.0033 18.4671 39.7686C19.2904 39.534 20.0276 39.0648 20.5884 38.4185C21.1492 37.7721 21.5094 36.9766 21.6249 36.129C21.7405 35.2815 21.6064 34.4187 21.239 33.6461H28.4087C28.1151 34.2385 27.9649 34.8915 27.9701 35.5525C27.9748 36.3228 28.1818 37.0785 28.5705 37.7438C28.9592 38.4092 29.5159 38.961 30.185 39.344C30.8541 39.7271 31.612 39.928 32.3832 39.9267C33.1544 39.9255 33.9117 39.722 34.5795 39.3367C35.2472 38.9514 35.8021 38.3977 36.1885 37.731C36.575 37.0644 36.7795 36.3081 36.7817 35.5377C36.7838 34.7673 36.5835 34.0099 36.2008 33.3411C35.8181 32.6723 35.2664 32.1155 34.6008 31.7265C35.0435 31.121 35.3512 30.4279 35.5032 29.6936L35.8292 27.4197ZM17.2656 37.4576C16.8875 37.4607 16.517 37.3516 16.2011 37.144C15.8852 36.9364 15.6382 36.6398 15.4914 36.2917C15.3445 35.9436 15.3045 35.5598 15.3763 35.189C15.4482 34.8182 15.6287 34.477 15.895 34.2088C16.1612 33.9406 16.5012 33.7575 16.8718 33.6827C17.2424 33.6078 17.6269 33.6447 17.9766 33.7885C18.3262 33.9323 18.6252 34.1766 18.8356 34.4905C19.046 34.8043 19.1583 35.1735 19.1583 35.5512C19.158 36.054 18.959 36.5364 18.6046 36.8934C18.2501 37.2504 17.7689 37.4532 17.2656 37.4576ZM18.8575 31.1192C18.3351 31.1197 17.8282 30.9424 17.4203 30.6164C17.0125 30.2904 16.728 29.8353 16.6138 29.3261L14.8715 17.3679H26.5411C26.3994 17.9679 26.3279 18.5822 26.328 19.1986C26.3247 21.1719 27.0238 23.0821 28.3005 24.5879C29.5772 26.0937 31.3482 27.097 33.2972 27.4184L33.034 29.2616C32.9293 29.7832 32.6477 30.2528 32.2367 30.591C31.8256 30.9292 31.3103 31.1153 30.7778 31.1179H18.8575V31.1192ZM32.3696 37.4576C31.9921 37.4583 31.6228 37.347 31.3085 37.1379C30.9943 36.9288 30.7492 36.6313 30.6043 36.283C30.4594 35.9347 30.4212 35.5512 30.4944 35.1812C30.5677 34.8112 30.7492 34.4712 31.016 34.2043C31.2827 33.9374 31.6228 33.7555 31.993 33.6817C32.3633 33.6079 32.7472 33.6454 33.0961 33.7896C33.445 33.9338 33.7432 34.1782 33.953 34.4918C34.1629 34.8053 34.2749 35.174 34.2749 35.5512C34.2752 36.0564 34.0747 36.541 33.7174 36.8985C33.3601 37.256 32.8753 37.4571 32.3696 37.4576ZM34.5883 24.9986C34.2775 24.9991 33.9672 24.9738 33.6607 24.9229C32.3095 24.6927 31.0835 23.992 30.2002 22.945C29.3168 21.8979 28.8332 20.5723 28.8349 19.203C28.8318 18.5802 28.9335 17.9614 29.1358 17.3723C29.5215 16.2297 30.2537 15.2353 31.2307 14.5272C32.2077 13.8191 33.3812 13.4323 34.5883 13.4205C36.0992 13.459 37.5353 14.0856 38.5904 15.1668C39.6454 16.2479 40.236 17.6981 40.236 19.208C40.236 20.7179 39.6454 22.1681 38.5904 23.2492C37.5353 24.3304 36.0992 24.957 34.5883 24.9955V24.9986Z" fill="white"/>
<path fill-rule="evenodd" clip-rule="evenodd" d="M38.3437 19.1171C38.3451 19.2845 38.314 19.4506 38.2522 19.6057C38.1904 19.7608 38.0992 19.9019 37.9837 20.0208C37.8682 20.1397 37.7308 20.2341 37.5795 20.2985C37.4281 20.363 37.2657 20.3961 37.1017 20.3961H35.8473V21.7005C35.8473 22.0369 35.7164 22.3594 35.4835 22.5973C35.2505 22.8351 34.9346 22.9688 34.6052 22.9688C34.2758 22.9688 33.9599 22.8351 33.727 22.5973C33.494 22.3594 33.3632 22.0369 33.3632 21.7005V20.3986H32.0963C31.7641 20.3986 31.4455 20.2639 31.2106 20.024C30.9757 19.7842 30.8438 19.4588 30.8438 19.1196C30.8438 18.7804 30.9757 18.4551 31.2106 18.2152C31.4455 17.9753 31.7641 17.8406 32.0963 17.8406H33.3632V16.5495C33.3632 16.2131 33.494 15.8906 33.727 15.6527C33.9599 15.4149 34.2758 15.2812 34.6052 15.2812C34.9346 15.2812 35.2505 15.4149 35.4835 15.6527C35.7164 15.8906 35.8473 16.2131 35.8473 16.5495V17.8406H37.1017C37.4317 17.8431 37.7474 17.9786 37.9801 18.2177C38.2127 18.4568 38.3434 18.7801 38.3437 19.1171Z" fill="white"/>
</svg>
