<svg width="49" height="48" viewBox="0 0 49 48" fill="none" xmlns="http://www.w3.org/2000/svg">
<path d="M33.1484 29.25C32.9495 29.25 32.7588 29.171 32.6181 29.0303C32.4775 28.8897 32.3984 28.6989 32.3984 28.5V19.5C32.3984 19.3011 32.4775 19.1103 32.6181 18.9697C32.7588 18.829 32.9495 18.75 33.1484 18.75C33.3473 18.75 33.5381 18.829 33.6788 18.9697C33.8194 19.1103 33.8984 19.3011 33.8984 19.5V28.5C33.8984 28.6989 33.8194 28.8897 33.6788 29.0303C33.5381 29.171 33.3473 29.25 33.1484 29.25Z" fill="#4F4F4F"/>
<path d="M30.8984 32.25H6.89844C6.69953 32.25 6.50876 32.171 6.36811 32.0303C6.22746 31.8897 6.14844 31.6989 6.14844 31.5C6.14844 30.672 5.47494 30 4.64844 30C4.44953 30 4.25876 29.921 4.11811 29.7803C3.97746 29.6397 3.89844 29.4489 3.89844 29.25V18.75C3.89844 18.5511 3.97746 18.3603 4.11811 18.2197C4.25876 18.079 4.44953 18 4.64844 18C5.47494 18 6.14844 17.328 6.14844 16.5C6.14844 16.3011 6.22746 16.1103 6.36811 15.9697C6.50876 15.829 6.69953 15.75 6.89844 15.75H30.8984C31.0973 15.75 31.2881 15.829 31.4288 15.9697C31.5694 16.1103 31.6484 16.3011 31.6484 16.5C31.6484 17.328 32.3219 18 33.1484 18C33.3473 18 33.5381 18.079 33.6788 18.2197C33.8194 18.3603 33.8984 18.5511 33.8984 18.75V29.25C33.8984 29.4489 33.8194 29.6397 33.6788 29.7803C33.5381 29.921 33.3473 30 33.1484 30C32.3219 30 31.6484 30.672 31.6484 31.5C31.6484 31.6989 31.5694 31.8897 31.4288 32.0303C31.2881 32.171 31.0973 32.25 30.8984 32.25ZM7.55394 30.75H30.2444C30.3794 30.2314 30.6503 29.7582 31.0292 29.3793C31.4081 29.0003 31.8813 28.7294 32.3999 28.5945V19.404C31.8813 19.2691 31.4081 18.9982 31.0292 18.6192C30.6503 18.2403 30.3794 17.7671 30.2444 17.2485H7.55394C7.4191 17.7673 7.14824 18.2408 6.76933 18.6199C6.39041 18.9991 5.91716 19.2703 5.39844 19.4055V28.596C6.45144 28.866 7.28094 29.697 7.55394 30.75Z" fill="#4F4F4F"/>
<path d="M42.8984 32.25H35.3984C35.1995 32.25 35.0088 32.171 34.8681 32.0303C34.7275 31.8897 34.6484 31.6989 34.6484 31.5C34.6484 30.672 33.9749 30 33.1484 30C32.9495 30 32.7588 29.921 32.6181 29.7803C32.4775 29.6397 32.3984 29.4489 32.3984 29.25V18.75C32.3984 18.5511 32.4775 18.3603 32.6181 18.2197C32.7588 18.079 32.9495 18 33.1484 18C33.9749 18 34.6484 17.328 34.6484 16.5C34.6484 16.3011 34.7275 16.1103 34.8681 15.9697C35.0088 15.829 35.1995 15.75 35.3984 15.75H42.8984C43.0974 15.75 43.2881 15.829 43.4288 15.9697C43.5694 16.1103 43.6484 16.3011 43.6484 16.5C43.6484 17.328 44.3219 18 45.1484 18C45.3474 18 45.5381 18.079 45.6788 18.2197C45.8194 18.3603 45.8984 18.5511 45.8984 18.75V29.25C45.8984 29.4489 45.8194 29.6397 45.6788 29.7803C45.5381 29.921 45.3474 30 45.1484 30C44.3219 30 43.6484 30.672 43.6484 31.5C43.6484 31.6989 43.5694 31.8897 43.4288 32.0303C43.2881 32.171 43.0974 32.25 42.8984 32.25ZM36.0539 30.75H42.2444C42.3794 30.2314 42.6503 29.7582 43.0292 29.3793C43.4081 29.0003 43.8813 28.7294 44.3999 28.5945V19.404C43.8813 19.2691 43.4081 18.9982 43.0292 18.6192C42.6503 18.2403 42.3794 17.7671 42.2444 17.2485H36.0539C35.919 17.7671 35.6481 18.2403 35.2692 18.6192C34.8903 18.9982 34.4171 19.2691 33.8984 19.404V28.5945C34.417 28.7296 34.8901 29.0005 35.269 29.3794C35.6479 29.7583 35.9189 30.2315 36.0539 30.75ZM16.6514 24.75H9.89844C9.69953 24.75 9.50876 24.671 9.36811 24.5303C9.22746 24.3897 9.14844 24.1989 9.14844 24C9.14844 23.8011 9.22746 23.6103 9.36811 23.4697C9.50876 23.329 9.69953 23.25 9.89844 23.25H16.6514C16.8503 23.25 17.0411 23.329 17.1818 23.4697C17.3224 23.6103 17.4014 23.8011 17.4014 24C17.4014 24.1989 17.3224 24.3897 17.1818 24.5303C17.0411 24.671 16.8503 24.75 16.6514 24.75Z" fill="#4F4F4F"/>
<path d="M13.6522 27.75C13.5335 27.7496 13.4166 27.7211 13.3111 27.6668C13.2056 27.6126 13.1144 27.5341 13.0451 27.4378C12.9757 27.3415 12.9301 27.2302 12.9121 27.1129C12.894 26.9956 12.904 26.8757 12.9412 26.763L13.8622 24L12.9412 21.237C12.8935 21.0528 12.9174 20.8573 13.0082 20.6901C13.099 20.5228 13.2499 20.3963 13.4304 20.3359C13.6108 20.2756 13.8075 20.2859 13.9806 20.3649C14.1538 20.4439 14.2905 20.5857 14.3632 20.7615L15.3637 23.7615C15.4161 23.9152 15.4161 24.0819 15.3637 24.2355L14.3632 27.2355C14.3139 27.3852 14.2187 27.5155 14.091 27.6079C13.9633 27.7003 13.8098 27.75 13.6522 27.75ZM9.15219 25.7505C9.00396 25.7505 8.85907 25.7065 8.73581 25.6242C8.61255 25.5419 8.51644 25.4249 8.45963 25.288C8.40281 25.1511 8.38784 25.0004 8.41659 24.855C8.44535 24.7096 8.51654 24.576 8.62118 24.471L9.09219 24L8.62269 23.5305C8.48607 23.3891 8.41047 23.1996 8.41218 23.003C8.41389 22.8063 8.49277 22.6182 8.63182 22.4792C8.77088 22.3401 8.95899 22.2612 9.15563 22.2595C9.35228 22.2578 9.54173 22.3334 9.68319 22.47L10.6837 23.4705C10.8243 23.6112 10.9033 23.8019 10.9033 24.0008C10.9033 24.1996 10.8243 24.3904 10.6837 24.531L9.68319 25.5315C9.54207 25.6718 9.35117 25.7506 9.15219 25.7505ZM28.6492 21.75H19.6492C19.4503 21.75 19.2595 21.671 19.1189 21.5304C18.9782 21.3897 18.8992 21.1989 18.8992 21C18.8992 20.8011 18.9782 20.6103 19.1189 20.4697C19.2595 20.329 19.4503 20.25 19.6492 20.25H28.6492C28.8481 20.25 29.0389 20.329 29.1795 20.4697C29.3202 20.6103 29.3992 20.8011 29.3992 21C29.3992 21.1989 29.3202 21.3897 29.1795 21.5304C29.0389 21.671 28.8481 21.75 28.6492 21.75ZM28.6492 24.75H19.6492C19.4503 24.75 19.2595 24.671 19.1189 24.5304C18.9782 24.3897 18.8992 24.1989 18.8992 24C18.8992 23.8011 18.9782 23.6103 19.1189 23.4697C19.2595 23.329 19.4503 23.25 19.6492 23.25H28.6492C28.8481 23.25 29.0389 23.329 29.1795 23.4697C29.3202 23.6103 29.3992 23.8011 29.3992 24C29.3992 24.1989 29.3202 24.3897 29.1795 24.5304C29.0389 24.671 28.8481 24.75 28.6492 24.75ZM24.1492 27.75H19.6492C19.4503 27.75 19.2595 27.671 19.1189 27.5304C18.9782 27.3897 18.8992 27.1989 18.8992 27C18.8992 26.8011 18.9782 26.6103 19.1189 26.4697C19.2595 26.329 19.4503 26.25 19.6492 26.25H24.1492C24.3481 26.25 24.5389 26.329 24.6795 26.4697C24.8202 26.6103 24.8992 26.8011 24.8992 27C24.8992 27.1989 24.8202 27.3897 24.6795 27.5304C24.5389 27.671 24.3481 27.75 24.1492 27.75ZM42.1492 21.75H39.1492C38.9503 21.75 38.7595 21.671 38.6189 21.5304C38.4782 21.3897 38.3992 21.1989 38.3992 21C38.3992 20.8011 38.4782 20.6103 38.6189 20.4697C38.7595 20.329 38.9503 20.25 39.1492 20.25H42.1492C42.3481 20.25 42.5389 20.329 42.6795 20.4697C42.8202 20.6103 42.8992 20.8011 42.8992 21C42.8992 21.1989 42.8202 21.3897 42.6795 21.5304C42.5389 21.671 42.3481 21.75 42.1492 21.75ZM42.1492 24.75H39.1492C38.9503 24.75 38.7595 24.671 38.6189 24.5304C38.4782 24.3897 38.3992 24.1989 38.3992 24C38.3992 23.8011 38.4782 23.6103 38.6189 23.4697C38.7595 23.329 38.9503 23.25 39.1492 23.25H42.1492C42.3481 23.25 42.5389 23.329 42.6795 23.4697C42.8202 23.6103 42.8992 23.8011 42.8992 24C42.8992 24.1989 42.8202 24.3897 42.6795 24.5304C42.5389 24.671 42.3481 24.75 42.1492 24.75ZM42.1492 27.75H39.1492C38.9503 27.75 38.7595 27.671 38.6189 27.5304C38.4782 27.3897 38.3992 27.1989 38.3992 27C38.3992 26.8011 38.4782 26.6103 38.6189 26.4697C38.7595 26.329 38.9503 26.25 39.1492 26.25H42.1492C42.3481 26.25 42.5389 26.329 42.6795 26.4697C42.8202 26.6103 42.8992 26.8011 42.8992 27C42.8992 27.1989 42.8202 27.3897 42.6795 27.5304C42.5389 27.671 42.3481 27.75 42.1492 27.75ZM36.1492 21.7455C35.9535 21.7467 35.7651 21.6713 35.6242 21.5355C35.5506 21.4641 35.4942 21.3769 35.4592 21.2805C35.4164 21.1918 35.3958 21.094 35.3992 20.9955C35.3992 20.9055 35.4142 20.8005 35.4592 20.712C35.4892 20.6205 35.5492 20.547 35.6242 20.472C35.8342 20.262 36.1642 20.187 36.4342 20.307C36.5242 20.352 36.6142 20.3985 36.6742 20.472C36.7492 20.532 36.8092 20.622 36.8392 20.712C36.8842 20.802 36.8992 20.907 36.8992 20.9955C36.8992 21.1005 36.8842 21.192 36.8392 21.2805C36.8092 21.3705 36.7492 21.4605 36.6742 21.5355C36.5333 21.6713 36.3449 21.7467 36.1492 21.7455ZM36.1492 24.7455C35.9392 24.7455 35.7592 24.6705 35.6242 24.522C35.5508 24.4558 35.4927 24.3744 35.4538 24.2835C35.415 24.1926 35.3963 24.0943 35.3992 23.9955C35.3992 23.8005 35.4742 23.6055 35.6242 23.4705C35.6842 23.3955 35.7742 23.3505 35.8642 23.3055C36.0468 23.2305 36.2516 23.2305 36.4342 23.3055C36.5242 23.3505 36.6142 23.397 36.6742 23.4705C36.8242 23.6055 36.8992 23.8005 36.8992 23.9955C36.8992 24.207 36.8242 24.387 36.6742 24.522C36.607 24.5937 36.5256 24.6505 36.4352 24.689C36.3448 24.7275 36.2474 24.7467 36.1492 24.7455ZM36.1492 27.7455C36.0442 27.7455 35.9542 27.7305 35.8642 27.6855C35.7712 27.6517 35.6868 27.5979 35.6168 27.5279C35.5469 27.4579 35.4931 27.3735 35.4592 27.2805C35.4164 27.1918 35.3958 27.094 35.3992 26.9955C35.3992 26.9055 35.4142 26.8005 35.4592 26.712C35.4905 26.6181 35.5477 26.5349 35.6242 26.472C35.6842 26.397 35.7742 26.352 35.8642 26.307C36.1492 26.187 36.4642 26.2635 36.6742 26.472C36.7492 26.532 36.8092 26.622 36.8392 26.712C36.8842 26.802 36.8992 26.907 36.8992 26.9955C36.8992 27.1005 36.8842 27.192 36.8392 27.2805C36.8053 27.3735 36.7515 27.4579 36.6815 27.5279C36.6116 27.5979 36.5272 27.6517 36.4342 27.6855C36.3442 27.7305 36.2542 27.7455 36.1492 27.7455Z" fill="#4F4F4F"/>
</svg>
