<svg width="48" height="48" viewBox="0 0 48 48" fill="none" xmlns="http://www.w3.org/2000/svg">
<g id="ei:arrow-right">
<path id="Vector" d="M24 42C14.0471 42 6 33.9529 6 24C6 14.0471 14.0471 6 24 6C33.9529 6 42 14.0471 42 24C42 33.9529 33.9529 42 24 42ZM24 8.11765C15.2118 8.11765 8.11765 15.2118 8.11765 24C8.11765 32.7882 15.2118 39.8824 24 39.8824C32.7882 39.8824 39.8824 32.7882 39.8824 24C39.8824 15.2118 32.7882 8.11765 24 8.11765Z" fill="#333333"/>
<path id="Union" fill-rule="evenodd" clip-rule="evenodd" d="M29.0019 31.6374L31.0983 31.6374V17.1123L16.5732 17.1123L16.5732 19.2087L27.505 19.2087L16.5741 30.1396L18.0716 31.637L29.0019 20.7067L29.0019 31.6374Z" fill="#333333"/>
</g>
</svg>
