<svg width="174" height="79" viewBox="0 0 174 79" fill="none" xmlns="http://www.w3.org/2000/svg">
<path d="M163.984 0H10.6835C5.24376 0 0.833984 3.12656 0.833984 6.98337V72.0166C0.833984 75.8734 5.24376 79 10.6835 79H163.984C169.424 79 173.834 75.8734 173.834 72.0166V6.98337C173.834 3.12656 169.424 0 163.984 0Z" fill="#EEEEEE"/>
<path fill-rule="evenodd" clip-rule="evenodd" d="M72.096 24.7066L65.2427 54.5686H76.2074L83.0615 24.7066H72.096ZM56.0172 24.7066L45.5631 45.2454L44.3265 40.8227L44.3274 40.8241L44.0549 39.8328C42.7896 37.8996 39.8594 34.2252 34.3262 31.0895C32.7779 30.2145 31.1479 29.4148 29.4473 28.6959L38.9484 54.5686H50.3728L67.8187 24.7066H56.0172ZM98.8108 32.9969C98.8108 29.6207 109.49 30.0545 114.182 31.8878L115.746 25.4742C115.746 25.4742 110.917 24.1721 105.884 24.1721C100.442 24.1721 87.5205 25.8594 87.5205 34.0577C87.5205 41.7734 102.687 41.8692 102.687 45.92C102.687 49.9709 89.0842 49.2469 84.5952 46.6916L82.9637 53.3953C82.9637 53.3953 87.8596 55.0825 95.342 55.0825C102.823 55.0825 114.114 52.3344 114.114 44.8592C114.114 37.0953 98.8108 36.3722 98.8108 32.9969ZM143.555 24.7066H134.739C130.668 24.7066 129.677 26.932 129.677 26.932L113.325 54.5686H124.754L127.04 50.1332H140.98L142.266 54.5686H152.334L143.555 24.7066ZM130.2 44.0052L135.962 32.8302L139.203 44.0052H130.2Z" fill="#005BAC"/>
<path fill-rule="evenodd" clip-rule="evenodd" d="M40.7868 27.5178C40.7868 27.5178 40.3329 24.8228 35.4875 24.8228H17.8839L17.6777 25.3293C17.6777 25.3293 26.1394 26.5522 34.2574 31.1342C42.0152 35.5134 44.5459 40.9724 44.5459 40.9724L40.7868 27.5178Z" fill="#F6AC1D"/>
</svg>
