<svg width="22" height="28" viewBox="0 0 22 28" fill="none" xmlns="http://www.w3.org/2000/svg">
<path d="M12.334 16.6667H7.00065C6.64703 16.6667 6.30789 16.8072 6.05784 17.0573C5.80779 17.3073 5.66732 17.6465 5.66732 18.0001C5.66732 18.3537 5.80779 18.6928 6.05784 18.9429C6.30789 19.1929 6.64703 19.3334 7.00065 19.3334H12.334C12.6876 19.3334 13.0267 19.1929 13.2768 18.9429C13.5268 18.6928 13.6673 18.3537 13.6673 18.0001C13.6673 17.6465 13.5268 17.3073 13.2768 17.0573C13.0267 16.8072 12.6876 16.6667 12.334 16.6667ZM17.6673 3.33341H16.094C15.8189 2.55535 15.3099 1.88141 14.6367 1.404C13.9636 0.926586 13.1592 0.669067 12.334 0.666748H9.66732C8.84206 0.669067 8.03772 0.926586 7.36456 1.404C6.69141 1.88141 6.1824 2.55535 5.90732 3.33341H4.33398C3.27312 3.33341 2.2557 3.75484 1.50556 4.50499C0.755412 5.25513 0.333984 6.27255 0.333984 7.33341V23.3334C0.333984 24.3943 0.755412 25.4117 1.50556 26.1618C2.2557 26.912 3.27312 27.3334 4.33398 27.3334H17.6673C18.7282 27.3334 19.7456 26.912 20.4957 26.1618C21.2459 25.4117 21.6673 24.3943 21.6673 23.3334V7.33341C21.6673 6.27255 21.2459 5.25513 20.4957 4.50499C19.7456 3.75484 18.7282 3.33341 17.6673 3.33341V3.33341ZM8.33398 4.66675C8.33398 4.31313 8.47446 3.97399 8.72451 3.72394C8.97456 3.47389 9.3137 3.33341 9.66732 3.33341H12.334C12.6876 3.33341 13.0267 3.47389 13.2768 3.72394C13.5268 3.97399 13.6673 4.31313 13.6673 4.66675V6.00008H8.33398V4.66675ZM19.0006 23.3334C19.0006 23.687 18.8602 24.0262 18.6101 24.2762C18.3601 24.5263 18.0209 24.6667 17.6673 24.6667H4.33398C3.98036 24.6667 3.64122 24.5263 3.39118 24.2762C3.14113 24.0262 3.00065 23.687 3.00065 23.3334V7.33341C3.00065 6.97979 3.14113 6.64065 3.39118 6.39061C3.64122 6.14056 3.98036 6.00008 4.33398 6.00008H5.66732V7.33341C5.66732 7.68704 5.80779 8.02618 6.05784 8.27622C6.30789 8.52627 6.64703 8.66675 7.00065 8.66675H15.0007C15.3543 8.66675 15.6934 8.52627 15.9435 8.27622C16.1935 8.02618 16.334 7.68704 16.334 7.33341V6.00008H17.6673C18.0209 6.00008 18.3601 6.14056 18.6101 6.39061C18.8602 6.64065 19.0006 6.97979 19.0006 7.33341V23.3334ZM15.0007 11.3334H7.00065C6.64703 11.3334 6.30789 11.4739 6.05784 11.7239C5.80779 11.974 5.66732 12.3131 5.66732 12.6667C5.66732 13.0204 5.80779 13.3595 6.05784 13.6096C6.30789 13.8596 6.64703 14.0001 7.00065 14.0001H15.0007C15.3543 14.0001 15.6934 13.8596 15.9435 13.6096C16.1935 13.3595 16.334 13.0204 16.334 12.6667C16.334 12.3131 16.1935 11.974 15.9435 11.7239C15.6934 11.4739 15.3543 11.3334 15.0007 11.3334Z" fill="#4F4F4F"/>
</svg>
