<svg width="160" height="160" viewBox="0 0 160 160" fill="none" xmlns="http://www.w3.org/2000/svg">
<g clip-path="url(#clip0_287_421)">
<path fill-rule="evenodd" clip-rule="evenodd" d="M51.2763 21.5C46.784 21.4958 42.3353 22.3504 38.1833 24.0165C34.0312 25.6826 30.2573 28.127 27.0776 31.2097C23.898 34.2925 21.3747 37.9535 19.6516 41.9836C17.9284 46.0136 17.0395 50.3335 17.0352 54.6973V74.4934L13.4706 71.0245C13.16 70.7203 12.7903 70.4791 12.3832 70.3143C11.9761 70.1495 11.5398 70.0643 11.0987 70.0643C8.50935 70.0643 6.96069 73.7894 8.81213 75.5559L18.1282 84.6125C18.7617 85.1829 19.5937 85.5001 20.4575 85.5001C21.3212 85.5001 22.1532 85.1829 22.7867 84.6125L32.1036 75.5559C34.6271 73.2006 29.8632 68.5796 27.4452 71.0245L23.624 74.7371V54.6973C23.6108 51.1695 24.3171 47.6742 25.7031 44.4133C27.089 41.1525 29.1269 38.191 31.6983 35.6998C34.2697 33.2085 37.3241 31.2373 40.6846 29.8995C44.0451 28.5618 47.6447 27.8845 51.2763 27.9065L105 27.9067C105.871 27.8818 106.7 27.5377 107.32 26.9442C107.941 26.3507 108.308 25.5518 108.347 24.7066C108.314 23.8594 107.949 23.0567 107.327 22.462C106.705 21.8673 105.873 21.5254 105 21.5065L51.2763 21.5Z" fill="#E4E4E4"/>
<path fill-rule="evenodd" clip-rule="evenodd" d="M108.071 120.5C112.564 120.504 117.012 119.65 121.164 117.983C125.316 116.317 129.09 113.873 132.27 110.79C135.45 107.708 137.973 104.046 139.696 100.016C141.419 95.9864 142.308 91.6665 142.312 87.3027V67.5066L145.877 70.9755C146.188 71.2797 146.557 71.5209 146.964 71.6857C147.372 71.8505 147.808 71.9357 148.249 71.9357C150.838 71.9357 152.387 68.2106 150.536 66.4441L141.219 57.3875C140.586 56.8171 139.754 56.4999 138.89 56.4999C138.026 56.4999 137.194 56.8171 136.561 57.3875L127.244 66.4441C124.721 68.7994 129.484 73.4204 131.902 70.9755L135.724 67.2629V87.3027C135.737 90.8305 135.031 94.3258 133.645 97.5867C132.259 100.847 130.221 103.809 127.649 106.3C125.078 108.792 122.024 110.763 118.663 112.1C115.303 113.438 111.703 114.116 108.071 114.094L54.3477 114.093C53.4771 114.118 52.648 114.462 52.0273 115.056C51.4066 115.649 51.0397 116.448 51.0002 117.293C51.0335 118.141 51.3988 118.943 52.0208 119.538C52.6429 120.133 53.4751 120.475 54.3477 120.493L108.071 120.5Z" fill="#E4E4E4"/>
<path d="M157.617 9.27775H152.35C151.891 7.49769 151.08 5.83355 149.967 4.38887H157.617C158.249 4.38887 158.855 4.13134 159.302 3.67291C159.749 3.21449 160 2.59274 160 1.94444C160 1.29613 159.749 0.67438 159.302 0.215959C158.855 -0.242462 158.249 -0.5 157.617 -0.5H131.402C130.77 -0.5 130.163 -0.242462 129.716 0.215959C129.27 0.67438 129.018 1.29613 129.018 1.94444C129.018 2.59274 129.27 3.21449 129.716 3.67291C130.163 4.13134 130.77 4.38887 131.402 4.38887H139.743C141.316 4.39454 142.856 4.85659 144.184 5.72166C145.513 6.58674 146.576 7.81955 147.25 9.27775H131.402C130.77 9.27775 130.163 9.53529 129.716 9.99371C129.27 10.4521 129.018 11.0739 129.018 11.7222C129.018 12.3705 129.27 12.9922 129.716 13.4507C130.163 13.9091 130.77 14.1666 131.402 14.1666H148.084C147.798 16.197 146.811 18.0544 145.302 19.4005C143.792 20.7466 141.862 21.4917 139.862 21.4999H131.402C131.291 21.4885 131.179 21.4885 131.068 21.4999C130.91 21.4747 130.749 21.4747 130.591 21.4999C130.429 21.5567 130.276 21.6392 130.139 21.7444L129.853 21.9155C129.722 22.0364 129.61 22.1764 129.519 22.331C129.439 22.4394 129.367 22.5538 129.304 22.6733C129.283 22.8191 129.283 22.9674 129.304 23.1133C129.135 23.3571 129.035 23.6452 129.018 23.9444C129.007 24.0582 129.007 24.1728 129.018 24.2866C128.994 24.4486 128.994 24.6135 129.018 24.7755C129.074 24.9421 129.154 25.0988 129.257 25.2399C129.257 25.2399 129.257 25.4355 129.424 25.5333L143.723 42.6443C144.134 43.137 144.718 43.4422 145.349 43.4926C145.979 43.543 146.603 43.3346 147.083 42.9132C147.563 42.4918 147.861 41.8919 147.91 41.2456C147.959 40.5992 147.756 39.9593 147.345 39.4665L136.597 26.3888H139.743C143.022 26.4027 146.188 25.1553 148.614 22.8926C151.041 20.6299 152.552 17.5164 152.85 14.1666H157.617C158.249 14.1666 158.855 13.9091 159.302 13.4507C159.749 12.9922 160 12.3705 160 11.7222C160 11.0739 159.749 10.4521 159.302 9.99371C158.855 9.53529 158.249 9.27775 157.617 9.27775Z" fill="#E4E4E4"/>
<path d="M32.25 110.722C31.7524 109.342 30.8436 108.138 29.6407 107.267C28.4377 106.396 26.9956 105.896 25.5 105.833H15.5C13.5109 105.833 11.6032 106.606 10.1967 107.981C8.79018 109.356 8 111.222 8 113.167C8 115.112 8.79018 116.977 10.1967 118.352C11.6032 119.727 13.5109 120.5 15.5 120.5H25.5C27.4891 120.5 29.3968 121.273 30.8033 122.648C32.2098 124.023 33 125.888 33 127.833C33 129.778 32.2098 131.644 30.8033 133.019C29.3968 134.394 27.4891 135.167 25.5 135.167H15.5C14.0044 135.104 12.5623 134.604 11.3593 133.733C10.1564 132.862 9.24762 131.658 8.75 130.278M20.5 98.5V105.833M20.5 135.167V142.5" stroke="#E4E4E4" stroke-width="5" stroke-linecap="round" stroke-linejoin="round"/>
</g>
<defs>
<clipPath id="clip0_287_421">
<rect width="160" height="160" fill="white"/>
</clipPath>
</defs>
</svg>
