<svg width="33" height="32" viewBox="0 0 33 32" fill="none" xmlns="http://www.w3.org/2000/svg">
<path fill-rule="evenodd" clip-rule="evenodd" d="M27.1673 5.33464H5.83398C5.48036 5.33464 5.14122 5.47511 4.89118 5.72516C4.64113 5.97521 4.50065 6.31435 4.50065 6.66797V25.3346C4.50065 25.6883 4.64113 26.0274 4.89118 26.2774C5.14122 26.5275 5.48036 26.668 5.83398 26.668H27.1673C27.5209 26.668 27.8601 26.5275 28.1101 26.2774C28.3602 26.0274 28.5007 25.6883 28.5007 25.3346V6.66797C28.5007 6.31435 28.3602 5.97521 28.1101 5.72516C27.8601 5.47511 27.5209 5.33464 27.1673 5.33464ZM5.83398 2.66797C4.77312 2.66797 3.7557 3.0894 3.00556 3.83954C2.25541 4.58969 1.83398 5.6071 1.83398 6.66797V25.3346C1.83398 26.3955 2.25541 27.4129 3.00556 28.1631C3.7557 28.9132 4.77312 29.3346 5.83398 29.3346H27.1673C28.2282 29.3346 29.2456 28.9132 29.9957 28.1631C30.7459 27.4129 31.1673 26.3955 31.1673 25.3346V6.66797C31.1673 5.6071 30.7459 4.58969 29.9957 3.83954C29.2456 3.0894 28.2282 2.66797 27.1673 2.66797H5.83398ZM8.50065 9.33463H11.1673V12.0013H8.50065V9.33463ZM15.1673 9.33463C14.8137 9.33463 14.4746 9.47511 14.2245 9.72516C13.9745 9.97521 13.834 10.3143 13.834 10.668C13.834 11.0216 13.9745 11.3607 14.2245 11.6108C14.4746 11.8608 14.8137 12.0013 15.1673 12.0013H23.1673C23.5209 12.0013 23.8601 11.8608 24.1101 11.6108C24.3602 11.3607 24.5007 11.0216 24.5007 10.668C24.5007 10.3143 24.3602 9.97521 24.1101 9.72516C23.8601 9.47511 23.5209 9.33463 23.1673 9.33463H15.1673ZM11.1673 14.668H8.50065V17.3346H11.1673V14.668ZM13.834 16.0013C13.834 15.6477 13.9745 15.3085 14.2245 15.0585C14.4746 14.8084 14.8137 14.668 15.1673 14.668H23.1673C23.5209 14.668 23.8601 14.8084 24.1101 15.0585C24.3602 15.3085 24.5007 15.6477 24.5007 16.0013C24.5007 16.3549 24.3602 16.6941 24.1101 16.9441C23.8601 17.1942 23.5209 17.3346 23.1673 17.3346H15.1673C14.8137 17.3346 14.4746 17.1942 14.2245 16.9441C13.9745 16.6941 13.834 16.3549 13.834 16.0013ZM11.1673 20.0013H8.50065V22.668H11.1673V20.0013ZM13.834 21.3346C13.834 20.981 13.9745 20.6419 14.2245 20.3918C14.4746 20.1418 14.8137 20.0013 15.1673 20.0013H23.1673C23.5209 20.0013 23.8601 20.1418 24.1101 20.3918C24.3602 20.6419 24.5007 20.981 24.5007 21.3346C24.5007 21.6883 24.3602 22.0274 24.1101 22.2774C23.8601 22.5275 23.5209 22.668 23.1673 22.668H15.1673C14.8137 22.668 14.4746 22.5275 14.2245 22.2774C13.9745 22.0274 13.834 21.6883 13.834 21.3346Z" fill="#27357E"/>
</svg>
