<svg width="33" height="32" viewBox="0 0 33 32" fill="none" xmlns="http://www.w3.org/2000/svg">
<rect x="2.91699" y="6.25" width="27.5" height="19.5" rx="1.75" fill="white" stroke="#F5F5F5" stroke-width="0.5"/>
<mask id="mask0_2168_1983" style="mask-type:luminance" maskUnits="userSpaceOnUse" x="2" y="6" width="29" height="20">
<rect x="2.91699" y="6.25" width="27.5" height="19.5" rx="1.75" fill="white" stroke="white" stroke-width="0.5"/>
</mask>
<g mask="url(#mask0_2168_1983)">
<path fill-rule="evenodd" clip-rule="evenodd" d="M2.66699 12.6667H30.667V6H2.66699V12.6667Z" fill="#FFA44A"/>
<path fill-rule="evenodd" clip-rule="evenodd" d="M2.66699 25.9999H30.667V19.3333H2.66699V25.9999Z" fill="#1A9F0B"/>
<path d="M16.667 18.3333C17.9557 18.3333 19.0003 17.2887 19.0003 16C19.0003 14.7113 17.9557 13.6667 16.667 13.6667C15.3783 13.6667 14.3337 14.7113 14.3337 16C14.3337 17.2887 15.3783 18.3333 16.667 18.3333Z" fill="#181A93" fill-opacity="0.15" stroke="#181A93" stroke-width="0.666667"/>
<path fill-rule="evenodd" clip-rule="evenodd" d="M16.6667 16.6666C17.0349 16.6666 17.3333 16.3681 17.3333 15.9999C17.3333 15.6317 17.0349 15.3333 16.6667 15.3333C16.2985 15.3333 16 15.6317 16 15.9999C16 16.3681 16.2985 16.6666 16.6667 16.6666Z" fill="#181A93"/>
</g>
</svg>
