<svg width="32" height="32" viewBox="0 0 32 32" fill="none" xmlns="http://www.w3.org/2000/svg">
<path d="M25.3333 4H6.66667C5.2 4 4 5.2 4 6.66667V25.3333C4 26.8 5.2 28 6.66667 28H25.3333C26.8 28 28 26.8 28 25.3333V6.66667C28 5.2 26.8 4 25.3333 4Z" fill="#FF9135"/>
<path d="M23.6335 10.3473C23.5276 10.2372 23.4017 10.1499 23.263 10.0903C23.1243 10.0307 22.9755 10 22.8252 10C22.6749 10 22.5261 10.0307 22.3873 10.0903C22.2486 10.1499 22.1227 10.2372 22.0168 10.3473L13.5352 19.1052L9.97176 15.4189C9.86187 15.3094 9.73215 15.2233 9.59 15.1656C9.44786 15.1078 9.29607 15.0795 9.14331 15.0822C8.99055 15.0849 8.8398 15.1187 8.69968 15.1815C8.55956 15.2443 8.4328 15.3349 8.32665 15.4482C8.2205 15.5615 8.13704 15.6953 8.08102 15.8419C8.025 15.9885 7.99753 16.145 8.00017 16.3025C8.00282 16.46 8.03552 16.6155 8.09642 16.76C8.15733 16.9045 8.24523 17.0352 8.35512 17.1446L12.7269 21.6527C12.8327 21.7628 12.9586 21.8501 13.0974 21.9097C13.2361 21.9693 13.3849 22 13.5352 22C13.6855 22 13.8343 21.9693 13.973 21.9097C14.1118 21.8501 14.2377 21.7628 14.3435 21.6527L23.6335 12.073C23.749 11.9631 23.8413 11.8297 23.9044 11.6812C23.9674 11.5326 24 11.3723 24 11.2101C24 11.048 23.9674 10.8876 23.9044 10.7391C23.8413 10.5906 23.749 10.4572 23.6335 10.3473Z" fill="white"/>
</svg>
