<svg width="49" height="48" viewBox="0 0 49 48" fill="none" xmlns="http://www.w3.org/2000/svg">
<path d="M11.1877 37.6875H37.2127C38.5342 37.6835 39.8005 37.1568 40.735 36.2223C41.6695 35.2878 42.1962 34.0215 42.2002 32.7V15.3C42.2002 13.9772 41.6747 12.7086 40.7394 11.7733C39.8041 10.838 38.5355 10.3125 37.2127 10.3125H11.1877C9.86493 10.3125 8.59634 10.838 7.661 11.7733C6.72566 12.7086 6.2002 13.9772 6.2002 15.3V32.7C6.2002 34.0228 6.72566 35.2914 7.661 36.2267C8.59634 37.162 9.86493 37.6875 11.1877 37.6875ZM23.5327 35.4375C23.8041 33.9012 24.6081 32.5096 25.8033 31.507C26.9986 30.5044 28.5089 29.9549 30.0689 29.9549C31.629 29.9549 33.1393 30.5044 34.3345 31.507C35.5298 32.5096 36.3337 33.9012 36.6052 35.4375H23.5327ZM8.4502 15.3C8.45217 14.5746 8.74122 13.8794 9.25418 13.3665C9.76713 12.8535 10.4623 12.5645 11.1877 12.5625H37.2127C37.9381 12.5645 38.6333 12.8535 39.1462 13.3665C39.6592 13.8794 39.9482 14.5746 39.9502 15.3V32.7C39.9537 33.1396 39.8512 33.5736 39.6514 33.9652C39.4517 34.3569 39.1606 34.6947 38.8027 34.95C38.4063 32.8747 37.2835 31.0084 35.6357 29.686C33.9879 28.3635 31.9229 27.6714 29.8109 27.7337C27.699 27.796 25.6783 28.6087 24.1114 30.026C22.5444 31.4432 21.5336 33.3724 21.2602 35.4675H11.1877C10.8259 35.4665 10.468 35.3941 10.1343 35.2543C9.80067 35.1145 9.49794 34.9101 9.24355 34.6529C8.98915 34.3957 8.78809 34.0908 8.65194 33.7556C8.51579 33.4205 8.44723 33.0617 8.4502 32.7V15.3Z" fill="#4F4F4F"/>
<path d="M30.0724 25.275C31.0608 25.275 32.0271 24.9822 32.8493 24.4335C33.6714 23.8848 34.3126 23.1048 34.6919 22.1921C35.0712 21.2793 35.1715 20.2746 34.9803 19.3048C34.7891 18.3351 34.3149 17.4437 33.6176 16.7432C32.9202 16.0427 32.0309 15.5645 31.062 15.3689C30.0931 15.1733 29.088 15.2692 28.1735 15.6444C27.2591 16.0196 26.4762 16.6572 25.9239 17.4769C25.3715 18.2966 25.0743 19.2616 25.0699 20.25C25.0669 20.9089 25.1941 21.5618 25.4442 22.1713C25.6943 22.7808 26.0623 23.335 26.5271 23.8019C26.9919 24.2688 27.5444 24.6393 28.1528 24.8921C28.7612 25.1449 29.4135 25.275 30.0724 25.275ZM30.0724 17.52C30.6177 17.52 31.1508 17.6821 31.6039 17.9855C32.057 18.289 32.4098 18.7202 32.6174 19.2244C32.8251 19.7287 32.8783 20.2833 32.7702 20.8178C32.6622 21.3524 32.3978 21.8428 32.0106 22.2268C31.6234 22.6108 31.1309 22.8712 30.5954 22.9748C30.06 23.0785 29.5059 23.0208 29.0034 22.809C28.5008 22.5972 28.0725 22.2409 27.7728 21.7853C27.4731 21.3297 27.3154 20.7954 27.3199 20.25C27.3258 19.5239 27.6184 18.8296 28.134 18.3182C28.6495 17.8069 29.3463 17.52 30.0724 17.52ZM12.5674 19.755H17.8849C18.1833 19.755 18.4694 19.6365 18.6804 19.4255C18.8914 19.2145 19.0099 18.9284 19.0099 18.63C19.0099 18.3317 18.8914 18.0455 18.6804 17.8345C18.4694 17.6235 18.1833 17.505 17.8849 17.505H12.5674C12.269 17.505 11.9829 17.6235 11.7719 17.8345C11.5609 18.0455 11.4424 18.3317 11.4424 18.63C11.4424 18.9284 11.5609 19.2145 11.7719 19.4255C11.9829 19.6365 12.269 19.755 12.5674 19.755ZM12.5674 24.8475H17.8849C18.1833 24.8475 18.4694 24.729 18.6804 24.518C18.8914 24.307 19.0099 24.0209 19.0099 23.7225C19.0099 23.4242 18.8914 23.138 18.6804 22.927C18.4694 22.716 18.1833 22.5975 17.8849 22.5975H12.5674C12.269 22.5975 11.9829 22.716 11.7719 22.927C11.5609 23.138 11.4424 23.4242 11.4424 23.7225C11.4424 24.0209 11.5609 24.307 11.7719 24.518C11.9829 24.729 12.269 24.8475 12.5674 24.8475Z" fill="#4F4F4F"/>
<path d="M12.9727 32.5725C13.594 32.5725 14.0977 32.0688 14.0977 31.4475C14.0977 30.8262 13.594 30.3225 12.9727 30.3225C12.3513 30.3225 11.8477 30.8262 11.8477 31.4475C11.8477 32.0688 12.3513 32.5725 12.9727 32.5725Z" fill="#4F4F4F"/>
<path d="M17.4727 32.5725C18.094 32.5725 18.5977 32.0688 18.5977 31.4475C18.5977 30.8262 18.094 30.3225 17.4727 30.3225C16.8513 30.3225 16.3477 30.8262 16.3477 31.4475C16.3477 32.0688 16.8513 32.5725 17.4727 32.5725Z" fill="#4F4F4F"/>
</svg>
