<svg width="32" height="32" viewBox="0 0 32 32" fill="none" xmlns="http://www.w3.org/2000/svg">
<path d="M16.0003 14.6667C15.6467 14.6667 15.3076 14.8072 15.0575 15.0573C14.8075 15.3073 14.667 15.6465 14.667 16.0001V21.3334C14.667 21.687 14.8075 22.0262 15.0575 22.2762C15.3076 22.5263 15.6467 22.6667 16.0003 22.6667C16.354 22.6667 16.6931 22.5263 16.9431 22.2762C17.1932 22.0262 17.3337 21.687 17.3337 21.3334V16.0001C17.3337 15.6465 17.1932 15.3073 16.9431 15.0573C16.6931 14.8072 16.354 14.6667 16.0003 14.6667ZM16.507 9.44008C16.1824 9.30672 15.8183 9.30672 15.4937 9.44008C15.33 9.50354 15.1805 9.59869 15.0537 9.72008C14.9359 9.84968 14.8412 9.9985 14.7737 10.1601C14.699 10.3183 14.6625 10.4918 14.667 10.6667C14.666 10.8422 14.6996 11.0162 14.766 11.1786C14.8323 11.3411 14.9301 11.4888 15.0537 11.6134C15.1833 11.7312 15.3321 11.8259 15.4937 11.8934C15.6957 11.9764 15.915 12.0085 16.1323 11.9869C16.3496 11.9653 16.5582 11.8906 16.7399 11.7695C16.9217 11.6484 17.0708 11.4845 17.1743 11.2922C17.2779 11.0999 17.3326 10.8851 17.3337 10.6667C17.3288 10.3137 17.1906 9.97559 16.947 9.72008C16.8202 9.59869 16.6707 9.50354 16.507 9.44008ZM16.0003 2.66675C13.3632 2.66675 10.7854 3.44873 8.59273 4.91382C6.40007 6.37891 4.69111 8.46129 3.68194 10.8976C2.67277 13.334 2.40872 16.0149 2.92319 18.6013C3.43766 21.1877 4.70754 23.5635 6.57224 25.4282C8.43694 27.2929 10.8127 28.5628 13.3991 29.0772C15.9855 29.5917 18.6664 29.3276 21.1028 28.3185C23.5391 27.3093 25.6215 25.6003 27.0866 23.4077C28.5517 21.215 29.3337 18.6372 29.3337 16.0001C29.3337 14.2491 28.9888 12.5153 28.3187 10.8976C27.6487 9.27996 26.6665 7.81011 25.4284 6.57199C24.1903 5.33388 22.7205 4.35175 21.1028 3.68169C19.4851 3.01162 17.7513 2.66675 16.0003 2.66675V2.66675ZM16.0003 26.6667C13.8907 26.6667 11.8284 26.0412 10.0742 24.8691C8.32012 23.697 6.95295 22.0311 6.14562 20.082C5.33828 18.133 5.12705 15.9882 5.53862 13.9191C5.9502 11.85 6.9661 9.94937 8.45786 8.45761C9.94962 6.96585 11.8502 5.94995 13.9194 5.53837C15.9885 5.1268 18.1332 5.33803 20.0823 6.14537C22.0314 6.9527 23.6973 8.31987 24.8693 10.074C26.0414 11.8281 26.667 13.8904 26.667 16.0001C26.667 18.8291 25.5432 21.5422 23.5428 23.5426C21.5424 25.5429 18.8293 26.6667 16.0003 26.6667V26.6667Z" fill="#27357E"/>
</svg>
