<svg width="239" height="44" viewBox="0 0 239 44" fill="none" xmlns="http://www.w3.org/2000/svg">
<path d="M87.5 27L92.5 22L87.5 17" stroke="white" stroke-width="2" stroke-linecap="round" stroke-linejoin="round"/>
<path d="M92.5 22H80.5" stroke="white" stroke-width="2" stroke-linecap="round" stroke-linejoin="round"/>
<path d="M80.5 31H76.5C75.9696 31 75.4609 30.7893 75.0858 30.4142C74.7107 30.0391 74.5 29.5304 74.5 29V15C74.5 14.4696 74.7107 13.9609 75.0858 13.5858C75.4609 13.2107 75.9696 13 76.5 13H80.5" stroke="white" stroke-width="2" stroke-linecap="round" stroke-linejoin="round"/>
<path d="M110.46 14.672V24.592H115.516V26H108.876V14.672H110.46ZM124.367 22.192C124.367 24.528 122.591 26.208 120.271 26.208C117.951 26.208 116.191 24.528 116.191 22.192C116.191 19.856 117.951 18.208 120.271 18.208C122.591 18.208 124.367 19.856 124.367 22.192ZM122.799 22.192C122.799 20.752 121.903 19.456 120.271 19.456C118.655 19.456 117.743 20.752 117.743 22.192C117.743 23.632 118.655 24.944 120.271 24.944C121.903 24.944 122.799 23.632 122.799 22.192ZM126.084 28.464L127.044 27.296C127.7 28.032 128.772 28.528 129.812 28.528C131.812 28.528 132.484 27.296 132.484 25.728V24.752H132.452C131.892 25.6 130.852 26.064 129.78 26.064C127.46 26.064 125.956 24.336 125.956 22.16C125.956 19.984 127.444 18.208 129.764 18.208C130.852 18.208 131.924 18.688 132.5 19.632H132.532V18.416H133.988V25.616C133.988 27.824 132.948 29.84 129.796 29.84C128.484 29.84 127.028 29.328 126.084 28.464ZM127.508 22.128C127.508 23.52 128.436 24.8 130.02 24.8C131.572 24.8 132.596 23.632 132.596 22.128C132.596 20.688 131.556 19.456 130.02 19.456C128.436 19.456 127.508 20.672 127.508 22.128ZM152.066 20.32C152.066 23.808 149.506 26.288 146.05 26.288C142.61 26.288 140.066 23.808 140.066 20.32C140.066 16.784 142.61 14.384 146.05 14.384C149.506 14.384 152.066 16.784 152.066 20.32ZM150.354 20.32C150.354 17.84 148.69 15.776 146.05 15.776C143.442 15.776 141.778 17.84 141.778 20.32C141.778 22.848 143.458 24.864 146.05 24.864C148.674 24.864 150.354 22.848 150.354 20.32ZM160.908 26H159.484C159.452 25.616 159.42 25.072 159.42 24.752H159.388C159.004 25.552 158.012 26.208 156.908 26.208C154.956 26.208 154.076 24.816 154.076 23.12V18.416H155.58V22.608C155.58 23.856 155.916 24.944 157.308 24.944C158.508 24.944 159.34 23.952 159.34 22.448V18.416H160.844V24.368C160.844 24.768 160.86 25.504 160.908 26ZM167.164 18.416V19.648H165.148V23.6C165.148 24.512 165.468 24.88 166.22 24.88C166.492 24.88 166.844 24.816 167.1 24.688L167.148 25.92C166.796 26.048 166.332 26.128 165.868 26.128C164.444 26.128 163.66 25.328 163.66 23.76V19.648H162.204V18.416H163.66V16.24H165.148V18.416H167.164Z" fill="white"/>
</svg>
