<svg width="121" height="66" viewBox="0 0 121 66" fill="none" xmlns="http://www.w3.org/2000/svg">
<g id="Lotus Temple">
<path id="Vector" opacity="0.7" d="M117.936 54.1744H115.527C116.083 50.4666 117.38 45.8319 117.936 44.3488V43.7926C117.936 43.6072 117.936 43.2364 117.751 43.051C117.38 42.3095 116.824 41.9387 116.083 41.9387C114.601 41.9387 113.119 42.1241 111.266 42.3095C104.966 27.4782 89.9589 18.9503 89.4031 18.5795H89.2178C89.0325 18.5795 89.0325 18.5795 88.8472 18.3941H88.1061C87.7356 18.3941 87.365 18.5795 87.1797 18.9503C86.8092 19.3211 86.6239 19.8772 86.6239 20.4334V20.6188C86.6239 20.8042 86.6239 20.8042 86.8092 20.9896V21.175C87.1797 21.7311 88.1061 23.585 89.2178 26.7367C88.6619 25.9951 88.1061 25.2536 87.7356 24.6974C82.7331 10.9785 66.4286 2.45055 65.6875 2.07976C65.1317 1.70898 64.3906 1.89437 64.02 2.07976C63.4642 2.45055 63.0936 3.00672 63.0936 3.56289C63.0936 3.74828 63.0936 3.93367 63.2789 4.11906C65.317 9.68077 66.4286 18.3941 67.1697 24.8828C65.5023 22.1019 63.6495 19.5065 61.7967 16.911C61.4261 16.5402 60.8703 16.1694 60.3145 16.1694C59.7586 16.1694 59.2028 16.3548 58.8323 16.911C56.7942 19.3211 55.1267 22.1019 53.4592 24.6974C54.2003 18.0233 55.312 9.30999 57.35 3.93367V3.3775C57.35 3.19211 57.35 3.00672 57.1648 2.82133C57.1648 2.63593 56.9795 2.63594 56.9795 2.45054C56.9795 2.45054 56.9795 2.26515 56.7942 2.26515L56.6089 2.07976C56.4236 1.89437 56.4237 1.89437 56.2384 1.89437H56.0531C55.8678 1.89437 55.8678 1.70898 55.6825 1.70898H54.7561C54.015 2.07977 37.7106 10.6077 32.7081 24.3266C32.1523 25.0682 31.5965 25.8097 31.2259 26.3659C32.1523 23.2143 33.264 21.3604 33.6345 20.8042V20.6188C33.6345 20.4334 33.6345 20.4334 33.8198 20.248V19.5065C33.8198 19.3211 33.8198 19.3211 33.6345 19.1357C33.6345 19.1357 33.6345 18.9503 33.4492 18.9503C33.4492 18.7649 33.264 18.7649 33.264 18.5795L33.0787 18.3941L32.8934 18.2087C32.7081 18.2087 32.7081 18.2087 32.5228 18.0233H31.0406C30.8553 19.1357 15.6626 27.6636 9.54843 42.4949C7.69565 42.3095 6.21343 42.1241 4.73121 42.1241C3.9901 42.1241 3.24899 42.4949 3.06371 43.2364C2.87844 43.6072 2.87844 44.1634 3.06371 44.5341V44.7195C3.61955 46.5734 4.91649 50.8374 5.47232 54.5452H3.06371C2.13733 54.5452 1.21094 55.2868 1.21094 56.3991V62.7024C1.21094 63.6294 1.95205 64.5563 3.06371 64.5563H117.936C118.862 64.5563 119.789 63.8147 119.789 62.7024V56.3991C119.789 55.1014 119.047 54.1744 117.936 54.1744ZM108.857 50.2812C109.042 50.0959 109.228 49.9105 109.598 49.7251C109.784 49.5397 109.969 49.5397 110.154 49.3543C110.339 49.1689 110.525 48.9835 110.71 48.9835C110.895 48.7981 111.081 48.7981 111.266 48.6127C111.451 48.4273 111.636 48.4273 111.822 48.242C112.007 48.0566 112.192 48.0566 112.377 47.8712C112.563 47.6858 112.748 47.6858 112.933 47.5004C113.119 47.5004 113.119 47.315 113.304 47.315C113.304 47.315 113.489 47.315 113.489 47.1296C112.933 49.3543 112.377 51.9498 112.007 54.1744H104.411L104.781 53.8037L105.707 52.8767C105.893 52.6913 106.078 52.5059 106.263 52.5059L107.004 51.7644C107.19 51.579 107.375 51.3936 107.56 51.3936C107.746 51.2082 108.116 51.0228 108.301 50.8374C108.487 50.4666 108.672 50.4666 108.857 50.2812ZM103.855 49.9105L103.669 50.0959C103.114 50.652 102.372 51.2082 101.817 51.9498L101.446 52.3205C100.89 52.8767 100.52 53.4329 99.9639 53.9891L99.5933 54.3598H99.0375V52.5059C99.0375 52.3205 99.0375 51.9498 98.8522 51.579V51.0228C98.8522 50.652 98.6669 50.2812 98.6669 49.9105V49.1689H98.8522C99.0375 49.1689 99.0375 49.1689 99.2228 48.9835C99.408 48.9835 99.408 48.9835 99.5933 48.7981C99.7786 48.7981 99.9639 48.7981 99.9639 48.6127C100.149 48.6127 100.149 48.6127 100.334 48.4273C100.52 48.4273 100.705 48.242 100.89 48.242C101.076 48.242 101.076 48.242 101.261 48.0566C101.631 48.0566 101.817 47.8712 102.187 47.8712H102.372C103.114 47.6858 104.04 47.5004 104.781 47.315C105.152 47.1296 105.522 47.1296 106.078 46.9442H106.263C106.634 46.9442 107.004 46.7588 107.375 46.7588H107.56L107.375 46.9442C107.004 47.315 106.449 47.6858 106.078 48.0566C105.893 48.242 105.707 48.242 105.522 48.4273C104.781 48.9835 104.225 49.3543 103.855 49.9105ZM107.931 43.051H107.746C107.375 43.051 107.19 43.2364 107.004 43.2364C106.819 43.2364 106.634 43.2364 106.449 43.4218C106.078 43.6072 105.522 43.6072 105.152 43.7926C104.966 43.7926 104.781 43.7926 104.596 43.978C104.411 43.978 104.04 44.1634 103.855 44.1634C103.669 44.1634 103.484 44.1634 103.299 44.3488C103.114 44.3488 102.743 44.5341 102.558 44.5341C102.372 44.5341 102.187 44.5341 102.002 44.7195C101.817 44.7195 101.446 44.9049 101.261 44.9049C101.076 44.9049 101.076 44.9049 100.89 45.0903C100.52 45.0903 100.334 45.2757 100.149 45.2757H99.9639C99.2228 45.4611 98.6669 45.6465 98.1111 45.8319V45.6465C97.7405 44.3488 97.5553 43.2364 97.1847 42.1241C97.1847 41.9387 96.9994 41.5679 96.9994 41.3825C96.6289 40.2702 96.2583 39.1578 95.8878 38.2309C95.8878 38.0455 95.8878 38.0455 95.7025 37.8601C95.3319 32.8546 94.2203 28.5906 93.1086 25.6243C97.37 28.776 104.225 34.8939 107.931 43.051ZM80.695 22.2873C81.4361 23.0289 82.1772 23.585 82.7331 24.3266C82.9183 24.512 83.1036 24.6974 83.2889 25.0682C83.8447 25.6243 84.2153 26.1805 84.7711 26.7367C87.5503 30.0737 89.9589 34.1523 91.6264 38.6017C91.9969 39.3432 92.1822 40.0848 92.5528 41.0117C92.7381 41.3825 92.7381 41.9387 92.9233 42.3095C93.1086 42.6802 93.1086 43.051 93.2939 43.4218C93.4792 43.978 93.4792 44.3488 93.6644 44.9049C93.6644 45.2757 93.8497 45.4611 93.8497 45.8319C94.035 46.2027 94.035 46.7588 94.2203 47.1296C94.2203 47.5004 94.4055 47.8712 94.4055 48.242C94.5908 48.7981 94.5908 49.3543 94.7761 49.9105C94.7761 50.0959 94.7761 50.2812 94.9614 50.4666C94.9614 50.8374 95.1467 51.0228 95.1467 51.3936V54.1744H94.9614V53.9891C94.9614 53.8037 94.7761 53.8037 94.7761 53.6183C94.7761 53.4329 94.5908 53.4329 94.5908 53.2475L94.2203 52.8767C94.035 52.6913 93.8497 52.3205 93.6644 51.9498C93.6644 51.7644 93.4792 51.7644 93.4792 51.579C93.2939 51.3936 93.2939 51.2082 93.1086 51.0228C92.9233 50.8374 92.9233 50.652 92.7381 50.652C92.5528 50.4666 92.3675 50.2812 92.1822 49.9105C91.9969 49.7251 91.9969 49.5397 91.8117 49.5397C91.6264 49.3543 91.4411 49.1689 91.2558 48.7981C91.0705 48.6127 91.0706 48.4273 90.8853 48.4273C90.7 48.242 90.5147 47.8712 90.3294 47.6858L89.9589 47.315C89.7736 46.9442 89.4031 46.5734 89.0325 46.3881C89.0325 46.3881 89.0325 46.2027 88.8472 46.2027C88.4767 45.8319 88.1061 45.4611 87.9208 45.0903L87.5503 44.7195L86.8092 43.978L86.4386 43.6072C86.2533 43.4218 86.0681 43.2364 85.6975 43.051L85.327 42.6802C85.1417 42.4949 84.9564 42.3095 84.5858 42.1241L84.2153 41.7533C84.03 41.5679 83.6595 41.3825 83.4742 41.1971C83.2889 41.1971 83.2889 41.0117 83.1036 41.0117L81.992 40.4556C81.4361 40.2702 80.8803 40.2702 80.3245 40.4556C80.3245 40.4556 80.1392 40.4556 79.9539 40.6409C79.7686 40.6409 79.7686 40.8263 79.5833 40.8263H79.3981C79.2128 41.0117 79.0275 41.0117 78.657 41.1971C78.4717 41.1971 78.4717 41.3825 78.2864 41.3825C78.1011 41.3825 78.1011 41.5679 77.9158 41.5679C77.7306 41.7533 77.5453 41.7533 77.36 41.9387C77.1747 41.9387 76.9895 42.1241 76.9895 42.1241C76.8042 42.3095 76.4336 42.4949 76.2484 42.6802C76.0631 42.6802 76.0631 42.8656 76.0631 42.8656C76.0631 42.1241 76.0631 41.1971 76.2484 40.4556V39.8994C76.2484 39.1578 76.4336 38.6017 76.4336 37.8601C76.4336 37.4893 76.4336 37.3039 76.6189 36.9331C76.6189 36.377 76.8042 36.0062 76.8042 35.45C76.8042 35.0792 76.9895 34.8938 76.9895 34.5231C76.9895 34.1523 77.1747 33.5961 77.1747 33.2253C77.1747 32.8546 77.36 32.6692 77.36 32.2984C77.5453 31.9276 77.5453 31.3714 77.7306 31.0007C77.7306 30.8153 77.9158 30.4445 77.9158 30.2591C78.1011 29.8883 78.1011 29.3321 78.2864 28.9614C78.2864 28.776 78.4717 28.5906 78.4717 28.4052L79.0275 26.7367C79.7686 24.8828 80.3245 23.3997 80.695 22.2873ZM91.0706 54.1744H66.4286C67.1697 53.6183 67.9109 53.0621 68.652 52.3205L69.0225 51.9498C69.7636 51.3936 70.69 50.652 71.6164 50.0959C71.8017 49.9105 72.1722 49.7251 72.3575 49.5397C73.4692 48.7981 74.3956 48.0566 75.5072 47.5004C78.2864 45.6465 80.5097 44.3488 81.6214 43.7926C81.992 43.978 82.3625 44.3488 82.7331 44.5341L82.9183 44.7195C83.2889 45.0903 83.6595 45.2757 84.03 45.6465L85.1417 46.7588C85.1417 46.9442 85.327 46.9442 85.327 47.1296C85.6975 47.5004 86.0681 47.8712 86.4386 48.4273L86.6239 48.6127C86.9944 48.9835 87.1797 49.3543 87.5503 49.7251C87.5503 49.9105 87.7356 49.9105 87.7356 50.0959C88.1061 50.4666 88.4767 51.0228 88.6619 51.3936C88.6619 51.579 88.8472 51.579 88.8472 51.7644C89.0325 52.1351 89.4031 52.5059 89.5883 52.6913C89.5883 52.8767 89.7736 52.8767 89.7736 53.0621C90.3294 53.4329 90.7 53.8037 91.0706 54.1744ZM79.5833 17.6526C79.3981 17.6526 79.3981 17.8379 79.2128 17.8379C79.2128 17.8379 79.0275 17.8379 79.0275 18.0233L78.4717 18.5795L78.2864 18.7649C78.1011 19.1357 77.7306 19.8772 77.1747 21.175C77.1747 20.9896 76.9895 20.8042 76.9895 20.8042L75.8778 18.5795C75.8778 18.3941 75.6925 18.3941 75.6925 18.2087C75.322 17.2818 74.7661 16.5402 74.3956 15.6133C74.2103 15.4279 74.2103 15.2425 74.025 15.0571C73.6545 14.3155 73.0986 13.574 72.7281 12.8324C72.7281 12.8324 72.7281 12.647 72.5428 12.647C71.987 11.9055 71.6164 10.9785 71.0606 10.2369L70.8753 10.0515C73.8397 11.7201 76.9895 14.5009 79.5833 17.6526ZM69.3931 13.9447C69.9489 14.8717 70.5047 15.7986 70.8753 16.7256C70.8753 16.911 71.0606 17.0964 71.0606 17.0964C71.6164 18.0233 71.987 18.9503 72.5428 19.8772C72.5428 20.0626 72.7281 20.0626 72.7281 20.248C73.2839 21.175 73.6545 22.1019 74.2103 23.2143L75.322 25.9951C75.322 26.1805 75.322 26.1805 75.5072 26.3659C75.5072 26.5513 75.322 26.7367 75.322 26.9221C75.1367 27.2928 75.1367 27.6636 74.9514 28.2198C74.9514 28.5906 74.7661 28.776 74.7661 29.1467C74.5808 29.7029 74.5808 30.0737 74.3956 30.6299C74.3956 31.0007 74.2103 31.3714 74.2103 31.7422C74.025 32.2984 74.025 32.8546 73.8397 33.4107C73.8397 33.7815 73.6545 34.1523 73.6545 34.5231C73.4692 35.0792 73.4692 35.6354 73.2839 36.377C73.2839 36.7478 73.0986 36.9331 73.0986 37.3039C72.9134 36.9331 72.7281 36.5624 72.7281 36.1916C72.7281 36.0062 72.5428 35.8208 72.5428 35.6354C72.1722 34.8939 71.987 34.3377 71.6164 33.5961C71.4311 30.6299 70.8753 21.9165 69.3931 13.9447ZM51.977 36.0062C52.1623 35.45 52.5328 34.8939 52.7181 34.3377V34.1523C54.9414 29.5175 57.5353 25.2536 60.3145 21.175C63.2789 25.0682 65.8728 29.5175 67.9109 34.1523V34.3377C68.2814 35.0792 68.4667 35.6354 68.8372 36.377C68.8372 36.5624 69.0225 36.7477 69.0225 36.9331C69.2078 37.3039 69.3931 37.8601 69.5784 38.2309C69.5784 38.4163 69.7636 38.6017 69.7636 38.787C69.9489 39.1578 70.1342 39.714 70.3195 40.0848C70.3195 40.2702 70.5047 40.4556 70.5047 40.4556C70.69 41.0117 70.8753 41.5679 71.0606 41.9387V42.1241C71.2459 42.4949 71.2459 42.8656 71.4311 43.2364C71.4311 43.4218 71.6164 43.6072 71.6164 43.6072C71.6164 43.7926 71.8017 43.978 71.8017 44.3488C71.8017 44.5341 71.987 44.7195 71.987 44.9049V45.0903L70.3195 46.2027C69.9489 46.388 69.5784 46.7588 69.2078 46.9442C68.2814 47.5004 67.5403 48.242 66.6139 48.7981L66.0581 49.3543C64.9464 50.0959 64.02 51.0228 63.0936 51.7644L62.3525 52.5059C61.7967 53.0621 61.2409 53.4329 60.685 53.9891H59.7586C59.5734 53.9891 59.5734 53.8037 59.3881 53.8037C58.4617 53.0621 57.5353 52.1352 56.7942 51.3936C55.8678 50.652 54.9414 49.9105 54.2003 49.1689L53.8298 48.7981C52.9034 48.0566 52.1623 47.5004 51.2359 46.9442C51.0506 46.7588 50.8653 46.7588 50.68 46.5734C49.9389 46.0173 49.1978 45.4611 48.4567 45.0903H48.2714C48.2714 44.9049 48.4567 44.7195 48.4567 44.3488V44.1634C48.4567 43.978 48.642 43.6072 48.642 43.2364V43.051C48.642 42.8656 48.8273 42.4949 49.0125 42.1241C49.0125 41.9387 49.0125 41.9387 49.1978 41.7533C49.3831 41.3825 49.3831 41.0117 49.5684 40.6409V40.4556C49.7537 40.0848 49.7537 39.714 49.9389 39.3432C49.9389 39.1578 50.1242 39.1578 50.1242 38.9724C50.3095 38.6017 50.4948 38.0455 50.68 37.6747V37.4893C50.8653 37.1185 51.0506 36.5624 51.2359 36.1916C51.977 36.377 51.977 36.1916 51.977 36.0062ZM54.5709 54.1744H29.929C30.1142 53.8037 30.4848 53.4329 30.8553 52.8767C30.8553 52.6913 31.0406 52.6913 31.0406 52.5059C31.2259 52.1352 31.5965 51.7644 31.7817 51.3936C31.7817 51.2082 31.967 51.2082 31.967 51.0228C32.3376 50.652 32.5228 50.2812 32.8934 49.7251L33.264 49.3543C33.4492 48.9835 33.8198 48.6127 34.1903 48.242C34.1903 48.0566 34.3756 48.0566 34.3756 47.8712L35.4873 46.7588L35.8578 46.3881C36.2284 46.0173 36.4137 45.6465 36.7842 45.4611L36.9695 45.2757C37.3401 44.9049 37.7106 44.5341 38.0812 44.3488C38.2664 44.3488 38.2664 44.1634 38.4517 44.1634C38.8223 43.7926 39.1928 43.6072 39.5634 43.4218C39.7487 43.6072 40.1192 43.7926 40.4898 43.978H40.8603C42.1573 44.7195 43.8248 45.6465 45.8628 46.9442L47.5303 48.0566C47.7156 48.242 47.9009 48.242 48.0862 48.4273C48.642 48.7981 49.3831 49.3543 49.9389 49.7251H50.1242C50.8653 50.2812 51.4212 50.8374 52.1623 51.2082C52.3475 51.3936 52.5328 51.579 52.7181 51.579C53.2739 52.1352 54.015 52.5059 54.5709 53.0621C54.3856 54.1744 54.5709 54.1744 54.5709 54.1744ZM49.3831 16.5402C49.5684 16.1694 49.7537 15.7986 49.9389 15.6133C50.1242 15.4279 50.3095 15.0571 50.3095 14.8717C50.4948 14.5009 50.68 14.3155 50.8653 13.9447C51.0506 13.7594 51.2359 13.3886 51.4212 13.2032C51.6064 13.0178 51.6064 12.8324 51.7917 12.8324C50.3095 21.175 49.5684 30.4445 49.3831 33.2253V33.4107C49.1978 33.9669 49.0125 34.3377 48.642 34.8939C48.642 35.0792 48.4567 35.0792 48.4567 35.2646C48.2714 35.8208 48.0862 36.377 47.7156 36.7478V36.5624C47.5303 35.6354 47.345 34.5231 47.1598 33.5961C47.1598 33.2253 46.9745 33.0399 46.9745 32.6692C46.7892 31.9276 46.7892 31.3714 46.6039 30.8153C46.6039 30.4445 46.4187 30.0737 46.4187 29.8883C46.2334 29.3321 46.2334 28.776 46.0481 28.2198C46.0481 27.849 45.8628 27.6636 45.8628 27.2928C45.6776 26.7367 45.4923 26.3659 45.4923 25.8097C45.4923 25.6243 45.307 25.4389 45.307 25.2536C45.307 25.0682 45.4923 24.8828 45.4923 24.512C45.4923 24.3266 45.6776 23.9558 45.6776 23.7704C45.8628 23.3997 45.8628 23.0289 46.0481 22.8435C46.2334 22.6581 46.2334 22.4727 46.4187 22.1019C46.6039 21.7311 46.7892 21.3604 46.9745 20.8042C46.9745 20.6188 47.1598 20.4334 47.1598 20.248C47.5303 19.6918 47.7156 19.1357 48.0862 18.5795C48.2714 18.3941 48.2714 18.2087 48.4567 18.0233L49.0125 16.911C49.1978 17.0964 49.3831 16.7256 49.3831 16.5402ZM49.0125 10.4223C49.0125 10.6077 48.8273 10.6077 48.8273 10.7931L47.7156 12.4616C47.5303 12.647 47.5303 12.8324 47.345 13.0178L46.2334 14.6863C46.0481 14.8717 46.0481 15.0571 45.8628 15.2425C45.4923 15.984 44.9364 16.7256 44.5659 17.4672C44.3806 17.6526 44.3806 17.8379 44.1953 18.0233C43.8248 18.5795 43.6395 19.1357 43.2689 19.8772C43.2689 20.0626 43.0837 20.248 43.0837 20.248V20.0626C43.0837 19.8772 42.8984 19.8772 42.8984 19.6918C42.8984 19.5065 42.7131 19.5065 42.7131 19.3211C42.7131 19.1357 42.5278 19.1357 42.5278 18.9503C42.5278 18.7649 42.5278 18.7649 42.3426 18.7649V18.3941L41.7867 17.8379C41.7867 17.8379 41.6014 17.8379 41.6014 17.6526C41.4162 17.6526 41.4162 17.4672 41.2309 17.4672C43.8248 14.8717 46.6039 12.2762 49.0125 10.4223ZM28.632 39.8994C28.8173 39.5286 29.0026 38.9724 29.1878 38.6017C31.0406 34.1523 33.264 30.2591 36.0431 26.7367V26.5513C36.4137 25.9951 36.9695 25.4389 37.3401 25.0682C37.5253 24.8828 37.7106 24.512 37.8959 24.3266C38.637 23.585 39.3781 22.8435 40.1192 22.2873V22.4727C40.3045 22.6581 40.3045 23.0289 40.4898 23.3996C40.6751 24.1412 41.0456 25.0682 41.4162 25.9951C41.6014 26.5513 41.7867 27.1075 41.972 27.849C41.972 28.0344 42.1573 28.2198 42.1573 28.4052C42.3426 28.776 42.3426 29.3321 42.5278 29.8883C42.5278 30.0737 42.7131 30.4445 42.7131 30.6299C42.8984 31.0007 42.8984 31.5568 43.0837 32.113C43.0837 32.4838 43.2689 32.6692 43.2689 33.0399C43.4542 33.5961 43.4542 33.9669 43.6395 34.5231C43.6395 34.8938 43.8248 35.0792 43.8248 35.45C43.8248 36.0062 44.0101 36.5624 44.0101 36.9331C44.0101 37.3039 44.1953 37.4893 44.1953 37.8601C44.1953 38.4163 44.3806 39.1578 44.3806 39.714V40.4556C44.3806 41.3825 44.5659 42.1241 44.5659 43.051C44.3806 42.8656 44.1953 42.8656 44.0101 42.6802C43.8248 42.3095 43.8248 42.3095 43.6395 42.1241C43.4542 41.9387 43.2689 41.9387 43.0837 41.7533C42.8984 41.5679 42.7131 41.5679 42.5278 41.5679C42.3426 41.5679 42.1573 41.3825 42.1573 41.3825C41.972 41.1971 41.6014 41.1971 41.4162 41.0117C41.4162 41.0117 41.2309 41.0117 41.2309 40.8263C41.0456 40.8263 40.8603 40.6409 40.8603 40.6409H40.6751C40.4898 40.6409 40.4898 40.4556 40.3045 40.4556H40.1192C39.5634 40.2702 39.0076 40.2702 38.4517 40.4556L37.3401 41.0117C37.1548 41.0117 37.1548 41.1971 36.9695 41.1971C36.7842 41.3825 36.4137 41.5679 36.2284 41.7533L35.8578 42.1241C35.6726 42.3095 35.302 42.4949 35.1167 42.6802L34.7462 43.051C34.5609 43.2364 34.1903 43.4218 34.0051 43.7926L33.6345 44.1634L32.8934 44.9049L32.7081 45.0903C31.967 45.8319 31.4112 46.5734 30.6701 47.5004C30.6701 47.6858 30.4848 47.6858 30.4848 47.8712C30.2995 48.242 29.929 48.4273 29.7437 48.7981C29.5584 48.9835 29.5584 48.9835 29.5584 49.1689C29.3731 49.3543 29.1878 49.7251 29.0026 49.9105C29.0026 50.0959 28.8173 50.0959 28.8173 50.2812C28.632 50.652 28.4467 50.8374 28.2615 51.2082L28.0762 51.3936C27.8909 51.7644 27.7056 51.9498 27.3351 52.3205C26.7792 53.2475 26.2234 53.9891 25.8529 54.5452H25.6676V51.9498C25.6676 51.579 25.6676 51.3936 25.8529 51.0228V50.4666C25.8529 49.9105 26.0381 49.3543 26.2234 48.7981C26.4087 48.242 26.4087 47.8712 26.594 47.315C26.594 46.9442 26.7792 46.7588 26.7792 46.3881C26.9645 45.8319 26.9645 45.4611 27.1498 44.9049C27.1498 44.5341 27.3351 44.3488 27.3351 43.978C27.5204 43.6072 27.5204 43.051 27.7056 42.6802C27.8909 42.3095 27.8909 41.9387 28.0762 41.5679C28.4467 40.6409 28.4467 40.2702 28.632 39.8994ZM28.2615 25.2536C27.1498 28.2198 26.2234 32.4838 25.6676 37.4893C25.6676 37.4893 25.6676 37.6747 25.4823 37.6747L24.3706 41.0117C24.3706 41.1971 24.1854 41.5679 24.1854 41.7533C23.8148 42.8656 23.4442 44.1634 23.259 45.2757V45.4611C23.0737 45.4611 22.8884 45.4611 22.8884 45.2757C22.7031 45.2757 22.3326 45.0903 22.1473 45.0903C21.962 45.0903 21.7767 44.9049 21.5915 44.9049C21.4062 44.9049 21.2209 44.7195 21.0356 44.7195C20.8504 44.7195 20.6651 44.5341 20.4798 44.5341C20.2945 44.5341 20.1092 44.3488 19.924 44.3488C19.7387 44.3488 19.5534 44.1634 19.3681 44.1634C19.1829 44.1634 18.9976 43.978 18.8123 43.978C18.4417 44.1634 18.0712 44.1634 17.8859 44.1634C17.7006 44.1634 17.5154 43.978 17.3301 43.978C17.1448 43.978 16.7743 43.7926 16.589 43.7926C16.4037 43.7926 16.2184 43.7926 16.0331 43.6072C15.6626 43.4218 15.1068 43.4218 14.7362 43.2364H14.3656C13.9951 43.2364 13.6245 43.051 13.4393 43.051H13.254C16.7743 34.8939 23.6295 28.776 28.2615 25.2536ZM22.5179 49.1689V49.9105C22.5179 50.2812 22.3326 50.652 22.3326 51.0228V54.1744H21.7767L21.4062 53.8037C21.0356 53.2475 20.4798 52.6913 20.1092 52.3205L19.5534 51.7644C18.9976 51.2082 18.4417 50.4666 17.7006 49.9105L17.5154 49.7251C16.9595 49.1689 16.4037 48.7981 16.0331 48.4273C15.8479 48.242 15.6626 48.0566 15.4773 48.0566C15.1068 47.6858 14.5509 47.315 14.1804 46.9442L13.9951 46.7588H14.3656C14.5509 46.7588 14.7362 46.7588 14.9215 46.9442C15.1068 46.9442 15.4773 47.1296 15.6626 47.1296C15.8479 47.1296 16.0331 47.1296 16.2184 47.315C16.4037 47.315 16.7743 47.5004 16.9595 47.5004H17.1448C18.0712 47.6858 18.9976 48.0566 19.924 48.242H20.2945C20.4798 48.242 20.6651 48.4273 20.8504 48.4273H21.2209C21.4062 48.4273 21.5915 48.6127 21.7767 48.6127C21.962 48.6127 21.962 48.6127 22.1473 48.7981C22.3326 48.7981 22.5179 48.9835 22.7031 48.9835H23.0737C22.3326 49.1689 22.5179 49.1689 22.5179 49.1689ZM7.69565 47.315C7.88093 47.315 8.06621 47.5004 8.06621 47.5004C8.43676 47.6858 8.62204 47.8712 8.80732 47.8712C8.99259 48.0566 9.17787 48.0566 9.36315 48.242C9.54843 48.4273 9.7337 48.4273 9.91898 48.6127C10.1043 48.7981 10.2895 48.7981 10.4748 48.9835C10.6601 49.1689 10.8454 49.3543 11.0306 49.3543L11.4012 49.7251C11.5865 49.9105 11.957 50.0959 12.1423 50.2812C12.3276 50.4666 12.5129 50.4666 12.6981 50.652C12.8834 50.8374 13.254 51.0228 13.4393 51.2082C13.6245 51.3936 13.8098 51.3936 13.9951 51.579L14.7362 52.3205C14.9215 52.5059 15.1068 52.6913 15.292 52.6913C15.4773 53.2475 15.8479 53.4329 16.0331 53.8037L16.4037 54.1744H8.99259C8.80732 51.9498 8.06621 49.3543 7.51037 47.1296L7.69565 47.315ZM116.268 60.4777H4.73121V57.6969H115.712V60.4777H116.268Z" fill="#27357E"/>
</g>
</svg>
