<svg width="160" height="160" viewBox="0 0 160 160" fill="none" xmlns="http://www.w3.org/2000/svg">
<g clip-path="url(#clip0_287_460)">
<path d="M17.8049 58.3652L92.8604 15.0319C97.4541 12.3797 102.913 11.661 108.037 13.0339C113.16 14.4068 117.529 17.7587 120.181 22.3524L150.181 74.3139C152.833 78.9076 153.552 84.3667 152.179 89.4903C150.806 94.6139 147.454 98.9823 142.86 101.634L67.8049 144.968C63.2112 147.62 57.7521 148.339 52.6285 146.966C47.5049 145.593 43.1365 142.241 40.4844 137.647L10.4844 85.6857C7.83221 81.0921 7.11351 75.633 8.48637 70.5094C9.85923 65.3858 13.2112 61.0174 17.8049 58.3652ZM21.1382 64.1387C18.0758 65.9068 15.8411 68.8191 14.9259 72.2348C14.0106 75.6505 14.4898 79.29 16.2579 82.3524L19.5912 88.1259L117.741 31.4592L114.407 25.6857C112.639 22.6233 109.727 20.3886 106.311 19.4734C102.896 18.5582 99.2562 19.0373 96.1937 20.8054L21.1382 64.1387ZM46.2579 134.314C48.026 137.376 50.9382 139.611 54.354 140.526C57.7697 141.442 61.4091 140.962 64.4715 139.194L139.527 95.8609C142.59 94.0928 144.824 91.1806 145.739 87.7649C146.655 84.3491 146.176 80.7097 144.407 77.6473L127.741 48.7798L29.5912 105.446L46.2579 134.314ZM54.4715 121.874L77.5656 108.54L80.8989 114.314L57.8049 127.647L54.4715 121.874ZM89.1126 101.874L106.433 91.8738L109.766 97.6473L92.4459 107.647L89.1126 101.874ZM22.9245 93.8994L26.2579 99.6729L124.407 43.0062L121.074 37.2327L22.9245 93.8994Z" fill="#E4E4E4"/>
</g>
<defs>
<clipPath id="clip0_287_460">
<rect width="160" height="160" fill="white"/>
</clipPath>
</defs>
</svg>
