<svg width="174" height="79" viewBox="0 0 174 79" fill="none" xmlns="http://www.w3.org/2000/svg">
<path d="M163.65 0H10.3495C4.90977 0 0.5 3.12656 0.5 6.98337V72.0166C0.5 75.8734 4.90977 79 10.3495 79H163.65C169.09 79 173.5 75.8734 173.5 72.0166V6.98337C173.5 3.12656 169.09 0 163.65 0Z" fill="#EEEEEE"/>
<path d="M45.2518 40.2259L30.3312 25.7586C29.7626 25.2064 29.2124 24.6448 28.6809 24.0743C28.2494 23.6123 27.836 23.1419 27.4412 22.6637H27.3235C27.3837 23.401 27.4275 24.1772 27.4576 24.9844C27.485 25.7935 27.5014 26.6783 27.5014 27.6388V40.2259H15.7061V10.2454H27.7367L42.0389 24.0025C42.2141 24.183 42.4303 24.3984 42.6875 24.6507C43.2019 25.1573 43.6983 25.6729 44.1763 26.1971C44.4035 26.4494 44.5731 26.6706 44.6936 26.8665H44.8112C44.7094 26.3222 44.6545 25.774 44.647 25.225C44.6382 24.7127 44.6336 24.2005 44.6333 23.6882V10.2454H56.4287V40.224L45.2518 40.2259ZM64.773 40.2259V10.2454H91.1059V17.3102H77.5125V21.6799H90.2821V28.7467H77.5125V33.1591H92.0801V40.2259H64.773ZM119.535 17.3102V40.2259H106.735V17.3102H94.9126V10.2454H131.506V17.3102H119.535Z" fill="#265697"/>
<path d="M36.5959 61.0847C36.5959 61.8978 36.3989 62.6545 35.9993 63.3511C35.5968 64.0543 34.9579 64.6771 34.1384 65.1653C33.2954 65.6776 32.2144 66.0773 30.8926 66.3684C29.5735 66.6595 27.9834 66.803 26.1252 66.803H14.1328V48.16H25.2987C28.8099 48.16 31.429 48.5364 33.1668 49.2912C34.9019 50.046 35.7722 51.1734 35.7722 52.6713C35.7886 53.4625 35.4215 54.2338 34.7322 54.8562C34.4261 55.1379 34.0681 55.3891 33.6676 55.6032C32.6276 56.1621 31.4193 56.5426 30.1373 56.7151V56.7674C31.1663 56.8528 32.0803 57.0391 32.8795 57.3185C33.6813 57.6018 34.3573 57.9394 34.9046 58.3333C35.4575 58.7272 35.8762 59.1638 36.1635 59.6392C36.4509 60.1165 36.5932 60.5978 36.5932 61.0828L36.5959 61.0847ZM27.354 53.6474C27.354 53.0303 27.0119 52.5898 26.3277 52.3201C25.6435 52.0523 24.7076 51.9165 23.5226 51.9165H22.0557V55.4402H24.3463C24.8006 55.4402 25.2111 55.3956 25.5861 55.3044C25.9583 55.2132 26.2757 55.0871 26.5384 54.928C26.7973 54.7713 27.0039 54.5758 27.1433 54.3556C27.2843 54.1329 27.3561 53.8914 27.354 53.6474ZM28.1805 61.0576C28.1884 60.6711 28.0166 60.2935 27.6916 59.9831C27.3666 59.6727 26.9065 59.4469 26.3825 59.3404C25.9918 59.2511 25.5833 59.2071 25.1728 59.2103H22.0529V63.0193H24.6966C25.2084 63.0193 25.6818 62.9766 26.1088 62.8893C26.5357 62.8039 26.9024 62.6778 27.2089 62.5129C27.5251 62.3443 27.7787 62.1237 27.9479 61.8702C28.1172 61.6167 28.197 61.3378 28.1805 61.0576ZM49.8007 66.803V64.7753H49.7268C49.1805 65.4815 48.3881 66.0767 47.4252 66.5042C46.4756 66.9214 45.3371 67.129 44.0043 67.129C43.0519 67.129 42.2199 67.0223 41.5111 66.8108C40.8417 66.6175 40.2411 66.3212 39.7527 65.9433C39.2643 65.5655 38.9003 65.1156 38.6868 64.6259C38.4503 64.1071 38.3329 63.5646 38.3393 63.0193C38.3393 62.5342 38.4296 62.0491 38.6129 61.564C38.7963 61.0789 39.1356 60.6288 39.631 60.2116C40.1236 59.7964 40.816 59.4355 41.7027 59.125C42.5894 58.8184 43.7361 58.6011 45.14 58.4691L49.798 58.0423C49.8031 57.827 49.7245 57.6148 49.5708 57.4291C49.41 57.2427 49.1932 57.0837 48.9359 56.9634C48.6423 56.825 48.3174 56.7232 47.9753 56.6627C47.5764 56.5908 47.1662 56.5556 46.7547 56.5579C46.1307 56.5579 45.5122 56.5967 44.8937 56.6685C44.2927 56.7396 43.6986 56.8375 43.1149 56.9615C42.5667 57.0775 42.0277 57.2141 41.5002 57.3709C41.0251 57.5123 40.5577 57.6663 40.099 57.8327V54.2314C40.5505 54.0936 41.0924 53.9597 41.7218 53.8278C42.3513 53.6978 43.0163 53.5852 43.7197 53.4901C44.423 53.3951 45.1291 53.3155 45.8379 53.2573C46.5495 53.1952 47.2145 53.1661 47.8357 53.1661C49.5489 53.1661 50.983 53.2981 52.1461 53.562C53.3065 53.8259 54.2424 54.2217 54.9512 54.7456C55.6628 55.2695 56.1691 55.9234 56.4729 56.7092C56.7794 57.4931 56.9326 58.409 56.9326 59.4587V66.803H49.8007ZM47.1598 60.9664C46.6351 61.0134 46.138 61.1596 45.7202 61.3894C45.5394 61.4983 45.3965 61.6354 45.3025 61.7898C45.2085 61.9443 45.166 62.112 45.1783 62.28C45.1783 62.4255 45.2112 62.573 45.2796 62.7205C45.3487 62.8757 45.4649 63.0183 45.6199 63.1383C45.775 63.2583 45.9652 63.3528 46.1773 63.4152C46.4534 63.4945 46.7496 63.5328 47.0475 63.5277C47.4239 63.5299 47.7964 63.4744 48.1395 63.3647C48.475 63.2566 48.7723 63.0969 49.0098 62.8971C49.2561 62.6933 49.4477 62.4489 49.5872 62.1617C49.7295 61.8765 49.798 61.5601 49.798 61.2128V60.7064L47.1598 60.9664ZM72.6114 66.803V59.5363C72.6114 59.1017 72.5649 58.7389 72.4746 58.4439C72.4052 58.1869 72.2607 57.943 72.0504 57.7279C71.875 57.5546 71.634 57.4201 71.3552 57.3398C71.0475 57.2579 70.7205 57.2184 70.3919 57.2234C70.0527 57.2158 69.717 57.2734 69.4204 57.3903C69.1533 57.501 68.9264 57.6545 68.7581 57.8385C68.5884 58.0248 68.4598 58.2382 68.3749 58.4769C68.2891 58.7166 68.2458 58.963 68.2463 59.2103V66.803H60.4356V53.4921H68.2463V55.5703H68.3202C68.5747 55.2598 68.8949 54.9571 69.2726 54.668C69.653 54.3769 70.0881 54.1208 70.5862 53.8996C71.6869 53.4103 72.9625 53.155 74.2616 53.1642C75.1401 53.1642 75.9584 53.2573 76.7083 53.4378C77.4609 53.6202 78.1122 53.9268 78.6623 54.3556C79.2097 54.7825 79.6421 55.351 79.954 56.0572C80.266 56.7655 80.4193 57.6387 80.4193 58.6768V66.803H72.6114ZM96.0461 66.803L91.8643 59.9652H91.7904V66.803H83.9798V47.0947H91.7904V59.744H91.8643L95.6602 53.4901H104.462L99.3821 59.5887L104.754 66.803H96.0461ZM114.546 49.9024C114.546 50.2653 114.448 50.6087 114.254 50.9308C114.061 51.2478 113.773 51.5312 113.411 51.7613C113.044 51.9941 112.59 52.1823 112.042 52.3201C111.444 52.465 110.814 52.5352 110.181 52.5277C109.511 52.5277 108.906 52.4579 108.367 52.3143C107.865 52.1862 107.401 51.992 107.001 51.7419C106.636 51.5103 106.344 51.2268 106.144 50.9099C105.943 50.593 105.839 50.2497 105.838 49.9024C105.838 49.5027 105.948 49.1457 106.166 48.8294C106.385 48.5132 106.689 48.2454 107.075 48.0242C107.458 47.803 107.918 47.6342 108.449 47.5158C108.983 47.3994 109.56 47.3412 110.184 47.3412C110.841 47.3412 111.443 47.4032 111.979 47.5294C112.518 47.6555 112.976 47.8301 113.356 48.0552C113.736 48.2806 114.041 48.5634 114.247 48.8831C114.453 49.2027 114.555 49.551 114.546 49.9024ZM106.276 66.803V53.4921H114.089V66.803H106.276ZM130.042 66.803V59.5363C130.042 59.1017 129.995 58.7389 129.905 58.4439C129.836 58.187 129.693 57.9432 129.483 57.7279C129.307 57.5544 129.065 57.4198 128.786 57.3398C128.478 57.2579 128.151 57.2184 127.822 57.2234C127.483 57.2158 127.147 57.2734 126.851 57.3903C126.585 57.5012 126.359 57.6547 126.191 57.8385C126.019 58.0248 125.89 58.2382 125.808 58.4769C125.721 58.7165 125.677 58.9629 125.677 59.2103V66.803H117.866V53.4921H125.677V55.5703H125.751C126.008 55.2598 126.325 54.9571 126.706 54.668C127.083 54.3769 127.521 54.1208 128.017 53.8996C129.117 53.4103 130.393 53.155 131.692 53.1642C132.573 53.1642 133.389 53.2573 134.141 53.4378C134.891 53.6202 135.543 53.9268 136.093 54.3556C136.643 54.7825 137.075 55.351 137.384 56.0572C137.696 56.7655 137.852 57.6387 137.852 58.6768V66.803H130.042ZM161.766 64.9442C161.766 65.6543 161.667 66.349 161.47 67.0242C161.281 67.6889 160.963 68.332 160.526 68.9355C159.598 70.2131 158.125 71.2506 156.317 71.9003C155.229 72.2891 154.073 72.5754 152.88 72.7522C151.417 72.9669 149.926 73.0691 148.433 73.0568C147.29 73.0572 146.15 72.9923 145.023 72.8628C144.553 72.8083 144.087 72.7384 143.627 72.6532C143.214 72.5756 142.888 72.498 142.658 72.4204V68.0778C143.388 68.3892 144.167 68.638 144.979 68.8191C145.471 68.9316 145.997 69.0266 146.555 69.1043C147.111 69.1819 147.664 69.2207 148.214 69.2207C149.166 69.2207 150.001 69.1353 150.718 68.9626C151.429 68.788 152.031 68.5513 152.524 68.2524C153.011 67.9536 153.378 67.6083 153.624 67.2125C153.868 66.8186 153.991 66.3975 153.991 65.9454V65.1265H153.917C153.388 65.6769 152.693 66.1364 151.881 66.4712C150.838 66.9104 149.645 67.1374 148.433 67.1271C147.212 67.1271 146.115 66.9719 145.143 66.6614C144.183 66.3562 143.336 65.898 142.666 65.3225C141.955 64.6964 141.428 63.9751 141.117 63.2017C140.748 62.2938 140.57 61.3523 140.586 60.4076C140.586 59.2026 140.825 58.1471 141.301 57.2409C141.777 56.3348 142.409 55.5819 143.197 54.9784C143.988 54.3769 144.894 53.9229 145.912 53.6202C146.913 53.32 147.989 53.1656 149.076 53.1661C149.735 53.1661 150.324 53.2146 150.835 53.3155C151.35 53.4145 151.802 53.5445 152.193 53.7036C152.584 53.8647 152.921 54.047 153.2 54.2508C153.482 54.4545 153.72 54.6602 153.917 54.8679H153.991V53.4901H161.763L161.766 64.9442ZM154.12 59.7692C154.12 59.4917 154.076 59.2046 153.991 58.9057C153.911 58.617 153.762 58.3401 153.55 58.0869C153.342 57.8386 153.056 57.6269 152.716 57.4679C152.322 57.2944 151.865 57.2085 151.402 57.2215C150.974 57.217 150.553 57.2955 150.184 57.4485C149.813 57.6079 149.499 57.8265 149.267 58.0869C149.018 58.3586 148.829 58.6826 148.701 59.0551C148.572 59.4277 148.509 59.8352 148.509 60.2776C148.509 61.1352 148.728 61.8163 149.166 62.3188C149.607 62.8214 150.305 63.0717 151.257 63.0717C151.722 63.0717 152.133 62.9999 152.497 62.8582C152.86 62.7135 153.168 62.5084 153.394 62.2606C153.632 62.0045 153.813 61.7037 153.936 61.3564C154.062 60.9861 154.124 60.6061 154.12 60.2252V59.7692Z" fill="#265697"/>
</svg>
