<svg width="24" height="24" viewBox="0 0 24 24" fill="none" xmlns="http://www.w3.org/2000/svg">
<g id="support">
<path id="Vector" d="M20.322 11.7252C20.3216 11.1031 20.2499 10.483 20.1084 9.87719L20.1036 9.85799C19.666 8.04467 18.6298 6.43187 17.1624 5.28021C15.695 4.12854 13.8821 3.5053 12.0168 3.51119L12.0072 3.50999H11.9844C10.1167 3.49636 8.29974 4.11684 6.83055 5.26997C5.36135 6.42309 4.3269 8.04061 3.89636 9.85799L3.89156 9.87719C3.55034 11.3506 3.62092 12.8895 4.09556 14.3256C4.16832 14.5479 4.28567 14.753 4.44042 14.9284C4.59517 15.1037 4.78407 15.2457 4.99556 15.3456C5.23867 15.4636 5.50532 15.5251 5.77556 15.5256C5.97007 15.5255 6.16331 15.4943 6.34796 15.4332L7.05716 15.1884C7.44362 15.0615 7.77442 14.805 7.99371 14.4625C8.213 14.1199 8.30732 13.7121 8.26076 13.308L8.00156 11.1C7.94786 10.6909 7.75569 10.3125 7.45701 10.0278C7.15834 9.74308 6.77118 9.56924 6.35996 9.53519L5.25836 9.45839C5.73739 8.07579 6.63419 6.87621 7.82474 6.02554C9.01529 5.17487 10.4407 4.71516 11.904 4.70999H12.0072C13.4881 4.6861 14.9383 5.13307 16.1488 5.98646C17.3594 6.83984 18.2676 8.05557 18.7428 9.45839L17.6328 9.53639C17.2217 9.572 16.8353 9.74728 16.5377 10.0331C16.2401 10.3189 16.0494 10.6979 15.9972 11.1072L15.7392 13.3152C15.6935 13.7174 15.7876 14.1231 16.0057 14.4642C16.2238 14.8053 16.5525 15.061 16.9368 15.1884L17.6604 15.438C17.7704 15.4667 17.8829 15.4848 17.9964 15.492C17.4485 16.3565 16.7168 17.0897 15.8534 17.6394C14.9899 18.189 14.016 18.5416 13.0008 18.672C12.8981 18.5265 12.7626 18.4074 12.6051 18.3244C12.4476 18.2414 12.2728 18.1969 12.0948 18.1944C11.8899 18.1915 11.688 18.2435 11.51 18.345C11.332 18.4465 11.1843 18.5937 11.0824 18.7715C10.9805 18.9492 10.928 19.151 10.9304 19.3559C10.9327 19.5608 10.9898 19.7613 11.0958 19.9366C11.2018 20.112 11.3528 20.2558 11.533 20.3532C11.7133 20.4505 11.9164 20.4979 12.1212 20.4903C12.3259 20.4827 12.5249 20.4205 12.6975 20.3101C12.8701 20.1997 13.01 20.0451 13.1028 19.8624C14.6171 19.6798 16.0501 19.0767 17.2393 18.1215C18.4285 17.1662 19.3264 15.897 19.8312 14.4576C19.8504 14.4132 19.8876 14.3796 19.9032 14.3328C20.1842 13.4927 20.3257 12.6122 20.322 11.7264V11.7252ZM6.26756 10.7292C6.40336 10.7405 6.53124 10.7978 6.63008 10.8916C6.72891 10.9854 6.79279 11.1102 6.81116 11.2452L7.06796 13.4412C7.08265 13.5732 7.05126 13.7063 6.97909 13.8178C6.90692 13.9293 6.79842 14.0125 6.67196 14.0532L5.96636 14.2956C5.81762 14.3433 5.65628 14.3326 5.51516 14.2656C5.44889 14.2347 5.38967 14.1906 5.34116 14.1358C5.29265 14.0812 5.2559 14.0171 5.23316 13.9476C4.88217 12.8818 4.79002 11.7477 4.96436 10.6392L6.26756 10.7292ZM18.4836 14.2656C18.3459 14.3323 18.1881 14.3443 18.042 14.2992L17.322 14.0508C17.1976 14.0101 17.0909 13.9279 17.0197 13.8181C16.9485 13.7083 16.9171 13.5774 16.9308 13.4472L17.1888 11.25C17.2059 11.1153 17.2683 10.9905 17.3658 10.8961C17.4633 10.8016 17.59 10.7432 17.7252 10.7304L19.0356 10.6392C19.206 11.7162 19.1213 12.8181 18.7884 13.8564C18.7848 13.8648 18.7776 13.8708 18.7752 13.8804C18.7536 13.9464 18.72 14.0052 18.696 14.0724C18.6442 14.1543 18.5712 14.2207 18.4848 14.2644L18.4836 14.2656ZM12 8.59079C11.8434 8.59173 11.6927 8.53144 11.58 8.42279C11.5229 8.36623 11.4777 8.29893 11.4468 8.22479C11.4159 8.15064 11.4 8.07111 11.4 7.99079C11.3984 7.91212 11.4148 7.83413 11.448 7.76279C11.4761 7.6892 11.5213 7.62339 11.58 7.57079C11.6935 7.46362 11.8438 7.40392 12 7.40392C12.1561 7.40392 12.3064 7.46362 12.42 7.57079C12.4777 7.62427 12.5236 7.6893 12.5546 7.76165C12.5856 7.83401 12.6011 7.91207 12.6 7.99079C12.5999 8.0711 12.584 8.15061 12.5531 8.22475C12.5222 8.29888 12.4769 8.36619 12.42 8.42279C12.3072 8.53144 12.1565 8.59173 12 8.59079ZM10.02 7.57079C10.0777 7.62427 10.1236 7.6893 10.1546 7.76165C10.1856 7.83401 10.2011 7.91207 10.2 7.99079C10.1999 8.0711 10.184 8.15061 10.1531 8.22475C10.1222 8.29888 10.0769 8.36619 10.02 8.42279C9.90724 8.53144 9.75652 8.59173 9.59996 8.59079C9.52117 8.59375 9.44287 8.57727 9.37196 8.54279C9.29995 8.51731 9.23441 8.47635 9.17996 8.42279C9.12293 8.36623 9.07766 8.29893 9.04676 8.22479C9.01587 8.15064 8.99996 8.07111 8.99996 7.99079C8.99885 7.91207 9.01431 7.83401 9.04532 7.76165C9.07632 7.6893 9.1222 7.62427 9.17996 7.57079C9.29355 7.46362 9.4438 7.40392 9.59996 7.40392C9.75612 7.40392 9.90638 7.46362 10.02 7.57079ZM13.98 8.42279C13.9185 8.36782 13.8729 8.29737 13.848 8.21879C13.8135 8.14788 13.797 8.06957 13.8 7.99079C13.7989 7.91207 13.8143 7.83401 13.8453 7.76165C13.8763 7.6893 13.9222 7.62427 13.98 7.57079C14.0921 7.46085 14.2429 7.39927 14.4 7.39927C14.557 7.39927 14.7078 7.46085 14.82 7.57079C14.8777 7.62427 14.9236 7.6893 14.9546 7.76165C14.9856 7.83401 15.0011 7.91207 15 7.99079C15.0026 8.06955 14.9862 8.14779 14.952 8.21879C14.927 8.29735 14.8814 8.36778 14.82 8.42279C14.7067 8.5305 14.5563 8.59056 14.4 8.59056C14.2436 8.59056 14.0933 8.5305 13.98 8.42279Z" fill="white"/>
</g>
</svg>
