<svg width="49" height="48" viewBox="0 0 49 48" fill="none" xmlns="http://www.w3.org/2000/svg">
<path d="M26.8828 37.75H21.7148C21.4864 37.75 21.2673 37.8405 21.1058 38.0017C20.9443 38.1629 20.8535 38.3815 20.8535 38.6094C20.8535 38.8373 20.9443 39.0559 21.1058 39.217C21.2673 39.3782 21.4864 39.4688 21.7148 39.4688H26.8828C27.1113 39.4688 27.3303 39.3782 27.4919 39.217C27.6534 39.0559 27.7441 38.8373 27.7441 38.6094C27.7441 38.3815 27.6534 38.1629 27.4919 38.0017C27.3303 37.8405 27.1113 37.75 26.8828 37.75ZM35.4961 3.375H13.1016C12.4162 3.375 11.759 3.64662 11.2744 4.13012C10.7898 4.61361 10.5176 5.26936 10.5176 5.95312V42.0469C10.5176 42.7306 10.7898 43.3864 11.2744 43.8699C11.759 44.3534 12.4162 44.625 13.1016 44.625H35.4961C36.1814 44.625 36.8387 44.3534 37.3232 43.8699C37.8078 43.3864 38.0801 42.7306 38.0801 42.0469V5.95312C38.0801 5.26936 37.8078 4.61361 37.3232 4.13012C36.8387 3.64662 36.1814 3.375 35.4961 3.375ZM36.3574 42.0469C36.3574 42.2748 36.2667 42.4934 36.1051 42.6545C35.9436 42.8157 35.7245 42.9062 35.4961 42.9062H13.1016C12.8731 42.9062 12.654 42.8157 12.4925 42.6545C12.331 42.4934 12.2402 42.2748 12.2402 42.0469V5.95312C12.2402 5.7252 12.331 5.50662 12.4925 5.34546C12.654 5.18429 12.8731 5.09375 13.1016 5.09375H35.4961C35.7245 5.09375 35.9436 5.18429 36.1051 5.34546C36.2667 5.50662 36.3574 5.7252 36.3574 5.95312V42.0469ZM24.2988 13.6875C21.9314 13.6827 19.634 14.489 17.7909 15.9715C15.9477 17.454 14.6706 19.5229 14.1729 21.8322C13.6752 24.1416 13.9873 26.5514 15.0568 28.6587C16.1263 30.766 17.8885 32.4432 20.0487 33.4097C22.2089 34.3762 24.6362 34.5735 26.9248 33.9686C29.2133 33.3637 31.2243 31.9933 32.6216 30.0864C34.0189 28.1796 34.7178 25.852 34.6013 23.4927C34.4849 21.1335 33.5602 18.8856 31.9819 17.125C31.0147 16.0462 29.8308 15.1825 28.5071 14.5903C27.1834 13.998 25.7495 13.6904 24.2988 13.6875ZM28.1576 16.3516C28.4786 16.5094 28.7893 16.6874 29.0878 16.8844L29.4668 17.125L29.5874 17.2109L29.9147 17.5031C29.4876 17.7255 29.0442 17.9151 28.5882 18.0703C28.4677 17.7266 28.3471 17.4 28.2093 17.0734V16.9359C28.0747 16.6421 27.9252 16.3552 27.7614 16.0766L28.1576 16.3516ZM22.2316 17.3141V17.2109C22.3554 16.9792 22.4935 16.7553 22.6451 16.5406L22.9035 16.1969L23.1102 15.9734C23.2501 15.8349 23.4063 15.7137 23.5753 15.6125H23.6959C23.8603 15.5157 24.0477 15.4647 24.2385 15.4647C24.4294 15.4647 24.6168 15.5157 24.7812 15.6125H24.9018C25.0708 15.7137 25.227 15.8349 25.3669 15.9734L25.5736 16.1969L25.832 16.5406C25.9836 16.7553 26.1217 16.9792 26.2454 17.2109V17.3141C26.4516 17.7198 26.63 18.139 26.7795 18.5688C25.0725 18.8968 23.3184 18.8968 21.6115 18.5688C21.7944 18.1362 22.0074 17.717 22.2489 17.3141H22.2316ZM17.4082 18.8438C18.0619 19.2307 18.7549 19.5475 19.4754 19.7891C19.372 20.2875 19.2859 20.8031 19.217 21.3531V21.4734C19.217 22.0234 19.1136 22.5906 19.0792 23.1922H15.6855C15.8459 21.6117 16.4422 20.1065 17.4082 18.8438ZM17.4082 29.1562C16.451 27.9081 15.8552 26.4219 15.6855 24.8594H19.1309C19.1309 25.4438 19.1309 26.0109 19.2687 26.5781V26.6984C19.2687 27.2312 19.4237 27.7641 19.5271 28.2625C18.7909 28.4843 18.0806 28.7839 17.4082 29.1562ZM20.8535 31.8203L20.4918 31.6484C20.1707 31.4906 19.86 31.3126 19.5615 31.1156L19.0447 30.7375L18.7174 30.4453C19.1445 30.223 19.588 30.0334 20.0439 29.8781C20.1645 30.2219 20.285 30.5484 20.4229 30.875V31.0125C20.5574 31.3064 20.7069 31.5932 20.8707 31.8719L20.8535 31.8203ZM20.509 16.9875V17.125C20.3712 17.4344 20.2334 17.7609 20.13 18.1219C19.6739 17.967 19.2305 17.7774 18.8036 17.5547L19.1309 17.2625L19.6649 16.8844C19.9578 16.688 20.2628 16.5101 20.5779 16.3516L20.7846 16.2484L20.8535 16.1281C20.7072 16.4078 20.575 16.6946 20.4573 16.9875H20.509ZM26.4177 30.7375V30.8406C26.294 31.0724 26.1559 31.2963 26.0043 31.5109L25.7459 31.8547L25.5391 32.0781C25.3992 32.2167 25.2431 32.3379 25.074 32.4391H24.9534C24.789 32.5358 24.6017 32.5868 24.4108 32.5868C24.2199 32.5868 24.0326 32.5358 23.8682 32.4391H23.7476C23.5785 32.3379 23.4224 32.2167 23.2825 32.0781L23.0757 31.8547L22.8173 31.5109C22.6658 31.2963 22.5277 31.0724 22.4039 30.8406V30.7375C22.1978 30.3318 22.0193 29.9126 21.8699 29.4828C23.5768 29.1547 25.3309 29.1547 27.0379 29.4828C26.8361 29.8991 26.6058 30.3011 26.3488 30.6859L26.4177 30.7375ZM27.6408 26.4234C27.6408 26.9047 27.503 27.3516 27.4168 27.7984C25.4041 27.3956 23.3313 27.3956 21.3186 27.7984C21.2325 27.3687 21.1464 26.9047 21.0947 26.4406C20.9339 25.9594 20.8535 25.4323 20.8535 24.8594H27.7441C27.7441 25.4323 27.6925 25.9365 27.5891 26.3719L27.6408 26.4234ZM20.8535 23.1406C20.8535 22.625 20.8937 22.1266 20.9741 21.6453C20.9741 21.1641 21.1119 20.7172 21.198 20.2875C21.6632 20.3906 22.1455 20.4766 22.6279 20.5281C23.1836 20.5741 23.7417 20.5856 24.2988 20.5625C24.8402 20.5605 25.3809 20.5261 25.9181 20.4594C26.4005 20.4594 26.8828 20.3219 27.3479 20.2359C27.4341 20.6656 27.5202 21.1297 27.5719 21.5938C27.6293 22.075 27.6695 22.5734 27.6925 23.0891L20.8535 23.1406ZM29.5702 30.7203L29.0361 31.0984C28.7432 31.2948 28.4383 31.4727 28.1231 31.6313L27.9164 31.7344L27.658 31.8547C27.8219 31.576 27.9714 31.2892 28.1059 30.9953V30.8578C28.2437 30.5484 28.3815 30.2219 28.4849 29.8609C28.9409 30.0158 29.3844 30.2054 29.8113 30.4281L29.5702 30.7203ZM31.1895 29.1562C30.5357 28.7693 29.8428 28.4525 29.1223 28.2109C29.2256 27.7125 29.3118 27.1969 29.3807 26.6469V26.5266C29.3807 25.9766 29.484 25.4094 29.5185 24.8078H32.9638C32.7883 26.3935 32.174 27.8992 31.1895 29.1562ZM29.4668 23.1406C29.4668 22.5562 29.4668 21.9891 29.329 21.4219V21.3016C29.329 20.7688 29.1739 20.2359 29.0706 19.7375C29.8067 19.5157 30.5171 19.2161 31.1895 18.8438C32.1525 20.1017 32.7486 21.6005 32.9121 23.175L29.4668 23.1406ZM18.2695 10.25H30.3281C30.5566 10.25 30.7756 10.1595 30.9372 9.99829C31.0987 9.83713 31.1895 9.61855 31.1895 9.39062C31.1895 9.1627 31.0987 8.94412 30.9372 8.78296C30.7756 8.62179 30.5566 8.53125 30.3281 8.53125H18.2695C18.0411 8.53125 17.822 8.62179 17.6605 8.78296C17.4989 8.94412 17.4082 9.1627 17.4082 9.39062C17.4082 9.61855 17.4989 9.83713 17.6605 9.99829C17.822 10.1595 18.0411 10.25 18.2695 10.25Z" fill="#4F4F4F"/>
</svg>
