<svg width="49" height="48" viewBox="0 0 49 48" fill="none" xmlns="http://www.w3.org/2000/svg">
<path d="M36.0262 43.2854H12.1769C11.3618 43.2847 10.5804 42.9811 10.004 42.4413C9.42764 41.9016 9.10343 41.1697 9.10254 40.4062V7.5935C9.10343 6.83008 9.42764 6.09818 10.004 5.5584C10.5804 5.01862 11.3618 4.71507 12.1769 4.71436H36.0262C36.8412 4.7151 37.6227 5.01867 38.199 5.55844C38.7753 6.09821 39.0995 6.8301 39.1004 7.5935V40.4062C39.0995 41.1696 38.7753 41.9015 38.199 42.4413C37.6227 42.9811 36.8412 43.2846 36.0262 43.2854ZM12.1769 5.84096C11.6808 5.84138 11.205 6.02614 10.8542 6.3547C10.5033 6.68326 10.3059 7.12878 10.3053 7.5935V40.4062C10.3059 40.8709 10.5032 41.3163 10.854 41.6449C11.2048 41.9734 11.6804 42.1583 12.1764 42.1588H36.0262C36.5223 42.1583 36.998 41.9736 37.3488 41.645C37.6997 41.3164 37.8971 40.8709 37.8976 40.4062V7.5935C37.8971 7.12888 37.6998 6.68344 37.349 6.3549C36.9983 6.02635 36.5227 5.84152 36.0267 5.84096H12.1769Z" fill="#4F4F4F"/>
<path d="M26.801 37.2656H21.4004C20.9902 37.2622 20.5981 37.1072 20.3093 36.8343C20.0205 36.5615 19.8585 36.1928 19.8585 35.8086C19.8585 35.4244 20.0205 35.0557 20.3093 34.7828C20.5981 34.51 20.9902 34.355 21.4004 34.3516H26.801C27.2112 34.355 27.6033 34.51 27.8921 34.7828C28.1809 35.0557 28.3429 35.4244 28.3429 35.8086C28.3429 36.1928 28.1809 36.5615 27.8921 36.8343C27.6033 37.1072 27.2112 37.2622 26.801 37.2656ZM21.4004 35.4782C21.308 35.4798 21.2199 35.5153 21.1552 35.5771C21.0904 35.6389 21.0541 35.722 21.0541 35.8086C21.0541 35.8952 21.0904 35.9783 21.1552 36.0401C21.2199 36.1019 21.308 36.1374 21.4004 36.139H26.801C26.8934 36.1374 26.9815 36.1019 27.0462 36.0401C27.111 35.9783 27.1472 35.8952 27.1472 35.8086C27.1472 35.722 27.111 35.6389 27.0462 35.5771C26.9815 35.5153 26.8934 35.4798 26.801 35.4782H21.4004ZM28.3907 33.4722H19.8105C19.398 33.4722 19.0024 33.3187 18.7107 33.0455C18.4189 32.7722 18.2551 32.4017 18.2551 32.0153C18.2551 31.6289 18.4189 31.2583 18.7107 30.9851C19.0024 30.7118 19.398 30.5583 19.8105 30.5583H28.3907C28.8033 30.5583 29.1989 30.7118 29.4906 30.9851C29.7823 31.2583 29.9462 31.6289 29.9462 32.0153C29.9462 32.4017 29.7823 32.7722 29.4906 33.0455C29.1989 33.3187 28.8033 33.4722 28.3907 33.4722ZM19.8105 31.6849C19.717 31.6849 19.6273 31.7197 19.5612 31.7817C19.495 31.8436 19.4579 31.9277 19.4579 32.0153C19.4579 32.1029 19.495 32.1869 19.5612 32.2488C19.6273 32.3108 19.717 32.3456 19.8105 32.3456H28.3907C28.4843 32.3456 28.574 32.3108 28.6401 32.2488C28.7062 32.1869 28.7434 32.1029 28.7434 32.0153C28.7434 31.9277 28.7062 31.8436 28.6401 31.7817C28.574 31.7197 28.4843 31.6849 28.3907 31.6849H19.8105ZM15.46 11.7558C15.5393 11.9105 15.5793 12.0804 15.5768 12.2521C15.5795 12.423 15.5395 12.5922 15.46 12.7462C15.3905 12.8837 15.2875 13.004 15.1593 13.0975C14.9417 13.2663 14.6695 13.3611 14.387 13.3665H13.8257V13.8418C13.8266 13.8903 13.8244 13.9387 13.819 13.9869C13.812 14.0261 13.7976 14.0638 13.7764 14.0983C13.7343 14.174 13.6176 14.2119 13.4262 14.2119C13.2166 14.2119 13.0939 14.16 13.0579 14.0563C13.0367 13.9852 13.0276 13.9113 13.0309 13.8375V11.5035C13.0301 11.4551 13.0324 11.4066 13.0378 11.3583C13.0447 11.3191 13.0591 11.2814 13.0803 11.247C13.1224 11.1712 13.2391 11.1333 13.4305 11.1335H14.3915C14.6725 11.1394 14.9431 11.2342 15.1593 11.4025C15.2879 11.4964 15.3909 11.6175 15.46 11.7558ZM14.6563 12.5297C14.7003 12.4967 14.7351 12.4542 14.7578 12.4059C14.7805 12.3575 14.7903 12.3047 14.7864 12.2521C14.7902 12.1991 14.7803 12.146 14.7577 12.0974C14.735 12.0487 14.7003 12.0058 14.6563 11.9723C14.5805 11.9131 14.4855 11.8797 14.3869 11.8777H13.8256V12.6221H14.3909C14.4879 12.6199 14.5813 12.5873 14.6563 12.5297ZM17.3952 11.352L18.6074 13.6987C18.6484 13.7643 18.6744 13.8372 18.6837 13.9128C18.6837 14.0138 18.597 14.1049 18.4235 14.1862C18.3497 14.226 18.2677 14.2504 18.1829 14.2577C18.1319 14.2597 18.0816 14.2464 18.0392 14.2198C18.0063 14.1991 17.9787 14.1718 17.9585 14.1399C17.9419 14.112 17.9187 14.0699 17.8888 14.0138L17.6554 13.5596H16.4117L16.1782 14.0138C16.1482 14.0699 16.125 14.1106 16.1085 14.1357C16.0868 14.1661 16.0594 14.1924 16.0276 14.2135C15.9858 14.2414 15.9353 14.2554 15.884 14.2535C15.7992 14.2462 15.7172 14.2219 15.6434 14.182C15.4698 14.1035 15.383 14.0137 15.383 13.9128C15.3924 13.8373 15.4184 13.7644 15.4593 13.6987L16.6717 11.3478C16.7046 11.2834 16.7569 11.2293 16.8221 11.1923C16.8858 11.1541 16.9598 11.1337 17.0354 11.1335C17.1119 11.1318 17.1871 11.1517 17.2513 11.1907C17.3155 11.2297 17.3656 11.2859 17.3952 11.352ZM17.0315 12.3615L16.7351 12.9376H17.3324L17.0315 12.3615ZM18.8455 13.7829C18.7786 13.717 18.7374 13.6317 18.7287 13.5411C18.7287 13.4697 18.7931 13.3751 18.9219 13.2572C18.9525 13.2265 18.9893 13.2017 19.0301 13.1843C19.071 13.1669 19.1151 13.1572 19.1599 13.1558C19.2435 13.1558 19.3602 13.2259 19.5102 13.366C19.5612 13.421 19.622 13.4672 19.6898 13.5028C19.754 13.5423 19.8284 13.5649 19.9052 13.568C20.1835 13.568 20.3227 13.4615 20.3228 13.2483C20.3211 13.2141 20.3096 13.1811 20.2894 13.1525C20.2693 13.124 20.2412 13.1012 20.2083 13.0864C20.1202 13.039 20.0236 13.007 19.9232 12.9918C19.6658 12.9444 19.4175 12.8608 19.1868 12.7439C19.0654 12.6778 18.9666 12.5808 18.9017 12.4642C18.8218 12.3225 18.7823 12.1639 18.7872 12.0038C18.7865 11.883 18.8123 11.7634 18.8629 11.6524C18.9135 11.5413 18.9879 11.4412 19.0814 11.3581C19.1881 11.2637 19.3141 11.1907 19.4519 11.1433C19.5896 11.096 19.7362 11.0754 19.8827 11.0828C20.0492 11.081 20.2151 11.103 20.3745 11.1479C20.4847 11.1743 20.5889 11.2192 20.682 11.2804L20.7942 11.3602C20.867 11.4097 20.9168 11.4835 20.9334 11.5663C20.9209 11.6513 20.8834 11.7315 20.8251 11.7977C20.7233 11.938 20.6186 12.0081 20.5108 12.0079C20.4262 12.0006 20.3454 11.9715 20.2773 11.9238C20.2592 11.9108 20.2419 11.8968 20.2256 11.8817C20.2038 11.8622 20.1806 11.8439 20.1562 11.8271C20.0831 11.7882 19.9997 11.7693 19.9157 11.7725C19.8295 11.7694 19.7445 11.7922 19.6732 11.8377C19.6423 11.8578 19.6173 11.8848 19.6005 11.9163C19.5837 11.9478 19.5756 11.9828 19.577 12.0179C19.5769 12.0558 19.5874 12.093 19.6075 12.1259C19.6276 12.1587 19.6565 12.186 19.6915 12.2051C19.7779 12.2563 19.8752 12.2893 19.9766 12.3019C20.1024 12.3211 20.2269 12.3471 20.3495 12.3797C20.4775 12.4124 20.6022 12.4552 20.7224 12.5079C20.8442 12.5657 20.9439 12.6576 21.0076 12.7707C21.0882 12.9122 21.1276 13.071 21.1219 13.2313C21.1257 13.3983 21.0856 13.5637 21.0052 13.7128C20.9353 13.8433 20.83 13.9542 20.6999 14.0346C20.4704 14.1795 20.2 14.2571 19.9232 14.2575C19.7883 14.2582 19.6538 14.2419 19.5234 14.2091C19.4157 14.1841 19.3127 14.1436 19.2182 14.0892C19.09 14.024 18.977 13.9353 18.8861 13.8285L18.8455 13.7829ZM21.4631 13.7829C21.3961 13.717 21.3549 13.6317 21.3463 13.5411C21.3463 13.4697 21.4107 13.3751 21.5394 13.2572C21.57 13.2265 21.6068 13.2017 21.6477 13.1843C21.6885 13.1669 21.7326 13.1572 21.7775 13.1558C21.8612 13.1558 21.9779 13.2259 22.1277 13.366C22.1788 13.4209 22.2395 13.4672 22.3073 13.5028C22.3715 13.5423 22.446 13.5649 22.5227 13.568C22.8011 13.568 22.9403 13.4615 22.9403 13.2483C22.9387 13.2141 22.9272 13.181 22.907 13.1525C22.8869 13.124 22.8588 13.1012 22.8258 13.0864C22.7377 13.039 22.6411 13.007 22.5408 12.9918C22.2834 12.9444 22.0351 12.8608 21.8043 12.7439C21.683 12.6778 21.5842 12.5808 21.5194 12.4642C21.4393 12.3226 21.3998 12.1639 21.4047 12.0038C21.4041 11.883 21.4298 11.7634 21.4804 11.6524C21.531 11.5413 21.6054 11.4412 21.6989 11.3581C21.8056 11.2637 21.9316 11.1907 22.0694 11.1433C22.2071 11.096 22.3537 11.0754 22.5002 11.0828C22.6668 11.081 22.8326 11.103 22.9921 11.1479C23.1022 11.1743 23.2064 11.2192 23.2995 11.2804L23.4117 11.3602C23.4846 11.4097 23.5344 11.4834 23.5509 11.5663C23.5384 11.6513 23.5009 11.7315 23.4426 11.7977C23.3409 11.938 23.2362 12.0081 23.1285 12.0079C23.0438 12.0006 22.9629 11.9715 22.8949 11.9238C22.8767 11.9108 22.8594 11.8968 22.8432 11.8817C22.8213 11.8622 22.7981 11.8439 22.7738 11.8271C22.7006 11.7882 22.6173 11.7693 22.5332 11.7725C22.447 11.7694 22.362 11.7922 22.2907 11.8377C22.2598 11.8578 22.2348 11.8848 22.218 11.9163C22.2012 11.9478 22.1931 11.9828 22.1945 12.0179C22.1944 12.0558 22.2049 12.093 22.225 12.1259C22.2451 12.1587 22.2741 12.186 22.309 12.2051C22.3954 12.2563 22.4928 12.2893 22.5942 12.3019C22.7199 12.3211 22.8444 12.3471 22.967 12.3797C23.095 12.4124 23.2198 12.4552 23.3399 12.5079C23.4618 12.5657 23.5614 12.6576 23.6251 12.7707C23.7057 12.9122 23.7452 13.071 23.7395 13.2313C23.7432 13.3983 23.7031 13.5637 23.6227 13.7128C23.5528 13.8433 23.4475 13.9542 23.3174 14.0346C23.0879 14.1795 22.8176 14.2571 22.5408 14.2575C22.4058 14.2582 22.2714 14.2419 22.1411 14.2091C22.0333 14.1841 21.9303 14.1436 21.8357 14.0892C21.7075 14.024 21.5946 13.9353 21.5036 13.8285L21.4631 13.7829ZM26.4606 11.7558C26.5399 11.9105 26.5799 12.0804 26.5774 12.2521C26.5801 12.423 26.5401 12.5922 26.4606 12.7462C26.3911 12.8837 26.2881 13.004 26.1599 13.0975C25.9423 13.2662 25.6701 13.3611 25.3877 13.3665H24.8265V13.8418C24.8273 13.8903 24.825 13.9387 24.8196 13.9869C24.8127 14.0261 24.7983 14.0639 24.7771 14.0983C24.735 14.174 24.6183 14.2119 24.4269 14.2119C24.2172 14.2119 24.0944 14.16 24.0585 14.0563C24.0374 13.9851 24.0284 13.9113 24.0316 13.8375V11.5035C24.0308 11.4551 24.033 11.4066 24.0384 11.3583C24.0454 11.3192 24.0598 11.2815 24.081 11.247C24.1231 11.1712 24.2398 11.1333 24.4312 11.1335H25.3923C25.6732 11.1394 25.9438 11.2342 26.1599 11.4025C26.2884 11.4964 26.3915 11.6175 26.4606 11.7558ZM25.6569 12.5297C25.7009 12.4967 25.7357 12.4542 25.7584 12.4059C25.7811 12.3575 25.7909 12.3047 25.787 12.2521C25.7908 12.1991 25.7809 12.146 25.7582 12.0974C25.7356 12.0487 25.7008 12.0058 25.6569 11.9723C25.5811 11.9131 25.4861 11.8797 25.3874 11.8777H24.8262V12.6221H25.3915C25.4885 12.6199 25.5819 12.5873 25.6569 12.5297ZM28.4135 11.0955C28.6313 11.097 28.8466 11.1388 29.0472 11.2184C29.2478 11.298 29.4296 11.4139 29.5822 11.5594C29.7349 11.7049 29.8554 11.8772 29.9368 12.0665C30.0183 12.2557 30.0591 12.4581 30.0568 12.6621C30.0664 13.0834 29.8987 13.4912 29.5899 13.7976C29.4454 13.9484 29.268 14.0682 29.0696 14.1491C28.8713 14.23 28.6568 14.2701 28.4405 14.2665C28.2233 14.2697 28.0078 14.2301 27.8078 14.1504C27.6079 14.0708 27.4281 13.9527 27.2798 13.804C27.1256 13.6595 27.0038 13.4876 26.9216 13.2983C26.8395 13.1091 26.7987 12.9063 26.8016 12.702C26.7998 12.478 26.8457 12.2559 26.9364 12.0486C27.0177 11.8571 27.1399 11.6832 27.2956 11.5376C27.4447 11.4006 27.6198 11.2907 27.8118 11.2137C28.0016 11.136 28.2064 11.0958 28.4135 11.0955ZM27.5963 12.6811C27.5916 12.7936 27.6122 12.9059 27.6566 13.0105C27.7011 13.1152 27.7685 13.21 27.8544 13.2888C27.9284 13.362 28.0174 13.4204 28.1161 13.4605C28.2149 13.5006 28.3212 13.5216 28.4289 13.5222C28.5365 13.5228 28.6431 13.503 28.7423 13.4639C28.8415 13.4249 28.9313 13.3675 29.0062 13.2951C29.0924 13.2161 29.1598 13.1209 29.2039 13.0158C29.248 12.9107 29.2679 12.7981 29.2622 12.6852C29.2675 12.5717 29.2472 12.4583 29.2028 12.3525C29.1583 12.2468 29.0906 12.1509 29.004 12.0712C28.9289 11.9989 28.8392 11.9412 28.7401 11.9015C28.641 11.8618 28.5345 11.8409 28.4267 11.8399C28.3191 11.8409 28.2128 11.862 28.114 11.9021C28.0153 11.9422 27.9261 12.0004 27.8519 12.0734C27.7666 12.1525 27.6998 12.2474 27.6558 12.352C27.6118 12.4567 27.5915 12.5687 27.5963 12.6811ZM32.8677 13.6946C32.9034 13.7633 32.9262 13.8373 32.9352 13.9132C32.9352 14.02 32.8423 14.1097 32.6567 14.1825C32.5844 14.2161 32.5059 14.236 32.4254 14.2413C32.3741 14.2433 32.3236 14.2293 32.2818 14.2014C32.2489 14.1792 32.2207 14.1514 32.1987 14.1194C32.1687 14.0661 32.0519 13.8123 31.8484 13.3582L31.7094 13.3665H31.1441V13.8418C31.1449 13.8903 31.1427 13.9387 31.1373 13.9869C31.1303 14.0261 31.1159 14.0638 31.0947 14.0983C31.0527 14.174 30.936 14.2119 30.7445 14.2119C30.535 14.2119 30.4122 14.16 30.3762 14.0563C30.3551 13.9851 30.346 13.9113 30.3494 13.8375V11.5035C30.3485 11.4551 30.3508 11.4066 30.3561 11.3583C30.3631 11.3191 30.3775 11.2814 30.3987 11.247C30.4406 11.1712 30.5574 11.1333 30.7489 11.1335H31.7189C31.9998 11.1394 32.2704 11.2342 32.4865 11.4025C32.6129 11.4974 32.7143 11.6183 32.7829 11.7558C32.8622 11.9105 32.9022 12.0804 32.8997 12.2521C32.9047 12.3972 32.8773 12.5417 32.8194 12.6764C32.7614 12.8111 32.674 12.933 32.5629 13.0343C32.6284 13.183 32.73 13.4031 32.8677 13.6946ZM31.1436 12.6221H31.7184C31.8137 12.6193 31.9053 12.5867 31.9787 12.5297C32.0227 12.4967 32.0576 12.4542 32.0803 12.4059C32.103 12.3575 32.1128 12.3047 32.1089 12.2521C32.1127 12.1991 32.1028 12.146 32.0801 12.0974C32.0574 12.0487 32.0227 12.0058 31.9787 11.9723C31.903 11.9131 31.808 11.8797 31.7094 11.8777H31.1441L31.1436 12.6221ZM33.2178 11.1292H35.7142C35.7862 11.1252 35.8582 11.136 35.9253 11.1607C35.9468 11.1704 35.9659 11.1842 35.9814 11.2012C35.9969 11.2182 36.0084 11.2381 36.0152 11.2595C36.0317 11.3171 36.0392 11.3767 36.0374 11.4363C36.0393 11.4951 36.0318 11.5539 36.0152 11.6107C36.0097 11.6298 36.0001 11.6476 35.9869 11.6631C35.9738 11.6786 35.9574 11.6915 35.9388 11.7008C35.8664 11.7294 35.7881 11.7423 35.7097 11.7387H34.8521V13.8541C34.853 13.9018 34.8507 13.9496 34.8453 13.9971C34.8385 14.0347 34.8248 14.071 34.8049 14.1043C34.7924 14.1255 34.7754 14.1441 34.755 14.1589C34.7346 14.1737 34.7111 14.1845 34.6861 14.1905C34.613 14.2093 34.5373 14.2178 34.4615 14.2157C34.3865 14.2179 34.3116 14.2094 34.2394 14.1905C34.2147 14.1843 34.1916 14.1734 34.1715 14.1586C34.1515 14.1438 34.1348 14.1253 34.1226 14.1043C34.1025 14.0703 34.0888 14.0334 34.0821 13.995C34.0769 13.9468 34.0746 13.8984 34.0754 13.8499V11.7387H33.2132C33.1413 11.7426 33.0693 11.7319 33.0023 11.7071C32.9807 11.6975 32.9616 11.6837 32.9461 11.6667C32.9307 11.6497 32.9192 11.6298 32.9125 11.6083C32.8957 11.5508 32.8882 11.4913 32.8901 11.4317C32.888 11.3728 32.8956 11.3139 32.9125 11.2572C32.918 11.238 32.9275 11.2202 32.9406 11.2046C32.9538 11.1891 32.9702 11.1763 32.9888 11.167C33.0611 11.1385 33.1394 11.1255 33.2178 11.1292ZM24.1006 28.1588C22.8613 28.1588 21.6499 27.8146 20.6195 27.1697C19.5891 26.5248 18.786 25.6082 18.3118 24.5358C17.8375 23.4635 17.7134 22.2834 17.9552 21.145C18.197 20.0065 18.7938 18.9608 19.6701 18.1401C20.5463 17.3193 21.6628 16.7604 22.8783 16.5339C24.0937 16.3075 25.3535 16.4237 26.4985 16.8679C27.6434 17.3121 28.6219 18.0644 29.3104 19.0295C29.9989 19.9947 30.3664 21.1293 30.3663 22.2901C30.3645 23.846 29.7037 25.3378 28.529 26.438C27.3544 27.5382 25.7618 28.1571 24.1006 28.1588ZM24.1006 17.5479C23.0992 17.5479 22.1203 17.826 21.2877 18.3471C20.4551 18.8682 19.8062 19.6088 19.423 20.4753C19.0398 21.3418 18.9395 22.2953 19.1349 23.2152C19.3303 24.1351 19.8125 24.9801 20.5205 25.6433C21.2286 26.3065 22.1307 26.7582 23.1128 26.9412C24.095 27.1242 25.1129 27.0302 26.0381 26.6713C26.9632 26.3124 27.7539 25.7046 28.3103 24.9247C28.8666 24.1449 29.1635 23.228 29.1635 22.2901C29.162 21.0328 28.6281 19.8274 27.6789 18.9384C26.7298 18.0494 25.4429 17.5493 24.1006 17.5479Z" fill="#4F4F4F"/>
</svg>
