<svg width="64" height="64" viewBox="0 0 64 64" fill="none" xmlns="http://www.w3.org/2000/svg">
<path d="M12.125 25.4375V11.9671C12.125 8.53347 14.9126 5.75 18.3513 5.75H39.1599C40.4275 5.75 41.6446 6.24626 42.5499 7.13234L48.8262 13.2754L50.9524 15.5569C51.7864 16.4518 52.25 17.6287 52.25 18.8511V52.0329C52.25 55.4665 49.4624 58.25 46.0237 58.25H18.3513C14.9126 58.25 12.125 55.4665 12.125 52.0329V49.9605" stroke="#FCF9F8" stroke-width="3" stroke-linecap="round"/>
<path d="M40.5 6.375V16.0515C40.5 17.1967 41.4283 18.125 42.5735 18.125H52.25" stroke="#FCF9F8" stroke-width="3"/>
<path d="M10.75 42.8174V33.0576C10.75 32.955 10.7777 32.8805 10.8331 32.8339C10.8885 32.778 10.9578 32.75 11.0409 32.75H15.4872C15.9581 32.75 16.3875 32.8479 16.7753 33.0436C17.1724 33.2394 17.5095 33.4957 17.7865 33.8127C18.0727 34.1296 18.2944 34.4931 18.4514 34.9033C18.6084 35.3041 18.6868 35.7189 18.6868 36.1477C18.6868 36.5672 18.6084 36.9773 18.4514 37.3782C18.3036 37.779 18.0912 38.1379 17.8142 38.4549C17.5372 38.7718 17.2047 39.0281 16.8169 39.2239C16.4291 39.4103 15.9997 39.5035 15.5287 39.5035H13.4095V42.8174C13.4095 43.0224 13.3033 43.125 13.0909 43.125H11.0409C10.847 43.125 10.75 43.0224 10.75 42.8174ZM14.9054 34.9592H13.4095V37.2943H14.9054C15.2471 37.2943 15.5102 37.1778 15.6949 36.9447C15.8796 36.7024 15.972 36.432 15.972 36.1338C15.972 35.9939 15.9443 35.8541 15.8889 35.7143C15.8427 35.5745 15.7734 35.4486 15.6811 35.3368C15.598 35.2249 15.4872 35.1363 15.3487 35.0711C15.2194 34.9965 15.0716 34.9592 14.9054 34.9592ZM20.1785 42.8174V33.0576C20.1785 32.8525 20.2754 32.75 20.4694 32.75H24.0707C24.7171 32.75 25.345 32.8851 25.9545 33.1555C26.5732 33.4258 27.1226 33.794 27.6027 34.2601C28.083 34.7261 28.4662 35.2761 28.7525 35.91C29.0479 36.5439 29.1957 37.2197 29.1957 37.9375C29.1957 38.618 29.0618 39.2705 28.794 39.895C28.5262 40.5196 28.1614 41.0742 27.6997 41.559C27.238 42.0344 26.6932 42.4165 26.0653 42.7055C25.4466 42.9852 24.7817 43.125 24.0707 43.125H20.4694C20.2754 43.125 20.1785 43.0224 20.1785 42.8174ZM26.5085 37.9375C26.5085 37.5646 26.4393 37.215 26.3008 36.8888C26.1715 36.5532 25.9868 36.2642 25.7467 36.0219C25.5066 35.7795 25.2203 35.5884 24.8879 35.4486C24.5647 35.2994 24.2092 35.2249 23.8214 35.2249H22.8518V40.6501H23.8214C24.2092 40.6501 24.5647 40.5802 24.8879 40.4404C25.2203 40.2912 25.5066 40.0954 25.7467 39.8531C25.9868 39.6107 26.1715 39.3264 26.3008 39.0002C26.4393 38.6646 26.5085 38.3103 26.5085 37.9375ZM30.8111 42.8174V33.0576C30.8111 32.8525 30.908 32.75 31.1019 32.75H37.7091C37.903 32.75 38 32.8525 38 33.0576V34.8474C38 35.0524 37.903 35.155 37.7091 35.155H33.4845V37.3083H36.5733C36.7764 37.3083 36.878 37.4155 36.878 37.6299V39.3218C36.878 39.5268 36.7764 39.6294 36.5733 39.6294H33.4845V42.8174C33.4845 43.0224 33.3829 43.125 33.1797 43.125H31.1019C30.908 43.125 30.8111 43.0224 30.8111 42.8174Z" fill="#FCF9F8"/>
</svg>
