<svg width="160" height="160" viewBox="0 0 160 160" fill="none" xmlns="http://www.w3.org/2000/svg">
<path d="M108.749 135C108.749 135.995 108.354 136.949 107.651 137.652C106.948 138.355 105.994 138.75 104.999 138.75H14.9993C14.0047 138.75 13.0509 138.355 12.3476 137.652C11.6444 136.949 11.2493 135.995 11.2493 135C11.2493 134.006 11.6444 133.052 12.3476 132.349C13.0509 131.645 14.0047 131.25 14.9993 131.25H104.999C105.994 131.25 106.948 131.645 107.651 132.349C108.354 133.052 108.749 134.006 108.749 135ZM153.687 57.9877C153.585 58.5049 153.376 58.9948 153.072 59.4256C152.768 59.8564 152.377 60.2183 151.924 60.4877L59.793 115.488C56.1464 117.621 51.9991 118.749 47.7743 118.756C41.7485 118.749 35.9533 116.44 31.5743 112.3L31.5118 112.244L8.98055 90.2252C7.93024 89.2327 7.14209 87.9956 6.68649 86.6242C6.23089 85.2528 6.12203 83.79 6.36963 82.3663C6.61723 80.9426 7.21358 79.6024 8.10542 78.4653C8.99726 77.3283 10.1568 76.4299 11.4805 75.8502L13.3555 74.919C14.2445 74.485 15.2688 74.4199 16.2055 74.7377L34.4243 80.8815L48.9055 72.1315L34.093 57.7565C33.0174 56.766 32.2072 55.5217 31.7363 54.1374C31.2655 52.7531 31.1491 51.2728 31.3977 49.8319C31.6464 48.391 32.2522 47.0354 33.1597 45.8889C34.0673 44.7425 35.2477 43.8417 36.593 43.269L36.743 43.2065L41.2118 41.5127C42.0564 41.198 42.986 41.198 43.8305 41.5127L78.1056 54.1252L110.843 34.5815C115.718 31.6867 121.472 30.6414 127.054 31.6361C132.636 32.6309 137.674 35.5995 141.249 40.0002L141.306 40.069L152.956 55.0002C153.282 55.4182 153.516 55.9006 153.642 56.4156C153.768 56.9305 153.783 57.4664 153.687 57.9877ZM144.431 56.2502L135.418 44.7065C132.97 41.7029 129.524 39.6788 125.708 39.0031C121.893 38.3274 117.961 39.045 114.631 41.0252L80.3743 61.4752C79.8941 61.7621 79.3559 61.938 78.7989 61.9899C78.242 62.0418 77.6805 61.9684 77.1555 61.7752L42.4993 49.0315L39.4368 50.1877C39.2542 50.2708 39.0956 50.3985 38.9754 50.5591C38.8553 50.7197 38.7775 50.9079 38.7493 51.1065C38.7139 51.3139 38.7314 51.5269 38.8002 51.7257C38.8691 51.9246 38.987 52.1028 39.143 52.244L39.2493 52.3377L57.593 70.144C58.0047 70.5432 58.3194 71.0316 58.5127 71.5715C58.7061 72.1114 58.7731 72.6885 58.7085 73.2583C58.6439 73.8282 58.4495 74.3756 58.1402 74.8585C57.8309 75.3414 57.4149 75.747 56.9243 76.044L36.8055 88.2252C36.3406 88.5053 35.8203 88.6811 35.2808 88.7404C34.7413 88.7998 34.1953 88.7413 33.6805 88.569L15.2743 82.3565L14.693 82.644L14.518 82.7252C14.328 82.8073 14.1614 82.9353 14.0331 83.0977C13.9047 83.2601 13.8187 83.4519 13.7828 83.6557C13.7469 83.8595 13.7621 84.0691 13.8272 84.2656C13.8922 84.4621 14.0051 84.6394 14.1555 84.7815L14.218 84.8377L36.718 106.888C39.2612 109.284 42.5128 110.79 45.9848 111.181C49.4568 111.572 52.9619 110.827 55.9743 109.056L144.431 56.2502Z" fill="#E4E4E4"/>
</svg>
