<svg width="100" height="100" viewBox="0 0 100 100" fill="none" xmlns="http://www.w3.org/2000/svg">
<path d="M17.8656 42.8343C17.635 37.6497 17.7528 32.0036 17.8852 25.787C17.9686 21.8626 18.0569 17.7 18.0569 12.8329C18.0569 11.8803 18.7977 11.1113 19.7102 11.1113C20.1909 11.1113 20.6275 11.3296 20.9317 11.672C26.1367 16.5986 31.2975 18.727 36.424 18.5583C41.629 18.3897 46.8978 15.8594 52.2107 11.4884C52.8288 10.9774 53.6824 11.0071 54.2662 11.5033C59.4859 15.7949 64.6615 17.8042 69.8076 17.7298C74.9782 17.6603 80.1931 15.4972 85.4471 11.4537C86.1781 10.8881 87.2083 11.0468 87.7479 11.8109C87.9687 12.1185 88.0717 12.4757 88.0717 12.8329H88.0766C88.0766 16.8616 88.1305 20.146 88.1747 23.3212C88.626 52.8811 88.94 73.4658 53.8639 88.7567C53.4322 88.9452 52.9662 88.9254 52.5639 88.7418V88.7468C42.2717 84.0236 32.6515 78.194 26.4605 70.231C25.7197 71.4564 24.3951 72.2453 22.9136 72.2453H15.8837C13.5927 72.2453 11.7285 70.36 11.7285 68.043V47.0415C11.7285 44.7246 13.5927 42.8343 15.8837 42.8343H17.8656ZM76.71 24.7402C76.71 23.7876 77.4704 23.0186 78.4123 23.0186C79.3542 23.0186 80.1146 23.7876 80.1146 24.7402C80.1146 24.8791 80.1391 25.2215 80.1783 25.7374C80.5659 31.3835 82.2093 55.1484 72.8344 66.2073C72.2261 66.9317 71.1518 67.016 70.4404 66.3958C69.7291 65.7806 69.6457 64.6941 70.254 63.9747C78.7213 53.9825 77.1564 31.3438 76.7836 25.9657C76.7394 25.3356 76.71 24.9138 76.71 24.7402ZM26.5782 65.6119C26.6027 65.6169 26.6273 65.6219 26.6518 65.6219C28.2412 65.855 30.282 65.865 31.9843 65.7509C32.4651 65.7211 32.9557 65.8898 33.3138 66.2668C38.4452 71.5755 45.8038 70.9057 53.1428 70.2359C54.1681 70.1417 55.1934 70.0474 55.8949 69.9879C57.0429 69.4917 57.8768 68.9559 58.1123 68.3407C58.3429 67.7354 58.0191 66.7878 56.8712 65.3391C56.0568 64.3269 56.5817 62.7939 57.867 62.5508C58.9316 62.3474 59.8391 61.231 59.3584 60.2636C59.1867 59.9163 58.8433 59.5739 58.284 59.2713C56.7289 58.4824 57.1263 56.3243 58.6716 56.0167C60.6878 55.6197 61.1686 53.8733 58.8678 53.3474C58.1123 53.1738 57.5481 52.4941 57.5432 51.6804C57.5432 50.7328 58.2987 49.9588 59.2357 49.9539C61.3648 49.9439 62.9739 49.299 62.8856 48.014C62.8611 47.7212 62.763 47.4285 62.5913 47.1606C62.1399 46.4412 61.2324 45.9153 60.0599 46.0145C57.7346 46.5305 55.3651 46.9522 52.9858 47.2648C50.6458 47.5724 48.2959 47.7709 45.9706 47.8453C45.3672 47.8651 44.7785 47.5625 44.4498 47.0019C43.9789 46.1832 44.2487 45.1314 45.0581 44.6502C49.4439 42.0454 50.5575 36.9452 50.5133 31.7556C50.5133 31.7506 50.5133 31.7456 50.5133 31.7357C50.5182 30.3664 49.7971 29.6073 48.6982 29.5031C48.3597 29.4733 48.0114 29.513 47.6827 29.6222C47.1676 29.7958 46.7457 30.153 46.6182 30.669C46.1668 34.2164 43.4392 39.4159 40.0297 43.4148C37.0176 46.9374 33.3874 49.6165 30.0858 49.6661C29.9926 49.6711 29.8896 49.6711 29.7915 49.6611C29.0213 49.5768 28.3001 49.5371 27.628 49.547C26.9707 49.552 26.3329 49.5917 25.7197 49.6711C25.6069 49.6959 25.4891 49.7108 25.3665 49.7108C24.4246 49.7108 23.6642 48.9368 23.6642 47.9892V47.0415C23.6642 46.6248 23.3257 46.2825 22.9136 46.2825H15.8837C15.4765 46.2825 15.1331 46.6248 15.1331 47.0415V68.043C15.1331 68.4548 15.4765 68.8021 15.8837 68.8021H22.9136C23.3257 68.8021 23.6642 68.4548 23.6642 68.043V67.1599H23.6691C23.6691 67.0557 23.6789 66.9565 23.6985 66.8572C23.8604 65.9245 24.7434 65.2994 25.6657 65.4681C25.9601 65.5226 26.2642 65.5722 26.5782 65.6119ZM29.9877 69.2585C35.6833 75.9762 44.1702 81.0765 53.2458 85.2937C85.6041 70.9305 85.3097 51.3728 84.8829 23.3758C84.8486 20.9398 84.8094 18.4442 84.7897 16.0826C74.1982 23.0781 63.5724 22.9839 53.2311 14.9961C47.7072 19.3174 42.1343 21.808 36.5123 21.9916C31.43 22.1553 26.3673 20.4337 21.3389 16.4795C21.3094 19.635 21.2407 22.8102 21.177 25.8515C21.0445 32.0433 20.9268 37.6646 21.1672 42.8343H22.9136C24.8759 42.8343 26.5537 44.2284 26.9707 46.1286C27.1767 46.1187 27.3876 46.1138 27.5986 46.1138C28.4129 46.1038 29.2371 46.1435 30.0809 46.2328C32.2836 46.1783 35.0308 44.0151 37.4591 41.1673C40.486 37.6249 42.88 33.1448 43.243 30.2126C43.2528 30.1282 43.2724 30.0439 43.2921 29.9695C43.6845 28.1189 45.014 26.8885 46.6182 26.3526C48.1586 25.8416 49.9541 26.0004 51.362 26.8537C52.8386 27.7468 53.913 29.3543 53.9081 31.7308C53.9473 36.32 53.133 40.7158 50.6703 44.0846C53.6236 43.777 56.5572 43.2858 59.4467 42.6358C59.5154 42.621 59.5791 42.611 59.6429 42.6061V42.6011C62.2626 42.3233 64.3671 43.5884 65.4562 45.3199C66.4226 46.8629 66.6041 48.7731 65.7064 50.4004C65.2207 51.2686 64.4309 52.0426 63.2928 52.5784C64.323 54.5183 63.7098 56.7757 62.0565 58.1401C63.6215 60.4521 62.8611 63.3892 60.7123 64.962C61.6739 66.7282 61.7818 68.2365 61.2765 69.5661C60.629 71.2778 59.0199 72.4189 56.9398 73.2772C56.7583 73.3517 56.5768 73.3914 56.3904 73.4013C55.1051 73.5005 54.276 73.5749 53.4469 73.6543C45.5487 74.3737 37.6308 75.0981 31.4447 69.2238C30.9492 69.2486 30.4635 69.2585 29.9877 69.2585Z" fill="#27357E"/>
</svg>
