<svg width="160" height="160" viewBox="0 0 160 160" fill="none" xmlns="http://www.w3.org/2000/svg">
<path fill-rule="evenodd" clip-rule="evenodd" d="M61.668 84.018C61.668 82.178 63.1605 80.6855 65.0005 80.6855H73.0005C73.8846 80.6855 74.7326 81.0368 75.3578 81.662C75.983 82.2872 76.3342 83.1351 76.3342 84.0193C76.3342 84.9035 75.983 85.7514 75.3578 86.3766C74.7326 87.0018 73.8846 87.353 73.0005 87.353H65.0005C64.5626 87.353 64.1291 87.2668 63.7246 87.0991C63.3201 86.9315 62.9526 86.6858 62.6432 86.3761C62.3337 86.0664 62.0882 85.6987 61.9209 85.2941C61.7536 84.8895 61.6676 84.4559 61.668 84.018ZM61.668 60.018C61.668 58.178 63.1605 56.6855 65.0005 56.6855H95.0005C95.8846 56.6855 96.7326 57.0368 97.3578 57.662C97.983 58.2872 98.3342 59.1351 98.3342 60.0193C98.3342 60.9035 97.983 61.7514 97.3578 62.3766C96.7326 63.0018 95.8846 63.353 95.0005 63.353H65.0005C64.5626 63.353 64.1291 63.2668 63.7246 63.0991C63.3201 62.9315 62.9526 62.6858 62.6432 62.3761C62.3337 62.0664 62.0882 61.6987 61.9209 61.2941C61.7536 60.8895 61.6676 60.4559 61.668 60.018ZM61.668 72.018C61.668 70.178 63.1605 68.6855 65.0005 68.6855H95.0005C95.8843 68.6855 96.7319 69.0367 97.3569 69.6616C97.9819 70.2866 98.333 71.1342 98.333 72.018C98.333 72.9019 97.9819 73.7495 97.3569 74.3745C96.7319 74.9994 95.8843 75.3505 95.0005 75.3505H65.0005C64.1166 75.3505 63.269 74.9994 62.644 74.3745C62.0191 73.7495 61.668 72.9019 61.668 72.018Z" fill="#E4E4E4"/>
<path fill-rule="evenodd" clip-rule="evenodd" d="M62.6438 81.6624C63.9438 80.3599 66.0564 80.3599 67.3589 81.6624L88.5714 102.875C89.1966 103.5 89.5479 104.348 89.5479 105.232C89.5479 106.117 89.1966 106.965 88.5714 107.59C87.9461 108.215 87.0981 108.566 86.2138 108.566C85.3296 108.566 84.4816 108.215 83.8563 107.59L62.6438 86.3749C62.019 85.75 61.668 84.9024 61.668 84.0187C61.668 83.1349 62.019 82.2874 62.6438 81.6624Z" fill="#E4E4E4"/>
<path fill-rule="evenodd" clip-rule="evenodd" d="M81.6675 72.018C81.6675 67.478 77.595 63.353 72 63.353V56.6855C80.765 56.6855 88.3325 63.303 88.3325 72.018C88.3325 80.733 80.765 87.353 72 87.353V80.6855C77.595 80.6855 81.6675 76.5605 81.6675 72.018Z" fill="#E4E4E4"/>
<path fill-rule="evenodd" clip-rule="evenodd" d="M36.6675 26.6851C34.0153 26.6851 31.4718 27.7386 29.5964 29.614C27.7211 31.4894 26.6675 34.0329 26.6675 36.6851V123.35C26.6675 126.002 27.7211 128.546 29.5964 130.421C31.4718 132.297 34.0153 133.35 36.6675 133.35H123.333C125.985 133.35 128.528 132.297 130.404 130.421C132.279 128.546 133.333 126.002 133.333 123.35V66.6851C133.333 65.8009 133.684 64.953 134.309 64.3278C134.934 63.7026 135.782 63.3513 136.666 63.3513C137.55 63.3513 138.398 63.7026 139.024 64.3278C139.649 64.953 140 65.8009 140 66.6851V123.35C140 125.539 139.569 127.706 138.731 129.728C137.894 131.751 136.666 133.588 135.118 135.136C133.57 136.683 131.733 137.911 129.711 138.749C127.689 139.586 125.521 140.018 123.333 140.018H36.6675C32.247 140.018 28.0076 138.262 24.8818 135.136C21.756 132.01 20 127.771 20 123.35V36.6851C20 32.2646 21.756 28.0251 24.8818 24.8994C28.0076 21.7736 32.247 20.0176 36.6675 20.0176H93.3325C94.2167 20.0176 95.0646 20.3688 95.6898 20.994C96.315 21.6192 96.6662 22.4672 96.6662 23.3513C96.6662 24.2355 96.315 25.0834 95.6898 25.7086C95.0646 26.3338 94.2167 26.6851 93.3325 26.6851H36.6675Z" fill="#E4E4E4"/>
<path fill-rule="evenodd" clip-rule="evenodd" d="M128.49 26.6675L110.73 44.355C110.103 44.9786 109.75 45.8256 109.748 46.7096C109.747 47.1473 109.832 47.5809 109.999 47.9857C110.165 48.3905 110.41 48.7585 110.719 49.0688C111.027 49.379 111.394 49.6254 111.798 49.7939C112.202 49.9623 112.636 50.0496 113.073 50.0506C113.957 50.0527 114.806 49.7036 115.432 49.08L133.13 31.455V44.53C133.13 45.4142 133.481 46.2621 134.106 46.8873C134.732 47.5125 135.58 47.8638 136.464 47.8638C137.348 47.8638 138.196 47.5125 138.821 46.8873C139.446 46.2621 139.797 45.4142 139.797 44.53V23.95C139.89 23.4179 139.851 22.8713 139.685 22.3574C139.519 21.8435 139.231 21.3776 138.845 21C138.535 20.6828 138.164 20.4309 137.755 20.2591C137.346 20.0874 136.906 19.9993 136.462 20H115.27C114.386 20 113.538 20.3512 112.913 20.9764C112.287 21.6016 111.936 22.4496 111.936 23.3338C111.936 24.2179 112.287 25.0659 112.913 25.6911C113.538 26.3163 114.386 26.6675 115.27 26.6675H128.49Z" fill="#E4E4E4"/>
</svg>
