<svg width="32" height="32" viewBox="0 0 32 32" fill="none" xmlns="http://www.w3.org/2000/svg">
<path d="M14.5866 8.10659C15.0543 8.0349 15.5268 7.99924 15.9999 7.99992C20.2399 7.99992 24.2266 11.0533 26.5466 15.9999C26.1918 16.7527 25.791 17.483 25.3466 18.1866C25.2055 18.405 25.1313 18.6599 25.1333 18.9199C25.1362 19.2109 25.2343 19.4929 25.4125 19.723C25.5908 19.953 25.8394 20.1184 26.1204 20.1939C26.4014 20.2695 26.6994 20.251 26.969 20.1414C27.2385 20.0317 27.4648 19.8369 27.6133 19.5866C28.2345 18.6105 28.7741 17.5848 29.2266 16.5199C29.2981 16.3536 29.335 16.1744 29.335 15.9933C29.335 15.8122 29.2981 15.633 29.2266 15.4666C26.5333 9.21325 21.4666 5.33326 15.9999 5.33326C15.3741 5.3301 14.7494 5.38365 14.1333 5.49326C13.9582 5.52302 13.7906 5.58698 13.6403 5.68149C13.4899 5.776 13.3596 5.8992 13.2568 6.04406C13.1541 6.18892 13.0808 6.3526 13.0413 6.52576C13.0018 6.69892 12.9968 6.87816 13.0266 7.05326C13.0564 7.22835 13.1203 7.39587 13.2148 7.54625C13.3093 7.69662 13.4325 7.82691 13.5774 7.92968C13.7222 8.03244 13.8859 8.10566 14.0591 8.14517C14.2322 8.18468 14.4115 8.18969 14.5866 8.15992V8.10659ZM4.94659 3.05325C4.82227 2.92894 4.67468 2.83032 4.51225 2.76304C4.34982 2.69576 4.17573 2.66113 3.99992 2.66113C3.82411 2.66113 3.65002 2.69576 3.48759 2.76304C3.32516 2.83032 3.17757 2.92894 3.05325 3.05325C2.80218 3.30433 2.66113 3.64485 2.66113 3.99992C2.66113 4.35499 2.80218 4.69552 3.05325 4.94659L7.18659 9.06659C5.30069 10.882 3.79973 13.0586 2.77325 15.4666C2.69984 15.6348 2.66194 15.8164 2.66194 15.9999C2.66194 16.1835 2.69984 16.365 2.77325 16.5333C5.46659 22.7866 10.5333 26.6666 15.9999 26.6666C18.3961 26.65 20.7356 25.9366 22.7333 24.6133L27.0533 28.9466C27.1772 29.0716 27.3247 29.1708 27.4872 29.2384C27.6496 29.3061 27.8239 29.341 27.9999 29.341C28.1759 29.341 28.3502 29.3061 28.5127 29.2384C28.6752 29.1708 28.8226 29.0716 28.9466 28.9466C29.0716 28.8226 29.1708 28.6752 29.2384 28.5127C29.3061 28.3502 29.341 28.1759 29.341 27.9999C29.341 27.8239 29.3061 27.6496 29.2384 27.4872C29.1708 27.3247 29.0716 27.1772 28.9466 27.0533L4.94659 3.05325ZM13.4266 15.3066L16.6933 18.5733C16.4679 18.6379 16.2343 18.6693 15.9999 18.6666C15.2927 18.6666 14.6144 18.3856 14.1143 17.8855C13.6142 17.3854 13.3333 16.7072 13.3333 15.9999C13.3305 15.7655 13.362 15.5319 13.4266 15.3066ZM15.9999 23.9999C11.7599 23.9999 7.77326 20.9466 5.46659 15.9999C6.32804 14.0983 7.55068 12.382 9.06659 10.9466L11.4266 13.3333C10.8723 14.345 10.6609 15.5092 10.8243 16.6512C10.9876 17.7932 11.5169 18.8515 12.3326 19.6672C13.1484 20.483 14.2066 21.0122 15.3486 21.1756C16.4907 21.3389 17.6549 21.1276 18.6666 20.5733L20.7866 22.6666C19.3347 23.5211 17.6845 23.9808 15.9999 23.9999Z" fill="#27357E"/>
</svg>
