<svg width="56" height="56" viewBox="0 0 56 56" fill="none" xmlns="http://www.w3.org/2000/svg">
<path d="M36.26 26.3434L23.0533 13.16C22.8364 12.9413 22.5784 12.7678 22.294 12.6493C22.0097 12.5308 21.7047 12.4698 21.3967 12.4698C21.0886 12.4698 20.7837 12.5308 20.4993 12.6493C20.215 12.7678 19.9569 12.9413 19.74 13.16C19.3054 13.5972 19.0615 14.1886 19.0615 14.805C19.0615 15.4215 19.3054 16.0129 19.74 16.45L31.29 28.1167L19.74 39.6667C19.3054 40.1039 19.0615 40.6953 19.0615 41.3117C19.0615 41.9281 19.3054 42.5195 19.74 42.9567C19.9561 43.1772 20.2138 43.3526 20.4982 43.4727C20.7826 43.5929 21.088 43.6554 21.3967 43.6567C21.7054 43.6554 22.0108 43.5929 22.2952 43.4727C22.5795 43.3526 22.8372 43.1772 23.0533 42.9567L36.26 29.7734C36.4969 29.5549 36.6859 29.2897 36.8152 28.9945C36.9444 28.6994 37.0112 28.3806 37.0112 28.0584C37.0112 27.7361 36.9444 27.4174 36.8152 27.1222C36.6859 26.8271 36.4969 26.5619 36.26 26.3434Z" fill="white"/>
</svg>
