<svg width="56" height="56" viewBox="0 0 56 56" fill="none" xmlns="http://www.w3.org/2000/svg">
<path d="M19.74 26.3434L32.9466 13.16C33.1635 12.9413 33.4216 12.7678 33.7059 12.6493C33.9903 12.5308 34.2953 12.4698 34.6033 12.4698C34.9113 12.4698 35.2163 12.5308 35.5006 12.6493C35.785 12.7678 36.043 12.9413 36.26 13.16C36.6945 13.5972 36.9385 14.1886 36.9385 14.805C36.9385 15.4215 36.6945 16.0129 36.26 16.45L24.71 28.1167L36.26 39.6667C36.6945 40.1039 36.9385 40.6953 36.9385 41.3117C36.9385 41.9281 36.6945 42.5195 36.26 42.9567C36.0439 43.1772 35.7862 43.3526 35.5018 43.4727C35.2174 43.5929 34.912 43.6554 34.6033 43.6567C34.2946 43.6554 33.9892 43.5929 33.7048 43.4727C33.4204 43.3526 33.1627 43.1772 32.9466 42.9567L19.74 29.7734C19.5031 29.5549 19.3141 29.2897 19.1848 28.9945C19.0555 28.6994 18.9888 28.3806 18.9888 28.0584C18.9888 27.7361 19.0555 27.4174 19.1848 27.1222C19.3141 26.8271 19.5031 26.5619 19.74 26.3434Z" fill="white"/>
</svg>
