<svg width="32" height="32" viewBox="0 0 32 32" fill="none" xmlns="http://www.w3.org/2000/svg">
<path d="M14.6663 2.66663C12.0293 2.66663 9.4514 3.44861 7.25874 4.9137C5.06609 6.37878 3.35712 8.46116 2.34795 10.8975C1.33878 13.3339 1.07474 16.0148 1.58921 18.6012C2.10368 21.1876 3.37356 23.5634 5.23826 25.4281C7.10296 27.2928 9.47873 28.5626 12.0651 29.0771C14.6516 29.5916 17.3324 29.3275 19.7688 28.3184C22.2051 27.3092 24.2875 25.6002 25.7526 23.4076C27.2177 21.2149 27.9997 18.637 27.9997 16C27.9997 14.249 27.6548 12.5152 26.9847 10.8975C26.3147 9.27984 25.3326 7.80998 24.0944 6.57187C22.8563 5.33375 21.3865 4.35163 19.7688 3.68157C18.1511 3.0115 16.4173 2.66663 14.6663 2.66663ZM14.6663 26.6666C12.5567 26.6666 10.4944 26.041 8.74026 24.869C6.98614 23.6969 5.61897 22.031 4.81163 20.0819C4.0043 18.1328 3.79306 15.9881 4.20464 13.919C4.61621 11.8499 5.63211 9.94925 7.12387 8.45749C8.61563 6.96573 10.5163 5.94983 12.5854 5.53825C14.6545 5.12667 16.7992 5.33791 18.7483 6.14524C20.6974 6.95258 22.3633 8.31975 23.5354 10.0739C24.7074 11.828 25.333 13.8903 25.333 16C25.333 18.8289 24.2092 21.542 22.2088 23.5424C20.2084 25.5428 17.4953 26.6666 14.6663 26.6666ZM18.7997 16.84L15.9997 15.2266V9.33329C15.9997 8.97967 15.8592 8.64053 15.6092 8.39048C15.3591 8.14044 15.02 7.99996 14.6663 7.99996C14.3127 7.99996 13.9736 8.14044 13.7235 8.39048C13.4735 8.64053 13.333 8.97967 13.333 9.33329V16C13.333 16 13.333 16.1066 13.333 16.16C13.3409 16.2518 13.3634 16.3418 13.3997 16.4266C13.4271 16.5057 13.4629 16.5817 13.5063 16.6533C13.5428 16.7291 13.5875 16.8006 13.6397 16.8666L13.853 17.04L13.973 17.16L17.4397 19.16C17.6429 19.2751 17.8728 19.3349 18.1063 19.3333C18.4016 19.3354 18.6891 19.2394 18.9239 19.0604C19.1587 18.8814 19.3275 18.6296 19.4038 18.3444C19.48 18.0592 19.4595 17.7567 19.3453 17.4845C19.2312 17.2122 19.0299 16.9855 18.773 16.84H18.7997Z" fill="#27357E"/>
</svg>
