<svg width="56" height="56" viewBox="0 0 56 56" fill="none" xmlns="http://www.w3.org/2000/svg">
<path d="M19.7409 26.3423L32.9476 13.1589C33.1645 12.9402 33.4226 12.7667 33.7069 12.6482C33.9913 12.5297 34.2962 12.4688 34.6043 12.4688C34.9123 12.4688 35.2173 12.5297 35.5016 12.6482C35.786 12.7667 36.044 12.9402 36.2609 13.1589C36.6955 13.5961 36.9395 14.1875 36.9395 14.8039C36.9395 15.4204 36.6955 16.0118 36.2609 16.4489L24.7109 28.1156L36.2609 39.6656C36.6955 40.1028 36.9395 40.6942 36.9395 41.3106C36.9395 41.927 36.6955 42.5184 36.2609 42.9556C36.0448 43.1761 35.7871 43.3515 35.5028 43.4716C35.2184 43.5918 34.913 43.6543 34.6043 43.6556C34.2956 43.6543 33.9902 43.5918 33.7058 43.4716C33.4214 43.3515 33.1637 43.1761 32.9476 42.9556L19.7409 29.7723C19.5041 29.5538 19.3151 29.2886 19.1858 28.9934C19.0565 28.6983 18.9898 28.3795 18.9898 28.0573C18.9898 27.735 19.0565 27.4163 19.1858 27.1211C19.3151 26.826 19.5041 26.5608 19.7409 26.3423V26.3423Z" fill="white"/>
</svg>
