<svg width="65" height="65" viewBox="0 0 65 65" fill="none" xmlns="http://www.w3.org/2000/svg">
<path d="M23.0594 30.6074L38.1527 15.5407C38.4006 15.2908 38.6956 15.0924 39.0205 14.957C39.3455 14.8217 39.694 14.752 40.0461 14.752C40.3981 14.752 40.7466 14.8217 41.0716 14.957C41.3966 15.0924 41.6915 15.2908 41.9394 15.5407C42.4361 16.0404 42.7148 16.7163 42.7148 17.4207C42.7148 18.1252 42.4361 18.8011 41.9394 19.3007L28.7394 32.6341L41.9394 45.8341C42.4361 46.3337 42.7148 47.0096 42.7148 47.7141C42.7148 48.4186 42.4361 49.0944 41.9394 49.5941C41.6924 49.846 41.3979 50.0465 41.0729 50.1838C40.7479 50.3212 40.3989 50.3926 40.0461 50.3941C39.6932 50.3926 39.3442 50.3212 39.0192 50.1838C38.6942 50.0465 38.3997 49.846 38.1527 49.5941L23.0594 34.5274C22.7887 34.2777 22.5727 33.9746 22.4249 33.6373C22.2772 33.3 22.2009 32.9357 22.2009 32.5674C22.2009 32.1991 22.2772 31.8349 22.4249 31.4975C22.5727 31.1602 22.7887 30.8571 23.0594 30.6074Z" fill="white"/>
</svg>
