<svg width="56" height="56" viewBox="0 0 56 56" fill="none" xmlns="http://www.w3.org/2000/svg">
<path d="M36.2591 26.3423L23.0524 13.1589C22.8355 12.9402 22.5774 12.7667 22.2931 12.6482C22.0087 12.5297 21.7038 12.4688 21.3957 12.4688C21.0877 12.4688 20.7827 12.5297 20.4984 12.6482C20.214 12.7667 19.956 12.9402 19.7391 13.1589C19.3045 13.5961 19.0605 14.1875 19.0605 14.8039C19.0605 15.4204 19.3045 16.0118 19.7391 16.4489L31.2891 28.1156L19.7391 39.6656C19.3045 40.1028 19.0605 40.6942 19.0605 41.3106C19.0605 41.927 19.3045 42.5184 19.7391 42.9556C19.9552 43.1761 20.2129 43.3515 20.4972 43.4716C20.7816 43.5918 21.087 43.6543 21.3957 43.6556C21.7044 43.6543 22.0098 43.5918 22.2942 43.4716C22.5786 43.3515 22.8363 43.1761 23.0524 42.9556L36.2591 29.7723C36.4959 29.5538 36.6849 29.2886 36.8142 28.9934C36.9435 28.6983 37.0102 28.3795 37.0102 28.0573C37.0102 27.735 36.9435 27.4163 36.8142 27.1211C36.6849 26.826 36.4959 26.5608 36.2591 26.3423V26.3423Z" fill="white"/>
</svg>
