<svg width="33" height="32" viewBox="0 0 33 32" fill="none" xmlns="http://www.w3.org/2000/svg">
<path d="M16.5003 25.3333C16.764 25.3333 17.0218 25.2551 17.2411 25.1085C17.4604 24.962 17.6312 24.7538 17.7322 24.5102C17.8331 24.2665 17.8595 23.9984 17.808 23.7398C17.7566 23.4812 17.6296 23.2436 17.4431 23.0571C17.2567 22.8706 17.0191 22.7437 16.7604 22.6922C16.5018 22.6408 16.2337 22.6672 15.9901 22.7681C15.7464 22.869 15.5382 23.0399 15.3917 23.2592C15.2452 23.4784 15.167 23.7362 15.167 23.9999C15.167 24.3535 15.3075 24.6927 15.5575 24.9427C15.8076 25.1928 16.1467 25.3333 16.5003 25.3333ZM23.167 25.3333C23.4307 25.3333 23.6885 25.2551 23.9078 25.1085C24.127 24.962 24.2979 24.7538 24.3988 24.5102C24.4997 24.2665 24.5262 23.9984 24.4747 23.7398C24.4233 23.4812 24.2963 23.2436 24.1098 23.0571C23.9233 22.8706 23.6858 22.7437 23.4271 22.6922C23.1685 22.6408 22.9004 22.6672 22.6567 22.7681C22.4131 22.869 22.2049 23.0399 22.0584 23.2592C21.9119 23.4784 21.8337 23.7362 21.8337 23.9999C21.8337 24.3535 21.9741 24.6927 22.2242 24.9427C22.4742 25.1928 22.8134 25.3333 23.167 25.3333ZM23.167 19.9999C23.4307 19.9999 23.6885 19.9217 23.9078 19.7752C24.127 19.6287 24.2979 19.4205 24.3988 19.1768C24.4997 18.9332 24.5262 18.6651 24.4747 18.4065C24.4233 18.1478 24.2963 17.9102 24.1098 17.7238C23.9233 17.5373 23.6858 17.4103 23.4271 17.3589C23.1685 17.3074 22.9004 17.3338 22.6567 17.4347C22.4131 17.5357 22.2049 17.7066 22.0584 17.9258C21.9119 18.1451 21.8337 18.4029 21.8337 18.6666C21.8337 19.0202 21.9741 19.3593 22.2242 19.6094C22.4742 19.8594 22.8134 19.9999 23.167 19.9999ZM16.5003 19.9999C16.764 19.9999 17.0218 19.9217 17.2411 19.7752C17.4604 19.6287 17.6312 19.4205 17.7322 19.1768C17.8331 18.9332 17.8595 18.6651 17.808 18.4065C17.7566 18.1478 17.6296 17.9102 17.4431 17.7238C17.2567 17.5373 17.0191 17.4103 16.7604 17.3589C16.5018 17.3074 16.2337 17.3338 15.9901 17.4347C15.7464 17.5357 15.5382 17.7066 15.3917 17.9258C15.2452 18.1451 15.167 18.4029 15.167 18.6666C15.167 19.0202 15.3075 19.3593 15.5575 19.6094C15.8076 19.8594 16.1467 19.9999 16.5003 19.9999ZM25.8337 3.99992H24.5003V2.66659C24.5003 2.31296 24.3599 1.97382 24.1098 1.72378C23.8598 1.47373 23.5206 1.33325 23.167 1.33325C22.8134 1.33325 22.4742 1.47373 22.2242 1.72378C21.9741 1.97382 21.8337 2.31296 21.8337 2.66659V3.99992H11.167V2.66659C11.167 2.31296 11.0265 1.97382 10.7765 1.72378C10.5264 1.47373 10.1873 1.33325 9.83366 1.33325C9.48004 1.33325 9.1409 1.47373 8.89085 1.72378C8.6408 1.97382 8.50033 2.31296 8.50033 2.66659V3.99992H7.16699C6.10613 3.99992 5.08871 4.42135 4.33857 5.17149C3.58842 5.92164 3.16699 6.93905 3.16699 7.99992V26.6666C3.16699 27.7274 3.58842 28.7449 4.33857 29.495C5.08871 30.2452 6.10613 30.6666 7.16699 30.6666H25.8337C26.8945 30.6666 27.9119 30.2452 28.6621 29.495C29.4122 28.7449 29.8337 27.7274 29.8337 26.6666V7.99992C29.8337 6.93905 29.4122 5.92164 28.6621 5.17149C27.9119 4.42135 26.8945 3.99992 25.8337 3.99992ZM27.167 26.6666C27.167 27.0202 27.0265 27.3593 26.7765 27.6094C26.5264 27.8594 26.1873 27.9999 25.8337 27.9999H7.16699C6.81337 27.9999 6.47423 27.8594 6.22418 27.6094C5.97413 27.3593 5.83366 27.0202 5.83366 26.6666V14.6666H27.167V26.6666ZM27.167 11.9999H5.83366V7.99992C5.83366 7.6463 5.97413 7.30716 6.22418 7.05711C6.47423 6.80706 6.81337 6.66658 7.16699 6.66658H8.50033V7.99992C8.50033 8.35354 8.6408 8.69268 8.89085 8.94273C9.1409 9.19278 9.48004 9.33325 9.83366 9.33325C10.1873 9.33325 10.5264 9.19278 10.7765 8.94273C11.0265 8.69268 11.167 8.35354 11.167 7.99992V6.66658H21.8337V7.99992C21.8337 8.35354 21.9741 8.69268 22.2242 8.94273C22.4742 9.19278 22.8134 9.33325 23.167 9.33325C23.5206 9.33325 23.8598 9.19278 24.1098 8.94273C24.3599 8.69268 24.5003 8.35354 24.5003 7.99992V6.66658H25.8337C26.1873 6.66658 26.5264 6.80706 26.7765 7.05711C27.0265 7.30716 27.167 7.6463 27.167 7.99992V11.9999ZM9.83366 19.9999C10.0974 19.9999 10.3552 19.9217 10.5744 19.7752C10.7937 19.6287 10.9646 19.4205 11.0655 19.1768C11.1664 18.9332 11.1928 18.6651 11.1414 18.4065C11.0899 18.1478 10.9629 17.9102 10.7765 17.7238C10.59 17.5373 10.3524 17.4103 10.0938 17.3589C9.83514 17.3074 9.56705 17.3338 9.32341 17.4347C9.07978 17.5357 8.87154 17.7066 8.72503 17.9258C8.57852 18.1451 8.50033 18.4029 8.50033 18.6666C8.50033 19.0202 8.6408 19.3593 8.89085 19.6094C9.1409 19.8594 9.48004 19.9999 9.83366 19.9999ZM9.83366 25.3333C10.0974 25.3333 10.3552 25.2551 10.5744 25.1085C10.7937 24.962 10.9646 24.7538 11.0655 24.5102C11.1664 24.2665 11.1928 23.9984 11.1414 23.7398C11.0899 23.4812 10.9629 23.2436 10.7765 23.0571C10.59 22.8706 10.3524 22.7437 10.0938 22.6922C9.83514 22.6408 9.56705 22.6672 9.32341 22.7681C9.07978 22.869 8.87154 23.0399 8.72503 23.2592C8.57852 23.4784 8.50033 23.7362 8.50033 23.9999C8.50033 24.3535 8.6408 24.6927 8.89085 24.9427C9.1409 25.1928 9.48004 25.3333 9.83366 25.3333Z" fill="#4F4F4F"/>
</svg>
