<svg width="32" height="32" viewBox="0 0 32 32" fill="none" xmlns="http://www.w3.org/2000/svg">
<path d="M14.6673 2.66675C12.0302 2.66675 9.45238 3.44873 7.25972 4.91382C5.06707 6.37891 3.3581 8.46129 2.34893 10.8976C1.33976 13.334 1.07572 16.0149 1.59019 18.6013C2.10466 21.1877 3.37453 23.5635 5.23923 25.4282C7.10393 27.2929 9.47971 28.5627 12.0661 29.0772C14.6525 29.5917 17.3334 29.3276 19.7698 28.3185C22.2061 27.3093 24.2885 25.6003 25.7536 23.4077C27.2187 21.215 28.0007 18.6372 28.0007 16.0001C28.0007 14.2491 27.6558 12.5153 26.9857 10.8976C26.3157 9.27996 25.3335 7.81011 24.0954 6.57199C22.8573 5.33388 21.3874 4.35175 19.7698 3.68169C18.1521 3.01162 16.4183 2.66675 14.6673 2.66675ZM14.6673 26.6667C12.5577 26.6667 10.4954 26.0412 8.74124 24.8691C6.98712 23.697 5.61994 22.0311 4.81261 20.082C4.00527 18.133 3.79404 15.9882 4.20561 13.9191C4.61719 11.85 5.63309 9.94937 7.12485 8.45761C8.61661 6.96585 10.5172 5.94995 12.5864 5.53837C14.6555 5.1268 16.8002 5.33803 18.7493 6.14537C20.6984 6.9527 22.3643 8.31987 23.5363 10.074C24.7084 11.8281 25.334 13.8904 25.334 16.0001C25.334 18.8291 24.2102 21.5422 22.2098 23.5426C20.2094 25.5429 17.4963 26.6667 14.6673 26.6667ZM18.8007 16.8401L16.0007 15.2267V9.33342C16.0007 8.97979 15.8602 8.64065 15.6101 8.39061C15.3601 8.14056 15.0209 8.00008 14.6673 8.00008C14.3137 8.00008 13.9746 8.14056 13.7245 8.39061C13.4745 8.64065 13.334 8.97979 13.334 9.33342V16.0001C13.334 16.0001 13.334 16.1067 13.334 16.1601C13.3419 16.252 13.3644 16.342 13.4007 16.4267C13.4281 16.5059 13.4639 16.5818 13.5073 16.6534C13.5438 16.7292 13.5885 16.8007 13.6407 16.8667L13.854 17.0401L13.974 17.1601L17.4407 19.1601C17.6439 19.2753 17.8738 19.335 18.1073 19.3334C18.4025 19.3355 18.6901 19.2395 18.9249 19.0605C19.1597 18.8816 19.3285 18.6297 19.4047 18.3445C19.481 18.0593 19.4604 17.7569 19.3463 17.4846C19.2321 17.2123 19.0308 16.9856 18.774 16.8401H18.8007Z" fill="#FF3F2C"/>
</svg>
