<svg width="32" height="32" viewBox="0 0 32 32" fill="none" xmlns="http://www.w3.org/2000/svg">
<path d="M15.9996 21.3334C15.7359 21.3334 15.4781 21.4116 15.2589 21.5581C15.0396 21.7046 14.8687 21.9128 14.7678 22.1565C14.6669 22.4001 14.6405 22.6682 14.6919 22.9268C14.7434 23.1855 14.8704 23.423 15.0568 23.6095C15.2433 23.796 15.4809 23.923 15.7395 23.9744C15.9982 24.0259 16.2662 23.9995 16.5099 23.8985C16.7535 23.7976 16.9617 23.6267 17.1083 23.4075C17.2548 23.1882 17.333 22.9304 17.333 22.6667C17.333 22.3131 17.1925 21.9739 16.9424 21.7239C16.6924 21.4738 16.3533 21.3334 15.9996 21.3334ZM30.2263 23.2934L19.493 4.6267C19.146 4.00472 18.6393 3.48665 18.0252 3.12599C17.4111 2.76534 16.7118 2.5752 15.9996 2.5752C15.2874 2.5752 14.5882 2.76534 13.974 3.12599C13.3599 3.48665 12.8532 4.00472 12.5063 4.6267L1.83963 23.2934C1.48069 23.8987 1.28782 24.5881 1.28049 25.2918C1.27316 25.9955 1.45163 26.6887 1.79788 27.3014C2.14413 27.9141 2.6459 28.4246 3.25254 28.7814C3.85918 29.1382 4.54921 29.3286 5.25296 29.3334H26.7463C27.4557 29.3404 28.1542 29.1586 28.7702 28.8066C29.3862 28.4546 29.8974 27.9452 30.2516 27.3305C30.6058 26.7158 30.7901 26.0179 30.7856 25.3085C30.7812 24.5991 30.5881 23.9036 30.2263 23.2934ZM27.9196 25.96C27.8028 26.168 27.6323 26.3407 27.4259 26.4604C27.2195 26.58 26.9848 26.642 26.7463 26.64H5.25296C5.01444 26.642 4.77976 26.58 4.57339 26.4604C4.36701 26.3407 4.1965 26.168 4.07963 25.96C3.96261 25.7573 3.901 25.5274 3.901 25.2934C3.901 25.0593 3.96261 24.8294 4.07963 24.6267L14.7463 5.96004C14.8582 5.74163 15.0282 5.55835 15.2376 5.43036C15.4469 5.30237 15.6876 5.23465 15.933 5.23465C16.1784 5.23465 16.419 5.30237 16.6284 5.43036C16.8377 5.55835 17.0077 5.74163 17.1196 5.96004L27.853 24.6267C27.9853 24.8265 28.0613 25.0582 28.073 25.2976C28.0847 25.5369 28.0317 25.7749 27.9196 25.9867V25.96ZM15.9996 10.6667C15.646 10.6667 15.3069 10.8072 15.0568 11.0572C14.8068 11.3073 14.6663 11.6464 14.6663 12V17.3334C14.6663 17.687 14.8068 18.0261 15.0568 18.2762C15.3069 18.5262 15.646 18.6667 15.9996 18.6667C16.3533 18.6667 16.6924 18.5262 16.9424 18.2762C17.1925 18.0261 17.333 17.687 17.333 17.3334V12C17.333 11.6464 17.1925 11.3073 16.9424 11.0572C16.6924 10.8072 16.3533 10.6667 15.9996 10.6667Z" fill="#FF9135"/>
</svg>
