<svg width="32" height="32" viewBox="0 0 32 32" fill="none" xmlns="http://www.w3.org/2000/svg">
<path d="M15.9994 14.668C15.6457 14.668 15.3066 14.8084 15.0565 15.0585C14.8065 15.3085 14.666 15.6477 14.666 16.0013V21.3346C14.666 21.6883 14.8065 22.0274 15.0565 22.2774C15.3066 22.5275 15.6457 22.668 15.9994 22.668C16.353 22.668 16.6921 22.5275 16.9422 22.2774C17.1922 22.0274 17.3327 21.6883 17.3327 21.3346V16.0013C17.3327 15.6477 17.1922 15.3085 16.9422 15.0585C16.6921 14.8084 16.353 14.668 15.9994 14.668ZM16.506 9.4413C16.1814 9.30794 15.8173 9.30794 15.4927 9.4413C15.329 9.50476 15.1795 9.59991 15.0527 9.7213C14.9349 9.8509 14.8402 9.99972 14.7727 10.1613C14.698 10.3195 14.6615 10.4931 14.666 10.668C14.665 10.8434 14.6986 11.0174 14.765 11.1798C14.8313 11.3423 14.9291 11.49 15.0527 11.6146C15.1823 11.7324 15.3311 11.8271 15.4927 11.8946C15.6947 11.9776 15.914 12.0097 16.1313 11.9881C16.3486 11.9665 16.5573 11.8919 16.739 11.7707C16.9207 11.6496 17.0698 11.4857 17.1734 11.2934C17.2769 11.1011 17.3316 10.8863 17.3327 10.668C17.3278 10.3149 17.1897 9.97681 16.946 9.7213C16.8192 9.59991 16.6697 9.50476 16.506 9.4413ZM15.9994 2.66797C13.3623 2.66797 10.7844 3.44996 8.59175 4.91504C6.3991 6.38013 4.69013 8.46251 3.68096 10.8989C2.67179 13.3352 2.40775 16.0161 2.92222 18.6025C3.43669 21.1889 4.70656 23.5647 6.57126 25.4294C8.43596 27.2941 10.8117 28.564 13.3982 29.0784C15.9846 29.5929 18.6655 29.3289 21.1018 28.3197C23.5382 27.3105 25.6205 25.6016 27.0856 23.4089C28.5507 21.2163 29.3327 18.6384 29.3327 16.0013C29.3327 14.2503 28.9878 12.5165 28.3177 10.8989C27.6477 9.28118 26.6656 7.81133 25.4274 6.57321C24.1893 5.3351 22.7195 4.35297 21.1018 3.68291C19.4841 3.01285 17.7503 2.66797 15.9994 2.66797V2.66797ZM15.9994 26.668C13.8897 26.668 11.8274 26.0424 10.0733 24.8703C8.31915 23.6982 6.95198 22.0323 6.14464 20.0833C5.33731 18.1342 5.12607 15.9895 5.53765 13.9203C5.94922 11.8512 6.96512 9.95059 8.45688 8.45883C9.94864 6.96707 11.8493 5.95117 13.9184 5.53959C15.9875 5.12802 18.1322 5.33925 20.0813 6.14659C22.0304 6.95392 23.6963 8.3211 24.8684 10.0752C26.0404 11.8293 26.666 13.8916 26.666 16.0013C26.666 18.8303 25.5422 21.5434 23.5418 23.5438C21.5414 25.5442 18.8283 26.668 15.9994 26.668V26.668Z" fill="white"/>
</svg>
