<svg width="25" height="24" viewBox="0 0 25 24" fill="none" xmlns="http://www.w3.org/2000/svg">
<path d="M12.75 10.7981C13.1456 10.7981 13.5322 10.6808 13.8611 10.4611C14.19 10.2413 14.4464 9.92895 14.5978 9.5635C14.7491 9.19805 14.7887 8.79592 14.7116 8.40795C14.6344 8.01999 14.4439 7.66363 14.1642 7.38392C13.8845 7.10422 13.5281 6.91373 13.1402 6.83656C12.7522 6.75939 12.3501 6.799 11.9846 6.95038C11.6192 7.10175 11.3068 7.3581 11.0871 7.68699C10.8673 8.01589 10.75 8.40257 10.75 8.79813C10.75 9.32857 10.9607 9.83728 11.3358 10.2123C11.7109 10.5874 12.2196 10.7981 12.75 10.7981ZM12.04 17.7081C12.133 17.8019 12.2436 17.8763 12.3654 17.927C12.4873 17.9778 12.618 18.0039 12.75 18.0039C12.882 18.0039 13.0127 17.9778 13.1346 17.927C13.2564 17.8763 13.367 17.8019 13.46 17.7081L17.55 13.6081C18.5 12.6587 19.147 11.4488 19.4093 10.1316C19.6716 8.81437 19.5373 7.44894 19.0235 6.20802C18.5097 4.96711 17.6394 3.90644 16.5227 3.16019C15.406 2.41394 14.0931 2.01563 12.75 2.01562C11.4069 2.01563 10.094 2.41394 8.97731 3.16019C7.86062 3.90644 6.99033 4.96711 6.47652 6.20802C5.9627 7.44894 5.82845 8.81437 6.09073 10.1316C6.35301 11.4488 7.00005 12.6587 7.95 13.6081L12.04 17.7081ZM7.98 8.33813C8.04833 7.62515 8.27502 6.93643 8.64352 6.32225C9.01203 5.70807 9.51305 5.18394 10.11 4.78813C10.8942 4.27323 11.8119 3.99889 12.75 3.99889C13.6881 3.99889 14.6058 4.27323 15.39 4.78813C15.983 5.18259 16.4811 5.70354 16.8487 6.31352C17.2163 6.9235 17.4442 7.60736 17.5159 8.31592C17.5876 9.02448 17.5014 9.74012 17.2635 10.4114C17.0256 11.0827 16.6419 11.6929 16.14 12.1981L12.75 15.5881L9.36 12.1981C8.85752 11.6978 8.47293 11.0917 8.23421 10.4239C7.99548 9.75621 7.90864 9.04365 7.98 8.33813ZM19.75 19.9981H5.75C5.48478 19.9981 5.23043 20.1035 5.04289 20.291C4.85536 20.4786 4.75 20.7329 4.75 20.9981C4.75 21.2634 4.85536 21.5177 5.04289 21.7052C5.23043 21.8928 5.48478 21.9981 5.75 21.9981H19.75C20.0152 21.9981 20.2696 21.8928 20.4571 21.7052C20.6446 21.5177 20.75 21.2634 20.75 20.9981C20.75 20.7329 20.6446 20.4786 20.4571 20.291C20.2696 20.1035 20.0152 19.9981 19.75 19.9981Z" fill="white"/>
</svg>
