<svg width="174" height="79" viewBox="0 0 174 79" fill="none" xmlns="http://www.w3.org/2000/svg">
<path d="M16.7402 57.7581H17.8046L16.8078 61.9115C16.6557 62.5218 16.6895 62.9965 16.8923 63.3016C17.095 63.6068 17.4667 63.7593 18.0242 63.7593C18.5648 63.7593 19.021 63.6068 19.3758 63.3016C19.7305 62.9965 19.9671 62.5218 20.1191 61.9115L21.1159 57.7581H22.1971L21.1835 62.0132C20.9638 62.9287 20.5753 63.6237 20.0009 64.0815C19.4433 64.5392 18.7 64.7765 17.7877 64.7765C16.8754 64.7765 16.2503 64.5561 15.9124 64.0984C15.5745 63.6407 15.5069 62.9456 15.7265 62.0302L16.7402 57.7581ZM22.0451 64.59L23.7345 57.4868L26.9445 61.6572C27.029 61.7759 27.1134 61.8945 27.1979 62.0302C27.2824 62.1658 27.3669 62.3184 27.4682 62.4879L28.6002 57.7581H29.5969L27.9075 64.8443L24.63 60.5892L24.3765 60.2332C24.2921 60.0975 24.2245 59.9789 24.1738 59.8263L23.0419 64.5731H22.0451V64.59ZM29.5125 64.59L31.1343 57.7581H32.2156L30.5937 64.59H29.5125ZM32.1311 64.59L33.753 57.7581H37.4529L37.2333 58.7074H34.6146L34.2092 60.4027H36.8278L36.5913 61.369H33.9726L33.2124 64.5731H32.1311V64.59ZM37.0305 64.59L38.6524 57.7581H39.7337L38.1118 64.59H37.0305ZM39.6492 64.59L41.2711 57.7581H44.971L44.7513 58.7074H42.1327L41.7272 60.4196H44.3459L44.1093 61.386H41.4907L40.967 63.5898H43.5856L43.3491 64.59H39.6492ZM44.5993 64.59L46.2212 57.7581H47.6741C48.6202 57.7581 49.2791 57.8089 49.6339 57.9106C49.9886 58.0124 50.2927 58.1649 50.5293 58.4023C50.8334 58.7074 51.0361 59.0973 51.1206 59.5551C51.2051 60.0297 51.1713 60.5722 51.0361 61.1656C50.8841 61.7759 50.6644 62.3014 50.3603 62.7761C50.0562 63.2508 49.6676 63.6237 49.2115 63.9289C48.8736 64.1662 48.5019 64.3188 48.0965 64.4205C47.7079 64.5222 47.1166 64.5731 46.3394 64.5731H44.5993V64.59ZM45.9171 63.5729H46.8294C47.3193 63.5729 47.7079 63.539 47.9782 63.4711C48.2485 63.4033 48.485 63.2847 48.7047 63.1321C49.0088 62.9117 49.2622 62.6405 49.4649 62.3014C49.6676 61.9793 49.8197 61.5894 49.9211 61.1486C50.0224 60.7078 50.0562 60.3349 50.0055 60.0128C49.9549 59.6907 49.8366 59.4025 49.6339 59.1821C49.4818 59.0126 49.296 58.9109 49.0425 58.843C48.7891 58.7752 48.4006 58.7413 47.843 58.7413H47.0659L45.9171 63.5729ZM56.0031 61.5216L55.2766 64.59H54.263L55.8848 57.7581H57.5236C58.0135 57.7581 58.3514 57.792 58.5711 57.8428C58.7907 57.8937 58.9596 57.9784 59.0948 58.1141C59.2637 58.2666 59.382 58.487 59.4327 58.7583C59.4834 59.0295 59.4665 59.3177 59.3989 59.6398C59.3144 59.9619 59.1962 60.2671 59.0103 60.5383C58.8245 60.8096 58.6049 61.0299 58.3683 61.1825C58.1656 61.3012 57.946 61.4029 57.7094 61.4538C57.4729 61.5046 57.1012 61.5385 56.6282 61.5385H56.0031V61.5216ZM56.2903 60.6061H56.5606C57.1519 60.6061 57.5743 60.5383 57.8108 60.4027C58.0473 60.2671 58.1994 60.0297 58.2839 59.6907C58.3683 59.3347 58.3176 59.0634 58.1487 58.9278C57.9629 58.7752 57.5912 58.7074 57.0337 58.7074H56.7634L56.2903 60.6061ZM63.065 64.59L62.7271 62.8269H60.0916L58.909 64.59H57.777L62.6764 57.4868L64.1969 64.59H63.065ZM60.7336 61.8945H62.5751L62.271 60.3349C62.2541 60.2332 62.2372 60.1145 62.2372 59.9958C62.2203 59.8602 62.2203 59.7246 62.2203 59.572C62.1527 59.7246 62.0851 59.8602 62.0007 59.9958C61.9331 60.1314 61.8655 60.2501 61.7979 60.3518L60.7336 61.8945ZM65.7512 64.59L66.4946 61.4707L65.143 57.775H66.275L67.1197 60.0975C67.1366 60.1654 67.1535 60.2332 67.1873 60.3349C67.2211 60.4366 67.238 60.5383 67.2718 60.64L67.4745 60.3349C67.5421 60.2332 67.6096 60.1484 67.6772 60.0636L69.6539 57.775H70.7351L67.5759 61.4538L66.8325 64.5731H65.7512V64.59ZM76.04 61.2164C76.04 61.1656 76.0569 61.013 76.0907 60.7757C76.1076 60.5722 76.1245 60.4196 76.1414 60.284C76.0738 60.4366 76.0062 60.5892 75.9217 60.7587C75.8373 60.9113 75.7359 61.0808 75.6176 61.2334L73.0159 64.8782L72.1712 61.1656C72.1374 61.013 72.1036 60.8604 72.0867 60.7248C72.0698 60.5892 72.0529 60.4366 72.0529 60.301C72.0191 60.4366 71.9684 60.5892 71.9177 60.7587C71.8671 60.9113 71.7995 61.0808 71.715 61.2503L70.1945 64.607H69.1977L72.4584 57.4868L73.3876 61.7928C73.4045 61.8606 73.4214 61.9793 73.4383 62.1319C73.4552 62.2845 73.4889 62.4879 73.5227 62.7252C73.641 62.5218 73.793 62.2845 73.9958 61.9793C74.0465 61.8945 74.0971 61.8437 74.114 61.7928L77.0537 57.4868L76.9523 64.607H75.9555L76.04 61.2164ZM77.8308 64.59L79.4527 57.7581H83.1526L82.933 58.7074H80.3143L79.9089 60.4196H82.5275L82.291 61.386H79.6723L79.1486 63.5898H81.7673L81.5307 64.59H77.8308ZM82.764 64.59L84.4535 57.4868L87.6635 61.6572C87.7479 61.7759 87.8324 61.8945 87.9169 62.0302C88.0013 62.1658 88.0858 62.3184 88.1872 62.4879L89.3191 57.7581H90.3159L88.6264 64.8443L85.3489 60.5892L85.0955 60.2332C85.011 60.0975 84.9434 59.9789 84.8927 59.8263L83.7608 64.5731H82.764V64.59ZM93.7624 58.6905L92.3601 64.5731H91.2789L92.6811 58.6905H90.9241L91.1437 57.7411H95.739L95.5194 58.6905H93.7624ZM94.8943 63.2169L95.8573 62.81C95.8742 63.1151 95.9587 63.3525 96.1445 63.5051C96.3303 63.6576 96.5838 63.7424 96.9217 63.7424C97.2427 63.7424 97.513 63.6576 97.7495 63.4711C97.986 63.2847 98.1381 63.0473 98.2056 62.7422C98.307 62.3353 98.0705 61.9793 97.4961 61.6742C97.4116 61.6233 97.3609 61.5894 97.3102 61.5724C96.6682 61.1995 96.2628 60.8774 96.0938 60.5722C95.9249 60.2671 95.8911 59.9111 95.9925 59.4872C96.1276 58.9278 96.4148 58.487 96.871 58.131C97.3271 57.792 97.834 57.6055 98.4422 57.6055C98.9321 57.6055 99.3207 57.7072 99.6079 57.8937C99.8951 58.0802 100.047 58.3684 100.098 58.7244L99.1517 59.1651C99.0673 58.9448 98.9659 58.7922 98.8307 58.6905C98.6956 58.5887 98.5266 58.5379 98.3239 58.5379C98.0367 58.5379 97.7833 58.6227 97.5805 58.7752C97.3778 58.9278 97.2427 59.1312 97.1751 59.4025C97.0737 59.8093 97.3609 60.1993 98.0198 60.5553C98.0705 60.5892 98.1043 60.6061 98.1381 60.6231C98.7125 60.9282 99.101 61.2334 99.27 61.5385C99.4389 61.8437 99.4727 62.1997 99.3714 62.6574C99.2193 63.3016 98.8983 63.8102 98.4084 64.2001C97.9184 64.5731 97.344 64.7765 96.6682 64.7765C96.1107 64.7765 95.6715 64.6409 95.3674 64.3697C95.0295 64.0984 94.8774 63.7085 94.8943 63.2169ZM102.852 64.59L104.474 57.7581H105.555L103.933 64.59H102.852ZM105.487 64.59L107.177 57.4868L110.387 61.6572C110.471 61.7759 110.556 61.8945 110.64 62.0302C110.724 62.1658 110.809 62.3184 110.91 62.4879L112.042 57.7581H113.039L111.35 64.8443L108.072 60.5892L107.819 60.2332C107.734 60.0975 107.667 59.9789 107.616 59.8263L106.484 64.5731H105.487V64.59ZM116.486 58.6905L115.083 64.5731H114.002L115.404 58.6905H113.647L113.867 57.7411H118.462L118.243 58.6905H116.486ZM117.651 64.59L119.273 57.7581H122.99L122.77 58.7074H120.152L119.746 60.4196H122.365L122.128 61.386H119.51L118.986 63.5898H121.605L121.368 64.59H117.651ZM124.325 61.5216L123.598 64.5731H122.584L124.206 57.7411H125.71C126.149 57.7411 126.487 57.775 126.707 57.8259C126.943 57.8767 127.129 57.9784 127.264 58.1141C127.433 58.2836 127.535 58.487 127.585 58.7583C127.636 59.0126 127.619 59.3008 127.551 59.6229C127.416 60.1654 127.197 60.6061 126.859 60.9113C126.521 61.2164 126.099 61.4029 125.592 61.4707L127.129 64.5731H125.913L124.443 61.5216H124.325ZM124.595 60.657H124.798C125.372 60.657 125.761 60.5892 125.98 60.4536C126.2 60.3179 126.352 60.0806 126.436 59.7246C126.521 59.3516 126.487 59.0804 126.318 58.9278C126.149 58.7752 125.794 58.6905 125.254 58.6905H125.051L124.595 60.657ZM127.788 64.59L129.41 57.7581H133.11L132.89 58.7074H130.271L129.866 60.4027H132.485L132.248 61.369H129.629L128.869 64.5731H127.788V64.59ZM136.708 64.59L136.37 62.8269H133.735L132.552 64.59H131.42L136.32 57.4868L137.84 64.59H136.708ZM134.36 61.8945H136.201L135.897 60.3349C135.88 60.2332 135.864 60.1145 135.864 59.9958C135.847 59.8602 135.847 59.7246 135.847 59.572C135.779 59.7246 135.711 59.8602 135.627 59.9958C135.559 60.1314 135.492 60.2501 135.424 60.3518L134.36 61.8945ZM144.868 59.4194C144.632 59.1482 144.345 58.9448 144.04 58.8261C143.736 58.6905 143.399 58.6227 143.01 58.6227C142.283 58.6227 141.641 58.86 141.067 59.3347C140.493 59.8093 140.121 60.4366 139.935 61.1995C139.766 61.9284 139.834 62.5387 140.172 63.0304C140.493 63.5051 140.999 63.7424 141.675 63.7424C142.064 63.7424 142.452 63.6746 142.841 63.522C143.23 63.3864 143.618 63.166 144.024 62.8778L143.72 64.1323C143.382 64.3527 143.027 64.5053 142.655 64.607C142.283 64.7087 141.912 64.7596 141.506 64.7596C140.999 64.7596 140.543 64.6748 140.155 64.5053C139.766 64.3357 139.445 64.0815 139.192 63.7424C138.938 63.4203 138.786 63.0304 138.719 62.5896C138.651 62.1488 138.668 61.6742 138.803 61.1656C138.921 60.657 139.124 60.1993 139.395 59.7585C139.665 59.3177 140.02 58.9278 140.425 58.6057C140.831 58.2666 141.27 58.0124 141.743 57.8428C142.216 57.6733 142.689 57.5885 143.179 57.5885C143.567 57.5885 143.922 57.6394 144.26 57.7581C144.581 57.8767 144.885 58.0463 145.156 58.2836L144.868 59.4194ZM144.97 64.59L146.592 57.7581H150.291L150.072 58.7074H147.453L147.048 60.4196H149.666L149.43 61.386H146.811L146.287 63.5898H148.906L148.67 64.59H144.97Z" fill="white"/>
<path d="M125.305 51.8077H117.888L128.194 14.4607H135.611L125.305 51.8077ZM121.453 15.6304C120.946 14.9184 120.152 14.5624 119.071 14.5624H78.3214L76.3109 21.886H113.378L111.215 29.7013H81.5651V29.6843H74.1484L67.9988 51.9772H75.4155L79.5378 37.0249H112.871C113.918 37.0249 114.898 36.6688 115.81 35.9568C116.723 35.2448 117.331 34.3633 117.618 33.3122L121.74 18.3598C122.061 17.241 121.96 16.3425 121.453 15.6304ZM63.6738 49.4682C63.2684 50.9431 61.9168 51.9772 60.3963 51.9772H22.164C21.1165 51.9772 20.3394 51.6212 19.8325 50.9092C19.3257 50.1972 19.2074 49.3156 19.5115 48.2646L28.8373 14.5624H36.254L27.925 44.6706H57.5918L65.9208 14.5624H73.3375L63.6738 49.4682Z" fill="white"/>
<path d="M148.417 14.5286L157.793 33.2444L138.077 51.9603L148.417 14.5286Z" fill="#098041"/>
<path d="M141.828 14.5286L151.204 33.2444L131.472 51.9603L141.828 14.5286Z" fill="#E97626"/>
</svg>
