<svg width="174" height="79" viewBox="0 0 174 79" fill="none" xmlns="http://www.w3.org/2000/svg">
<path d="M16.7402 57.7582H17.8046L16.8078 61.9116C16.6557 62.5219 16.6895 62.9966 16.8923 63.3017C17.095 63.6069 17.4667 63.7595 18.0242 63.7595C18.5648 63.7595 19.021 63.6069 19.3758 63.3017C19.7305 62.9966 19.9671 62.5219 20.1191 61.9116L21.1159 57.7582H22.1971L21.1835 62.0133C20.9638 62.9288 20.5753 63.6238 20.0009 64.0816C19.4433 64.5393 18.7 64.7766 17.7877 64.7766C16.8754 64.7766 16.2503 64.5563 15.9124 64.0985C15.5745 63.6408 15.5069 62.9457 15.7265 62.0303L16.7402 57.7582ZM22.0451 64.5902L23.7345 57.4869L26.9445 61.6573C27.029 61.776 27.1134 61.8947 27.1979 62.0303C27.2824 62.1659 27.3669 62.3185 27.4682 62.488L28.6002 57.7582H29.5969L27.9075 64.8444L24.63 60.5893L24.3765 60.2333C24.2921 60.0977 24.2245 59.979 24.1738 59.8264L23.0419 64.5732H22.0451V64.5902ZM29.5125 64.5902L31.1343 57.7582H32.2156L30.5937 64.5902H29.5125ZM32.1311 64.5902L33.753 57.7582H37.4529L37.2333 58.7075H34.6146L34.2092 60.4028H36.8278L36.5913 61.3691H33.9726L33.2124 64.5732H32.1311V64.5902ZM37.0305 64.5902L38.6524 57.7582H39.7337L38.1118 64.5902H37.0305ZM39.6492 64.5902L41.2711 57.7582H44.971L44.7513 58.7075H42.1327L41.7272 60.4198H44.3459L44.1093 61.3861H41.4907L40.967 63.5899H43.5856L43.3491 64.5902H39.6492ZM44.5993 64.5902L46.2212 57.7582H47.6741C48.6202 57.7582 49.2791 57.809 49.6339 57.9108C49.9886 58.0125 50.2927 58.165 50.5293 58.4024C50.8334 58.7075 51.0361 59.0975 51.1206 59.5552C51.2051 60.0299 51.1713 60.5723 51.0361 61.1657C50.8841 61.776 50.6644 62.3015 50.3603 62.7762C50.0562 63.2509 49.6676 63.6238 49.2115 63.929C48.8736 64.1663 48.5019 64.3189 48.0965 64.4206C47.7079 64.5223 47.1166 64.5732 46.3394 64.5732H44.5993V64.5902ZM45.9171 63.573H46.8294C47.3193 63.573 47.7079 63.5391 47.9782 63.4713C48.2485 63.4035 48.485 63.2848 48.7047 63.1322C49.0088 62.9118 49.2622 62.6406 49.4649 62.3015C49.6676 61.9794 49.8197 61.5895 49.9211 61.1487C50.0224 60.708 50.0562 60.335 50.0055 60.0129C49.9549 59.6908 49.8366 59.4026 49.6339 59.1822C49.4818 59.0127 49.296 58.911 49.0425 58.8432C48.7891 58.7754 48.4006 58.7414 47.843 58.7414H47.0659L45.9171 63.573ZM56.0031 61.5217L55.2766 64.5902H54.263L55.8848 57.7582H57.5236C58.0135 57.7582 58.3514 57.7921 58.5711 57.8429C58.7907 57.8938 58.9596 57.9786 59.0948 58.1142C59.2637 58.2668 59.382 58.4872 59.4327 58.7584C59.4834 59.0296 59.4665 59.3178 59.3989 59.6399C59.3144 59.962 59.1962 60.2672 59.0103 60.5384C58.8245 60.8097 58.6049 61.0301 58.3683 61.1826C58.1656 61.3013 57.946 61.403 57.7094 61.4539C57.4729 61.5047 57.1012 61.5387 56.6282 61.5387H56.0031V61.5217ZM56.2903 60.6063H56.5606C57.1519 60.6063 57.5743 60.5384 57.8108 60.4028C58.0473 60.2672 58.1994 60.0299 58.2839 59.6908C58.3683 59.3348 58.3176 59.0635 58.1487 58.9279C57.9629 58.7754 57.5912 58.7075 57.0337 58.7075H56.7634L56.2903 60.6063ZM63.065 64.5902L62.7271 62.8271H60.0916L58.909 64.5902H57.777L62.6764 57.4869L64.1969 64.5902H63.065ZM60.7336 61.8947H62.5751L62.271 60.335C62.2541 60.2333 62.2372 60.1146 62.2372 59.9959C62.2203 59.8603 62.2203 59.7247 62.2203 59.5721C62.1527 59.7247 62.0851 59.8603 62.0007 59.9959C61.9331 60.1316 61.8655 60.2502 61.7979 60.352L60.7336 61.8947ZM65.7512 64.5902L66.4946 61.4708L65.143 57.7751H66.275L67.1197 60.0977C67.1366 60.1655 67.1535 60.2333 67.1873 60.335C67.2211 60.4367 67.238 60.5384 67.2718 60.6402L67.4745 60.335C67.5421 60.2333 67.6096 60.1485 67.6772 60.0638L69.6539 57.7751H70.7351L67.5759 61.4539L66.8325 64.5732H65.7512V64.5902ZM76.04 61.2166C76.04 61.1657 76.0569 61.0131 76.0907 60.7758C76.1076 60.5723 76.1245 60.4198 76.1414 60.2841C76.0738 60.4367 76.0062 60.5893 75.9217 60.7588C75.8373 60.9114 75.7359 61.0809 75.6176 61.2335L73.0159 64.8784L72.1712 61.1657C72.1374 61.0131 72.1036 60.8605 72.0867 60.7249C72.0698 60.5893 72.0529 60.4367 72.0529 60.3011C72.0191 60.4367 71.9684 60.5893 71.9177 60.7588C71.8671 60.9114 71.7995 61.0809 71.715 61.2505L70.1945 64.6071H69.1977L72.4584 57.4869L73.3876 61.7929C73.4045 61.8608 73.4214 61.9794 73.4383 62.132C73.4552 62.2846 73.4889 62.488 73.5227 62.7253C73.641 62.5219 73.793 62.2846 73.9958 61.9794C74.0465 61.8947 74.0971 61.8438 74.114 61.7929L77.0537 57.4869L76.9523 64.6071H75.9555L76.04 61.2166ZM77.8308 64.5902L79.4527 57.7582H83.1526L82.933 58.7075H80.3143L79.9089 60.4198H82.5275L82.291 61.3861H79.6723L79.1486 63.5899H81.7673L81.5307 64.5902H77.8308ZM82.764 64.5902L84.4535 57.4869L87.6635 61.6573C87.7479 61.776 87.8324 61.8947 87.9169 62.0303C88.0013 62.1659 88.0858 62.3185 88.1872 62.488L89.3191 57.7582H90.3159L88.6264 64.8444L85.3489 60.5893L85.0955 60.2333C85.011 60.0977 84.9434 59.979 84.8927 59.8264L83.7608 64.5732H82.764V64.5902ZM93.7624 58.6906L92.3601 64.5732H91.2789L92.6811 58.6906H90.9241L91.1437 57.7412H95.739L95.5194 58.6906H93.7624ZM94.8943 63.217L95.8573 62.8101C95.8742 63.1153 95.9587 63.3526 96.1445 63.5052C96.3303 63.6578 96.5838 63.7425 96.9217 63.7425C97.2427 63.7425 97.513 63.6578 97.7495 63.4713C97.986 63.2848 98.1381 63.0475 98.2056 62.7423C98.307 62.3354 98.0705 61.9794 97.4961 61.6743C97.4116 61.6234 97.3609 61.5895 97.3102 61.5726C96.6682 61.1996 96.2628 60.8775 96.0938 60.5723C95.9249 60.2672 95.8911 59.9112 95.9925 59.4874C96.1276 58.9279 96.4148 58.4872 96.871 58.1311C97.3271 57.7921 97.834 57.6056 98.4422 57.6056C98.9321 57.6056 99.3207 57.7073 99.6079 57.8938C99.8951 58.0803 100.047 58.3685 100.098 58.7245L99.1517 59.1653C99.0673 58.9449 98.9659 58.7923 98.8307 58.6906C98.6956 58.5889 98.5266 58.538 98.3239 58.538C98.0367 58.538 97.7833 58.6228 97.5805 58.7754C97.3778 58.9279 97.2427 59.1314 97.1751 59.4026C97.0737 59.8095 97.3609 60.1994 98.0198 60.5554C98.0705 60.5893 98.1043 60.6063 98.1381 60.6232C98.7125 60.9284 99.101 61.2335 99.27 61.5387C99.4389 61.8438 99.4727 62.1998 99.3714 62.6575C99.2193 63.3017 98.8983 63.8103 98.4084 64.2002C97.9184 64.5732 97.344 64.7766 96.6682 64.7766C96.1107 64.7766 95.6715 64.641 95.3674 64.3698C95.0295 64.0985 94.8774 63.7086 94.8943 63.217ZM102.852 64.5902L104.474 57.7582H105.555L103.933 64.5902H102.852ZM105.487 64.5902L107.177 57.4869L110.387 61.6573C110.471 61.776 110.556 61.8947 110.64 62.0303C110.724 62.1659 110.809 62.3185 110.91 62.488L112.042 57.7582H113.039L111.35 64.8444L108.072 60.5893L107.819 60.2333C107.734 60.0977 107.667 59.979 107.616 59.8264L106.484 64.5732H105.487V64.5902ZM116.486 58.6906L115.083 64.5732H114.002L115.404 58.6906H113.647L113.867 57.7412H118.462L118.243 58.6906H116.486ZM117.651 64.5902L119.273 57.7582H122.99L122.77 58.7075H120.152L119.746 60.4198H122.365L122.128 61.3861H119.51L118.986 63.5899H121.605L121.368 64.5902H117.651ZM124.325 61.5217L123.598 64.5732H122.584L124.206 57.7412H125.71C126.149 57.7412 126.487 57.7751 126.707 57.826C126.943 57.8769 127.129 57.9786 127.264 58.1142C127.433 58.2837 127.535 58.4872 127.585 58.7584C127.636 59.0127 127.619 59.3009 127.551 59.623C127.416 60.1655 127.197 60.6062 126.859 60.9114C126.521 61.2165 126.099 61.403 125.592 61.4708L127.129 64.5732H125.913L124.443 61.5217H124.325ZM124.595 60.6571H124.798C125.372 60.6571 125.761 60.5893 125.98 60.4537C126.2 60.3181 126.352 60.0807 126.436 59.7247C126.521 59.3517 126.487 59.0805 126.318 58.9279C126.149 58.7754 125.794 58.6906 125.254 58.6906H125.051L124.595 60.6571ZM127.788 64.5902L129.41 57.7582H133.11L132.89 58.7075H130.271L129.866 60.4028H132.485L132.248 61.3691H129.629L128.869 64.5732H127.788V64.5902ZM136.708 64.5902L136.37 62.8271H133.735L132.552 64.5902H131.42L136.32 57.4869L137.84 64.5902H136.708ZM134.36 61.8947H136.201L135.897 60.335C135.88 60.2333 135.864 60.1146 135.864 59.9959C135.847 59.8603 135.847 59.7247 135.847 59.5721C135.779 59.7247 135.711 59.8603 135.627 59.9959C135.559 60.1316 135.492 60.2502 135.424 60.352L134.36 61.8947ZM144.868 59.4196C144.632 59.1483 144.345 58.9449 144.04 58.8262C143.736 58.6906 143.399 58.6228 143.01 58.6228C142.283 58.6228 141.641 58.8601 141.067 59.3348C140.493 59.8095 140.121 60.4367 139.935 61.1996C139.766 61.9286 139.834 62.5389 140.172 63.0305C140.493 63.5052 140.999 63.7425 141.675 63.7425C142.064 63.7425 142.452 63.6747 142.841 63.5221C143.23 63.3865 143.618 63.1661 144.024 62.8779L143.72 64.1324C143.382 64.3528 143.027 64.5054 142.655 64.6071C142.283 64.7088 141.912 64.7597 141.506 64.7597C140.999 64.7597 140.543 64.6749 140.155 64.5054C139.766 64.3359 139.445 64.0816 139.192 63.7425C138.938 63.4204 138.786 63.0305 138.719 62.5897C138.651 62.149 138.668 61.6743 138.803 61.1657C138.921 60.6571 139.124 60.1994 139.395 59.7586C139.665 59.3178 140.02 58.9279 140.425 58.6058C140.831 58.2668 141.27 58.0125 141.743 57.8429C142.216 57.6734 142.689 57.5887 143.179 57.5887C143.567 57.5887 143.922 57.6395 144.26 57.7582C144.581 57.8769 144.885 58.0464 145.156 58.2837L144.868 59.4196ZM144.97 64.5902L146.592 57.7582H150.291L150.072 58.7075H147.453L147.048 60.4198H149.666L149.43 61.3861H146.811L146.287 63.5899H148.906L148.67 64.5902H144.97Z" fill="#3D3D3C"/>
<path d="M125.303 51.8077H117.886L128.192 14.4607H135.609L125.303 51.8077ZM121.451 15.6304C120.944 14.9184 120.15 14.5624 119.069 14.5624H78.3194L76.309 21.886H113.376L111.213 29.7013H81.5632V29.6843H74.1465L67.9969 51.9772H75.4136L79.5358 37.0249H112.869C113.916 37.0249 114.896 36.6688 115.808 35.9568C116.721 35.2448 117.329 34.3633 117.616 33.3122L121.738 18.3598C122.059 17.241 121.958 16.3425 121.451 15.6304ZM63.6719 49.4682C63.2664 50.9431 61.9148 51.9772 60.3943 51.9772H22.162C21.1146 51.9772 20.3374 51.6212 19.8306 50.9092C19.3237 50.1972 19.2055 49.3156 19.5096 48.2646L28.8354 14.5624H36.2521L27.9231 44.6706H57.5898L65.9189 14.5624H73.3356L63.6719 49.4682Z" fill="#70706E"/>
<path d="M148.416 14.5286L157.792 33.2444L138.076 51.9603L148.416 14.5286Z" fill="#098041"/>
<path d="M141.827 14.5286L151.204 33.2444L131.471 51.9603L141.827 14.5286Z" fill="#E97626"/>
</svg>
