<svg width="41" height="40" viewBox="0 0 41 40" fill="none" xmlns="http://www.w3.org/2000/svg">
<path fill-rule="evenodd" clip-rule="evenodd" d="M20.5 40C31.5457 40 40.5 31.0457 40.5 20C40.5 8.9543 31.5457 0 20.5 0C9.4543 0 0.5 8.9543 0.5 20C0.5 31.0457 9.4543 40 20.5 40Z" fill="#CFEEFF"/>
<path d="M18.9922 22.8977C18.2111 23.6781 16.9453 23.6778 16.1645 22.897L14.0829 20.8155C13.6898 20.4223 13.0527 20.4212 12.6582 20.813C12.2616 21.2067 12.2605 21.8477 12.6556 22.2428L16.1638 25.751C16.9449 26.532 18.2112 26.532 18.9922 25.751L28.971 15.7722C29.3638 15.3794 29.3638 14.7425 28.971 14.3496C28.5783 13.9569 27.9416 13.9568 27.5487 14.3493L18.9922 22.8977Z" fill="#27357E"/>
</svg>
