<svg width="32" height="32" viewBox="0 0 32 32" fill="none" xmlns="http://www.w3.org/2000/svg">
<path d="M28.0003 21.3334H9.33366C8.98004 21.3334 8.6409 21.1929 8.39085 20.9429C8.1408 20.6928 8.00033 20.3537 8.00033 20.0001C8.00033 19.6465 8.1408 19.3073 8.39085 19.0573C8.6409 18.8072 8.98004 18.6667 9.33366 18.6667H23.2537C24.1452 18.6668 25.0112 18.369 25.7142 17.8207C26.4171 17.2723 26.9167 16.5048 27.1337 15.6401L29.3337 6.98675C29.3836 6.78996 29.3879 6.58436 29.3463 6.38564C29.3047 6.18692 29.2183 6.00033 29.0937 5.84008C28.964 5.67572 28.7974 5.54421 28.6075 5.45619C28.4176 5.36816 28.2095 5.3261 28.0003 5.33341H9.01366C8.73858 4.55535 8.22957 3.88141 7.55641 3.404C6.88326 2.92659 6.07892 2.66907 5.25366 2.66675H4.00033C3.6467 2.66675 3.30756 2.80722 3.05752 3.05727C2.80747 3.30732 2.66699 3.64646 2.66699 4.00008C2.66699 4.3537 2.80747 4.69284 3.05752 4.94289C3.30756 5.19294 3.6467 5.33341 4.00033 5.33341H5.25366C5.55824 5.32454 5.85667 5.42026 6.09927 5.60463C6.34186 5.78901 6.51399 6.05091 6.58699 6.34675L6.66699 6.98675L8.97366 16.0001C7.91279 16.0478 6.91434 16.515 6.19795 17.2989C5.48156 18.0828 5.10592 19.1192 5.15366 20.1801C5.2014 21.2409 5.66861 22.2394 6.45251 22.9558C7.23641 23.6722 8.27279 24.0478 9.33366 24.0001H9.57366C9.35437 24.6043 9.28391 25.2524 9.36823 25.8896C9.45256 26.5267 9.68919 27.1342 10.0581 27.6606C10.427 28.1869 10.9173 28.6166 11.4875 28.9132C12.0576 29.2099 12.6909 29.3648 13.3337 29.3648C13.9764 29.3648 14.6097 29.2099 15.1799 28.9132C15.75 28.6166 16.2403 28.1869 16.6092 27.6606C16.9781 27.1342 17.2148 26.5267 17.2991 25.8896C17.3834 25.2524 17.3129 24.6043 17.0937 24.0001H20.2403C20.021 24.6043 19.9506 25.2524 20.0349 25.8896C20.1192 26.5267 20.3559 27.1342 20.7248 27.6606C21.0936 28.1869 21.5839 28.6166 22.1541 28.9132C22.7243 29.2099 23.3576 29.3648 24.0003 29.3648C24.6431 29.3648 25.2763 29.2099 25.8465 28.9132C26.4167 28.6166 26.907 28.1869 27.2759 27.6606C27.6448 27.1342 27.8814 26.5267 27.9658 25.8896C28.0501 25.2524 27.9796 24.6043 27.7603 24.0001H28.0003C28.3539 24.0001 28.6931 23.8596 28.9431 23.6096C29.1932 23.3595 29.3337 23.0204 29.3337 22.6667C29.3337 22.3131 29.1932 21.974 28.9431 21.7239C28.6931 21.4739 28.3539 21.3334 28.0003 21.3334ZM26.2937 8.00008L24.547 14.9867C24.474 15.2826 24.3019 15.5445 24.0593 15.7289C23.8167 15.9132 23.5182 16.009 23.2137 16.0001H11.707L9.70699 8.00008H26.2937ZM13.3337 26.6667C13.07 26.6667 12.8122 26.5886 12.5929 26.442C12.3736 26.2955 12.2027 26.0873 12.1018 25.8437C12.0009 25.6 11.9745 25.3319 12.0259 25.0733C12.0774 24.8147 12.2044 24.5771 12.3909 24.3906C12.5773 24.2041 12.8149 24.0771 13.0735 24.0257C13.3322 23.9743 13.6003 24.0007 13.8439 24.1016C14.0875 24.2025 14.2958 24.3734 14.4423 24.5927C14.5888 24.8119 14.667 25.0697 14.667 25.3334C14.667 25.687 14.5265 26.0262 14.2765 26.2762C14.0264 26.5263 13.6873 26.6667 13.3337 26.6667ZM24.0003 26.6667C23.7366 26.6667 23.4788 26.5886 23.2596 26.442C23.0403 26.2955 22.8694 26.0873 22.7685 25.8437C22.6676 25.6 22.6412 25.3319 22.6926 25.0733C22.7441 24.8147 22.871 24.5771 23.0575 24.3906C23.244 24.2041 23.4816 24.0771 23.7402 24.0257C23.9988 23.9743 24.2669 24.0007 24.5106 24.1016C24.7542 24.2025 24.9624 24.3734 25.109 24.5927C25.2555 24.8119 25.3337 25.0697 25.3337 25.3334C25.3337 25.687 25.1932 26.0262 24.9431 26.2762C24.6931 26.5263 24.3539 26.6667 24.0003 26.6667Z" fill="#333333"/>
</svg>
