<svg width="33" height="32" viewBox="0 0 33 32" fill="none" xmlns="http://www.w3.org/2000/svg">
<path d="M28.4993 21.3346H9.83268C9.47906 21.3346 9.13992 21.1942 8.88987 20.9441C8.63983 20.6941 8.49935 20.3549 8.49935 20.0013C8.49935 19.6477 8.63983 19.3085 8.88987 19.0585C9.13992 18.8084 9.47906 18.668 9.83268 18.668H23.7527C24.6442 18.668 25.5102 18.3702 26.2132 17.8219C26.9161 17.2735 27.4157 16.506 27.6327 15.6413L29.8327 6.98797C29.8826 6.79118 29.887 6.58558 29.8454 6.38686C29.8038 6.18814 29.7173 6.00155 29.5927 5.8413C29.463 5.67695 29.2965 5.54543 29.1065 5.45741C28.9166 5.36939 28.7086 5.32733 28.4993 5.33464H9.51268C9.2376 4.55657 8.72859 3.88263 8.05544 3.40522C7.38228 2.92781 6.57794 2.67029 5.75268 2.66797H4.49935C4.14573 2.66797 3.80659 2.80844 3.55654 3.05849C3.30649 3.30854 3.16602 3.64768 3.16602 4.0013C3.16602 4.35492 3.30649 4.69406 3.55654 4.94411C3.80659 5.19416 4.14573 5.33464 4.49935 5.33464H5.75268C6.05726 5.32576 6.35569 5.42148 6.59829 5.60585C6.84089 5.79023 7.01301 6.05213 7.08602 6.34797L7.16602 6.98797L9.47268 16.0013C8.41182 16.049 7.41336 16.5163 6.69698 17.3002C5.98059 18.0841 5.60494 19.1204 5.65268 20.1813C5.70042 21.2422 6.16763 22.2406 6.95153 22.957C7.73544 23.6734 8.77182 24.049 9.83268 24.0013H10.0727C9.8534 24.6055 9.78293 25.2536 9.86726 25.8908C9.95158 26.528 10.1882 27.1354 10.5571 27.6618C10.926 28.1881 11.4163 28.6178 11.9865 28.9145C12.5567 29.2111 13.1899 29.366 13.8327 29.366C14.4754 29.366 15.1087 29.2111 15.6789 28.9145C16.2491 28.6178 16.7394 28.1881 17.1083 27.6618C17.4772 27.1354 17.7138 26.528 17.7981 25.8908C17.8824 25.2536 17.812 24.6055 17.5927 24.0013H20.7393C20.5201 24.6055 20.4496 25.2536 20.5339 25.8908C20.6182 26.528 20.8549 27.1354 21.2238 27.6618C21.5927 28.1881 22.083 28.6178 22.6532 28.9145C23.2233 29.2111 23.8566 29.366 24.4993 29.366C25.1421 29.366 25.7754 29.2111 26.3455 28.9145C26.9157 28.6178 27.406 28.1881 27.7749 27.6618C28.1438 27.1354 28.3805 26.528 28.4648 25.8908C28.5491 25.2536 28.4786 24.6055 28.2593 24.0013H28.4993C28.853 24.0013 29.1921 23.8608 29.4422 23.6108C29.6922 23.3607 29.8327 23.0216 29.8327 22.668C29.8327 22.3143 29.6922 21.9752 29.4422 21.7252C29.1921 21.4751 28.853 21.3346 28.4993 21.3346ZM26.7927 8.0013L25.046 14.988C24.973 15.2838 24.8009 15.5457 24.5583 15.7301C24.3157 15.9145 24.0173 16.0102 23.7127 16.0013H12.206L10.206 8.0013H26.7927ZM13.8327 26.668C13.569 26.668 13.3112 26.5898 13.0919 26.4433C12.8727 26.2968 12.7018 26.0885 12.6008 25.8449C12.4999 25.6012 12.4735 25.3332 12.525 25.0745C12.5764 24.8159 12.7034 24.5783 12.8899 24.3918C13.0763 24.2054 13.3139 24.0784 13.5726 24.0269C13.8312 23.9755 14.0993 24.0019 14.3429 24.1028C14.5866 24.2037 14.7948 24.3746 14.9413 24.5939C15.0878 24.8131 15.166 25.0709 15.166 25.3346C15.166 25.6883 15.0255 26.0274 14.7755 26.2774C14.5254 26.5275 14.1863 26.668 13.8327 26.668ZM24.4993 26.668C24.2356 26.668 23.9779 26.5898 23.7586 26.4433C23.5393 26.2968 23.3684 26.0885 23.2675 25.8449C23.1666 25.6012 23.1402 25.3332 23.1916 25.0745C23.2431 24.8159 23.3701 24.5783 23.5565 24.3918C23.743 24.2054 23.9806 24.0784 24.2392 24.0269C24.4979 23.9755 24.766 24.0019 25.0096 24.1028C25.2532 24.2037 25.4615 24.3746 25.608 24.5939C25.7545 24.8131 25.8327 25.0709 25.8327 25.3346C25.8327 25.6883 25.6922 26.0274 25.4422 26.2774C25.1921 26.5275 24.853 26.668 24.4993 26.668Z" fill="#333333"/>
</svg>
