<svg width="100" height="26" viewBox="0 0 100 26" fill="none" xmlns="http://www.w3.org/2000/svg">
<path d="M87.9322 4.20886V11.6032H97.296V15.3176H87.9322V25.4934H83.2676V0.511719H99.0236V4.20886H87.9322Z" fill="white"/>
<path d="M70.7865 13.0016C70.7865 14.8329 70.4812 16.5318 69.8708 18.0981C69.2719 19.653 68.4196 21.0006 67.3139 22.1408C66.2082 23.2811 64.8779 24.1737 63.3231 24.8187C61.7682 25.4521 60.0405 25.7689 58.1401 25.7689C56.2513 25.7689 54.5294 25.4521 52.9745 24.8187C51.4196 24.1737 50.0836 23.2811 48.9664 22.1408C47.8607 21.0006 47.0026 19.653 46.3922 18.0981C45.7818 16.5318 45.4766 14.8329 45.4766 13.0016C45.4766 11.1703 45.7818 9.47724 46.3922 7.92236C47.0026 6.35597 47.8607 5.00265 48.9664 3.86241C50.0836 2.72217 51.4196 1.83532 52.9745 1.20185C54.5294 0.556867 56.2513 0.234375 58.1401 0.234375C59.4071 0.234375 60.5992 0.384103 61.7164 0.683559C62.8336 0.9715 63.8586 1.38613 64.7916 1.92746C65.7245 2.45727 66.5595 3.10801 67.2966 3.87969C68.0453 4.63985 68.6787 5.49215 69.197 6.43659C69.7153 7.38104 70.1069 8.4061 70.3718 9.51179C70.6482 10.6175 70.7865 11.7808 70.7865 13.0016ZM66.0355 13.0016C66.0355 11.631 65.8512 10.4044 65.4826 9.32175C65.114 8.22758 64.59 7.30041 63.9105 6.54025C63.2309 5.78009 62.4017 5.19845 61.4227 4.79534C60.4552 4.39222 59.361 4.19066 58.1401 4.19066C56.9193 4.19066 55.8194 4.39222 54.8404 4.79534C53.8729 5.19845 53.0436 5.78009 52.3526 6.54025C51.673 7.30041 51.149 8.22758 50.7804 9.32175C50.4118 10.4044 50.2276 11.631 50.2276 13.0016C50.2276 14.3722 50.4118 15.6046 50.7804 16.6988C51.149 17.7814 51.673 18.7028 52.3526 19.463C53.0436 20.2116 53.8729 20.7875 54.8404 21.1906C55.8194 21.5937 56.9193 21.7953 58.1401 21.7953C59.361 21.7953 60.4552 21.5937 61.4227 21.1906C62.4017 20.7875 63.2309 20.2116 63.9105 19.463C64.59 18.7028 65.114 17.7814 65.4826 16.6988C65.8512 15.6046 66.0355 14.3722 66.0355 13.0016Z" fill="white"/>
<path d="M35.7276 0.511719L27.9705 25.4934H23.7723L18.313 8.4243C18.1632 8.00967 18.025 7.50289 17.8983 6.90398C17.8292 7.19192 17.7601 7.46258 17.691 7.71597C17.6219 7.96936 17.547 8.20547 17.4664 8.4243L11.9553 25.4934H7.73982L0 0.511719H3.88719C4.2903 0.511719 4.62431 0.609619 4.88922 0.805419C5.16564 0.989699 5.34992 1.24309 5.44206 1.56558L9.69205 16.5096C9.78419 16.8782 9.87057 17.2813 9.95119 17.719C10.0433 18.1451 10.1355 18.5943 10.2276 19.0665C10.3198 18.5828 10.4177 18.1279 10.5213 17.7017C10.6365 17.2756 10.7574 16.8782 10.8841 16.5096L15.7906 1.56558C15.8828 1.30067 16.0613 1.0588 16.3262 0.839971C16.6026 0.621136 16.9366 0.511719 17.3282 0.511719H18.693C19.0962 0.511719 19.4244 0.609619 19.6778 0.805419C19.9312 1.00122 20.1212 1.2546 20.2479 1.56558L25.1371 16.5096C25.379 17.2237 25.5978 18.0472 25.7936 18.9802C25.9434 18.0703 26.1104 17.2468 26.2946 16.5096L30.5446 1.56558C30.6137 1.27764 30.7865 1.03001 31.0629 0.822694C31.3509 0.615377 31.6906 0.511719 32.0822 0.511719H35.7276Z" fill="white"/>
</svg>
