<svg width="32" height="32" viewBox="0 0 32 32" fill="none" xmlns="http://www.w3.org/2000/svg">
<path d="M23.3333 6.66667C24.4379 6.66667 25.3333 7.5621 25.3333 8.66667V23.3333C25.3333 24.4379 24.4379 25.3333 23.3333 25.3333H8.66666C7.5621 25.3333 6.66667 24.4379 6.66667 23.3333V8.66666C6.66667 7.5621 7.5621 6.66667 8.66667 6.66667H23.3333ZM25.3333 4H6.66667C5.2 4 4 5.2 4 6.66667V25.3333C4 26.8 5.2 28 6.66667 28H25.3333C26.8 28 28 26.8 28 25.3333V6.66667C28 5.2 26.8 4 25.3333 4Z" fill="white"/>
</svg>
