<svg width="72" height="72" viewBox="0 0 72 72" fill="none" xmlns="http://www.w3.org/2000/svg">
<path d="M39.3469 13C38.6254 13 38.0392 13.5739 38.0392 14.282V15.6393C38.0478 15.7335 38.0921 15.8211 38.1633 15.8849C38.2344 15.9488 38.3274 15.9841 38.4238 15.9841C38.5203 15.9841 38.6133 15.9488 38.6844 15.8849C38.7556 15.8211 38.7999 15.7335 38.8085 15.6393V14.282C38.8137 14.1455 38.8727 14.0164 38.9731 13.9217C39.0734 13.827 39.2073 13.774 39.3465 13.774C39.4858 13.774 39.6197 13.827 39.72 13.9217C39.8204 14.0164 39.8794 14.1455 39.8846 14.282L39.8631 21.5485C39.8631 21.5847 39.8708 21.6126 39.8723 21.6465C39.3047 21.5389 38.7323 21.4571 38.1569 21.4014C38.0956 21.3789 38.0294 21.3722 37.9646 21.3818H37.9631C37.03 21.2929 36.0911 21.2768 35.1554 21.3335C34.7815 21.3577 34.4092 21.3954 34.0385 21.4421V20.918C34.0385 20.818 33.9979 20.7221 33.9258 20.6514C33.8537 20.5807 33.7559 20.541 33.6538 20.541C33.5518 20.541 33.454 20.5807 33.3819 20.6514C33.3098 20.7221 33.2692 20.818 33.2692 20.918V21.559C31.3196 21.892 29.4385 22.5347 27.7 23.4616L26.6138 18.0653C26.5585 17.8059 26.5908 17.6083 26.6992 17.5404C26.7938 17.4778 26.9631 17.5057 27.1185 17.6158L30.7362 19.8517C31.2409 20.1344 31.8325 20.2297 32.403 20.1204C32.9735 20.011 33.4849 19.7042 33.8438 19.256C34.0008 19.0577 34.1123 18.8224 34.1692 18.5803L35.11 14.3611C35.1155 14.3348 35.1183 14.3081 35.1185 14.2812C35.1185 14.1415 35.1751 14.0075 35.2758 13.9088C35.3766 13.81 35.5133 13.7545 35.6558 13.7545C35.7983 13.7545 35.9349 13.81 36.0357 13.9088C36.1365 14.0075 36.1931 14.1415 36.1931 14.2812V15.6393C36.1931 15.7391 36.2335 15.8349 36.3055 15.9054C36.3775 15.976 36.4751 16.0156 36.5769 16.0156C36.6787 16.0156 36.7764 15.976 36.8483 15.9054C36.9203 15.8349 36.9608 15.7391 36.9608 15.6393V14.2827C36.9606 13.9432 36.823 13.6177 36.5783 13.3775C36.3336 13.1373 36.0017 13.0021 35.6554 13.0015C34.9492 13.0015 34.3708 13.5535 34.3477 14.2405L33.4785 18.2108L33.4246 18.3903C33.3877 18.5441 33.3215 18.6844 33.2346 18.7945C32.9922 19.0978 32.647 19.306 32.2616 19.3815C31.8761 19.4571 31.4758 19.3949 31.1331 19.2062L27.5508 16.9945C27.1569 16.7117 26.6485 16.677 26.2846 16.9077C26.0985 17.0246 25.6846 17.3851 25.8592 18.2153L27.0331 24.0445C27.8346 28.0262 28.8123 29.8262 32.5 30.023V35.623H25.1923C25.0903 35.623 24.9925 35.6627 24.9203 35.7334C24.8482 35.8041 24.8077 35.9 24.8077 36V58.2459H22.8846C22.7826 58.2459 22.6848 58.2856 22.6127 58.3563C22.5405 58.427 22.5 58.5229 22.5 58.623C22.5 58.7229 22.5405 58.8189 22.6127 58.8896C22.6848 58.9603 22.7826 59 22.8846 59H52.1154C52.2174 59 52.3152 58.9603 52.3874 58.8896C52.4595 58.8189 52.5 58.7229 52.5 58.623C52.5 58.5229 52.4595 58.427 52.3874 58.3563C52.3152 58.2856 52.2174 58.2459 52.1154 58.2459H50.1931V36C50.1931 35.9 50.1526 35.8041 50.0804 35.7334C50.0083 35.6627 49.9105 35.623 49.8085 35.623H34.8085V29.9921L35.2469 29.9642C35.4046 29.9521 35.5585 29.9235 35.7146 29.9024C35.7277 29.9024 35.74 29.9069 35.7531 29.9069H35.7592C35.8131 29.9069 35.8638 29.8948 35.91 29.876C36.91 29.7176 37.8946 29.3896 38.9562 28.8406C40.1446 28.226 41.3177 27.3844 42.4438 26.3377L43.0508 25.7737C43.3135 25.5316 43.6224 25.3428 43.9599 25.2183C44.2973 25.0938 44.6566 25.036 45.0169 25.0482L46.9415 25.2187C47.9092 25.2948 48.5646 24.9336 48.8708 24.1305C49.0031 23.7384 48.9708 23.3176 48.7808 22.9488C48.6879 22.7672 48.5592 22.6055 48.402 22.4731C48.2449 22.3406 48.0625 22.2401 47.8654 22.1774L44.9962 21.2498C44.7223 21.1616 44.3085 21.0689 43.8592 21.2725C43.8343 21.2839 43.8106 21.2978 43.7885 21.3139C42.9531 21.9346 41.5215 22.6826 40.9485 22.4074C40.7377 22.3041 40.63 22.0145 40.63 21.5477L40.6546 14.282C40.6546 13.5754 40.0677 13.0008 39.3469 13.0008V13ZM35.1931 16.959C35.1421 16.959 35.0932 16.9789 35.0571 17.0142C35.021 17.0496 35.0008 17.0975 35.0008 17.1475C35.0008 17.1975 35.021 17.2455 35.0571 17.2808C35.0932 17.3162 35.1421 17.3361 35.1931 17.3361H35.9623C36.0133 17.3361 36.0622 17.3162 36.0983 17.2808C36.1344 17.2455 36.1546 17.1975 36.1546 17.1475C36.1546 17.0975 36.1344 17.0496 36.0983 17.0142C36.0622 16.9789 36.0133 16.959 35.9623 16.959H35.1931ZM38.27 16.959C38.219 16.959 38.1701 16.9789 38.134 17.0142C38.098 17.0496 38.0777 17.0975 38.0777 17.1475C38.0777 17.1975 38.098 17.2455 38.134 17.2808C38.1701 17.3162 38.219 17.3361 38.27 17.3361H39.0392C39.0902 17.3361 39.1391 17.3162 39.1752 17.2808C39.2113 17.2455 39.2315 17.1975 39.2315 17.1475C39.2315 17.0975 39.2113 17.0496 39.1752 17.0142C39.1391 16.9789 39.0902 16.959 39.0392 16.959H38.27ZM36.7315 18.4672C36.6805 18.4672 36.6316 18.4871 36.5956 18.5224C36.5595 18.5578 36.5392 18.6057 36.5392 18.6557C36.5392 18.7057 36.5595 18.7537 36.5956 18.789C36.6316 18.8244 36.6805 18.8443 36.7315 18.8443H37.5008C37.5518 18.8443 37.6007 18.8244 37.6368 18.789C37.6728 18.7537 37.6931 18.7057 37.6931 18.6557C37.6931 18.6057 37.6728 18.5578 37.6368 18.5224C37.6007 18.4871 37.5518 18.4672 37.5008 18.4672H36.7315ZM35.1931 19.9754C35.1421 19.9754 35.0932 19.9953 35.0571 20.0306C35.021 20.066 35.0008 20.1139 35.0008 20.1639C35.0008 20.2139 35.021 20.2619 35.0571 20.2972C35.0932 20.3326 35.1421 20.3525 35.1931 20.3525H35.9623C36.0133 20.3525 36.0622 20.3326 36.0983 20.2972C36.1344 20.2619 36.1546 20.2139 36.1546 20.1639C36.1546 20.1139 36.1344 20.066 36.0983 20.0306C36.0622 19.9953 36.0133 19.9754 35.9623 19.9754H35.1931ZM38.27 19.9754C38.219 19.9754 38.1701 19.9953 38.134 20.0306C38.098 20.066 38.0777 20.1139 38.0777 20.1639C38.0777 20.2139 38.098 20.2619 38.134 20.2972C38.1701 20.3326 38.219 20.3525 38.27 20.3525H39.0392C39.0902 20.3525 39.1391 20.3326 39.1752 20.2972C39.2113 20.2619 39.2315 20.2139 39.2315 20.1639C39.2315 20.1139 39.2113 20.066 39.1752 20.0306C39.1391 19.9953 39.0902 19.9754 39.0392 19.9754H38.27ZM44.4808 21.9036C44.57 21.9097 44.6615 21.9338 44.7608 21.9655L47.63 22.8915C47.8346 22.9571 48.0008 23.0996 48.0992 23.2882C48.1954 23.4767 48.2123 23.6916 48.15 23.8786C48.0246 24.2029 47.7885 24.5309 47.0115 24.4676L45.0731 24.2956C44.15 24.2632 43.2054 24.5943 42.5246 25.2262L41.9177 25.7903C40.8415 26.7887 39.7269 27.5895 38.6008 28.1717C37.5815 28.6988 36.6454 29.0072 35.6992 29.1452C35.3541 29.1215 35.0309 28.9707 34.7944 28.7232C34.5579 28.4757 34.4255 28.1496 34.4238 27.8105C34.4238 27.5782 34.4854 27.3505 34.6023 27.1484C34.6527 27.0612 34.6658 26.9581 34.6389 26.8614C34.6119 26.7648 34.5471 26.6825 34.4585 26.6326C34.3691 26.5842 34.2639 26.5721 34.1655 26.5989C34.0672 26.6257 33.9834 26.6892 33.9323 26.7759C33.7494 27.0915 33.6532 27.4483 33.6531 27.8112C33.6531 28.3753 33.8869 28.8919 34.2631 29.2704L34.1338 29.278C34.0347 29.284 33.9355 29.287 33.8362 29.287H33.2208C29.61 29.287 28.6838 28.0729 27.8808 24.3115H33.6546C33.7566 24.3115 33.8545 24.2718 33.9266 24.201C33.9987 24.1303 34.0392 24.0344 34.0392 23.9344V22.2068C34.3338 22.1676 34.6285 22.1419 34.9238 22.1163L35.2469 23.5415C35.38 23.997 35.8062 24.2987 36.3331 24.3115H36.3662C36.8831 24.3115 37.3138 24.0272 37.4738 23.5559L37.7731 22.3968L37.98 23.4526C38.1077 23.9555 38.5492 24.3002 39.0785 24.3115H39.1023C39.6192 24.3115 40.0623 23.9865 40.2138 23.4737L40.3431 22.893C40.4231 22.9669 40.5092 23.0325 40.6108 23.0815C41.0069 23.2738 41.5054 23.2278 42.0046 23.0846C42.4646 23.5008 43.0531 23.7459 43.6785 23.7459C43.9985 23.7459 44.3138 23.6856 44.6162 23.5664C44.645 23.5542 44.6704 23.5354 44.6902 23.5115C44.71 23.4876 44.7237 23.4593 44.73 23.4292C44.7371 23.3992 44.7364 23.368 44.7281 23.3384C44.7198 23.3088 44.704 23.2817 44.6823 23.2595C44.3607 22.9297 44.1259 22.528 43.9985 22.0891C44.0662 22.0424 44.1808 21.9685 44.2177 21.9413C44.3012 21.9089 44.3913 21.896 44.4808 21.9036ZM36.4162 22.0522C36.6315 22.0537 36.8469 22.0695 37.0623 22.0786L36.7377 23.344C36.6815 23.5076 36.5331 23.5694 36.3515 23.5589C36.2123 23.5559 36.0331 23.4933 35.9923 23.3553L35.7023 22.0733C35.9408 22.0643 36.1777 22.0507 36.4162 22.0522ZM38.5162 22.1977C38.9032 22.246 39.2886 22.3068 39.6715 22.3802L39.4692 23.2867C39.4498 23.3684 39.4012 23.4406 39.3322 23.4902C39.2633 23.5399 39.1784 23.5637 39.0931 23.5574C39.0238 23.5559 38.7931 23.531 38.7315 23.2904L38.5162 22.1977ZM43.6738 22.3071C43.7962 22.6668 43.9677 23.0061 44.2092 23.301C43.5892 23.4601 42.9377 23.3108 42.4323 22.939C42.8985 22.7543 43.34 22.516 43.6738 22.3071ZM33.27 22.3229V23.5574H29.2315C30.5217 22.987 31.8778 22.5725 33.27 22.3229ZM33.27 30.0426H34.0392V35.623H33.27V30.0426ZM25.5777 36.377H49.4238V58.2459H48.6546V37.5082C48.6546 37.4082 48.6141 37.3123 48.542 37.2416C48.4698 37.1709 48.372 37.1311 48.27 37.1311H26.7315C26.6295 37.1311 26.5317 37.1709 26.4596 37.2416C26.3874 37.3123 26.3469 37.4082 26.3469 37.5082V58.2459H25.5777V36.377ZM27.1162 37.8852H32.5008V52.9672H32.1162C32.0141 52.9672 31.9163 53.0069 31.8442 53.0776C31.7721 53.1484 31.7315 53.2443 31.7315 53.3443V58.2459H27.1162V37.8852ZM33.27 37.8852H34.0392V52.9672H33.27V37.8852ZM34.8085 37.8852H47.8854V48.0761C47.5545 47.8264 47.1491 47.6902 46.7315 47.6885H39.0392C38.5293 47.6889 38.0404 47.8877 37.6799 48.2411C37.3193 48.5946 37.1166 49.0739 37.1162 49.5738V57.1148C37.1162 57.5408 37.2669 57.9292 37.5115 58.2459H35.5777V53.3443C35.5777 53.2443 35.5372 53.1484 35.465 53.0776C35.3929 53.0069 35.2951 52.9672 35.1931 52.9672H34.8085V37.8852ZM39.0392 48.4426H46.7315C47.3677 48.4426 47.8854 48.9501 47.8854 49.5738V57.1148C47.8854 57.7384 47.3677 58.2459 46.7315 58.2459H39.0392C38.4031 58.2459 37.8854 57.7384 37.8854 57.1148V49.5738C37.8854 48.9501 38.4031 48.4426 39.0392 48.4426ZM32.5008 53.7213H34.8085V58.2459H32.5008V53.7213Z" fill="white"/>
<path d="M39.0588 14C38.9418 14 38.8296 13.9473 38.7469 13.8536C38.6641 13.7598 38.6176 13.6326 38.6176 13.5V11.7C38.6176 11.5143 38.5526 11.3363 38.4367 11.205C38.3209 11.0737 38.1638 11 38 11C37.8362 11 37.6791 11.0737 37.5633 11.205C37.4474 11.3363 37.3824 11.5143 37.3824 11.7V13.5C37.3824 13.6326 37.3359 13.7598 37.2531 13.8536C37.1704 13.9473 37.0582 14 36.9412 14C36.8242 14 36.712 13.9473 36.6292 13.8536C36.5465 13.7598 36.5 13.6326 36.5 13.5V11.7C36.5 11.2491 36.658 10.8167 36.9393 10.4979C37.2206 10.1791 37.6022 10 38 10C38.3978 10 38.7794 10.1791 39.0607 10.4979C39.342 10.8167 39.5 11.2491 39.5 11.7V13.5C39.5 13.6326 39.4535 13.7598 39.3708 13.8536C39.288 13.9473 39.1758 14 39.0588 14Z" fill="white"/>
</svg>
