<svg width="72" height="72" viewBox="0 0 72 72" fill="none" xmlns="http://www.w3.org/2000/svg">
<path d="M4.5 57.1875H67.5" stroke="white" stroke-miterlimit="10" stroke-linecap="round" stroke-linejoin="round"/>
<path d="M22.5 24V56.625H9V24H22.5ZM22.5 22.875H9C8.325 22.875 7.875 23.325 7.875 24V56.625C7.875 57.3 8.325 57.75 9 57.75H22.5C23.175 57.75 23.625 57.3 23.625 56.625V24C23.625 23.325 23.175 22.875 22.5 22.875Z" fill="white"/>
<path d="M12.9375 56.625V48.1875H18.5625V56.625M11.8125 22.875V20.625H19.6875V22.875M15.75 17.25V20.625M11.8125 26.8125H19.6875M11.8125 30.1875H19.6875M11.8125 33.5625H19.6875M11.8125 36.9375H19.6875M11.8125 40.3125H19.6875M11.8125 43.6875H19.6875M28.6875 56.625V15C29.8125 15.1125 33.4125 15.45 36.5625 18.375C38.8125 20.5125 39.6 22.875 39.9375 24C39.15 25.0125 35.4375 29.9625 36.5625 36.375C37.0125 38.85 38.025 40.7625 38.8125 42V56.625M31.5 21.1875H36M31.5 24.5625H36M29.1375 29.0625H37.0125M33.1875 29.625V41.4375M29.25 41.4375H38.25M29.25 45.375H38.25" stroke="white" stroke-miterlimit="10" stroke-linecap="round" stroke-linejoin="round"/>
<path d="M30.9375 56.625V49.875H36.5625V56.625M52.3125 56.625V22.875L65.8125 18.375V56.625M55.6875 24.5625V27.9375M59.0625 24.5625V27.9375M62.4375 24.5625V27.9375M55.6875 31.3125V34.6875M59.0625 31.3125V34.6875M62.4375 31.3125V34.6875" stroke="white" stroke-miterlimit="10" stroke-linecap="round" stroke-linejoin="round"/>
<path d="M55.6875 38.0625V41.4375M59.0625 38.0625V41.4375M62.4375 38.0625V41.4375" stroke="white" stroke-miterlimit="10" stroke-linecap="round" stroke-linejoin="round"/>
<path d="M55.6875 44.8125V48.1875M59.0625 44.8125V48.1875M62.4375 44.8125V48.1875" stroke="white" stroke-miterlimit="10" stroke-linecap="round" stroke-linejoin="round"/>
<path d="M45.5625 49.8751V56.5126M49.5 49.8751C49.5 52.0126 47.8125 53.2501 45.5625 53.2501C43.3125 53.2501 41.625 52.0126 41.625 49.8751C41.625 47.7376 43.3125 43.8 45.5625 43.8C47.8125 43.8 49.5 47.7376 49.5 49.8751Z" stroke="white" stroke-miterlimit="10" stroke-linecap="round" stroke-linejoin="round"/>
</svg>
