<svg width="73" height="72" viewBox="0 0 73 72" fill="none" xmlns="http://www.w3.org/2000/svg">
<path opacity="0.7" d="M66.9507 47.2288H65.6767C65.9707 45.2626 66.6567 42.8048 66.9507 42.0182V41.7233C66.9507 41.625 66.9507 41.4284 66.8527 41.3301C66.6567 40.9368 66.3627 40.7402 65.9707 40.7402C65.1867 40.7402 64.4027 40.8385 63.4228 40.9368C60.0908 33.0718 52.153 28.5494 51.859 28.3527H51.761C51.663 28.3527 51.663 28.3527 51.565 28.2544H51.173C50.977 28.2544 50.781 28.3527 50.683 28.5494C50.487 28.746 50.389 29.0409 50.389 29.3359V29.4342C50.389 29.5325 50.389 29.5325 50.487 29.6308V29.7291C50.683 30.0241 51.173 31.0072 51.761 32.6785C51.467 32.2853 51.173 31.892 50.977 31.5971C48.3311 24.3219 39.7072 19.7995 39.3152 19.6029C39.0212 19.4062 38.6292 19.5046 38.4333 19.6029C38.1393 19.7995 37.9433 20.0944 37.9433 20.3894C37.9433 20.4877 37.9433 20.586 38.0413 20.6843C39.1192 23.6337 39.7072 28.2544 40.0992 31.6954C39.2172 30.2207 38.2373 28.8443 37.2573 27.4679C37.0613 27.2713 36.7673 27.0747 36.4733 27.0747C36.1793 27.0747 35.8853 27.173 35.6893 27.4679C34.6113 28.746 33.7293 30.2207 32.8474 31.5971C33.2394 28.0578 33.8273 23.4371 34.9053 20.586V20.2911C34.9053 20.1928 34.9053 20.0944 34.8073 19.9961C34.8073 19.8978 34.7093 19.8978 34.7093 19.7995C34.7093 19.7995 34.7093 19.7012 34.6113 19.7012L34.5133 19.6029C34.4153 19.5046 34.4153 19.5046 34.3173 19.5046H34.2193C34.1213 19.5046 34.1213 19.4062 34.0233 19.4062H33.5333C33.1414 19.6029 24.5175 24.1253 21.8716 31.4004C21.5776 31.7937 21.2836 32.1869 21.0876 32.4819C21.5776 30.8106 22.1656 29.8274 22.3616 29.5325V29.4342C22.3616 29.3359 22.3616 29.3359 22.4596 29.2376V28.8443C22.4596 28.746 22.4596 28.746 22.3616 28.6477C22.3616 28.6477 22.3616 28.5494 22.2636 28.5494C22.2636 28.451 22.1656 28.4511 22.1656 28.3527L22.0676 28.2544L21.9696 28.1561C21.8716 28.1561 21.8716 28.1561 21.7736 28.0578H20.9896C20.8916 28.6477 12.8558 33.1701 9.62183 41.0351C8.64185 40.9368 7.85786 40.8385 7.07388 40.8385C6.68188 40.8385 6.28989 41.0351 6.19189 41.4284C6.0939 41.625 6.0939 41.9199 6.19189 42.1166V42.2149C6.48589 43.198 7.17187 45.4592 7.46587 47.4255H6.19189C5.7019 47.4255 5.21191 47.8187 5.21191 48.4086V51.7512C5.21191 52.2428 5.60391 52.7344 6.19189 52.7344H66.9507C67.4407 52.7344 67.9307 52.3411 67.9307 51.7512V48.4086C67.9307 47.7204 67.5387 47.2288 66.9507 47.2288ZM62.1488 45.1643C62.2468 45.066 62.3448 44.9676 62.5408 44.8693C62.6388 44.771 62.7368 44.771 62.8348 44.6727C62.9328 44.5744 63.0308 44.4761 63.1288 44.4761C63.2268 44.3778 63.3248 44.3778 63.4228 44.2795C63.5208 44.1811 63.6188 44.1811 63.7167 44.0828C63.8147 43.9845 63.9127 43.9845 64.0107 43.8862C64.1087 43.7879 64.2067 43.7879 64.3047 43.6896C64.4027 43.6896 64.4027 43.5913 64.5007 43.5913C64.5007 43.5913 64.5987 43.5913 64.5987 43.4929C64.3047 44.6727 64.0107 46.0491 63.8147 47.2288H59.7968L59.9928 47.0322L60.4828 46.5407C60.5808 46.4423 60.6788 46.344 60.7768 46.344L61.1688 45.9508C61.2668 45.8525 61.3648 45.7541 61.4628 45.7541C61.5608 45.6558 61.7568 45.5575 61.8548 45.4592C61.9528 45.2626 62.0508 45.2626 62.1488 45.1643ZM59.5028 44.9676L59.4048 45.066C59.1108 45.3609 58.7188 45.6558 58.4249 46.0491L58.2289 46.2457C57.9349 46.5407 57.7389 46.8356 57.4449 47.1305L57.2489 47.3272H56.9549V46.344C56.9549 46.2457 56.9549 46.0491 56.8569 45.8525V45.5575C56.8569 45.3609 56.7589 45.1643 56.7589 44.9676V44.5744H56.8569C56.9549 44.5744 56.9549 44.5744 57.0529 44.4761C57.1509 44.4761 57.1509 44.4761 57.2489 44.3778C57.3469 44.3778 57.4449 44.3778 57.4449 44.2795C57.5429 44.2795 57.5429 44.2795 57.6409 44.1811C57.7389 44.1811 57.8369 44.0828 57.9349 44.0828C58.0329 44.0828 58.0329 44.0828 58.1309 43.9845C58.3269 43.9845 58.4249 43.8862 58.6208 43.8862H58.7188C59.1108 43.7879 59.6008 43.6896 59.9928 43.5913C60.1888 43.4929 60.3848 43.4929 60.6788 43.3946H60.7768C60.9728 43.3946 61.1688 43.2963 61.3648 43.2963H61.4628L61.3648 43.3946C61.1688 43.5913 60.8748 43.7879 60.6788 43.9845C60.5808 44.0828 60.4828 44.0828 60.3848 44.1811C59.9928 44.4761 59.6988 44.6727 59.5028 44.9676ZM61.6588 41.3301H61.5608C61.3648 41.3301 61.2668 41.4284 61.1688 41.4284C61.0708 41.4284 60.9728 41.4284 60.8748 41.5267C60.6788 41.625 60.3848 41.625 60.1888 41.7233C60.0908 41.7233 59.9928 41.7233 59.8948 41.8216C59.7968 41.8216 59.6008 41.9199 59.5028 41.9199C59.4048 41.9199 59.3068 41.9199 59.2088 42.0182C59.1108 42.0182 58.9148 42.1166 58.8168 42.1166C58.7188 42.1166 58.6209 42.1166 58.5229 42.2149C58.4249 42.2149 58.2289 42.3132 58.1309 42.3132C58.0329 42.3132 58.0329 42.3132 57.9349 42.4115C57.7389 42.4115 57.6409 42.5098 57.5429 42.5098H57.4449C57.0529 42.6081 56.7589 42.7064 56.4649 42.8048V42.7064C56.2689 42.0183 56.1709 41.4284 55.9749 40.8385C55.9749 40.7402 55.8769 40.5436 55.8769 40.4452C55.6809 39.8554 55.4849 39.2655 55.2889 38.7739C55.2889 38.6756 55.2889 38.6756 55.1909 38.5773C54.9949 35.9228 54.4069 33.6616 53.8189 32.0886C56.0729 33.76 59.6988 37.0043 61.6588 41.3301ZM47.2531 30.319C47.6451 30.7123 48.0371 31.0072 48.3311 31.4004C48.4291 31.4988 48.5271 31.5971 48.625 31.7937C48.919 32.0886 49.115 32.3836 49.409 32.6785C50.879 34.4481 52.153 36.611 53.035 38.9705C53.231 39.3638 53.329 39.7571 53.525 40.2486C53.6229 40.4452 53.6229 40.7402 53.7209 40.9368C53.8189 41.1334 53.8189 41.3301 53.9169 41.5267C54.0149 41.8216 54.0149 42.0183 54.1129 42.3132C54.1129 42.5098 54.2109 42.6081 54.2109 42.8048C54.3089 43.0014 54.3089 43.2963 54.4069 43.4929C54.4069 43.6896 54.5049 43.8862 54.5049 44.0828C54.6029 44.3778 54.6029 44.6727 54.7009 44.9676C54.7009 45.066 54.7009 45.1643 54.7989 45.2626C54.7989 45.4592 54.8969 45.5575 54.8969 45.7541V47.2288H54.7989V47.1305C54.7989 47.0322 54.7009 47.0322 54.7009 46.9339C54.7009 46.8356 54.6029 46.8356 54.6029 46.7373L54.4069 46.5407C54.3089 46.4423 54.2109 46.2457 54.1129 46.0491C54.1129 45.9508 54.0149 45.9508 54.0149 45.8525C53.9169 45.7541 53.9169 45.6558 53.8189 45.5575C53.7209 45.4592 53.7209 45.3609 53.623 45.3609C53.525 45.2626 53.427 45.1643 53.329 44.9676C53.231 44.8693 53.231 44.771 53.133 44.771C53.035 44.6727 52.937 44.5744 52.839 44.3778C52.741 44.2795 52.741 44.1811 52.643 44.1811C52.545 44.0828 52.447 43.8862 52.349 43.7879L52.153 43.5913C52.055 43.3946 51.859 43.198 51.663 43.0997C51.663 43.0997 51.663 43.0014 51.565 43.0014C51.369 42.8048 51.173 42.6081 51.075 42.4115L50.879 42.2149L50.487 41.8216L50.291 41.625C50.193 41.5267 50.095 41.4284 49.899 41.3301L49.703 41.1334C49.605 41.0351 49.507 40.9368 49.311 40.8385L49.115 40.6419C49.017 40.5436 48.821 40.4452 48.723 40.3469C48.6251 40.3469 48.625 40.2486 48.5271 40.2486L47.9391 39.9537C47.6451 39.8554 47.3511 39.8554 47.0571 39.9537C47.0571 39.9537 46.9591 39.9537 46.8611 40.052C46.7631 40.052 46.7631 40.1503 46.6651 40.1503H46.5671C46.4691 40.2486 46.3711 40.2486 46.1751 40.3469C46.0771 40.3469 46.0771 40.4452 45.9791 40.4452C45.8811 40.4452 45.8811 40.5436 45.7831 40.5436C45.6851 40.6419 45.5871 40.6419 45.4891 40.7402C45.3911 40.7402 45.2931 40.8385 45.2931 40.8385C45.1951 40.9368 44.9991 41.0351 44.9011 41.1334C44.8031 41.1334 44.8031 41.2317 44.8031 41.2317C44.8031 40.8385 44.8031 40.3469 44.9011 39.9537V39.6587C44.9011 39.2655 44.9991 38.9705 44.9991 38.5773C44.9991 38.3807 44.9991 38.2824 45.0971 38.0857C45.0971 37.7908 45.1951 37.5942 45.1951 37.2992C45.1951 37.1026 45.2931 37.0043 45.2931 36.8077C45.2931 36.611 45.3911 36.3161 45.3911 36.1195C45.3911 35.9228 45.4891 35.8245 45.4891 35.6279C45.5871 35.4313 45.5871 35.1363 45.6851 34.9397C45.6851 34.8414 45.7831 34.6448 45.7831 34.5465C45.8811 34.3498 45.8811 34.0549 45.9791 33.8583C45.9791 33.76 46.0771 33.6616 46.0771 33.5633L46.3711 32.6785C46.7631 31.6954 47.0571 30.9089 47.2531 30.319ZM52.741 47.2288H39.7072C40.0992 46.9339 40.4912 46.639 40.8832 46.2457L41.0792 46.0491C41.4712 45.7541 41.9612 45.3609 42.4512 45.066C42.5492 44.9676 42.7452 44.8693 42.8432 44.771C43.4312 44.3778 43.9211 43.9845 44.5091 43.6896C45.9791 42.7064 47.1551 42.0183 47.7431 41.7233C47.9391 41.8216 48.1351 42.0183 48.3311 42.1166L48.4291 42.2149C48.625 42.4115 48.821 42.5098 49.017 42.7064L49.605 43.2963C49.605 43.3946 49.703 43.3946 49.703 43.4929C49.899 43.6896 50.095 43.8862 50.291 44.1811L50.389 44.2795C50.585 44.4761 50.683 44.6727 50.879 44.8693C50.879 44.9676 50.977 44.9676 50.977 45.066C51.173 45.2626 51.369 45.5575 51.467 45.7541C51.467 45.8525 51.565 45.8525 51.565 45.9508C51.663 46.1474 51.859 46.344 51.957 46.4423C51.957 46.5407 52.055 46.5407 52.055 46.639C52.349 46.8356 52.545 47.0322 52.741 47.2288ZM46.6651 27.8612C46.5671 27.8612 46.5671 27.9595 46.4691 27.9595C46.4691 27.9595 46.3711 27.9595 46.3711 28.0578L46.0771 28.3527L45.9791 28.451C45.8811 28.6477 45.6851 29.0409 45.3911 29.7291C45.3911 29.6308 45.2931 29.5325 45.2931 29.5325L44.7051 28.3527C44.7051 28.2544 44.6071 28.2544 44.6071 28.1561C44.4111 27.6645 44.1171 27.2713 43.9211 26.7797C43.8231 26.6814 43.8231 26.5831 43.7251 26.4848C43.5291 26.0915 43.2352 25.6983 43.0392 25.305C43.0392 25.305 43.0392 25.2067 42.9412 25.2067C42.6472 24.8135 42.4512 24.3219 42.1572 23.9287L42.0592 23.8303C43.6271 24.7152 45.2931 26.1899 46.6651 27.8612ZM41.2752 25.8949C41.5692 26.3865 41.8632 26.878 42.0592 27.3696C42.0592 27.4679 42.1572 27.5662 42.1572 27.5662C42.4512 28.0578 42.6472 28.5494 42.9412 29.0409C42.9412 29.1392 43.0392 29.1392 43.0392 29.2376C43.3332 29.7291 43.5292 30.2207 43.8231 30.8106L44.4111 32.2853C44.4111 32.3836 44.4111 32.3836 44.5091 32.4819C44.5091 32.5802 44.4111 32.6785 44.4111 32.7768C44.3131 32.9735 44.3131 33.1701 44.2151 33.465C44.2151 33.6616 44.1171 33.76 44.1171 33.9566C44.0191 34.2515 44.0191 34.4481 43.9211 34.7431C43.9211 34.9397 43.8231 35.1363 43.8231 35.333C43.7251 35.6279 43.7251 35.9228 43.6271 36.2178C43.6271 36.4144 43.5291 36.611 43.5291 36.8077C43.4312 37.1026 43.4312 37.3975 43.3332 37.7908C43.3332 37.9874 43.2352 38.0857 43.2352 38.2824C43.1372 38.0857 43.0392 37.8891 43.0392 37.6925C43.0392 37.5942 42.9412 37.4959 42.9412 37.3975C42.7452 37.0043 42.6472 36.7093 42.4512 36.3161C42.3532 34.7431 42.0592 30.1224 41.2752 25.8949ZM32.0634 37.5942C32.1614 37.2992 32.3574 37.0043 32.4554 36.7093V36.611C33.6313 34.1532 35.0033 31.892 36.4733 29.7291C38.0413 31.7937 39.4132 34.1532 40.4912 36.611V36.7093C40.6872 37.1026 40.7852 37.3975 40.9812 37.7908C40.9812 37.8891 41.0792 37.9874 41.0792 38.0857C41.1772 38.2824 41.2752 38.5773 41.3732 38.7739C41.3732 38.8722 41.4712 38.9705 41.4712 39.0689C41.5692 39.2655 41.6672 39.5604 41.7652 39.7571C41.7652 39.8554 41.8632 39.9537 41.8632 39.9537C41.9612 40.2486 42.0592 40.5436 42.1572 40.7402V40.8385C42.2552 41.0351 42.2552 41.2317 42.3532 41.4284C42.3532 41.5267 42.4512 41.625 42.4512 41.625C42.4512 41.7233 42.5492 41.8216 42.5492 42.0182C42.5492 42.1166 42.6472 42.2149 42.6472 42.3132V42.4115L41.7652 43.0014C41.5692 43.0997 41.3732 43.2963 41.1772 43.3946C40.6872 43.6896 40.2952 44.0828 39.8052 44.3778L39.5112 44.6727C38.9232 45.066 38.4333 45.5575 37.9433 45.9508L37.5513 46.344C37.2573 46.639 36.9633 46.8356 36.6693 47.1305H36.1793C36.0813 47.1305 36.0813 47.0322 35.9833 47.0322C35.4933 46.639 35.0033 46.1474 34.6113 45.7541C34.1213 45.3609 33.6313 44.9676 33.2394 44.5744L33.0434 44.3778C32.5534 43.9845 32.1614 43.6896 31.6714 43.3946C31.5734 43.2963 31.4754 43.2963 31.3774 43.198C30.9854 42.9031 30.5934 42.6081 30.2014 42.4115H30.1034C30.1034 42.3132 30.2014 42.2149 30.2014 42.0182V41.9199C30.2014 41.8216 30.2994 41.625 30.2994 41.4284V41.3301C30.2994 41.2317 30.3974 41.0351 30.4954 40.8385C30.4954 40.7402 30.4954 40.7402 30.5934 40.6419C30.6914 40.4452 30.6914 40.2486 30.7894 40.052V39.9537C30.8874 39.7571 30.8874 39.5604 30.9854 39.3638C30.9854 39.2655 31.0834 39.2655 31.0834 39.1672C31.1814 38.9705 31.2794 38.6756 31.3774 38.479V38.3807C31.4754 38.184 31.5734 37.8891 31.6714 37.6925C32.0634 37.7908 32.0634 37.6925 32.0634 37.5942ZM33.4354 47.2288H20.4016C20.4996 47.0322 20.6956 46.8356 20.8916 46.5407C20.8916 46.4423 20.9896 46.4423 20.9896 46.344C21.0876 46.1474 21.2836 45.9508 21.3816 45.7541C21.3816 45.6558 21.4796 45.6558 21.4796 45.5575C21.6756 45.3609 21.7736 45.1643 21.9696 44.8693L22.1656 44.6727C22.2636 44.4761 22.4596 44.2795 22.6556 44.0828C22.6556 43.9845 22.7536 43.9845 22.7536 43.8862L23.3416 43.2963L23.5375 43.0997C23.7335 42.9031 23.8315 42.7064 24.0275 42.6081L24.1255 42.5098C24.3215 42.3132 24.5175 42.1166 24.7135 42.0182C24.8115 42.0182 24.8115 41.9199 24.9095 41.9199C25.1055 41.7233 25.3015 41.625 25.4975 41.5267C25.5955 41.625 25.7915 41.7233 25.9875 41.8216H26.1835C26.8695 42.2149 27.7515 42.7064 28.8294 43.3946L29.7114 43.9845C29.8094 44.0828 29.9074 44.0828 30.0054 44.1811C30.2994 44.3778 30.6914 44.6727 30.9854 44.8693H31.0834C31.4754 45.1643 31.7694 45.4592 32.1614 45.6558C32.2594 45.7541 32.3574 45.8525 32.4554 45.8525C32.7494 46.1474 33.1414 46.344 33.4354 46.639C33.3374 47.2288 33.4354 47.2288 33.4354 47.2288ZM30.6914 27.2713C30.7894 27.0747 30.8874 26.878 30.9854 26.7797C31.0834 26.6814 31.1814 26.4848 31.1814 26.3865C31.2794 26.1899 31.3774 26.0915 31.4754 25.8949C31.5734 25.7966 31.6714 25.6 31.7694 25.5017C31.8674 25.4033 31.8674 25.305 31.9654 25.305C31.1814 29.7291 30.7894 34.6448 30.6914 36.1195V36.2178C30.5934 36.5127 30.4954 36.7093 30.2994 37.0043C30.2994 37.1026 30.2014 37.1026 30.2014 37.2009C30.1034 37.4959 30.0054 37.7908 29.8094 37.9874V37.8891C29.7114 37.3975 29.6134 36.8077 29.5154 36.3161C29.5154 36.1195 29.4174 36.0212 29.4174 35.8245C29.3194 35.4313 29.3194 35.1363 29.2214 34.8414C29.2214 34.6448 29.1234 34.4481 29.1234 34.3498C29.0254 34.0549 29.0254 33.76 28.9274 33.465C28.9274 33.2684 28.8294 33.1701 28.8294 32.9735C28.7314 32.6785 28.6334 32.4819 28.6334 32.1869C28.6334 32.0886 28.5354 31.9903 28.5354 31.892C28.5354 31.7937 28.6334 31.6954 28.6334 31.4988C28.6334 31.4004 28.7314 31.2038 28.7314 31.1055C28.8294 30.9089 28.8294 30.7123 28.9274 30.6139C29.0254 30.5156 29.0254 30.4173 29.1234 30.2207C29.2214 30.0241 29.3194 29.8274 29.4174 29.5325C29.4174 29.4342 29.5154 29.3359 29.5154 29.2376C29.7114 28.9426 29.8094 28.6477 30.0054 28.3527C30.1034 28.2544 30.1034 28.1561 30.2014 28.0578L30.4954 27.4679C30.5934 27.5662 30.6914 27.3696 30.6914 27.2713ZM30.4954 24.027C30.4954 24.1253 30.3974 24.1253 30.3974 24.2236L29.8094 25.1084C29.7114 25.2067 29.7114 25.305 29.6134 25.4033L29.0254 26.2882C28.9274 26.3865 28.9274 26.4848 28.8294 26.5831C28.6334 26.9764 28.3395 27.3696 28.1435 27.7629C28.0455 27.8612 28.0455 27.9595 27.9475 28.0578C27.7515 28.3527 27.6535 28.6477 27.4575 29.0409C27.4575 29.1392 27.3595 29.2376 27.3595 29.2376V29.1392C27.3595 29.0409 27.2615 29.0409 27.2615 28.9426C27.2615 28.8443 27.1635 28.8443 27.1635 28.746C27.1635 28.6477 27.0655 28.6477 27.0655 28.5494C27.0655 28.451 27.0655 28.451 26.9675 28.451V28.2544L26.6735 27.9595C26.6735 27.9595 26.5755 27.9595 26.5755 27.8612C26.4775 27.8612 26.4775 27.7629 26.3795 27.7629C27.7515 26.3865 29.2214 25.0101 30.4954 24.027ZM19.7156 39.6587C19.8136 39.4621 19.9116 39.1672 20.0096 38.9705C20.9896 36.611 22.1656 34.5465 23.6355 32.6785V32.5802C23.8315 32.2853 24.1255 31.9903 24.3215 31.7937C24.4195 31.6954 24.5175 31.4988 24.6155 31.4004C25.0075 31.0072 25.3995 30.6139 25.7915 30.319V30.4173C25.8895 30.5156 25.8895 30.7122 25.9875 30.9089C26.0855 31.3021 26.2815 31.7937 26.4775 32.2853C26.5755 32.5802 26.6735 32.8751 26.7715 33.2684C26.7715 33.3667 26.8695 33.465 26.8695 33.5633C26.9675 33.76 26.9675 34.0549 27.0655 34.3498C27.0655 34.4481 27.1635 34.6448 27.1635 34.7431C27.2615 34.9397 27.2615 35.2347 27.3595 35.5296C27.3595 35.7262 27.4575 35.8245 27.4575 36.0212C27.5555 36.3161 27.5555 36.5127 27.6535 36.8077C27.6535 37.0043 27.7515 37.1026 27.7515 37.2992C27.7515 37.5942 27.8495 37.8891 27.8495 38.0857C27.8495 38.2824 27.9475 38.3807 27.9475 38.5773C27.9475 38.8722 28.0455 39.2655 28.0455 39.5604V39.9537C28.0455 40.4452 28.1435 40.8385 28.1435 41.3301C28.0455 41.2317 27.9475 41.2317 27.8495 41.1334C27.7515 40.9368 27.7515 40.9368 27.6535 40.8385C27.5555 40.7402 27.4575 40.7402 27.3595 40.6419C27.2615 40.5436 27.1635 40.5436 27.0655 40.5436C26.9675 40.5436 26.8695 40.4452 26.8695 40.4452C26.7715 40.3469 26.5755 40.3469 26.4775 40.2486C26.4775 40.2486 26.3795 40.2486 26.3795 40.1503C26.2815 40.1503 26.1835 40.052 26.1835 40.052H26.0855C25.9875 40.052 25.9875 39.9537 25.8895 39.9537H25.7915C25.4975 39.8554 25.2035 39.8554 24.9095 39.9537L24.3215 40.2486C24.2235 40.2486 24.2235 40.3469 24.1255 40.3469C24.0275 40.4452 23.8315 40.5436 23.7335 40.6419L23.5375 40.8385C23.4396 40.9368 23.2436 41.0351 23.1456 41.1334L22.9496 41.3301C22.8516 41.4284 22.6556 41.5267 22.5576 41.7233L22.3616 41.9199L21.9696 42.3132L21.8716 42.4115C21.4796 42.8048 21.1856 43.198 20.7936 43.6896C20.7936 43.7879 20.6956 43.7879 20.6956 43.8862C20.5976 44.0828 20.4016 44.1811 20.3036 44.3778C20.2056 44.4761 20.2056 44.4761 20.2056 44.5744C20.1076 44.6727 20.0096 44.8693 19.9116 44.9676C19.9116 45.066 19.8136 45.066 19.8136 45.1643C19.7156 45.3609 19.6176 45.4592 19.5196 45.6558L19.4216 45.7541C19.3236 45.9508 19.2256 46.0491 19.0296 46.2457C18.7356 46.7373 18.4417 47.1305 18.2457 47.4255H18.1477V46.0491C18.1477 45.8525 18.1477 45.7541 18.2457 45.5575V45.2626C18.2457 44.9676 18.3437 44.6727 18.4417 44.3778C18.5396 44.0828 18.5396 43.8862 18.6376 43.5913C18.6376 43.3946 18.7356 43.2963 18.7356 43.0997C18.8336 42.8048 18.8336 42.6081 18.9316 42.3132C18.9316 42.1166 19.0296 42.0183 19.0296 41.8216C19.1276 41.625 19.1276 41.3301 19.2256 41.1334C19.3236 40.9368 19.3236 40.7402 19.4216 40.5436C19.6176 40.052 19.6176 39.8554 19.7156 39.6587ZM19.5196 31.892C18.9316 33.465 18.4417 35.7262 18.1477 38.3807C18.1477 38.3807 18.1477 38.479 18.0497 38.479L17.4617 40.2486C17.4617 40.3469 17.3637 40.5436 17.3637 40.6419C17.1677 41.2317 16.9717 41.9199 16.8737 42.5098V42.6081C16.7757 42.6081 16.6777 42.6081 16.6777 42.5098C16.5797 42.5098 16.3837 42.4115 16.2857 42.4115C16.1877 42.4115 16.0897 42.3132 15.9917 42.3132C15.8937 42.3132 15.7957 42.2149 15.6977 42.2149C15.5997 42.2149 15.5017 42.1166 15.4037 42.1166C15.3057 42.1166 15.2077 42.0182 15.1097 42.0182C15.0117 42.0182 14.9137 41.9199 14.8157 41.9199C14.7177 41.9199 14.6197 41.8216 14.5217 41.8216C14.3257 41.9199 14.1297 41.9199 14.0317 41.9199C13.9337 41.9199 13.8357 41.8216 13.7377 41.8216C13.6397 41.8216 13.4438 41.7233 13.3458 41.7233C13.2478 41.7233 13.1498 41.7233 13.0518 41.625C12.8558 41.5267 12.5618 41.5267 12.3658 41.4284H12.1698C11.9738 41.4284 11.7778 41.3301 11.6798 41.3301H11.5818C13.4437 37.0043 17.0697 33.76 19.5196 31.892ZM16.4817 44.5744V44.9676C16.4817 45.1643 16.3837 45.3609 16.3837 45.5575V47.2288H16.0897L15.8937 47.0322C15.6977 46.7373 15.4037 46.4423 15.2077 46.2457L14.9137 45.9508C14.6197 45.6558 14.3257 45.2626 13.9337 44.9676L13.8357 44.8693C13.5417 44.5744 13.2478 44.3778 13.0518 44.1811C12.9538 44.0828 12.8558 43.9845 12.7578 43.9845C12.5618 43.7879 12.2678 43.5913 12.0718 43.3946L11.9738 43.2963H12.1698C12.2678 43.2963 12.3658 43.2963 12.4638 43.3946C12.5618 43.3946 12.7578 43.4929 12.8558 43.4929C12.9538 43.4929 13.0518 43.4929 13.1498 43.5913C13.2478 43.5913 13.4437 43.6896 13.5417 43.6896H13.6397C14.1297 43.7879 14.6197 43.9845 15.1097 44.0828H15.3057C15.4037 44.0828 15.5017 44.1811 15.5997 44.1811H15.7957C15.8937 44.1811 15.9917 44.2795 16.0897 44.2795C16.1877 44.2795 16.1877 44.2795 16.2857 44.3778C16.3837 44.3778 16.4817 44.4761 16.5797 44.4761H16.7757C16.3837 44.5744 16.4817 44.5744 16.4817 44.5744ZM8.64185 43.5913C8.73984 43.5913 8.83784 43.6896 8.83784 43.6896C9.03384 43.7879 9.13184 43.8862 9.22983 43.8862C9.32783 43.9845 9.42583 43.9845 9.52383 44.0828C9.62183 44.1811 9.71982 44.1811 9.81782 44.2795C9.91582 44.3778 10.0138 44.3778 10.1118 44.4761C10.2098 44.5744 10.3078 44.6727 10.4058 44.6727L10.6018 44.8693C10.6998 44.9676 10.8958 45.066 10.9938 45.1643C11.0918 45.2626 11.1898 45.2626 11.2878 45.3609C11.3858 45.4592 11.5818 45.5575 11.6798 45.6558C11.7778 45.7541 11.8758 45.7541 11.9738 45.8525L12.3658 46.2457C12.4638 46.344 12.5618 46.4423 12.6598 46.4423C12.7578 46.7373 12.9538 46.8356 13.0518 47.0322L13.2478 47.2288H9.32783C9.22983 46.0491 8.83784 44.6727 8.54385 43.4929L8.64185 43.5913ZM66.0687 50.5715H7.07388V49.0968H65.7747V50.5715H66.0687Z" fill="white"/>
</svg>
