<svg width="73" height="72" viewBox="0 0 73 72" fill="none" xmlns="http://www.w3.org/2000/svg">
<path d="M19.7212 46.4399H17.5612C17.3452 46.4399 17.2012 46.5839 17.2012 46.7999V49.6799C17.2012 49.8959 17.3452 50.0399 17.5612 50.0399H19.7212C19.9372 50.0399 20.0812 49.8959 20.0812 49.6799V46.7999C20.0812 46.5839 19.9372 46.4399 19.7212 46.4399ZM19.3612 47.1599V47.8799H17.9212V47.1599H19.3612ZM17.9212 49.3199V48.5999H19.3612V49.3199H17.9212Z" fill="white"/>
<path d="M60.0416 58.6801H58.9616V52.2001H59.3216C59.5376 52.2001 59.6816 52.0561 59.6816 51.8401C59.6816 51.6241 59.5376 51.4801 59.3216 51.4801H58.9616V45.7201H59.3216C59.5376 45.7201 59.6816 45.5761 59.6816 45.3601C59.6816 45.1441 59.5376 45.0001 59.3216 45.0001H58.9616V42.8401H59.3216C59.5376 42.8401 59.6816 42.6961 59.6816 42.4801C59.6816 42.2641 59.5376 42.1201 59.3216 42.1201H58.9616V39.6001C58.9616 39.3841 58.8176 39.2401 58.6016 39.2401C58.3856 39.2401 58.2416 39.3841 58.2416 39.6001V39.9601H57.5216V37.8001H57.8816C58.0976 37.8001 58.2416 37.6561 58.2416 37.4401C58.2416 37.2241 58.0976 37.0801 57.8816 37.0801H57.5216C57.5216 36.4321 57.0896 35.8561 56.4416 35.7121V34.5601C56.4416 34.3441 56.2976 34.2001 56.0816 34.2001C55.8656 34.2001 55.7216 34.3441 55.7216 34.5601V35.7121C55.0736 35.8561 54.6416 36.4321 54.6416 37.0801H54.2816C54.0656 37.0801 53.9216 37.2241 53.9216 37.4401C53.9216 37.6561 54.0656 37.8001 54.2816 37.8001H54.6416V39.9601H53.9216V39.6001C53.9216 39.3841 53.7776 39.2401 53.5616 39.2401C53.3456 39.2401 53.2016 39.3841 53.2016 39.6001V42.1201H52.8416C52.6256 42.1201 52.4816 42.2641 52.4816 42.4801C52.4816 42.6961 52.6256 42.8401 52.8416 42.8401H53.2016V43.5601H47.4416V42.8401H47.8016C48.0176 42.8401 48.1616 42.6961 48.1616 42.4801C48.1616 42.2641 48.0176 42.1201 47.8016 42.1201H47.4416V38.5201H47.8016C48.0176 38.5201 48.1616 38.3761 48.1616 38.1601C48.1616 37.9441 48.0176 37.8001 47.8016 37.8001H47.4416C47.2976 37.0801 46.7216 36.5041 46.0016 36.3601V35.2801C46.0016 35.0641 45.8576 34.9201 45.6416 34.9201C45.4256 34.9201 45.2816 35.0641 45.2816 35.2801V36.3601H44.9216C44.0576 36.3601 43.3376 35.7121 43.1936 34.9201H44.2016C44.4176 34.9201 44.5616 34.7761 44.5616 34.5601V33.1201C44.5616 32.9041 44.4176 32.7601 44.2016 32.7601H43.1216V31.3201H43.4816C43.6976 31.3201 43.8416 31.1761 43.8416 30.9601C43.8416 30.7441 43.6976 30.6001 43.4816 30.6001H43.1216C42.8336 28.3681 41.3216 26.5681 39.2336 25.8481V23.4001H39.5936C39.8096 23.4001 39.9536 23.2561 39.9536 23.0401C39.9536 22.8241 39.8096 22.6801 39.5936 22.6801H39.2336C39.0896 21.9601 38.5136 21.3841 37.7936 21.2401V18.7201C37.7936 18.5041 37.6496 18.3601 37.4336 18.3601C37.2176 18.3601 37.0736 18.5041 37.0736 18.7201V21.2401C36.3536 21.3841 35.7776 21.9601 35.6336 22.6801H35.2736C35.0576 22.6801 34.9136 22.8241 34.9136 23.0401C34.9136 23.2561 35.0576 23.4001 35.2736 23.4001H35.6336V25.8481C33.5456 26.5681 32.0336 28.3681 31.7456 30.6001H31.3136C31.0976 30.6001 30.9536 30.7441 30.9536 30.9601C30.9536 31.1761 31.0976 31.3201 31.3136 31.3201H31.6736V32.7601H30.5936C30.3776 32.7601 30.2336 32.9041 30.2336 33.1201V34.5601C30.2336 34.7761 30.3776 34.9201 30.5936 34.9201H31.6016C31.4576 35.7121 30.7376 36.3601 29.8736 36.3601H29.5136V35.2801C29.5136 35.0641 29.3696 34.9201 29.1536 34.9201C28.9376 34.9201 28.7936 35.0641 28.7936 35.2801V36.3601C28.0736 36.5041 27.4976 37.0801 27.3536 37.8001H26.9936C26.7776 37.8001 26.6336 37.9441 26.6336 38.1601C26.6336 38.3761 26.7776 38.5201 26.9936 38.5201H27.3536V42.1201H26.9936C26.7776 42.1201 26.6336 42.2641 26.6336 42.4801C26.6336 42.6961 26.7776 42.8401 26.9936 42.8401H27.3536V43.5601H21.5936V42.8401H21.9536C22.1696 42.8401 22.3136 42.6961 22.3136 42.4801C22.3136 42.2641 22.1696 42.1201 21.9536 42.1201H21.5936V39.6001C21.5936 39.3841 21.4496 39.2401 21.2336 39.2401C21.0176 39.2401 20.8736 39.3841 20.8736 39.6001V39.9601H20.1536V37.8001H20.5136C20.7296 37.8001 20.8736 37.6561 20.8736 37.4401C20.8736 37.2241 20.7296 37.0801 20.5136 37.0801H20.1536C20.1536 36.4321 19.7216 35.8561 19.0736 35.7121V34.5601C19.0736 34.3441 18.9296 34.2001 18.7136 34.2001C18.4976 34.2001 18.3536 34.3441 18.3536 34.5601V35.7121C17.7056 35.8561 17.2736 36.4321 17.2736 37.0801H16.9136C16.6976 37.0801 16.5536 37.2241 16.5536 37.4401C16.5536 37.6561 16.6976 37.8001 16.9136 37.8001H17.2736V39.9601H16.5536V39.6001C16.5536 39.3841 16.4096 39.2401 16.1936 39.2401C15.9776 39.2401 15.8336 39.3841 15.8336 39.6001V42.1201H15.4736C15.2576 42.1201 15.1136 42.2641 15.1136 42.4801C15.1136 42.6961 15.2576 42.8401 15.4736 42.8401H15.8336V45.0001H15.4736C15.2576 45.0001 15.1136 45.1441 15.1136 45.3601C15.1136 45.5761 15.2576 45.7201 15.4736 45.7201H15.8336V51.4801H15.4736C15.2576 51.4801 15.1136 51.6241 15.1136 51.8401C15.1136 52.0561 15.2576 52.2001 15.4736 52.2001H15.8336V58.6801H14.7536C14.5376 58.6801 14.3936 58.8241 14.3936 59.0401C14.3936 59.2561 14.5376 59.4001 14.7536 59.4001H60.1136C60.3296 59.4001 60.4736 59.2561 60.4736 59.0401C60.4736 58.8241 60.2576 58.6801 60.0416 58.6801ZM58.2416 51.4801H53.9216V45.7201H58.2416V51.4801ZM56.0816 36.3601C56.5136 36.3601 56.8016 36.6481 56.8016 37.0801H55.3616C55.3616 36.6481 55.7216 36.3601 56.0816 36.3601ZM55.3616 37.8001H56.8016V39.9601H55.3616V37.8001ZM53.9216 40.7521L55.0016 40.6801H58.1696V42.1201H53.8496V40.7521H53.9216ZM58.2416 42.8401V45.0001H53.9216V42.8401H58.2416ZM53.2016 44.2801V45.0001H52.8416C52.6256 45.0001 52.4816 45.1441 52.4816 45.3601C52.4816 45.5761 52.6256 45.7201 52.8416 45.7201H53.2016V46.4401H47.4416V45.7201H47.8016C48.0176 45.7201 48.1616 45.5761 48.1616 45.3601C48.1616 45.1441 48.0176 45.0001 47.8016 45.0001H47.4416V44.2801H53.2016ZM34.4816 56.5201V50.0401C34.4816 48.4561 35.7776 47.1601 37.3616 47.1601C38.9456 47.1601 40.2416 48.4561 40.2416 50.0401V58.6801H34.4816V56.5201ZM37.3616 46.4401C36.2096 46.4401 35.1296 47.0161 34.4816 47.8801V45.7201H40.2416V47.8801C39.5936 47.0161 38.5856 46.4401 37.3616 46.4401ZM39.1616 45.0001H34.4816V43.5601H40.2416V45.0001H39.1616ZM32.3216 39.9601H33.7616V41.4001H32.3216V39.9601ZM35.5616 39.9601H40.2416V41.4001H34.4816V39.9601H35.5616ZM33.7616 34.9201H34.4816V37.8001H33.7616V34.9201ZM35.2016 34.9201H39.5216V37.8001H38.8016V37.0081C38.8016 36.2161 38.1536 35.5681 37.3616 35.5681C36.5696 35.5681 35.9216 36.2161 35.9216 37.0081V37.8001H35.2016V34.9201ZM40.9616 37.8001H40.2416V34.9201H40.9616V37.8001ZM38.0816 37.8001H36.6416V37.0081C36.6416 36.5761 36.9296 36.2881 37.3616 36.2881C37.7936 36.2881 38.0816 36.5761 38.0816 37.0081V37.8001ZM35.9216 38.5201H38.8016V39.2401H35.9216V38.5201ZM42.4016 41.4001H40.9616V39.9601H42.4016V41.4001ZM31.9616 42.1201H43.8416V42.8401H30.8816V42.1201H31.9616ZM28.0016 43.9201V42.8401H30.1616V43.2001C30.1616 43.4161 30.3056 43.5601 30.5216 43.5601H31.6016V45.0001H28.0016V43.9201ZM31.6016 45.7201V47.3761C31.3856 47.2321 31.1696 47.1601 30.8816 47.1601C30.5936 47.1601 30.3776 47.2321 30.1616 47.3761V45.7201H31.6016ZM31.6016 55.0801H30.1616V53.6401C30.1616 53.2081 30.4496 52.9201 30.8816 52.9201C31.3136 52.9201 31.6016 53.2081 31.6016 53.6401V55.0801ZM30.8816 52.2001C30.5936 52.2001 30.3776 52.2721 30.1616 52.4161V50.7601H31.6016V52.4161C31.3856 52.2721 31.1696 52.2001 30.8816 52.2001ZM31.6016 50.0401H30.1616V48.6001C30.1616 48.1681 30.4496 47.8801 30.8816 47.8801C31.3136 47.8801 31.6016 48.1681 31.6016 48.6001V50.0401ZM30.1616 55.8001H31.6016V58.6801H30.1616V55.8001ZM32.3216 43.5601H33.7616V45.0001H32.3216V43.5601ZM40.9616 43.5601H42.4016V45.0001H40.9616V43.5601ZM44.5616 55.0801H43.1216V53.6401C43.1216 53.2081 43.4096 52.9201 43.8416 52.9201C44.2736 52.9201 44.5616 53.2081 44.5616 53.6401V55.0801ZM43.8416 52.2001C43.5536 52.2001 43.3376 52.2721 43.1216 52.4161V50.7601H44.5616V52.4161C44.3456 52.2721 44.1296 52.2001 43.8416 52.2001ZM44.5616 50.0401H43.1216V48.6001C43.1216 48.1681 43.4096 47.8801 43.8416 47.8801C44.2736 47.8801 44.5616 48.1681 44.5616 48.6001V50.0401ZM43.1216 55.8001H44.5616V58.6801H43.1216V55.8001ZM44.5616 47.3761C44.3456 47.2321 44.1296 47.1601 43.8416 47.1601C43.5536 47.1601 43.3376 47.2321 43.1216 47.3761V45.7201H44.5616V47.3761ZM43.1216 45.0001V43.5601H44.2016C44.4176 43.5601 44.5616 43.4161 44.5616 43.2001V42.8401H46.7216V45.0001H43.1216ZM46.7216 42.1201H46.0016V40.3201C46.0016 40.1041 45.8576 39.9601 45.6416 39.9601C45.4256 39.9601 45.2816 40.1041 45.2816 40.3201V42.1201H44.5616V38.5201H46.7216V42.1201ZM46.6496 37.8001H44.6336C44.7776 37.3681 45.2096 37.0801 45.6416 37.0801C46.0736 37.0801 46.5056 37.3681 46.6496 37.8001ZM44.2736 37.0081C44.0576 37.2241 43.9136 37.5121 43.8416 37.8001H43.4816C43.2656 37.8001 43.1216 37.9441 43.1216 38.1601C43.1216 38.3761 43.2656 38.5201 43.4816 38.5201H43.8416V41.4001H43.1216V39.6001C43.1216 39.3841 42.9776 39.2401 42.7616 39.2401H39.5216V38.5201H42.0416C42.2576 38.5201 42.4016 38.3761 42.4016 38.1601C42.4016 37.9441 42.2576 37.8001 42.0416 37.8001H41.6816V34.9201H42.4736C42.6176 35.9281 43.3376 36.7201 44.2736 37.0081ZM42.4016 32.7601H41.6816V31.3201H42.4016V32.7601ZM33.7616 31.3201H35.2016V32.7601H33.7616V31.3201ZM35.9216 31.3201H38.8016V32.7601H35.9216V31.3201ZM39.5216 31.3201H40.9616V32.7601H39.5216V31.3201ZM37.3616 21.9601C37.8656 21.9601 38.2256 22.2481 38.3696 22.6801H36.3536C36.4976 22.2481 36.8576 21.9601 37.3616 21.9601ZM36.2816 23.4001H38.4416V25.6321C38.2256 25.5601 37.9376 25.5601 37.7216 25.5601V24.4801C37.7216 24.2641 37.5776 24.1201 37.3616 24.1201C37.1456 24.1201 37.0016 24.2641 37.0016 24.4801V25.5601C36.7856 25.5601 36.4976 25.6321 36.2816 25.6321V23.4001ZM37.3616 26.2801C39.8816 26.2801 41.9696 28.1521 42.3296 30.6001H32.3936C32.7536 28.1521 34.8416 26.2801 37.3616 26.2801ZM32.3216 31.3201H33.0416V32.7601H32.3216V31.3201ZM30.8816 33.4801H43.8416V34.2001H30.8816V33.4801ZM32.3216 34.9201H33.1136V37.8001H32.7536C32.5376 37.8001 32.3936 37.9441 32.3936 38.1601C32.3936 38.3761 32.5376 38.5201 32.7536 38.5201H35.2736V39.2401H32.0336C31.8176 39.2401 31.6736 39.3841 31.6736 39.6001V41.4001H30.9536V38.5201H31.3136C31.5296 38.5201 31.6736 38.3761 31.6736 38.1601C31.6736 37.9441 31.5296 37.8001 31.3136 37.8001H30.9536C30.8816 37.5121 30.7376 37.2241 30.5216 37.0081C31.3856 36.7201 32.1776 35.9281 32.3216 34.9201ZM29.0816 37.0801C29.5856 37.0801 29.9456 37.3681 30.0896 37.8001H28.0736C28.2176 37.3681 28.6496 37.0801 29.0816 37.0801ZM30.1616 38.5201V42.1201H29.4416V40.3201C29.4416 40.1041 29.2976 39.9601 29.0816 39.9601C28.8656 39.9601 28.7216 40.1041 28.7216 40.3201V42.1201H28.0016V38.5201H30.1616ZM27.2816 44.2801V45.0001H26.9216C26.7056 45.0001 26.5616 45.1441 26.5616 45.3601C26.5616 45.5761 26.7056 45.7201 26.9216 45.7201H27.2816V46.4401H21.5216V45.7201H21.8816C22.0976 45.7201 22.2416 45.5761 22.2416 45.3601C22.2416 45.1441 22.0976 45.0001 21.8816 45.0001H21.5216V44.2801H27.2816ZM18.6416 36.3601C19.0736 36.3601 19.3616 36.6481 19.3616 37.0801H17.9216C17.9216 36.6481 18.2096 36.3601 18.6416 36.3601ZM17.9216 37.8001H19.3616V39.9601H17.9216V37.8001ZM16.4816 40.7521L17.4896 40.6801H20.7296V42.1201H16.4096V40.7521H16.4816ZM16.4816 42.8401H20.8016V45.0001H16.4816V42.8401ZM16.4816 45.7201H20.8016V51.4801H16.4816V45.7201ZM16.4816 52.2001H20.8016V58.6801H16.4816V52.2001ZM21.5216 52.2001H21.8816C22.0976 52.2001 22.2416 52.0561 22.2416 51.8401C22.2416 51.6241 22.0976 51.4801 21.8816 51.4801H21.5216V47.1601H27.2816V58.6801H21.5216V52.2001ZM28.0016 58.6801V45.7201H29.4416V58.6801H28.0016ZM32.3216 58.6801V45.7201H33.7616V58.6801H32.3216ZM40.9616 58.6801V45.7201H42.4016V58.6801H40.9616ZM45.2816 55.4401V45.7201H46.7216V58.6801H45.2816V55.4401ZM47.4416 47.1601H53.2016V51.4801H52.8416C52.6256 51.4801 52.4816 51.6241 52.4816 51.8401C52.4816 52.0561 52.6256 52.2001 52.8416 52.2001H53.2016V58.6801H47.4416V47.1601ZM53.9216 58.6801V52.2001H58.2416V58.6801H53.9216Z" fill="white"/>
<path d="M25.4812 52.9199H23.3212C23.1052 52.9199 22.9612 53.0639 22.9612 53.2799V56.1599C22.9612 56.3759 23.1052 56.5199 23.3212 56.5199H25.4812C25.6972 56.5199 25.8412 56.3759 25.8412 56.1599V53.2799C25.8412 53.0639 25.6972 52.9199 25.4812 52.9199ZM25.1212 53.6399V54.3599H23.6812V53.6399H25.1212ZM25.1212 55.7999H23.6812V55.0799H25.1212V55.7999ZM25.4812 47.8799H23.3212C23.1052 47.8799 22.9612 48.0239 22.9612 48.2399V51.1199C22.9612 51.3359 23.1052 51.4799 23.3212 51.4799H25.4812C25.6972 51.4799 25.8412 51.3359 25.8412 51.1199V48.2399C25.8412 48.0239 25.6972 47.8799 25.4812 47.8799ZM25.1212 48.5999V49.3199H23.6812V48.5999H25.1212ZM25.1212 50.7599H23.6812V50.0399H25.1212V50.7599ZM19.7212 52.9199H17.5612C17.3452 52.9199 17.2012 53.0639 17.2012 53.2799V56.1599C17.2012 56.3759 17.3452 56.5199 17.5612 56.5199H19.7212C19.9372 56.5199 20.0812 56.3759 20.0812 56.1599V53.2799C20.0812 53.0639 19.9372 52.9199 19.7212 52.9199ZM19.3612 55.7999H17.9212V53.6399H19.3612V55.7999Z" fill="white"/>
<path d="M37.361 32.3999C37.5598 32.3999 37.721 32.2388 37.721 32.0399C37.721 31.8411 37.5598 31.6799 37.361 31.6799C37.1622 31.6799 37.001 31.8411 37.001 32.0399C37.001 32.2388 37.1622 32.3999 37.361 32.3999Z" fill="white"/>
<path d="M18.6412 44.2801C18.8401 44.2801 19.0012 44.1189 19.0012 43.9201C19.0012 43.7212 18.8401 43.5601 18.6412 43.5601C18.4424 43.5601 18.2812 43.7212 18.2812 43.9201C18.2812 44.1189 18.4424 44.2801 18.6412 44.2801Z" fill="white"/>
<path d="M55.0018 50.0399H57.1618C57.3778 50.0399 57.5218 49.8959 57.5218 49.6799V46.7999C57.5218 46.5839 57.3778 46.4399 57.1618 46.4399H55.0018C54.7858 46.4399 54.6418 46.5839 54.6418 46.7999V49.6799C54.6418 49.8959 54.7858 50.0399 55.0018 50.0399ZM55.3618 49.3199V48.5999H56.8018V49.3199H55.3618ZM56.8018 47.1599V47.8799H55.3618V47.1599H56.8018ZM51.4018 52.9199H49.2418C49.0258 52.9199 48.8818 53.0639 48.8818 53.2799V56.1599C48.8818 56.3759 49.0258 56.5199 49.2418 56.5199H51.4018C51.6178 56.5199 51.7618 56.3759 51.7618 56.1599V53.2799C51.7618 53.0639 51.6178 52.9199 51.4018 52.9199ZM49.6018 53.6399H51.0418V54.3599H49.6018V53.6399ZM49.6018 55.7999V55.0799H51.0418V55.7999H49.6018ZM51.4018 47.8799H49.2418C49.0258 47.8799 48.8818 48.0239 48.8818 48.2399V51.1199C48.8818 51.3359 49.0258 51.4799 49.2418 51.4799H51.4018C51.6178 51.4799 51.7618 51.3359 51.7618 51.1199V48.2399C51.7618 48.0239 51.6178 47.8799 51.4018 47.8799ZM49.6018 48.5999H51.0418V49.3199H49.6018V48.5999ZM49.6018 50.7599V50.0399H51.0418V50.7599H49.6018ZM57.1618 52.9199H55.0018C54.7858 52.9199 54.6418 53.0639 54.6418 53.2799V56.1599C54.6418 56.3759 54.7858 56.5199 55.0018 56.5199H57.1618C57.3778 56.5199 57.5218 56.3759 57.5218 56.1599V53.2799C57.5218 53.0639 57.3778 52.9199 57.1618 52.9199ZM56.8018 55.7999H55.3618V53.6399H56.8018V55.7999Z" fill="white"/>
<path d="M56.0817 44.2801C56.2805 44.2801 56.4417 44.1189 56.4417 43.9201C56.4417 43.7212 56.2805 43.5601 56.0817 43.5601C55.8829 43.5601 55.7217 43.7212 55.7217 43.9201C55.7217 44.1189 55.8829 44.2801 56.0817 44.2801Z" fill="white"/>
</svg>
