<svg width="72" height="72" viewBox="0 0 72 72" fill="none" xmlns="http://www.w3.org/2000/svg">
<path d="M56.8798 41.4001C57.0958 41.4001 57.2398 41.2561 57.2398 41.0401V38.8801C57.2398 38.6641 57.0958 38.5201 56.8798 38.5201H55.7998V33.8401C55.7998 33.6241 55.6558 33.4801 55.4398 33.4801H55.0798V29.8801H55.4398C55.6558 29.8801 55.7998 29.7361 55.7998 29.5201C55.7998 29.3041 55.6558 29.1601 55.4398 29.1601H55.0798V28.5841C55.0798 27.7921 54.7198 27.0721 53.9998 26.6401L53.6398 26.4241V25.2001C53.6398 24.9841 53.4958 24.8401 53.2798 24.8401C53.0638 24.8401 52.9198 24.9841 52.9198 25.2001V26.4241L52.5598 26.7121C51.9118 27.1441 51.4798 27.8641 51.4798 28.6561V29.2321H51.1198C50.9038 29.2321 50.7598 29.3761 50.7598 29.5921C50.7598 29.8081 50.9038 29.9521 51.1198 29.9521H51.4798V31.3201C51.4078 31.3201 51.4078 31.2481 51.3358 31.2481L51.1198 30.9601V30.6001C51.1198 30.3841 50.9758 30.2401 50.7598 30.2401C50.5438 30.2401 50.3998 30.3841 50.3998 30.6001V30.9601L50.1118 31.1041C49.8958 31.2481 49.7518 31.3921 49.6798 31.5361C49.5358 31.3921 49.3918 31.1761 49.1758 31.1041L48.9598 30.9601V30.6001C48.9598 30.3841 48.8158 30.2401 48.5998 30.2401C48.3838 30.2401 48.2398 30.3841 48.2398 30.6001V30.9601L47.9518 31.1041C47.7358 31.2481 47.5918 31.3921 47.5198 31.5361C47.3758 31.3921 47.2318 31.1761 47.0158 31.1041L46.7998 30.9601V30.6001C46.7998 30.3841 46.6558 30.2401 46.4398 30.2401C46.2238 30.2401 46.0798 30.3841 46.0798 30.6001V30.9601L45.7918 31.1041C45.5758 31.2481 45.4318 31.3921 45.3598 31.5361C45.2158 31.3921 45.0718 31.1761 44.8558 31.1041L44.6398 30.9601V30.6001C44.6398 30.3841 44.4958 30.2401 44.2798 30.2401C44.0638 30.2401 43.9198 30.3841 43.9198 30.6001V30.9601L43.6318 31.1041C43.4158 31.2481 43.2718 31.3921 43.1998 31.5361C43.0558 31.3921 42.9118 31.1761 42.6958 31.1041L42.4798 30.9601V30.6001C42.4798 30.3841 42.3358 30.2401 42.1198 30.2401C41.9038 30.2401 41.7598 30.3841 41.7598 30.6001V30.9601L41.4718 31.1041C40.9678 31.4641 40.6798 31.9681 40.6798 32.6161V33.4081H39.5998V30.3841C39.5998 29.6641 39.1678 29.0161 38.4478 28.8001V28.3681C38.4478 28.1521 38.3038 28.0081 38.0878 28.0081C37.8718 28.0081 37.7278 28.1521 37.7278 28.3681V28.8001H36.2878V28.4401C36.2878 28.2241 36.1438 28.0801 35.9278 28.0801C35.7118 28.0801 35.5678 28.2241 35.5678 28.4401V28.8001H34.1278V28.4401C34.1278 28.2241 33.9838 28.0801 33.7678 28.0801C33.5518 28.0801 33.4078 28.2241 33.4078 28.4401V28.8721C32.7598 29.1601 32.3278 29.7361 32.3278 30.4561V33.4081H31.2478V32.6161C31.2478 31.9681 30.9598 31.4641 30.3838 31.1041L30.2398 30.9601V30.6001C30.2398 30.3841 30.0958 30.2401 29.8798 30.2401C29.6638 30.2401 29.5198 30.3841 29.5198 30.6001V30.9601L29.2318 31.1041C29.0158 31.2481 28.8718 31.3921 28.7998 31.5361C28.6558 31.3921 28.5118 31.1761 28.2958 31.1041L28.0798 30.9601V30.6001C28.0798 30.3841 27.9358 30.2401 27.7198 30.2401C27.5038 30.2401 27.3598 30.3841 27.3598 30.6001V30.9601L27.0718 31.1041C26.8558 31.2481 26.7118 31.3921 26.6398 31.5361C26.4958 31.3921 26.3518 31.1761 26.1358 31.1041L25.9198 30.9601V30.6001C25.9198 30.3841 25.7758 30.2401 25.5598 30.2401C25.3438 30.2401 25.1998 30.3841 25.1998 30.6001V30.9601L24.9118 31.1041C24.6958 31.2481 24.5518 31.3921 24.4798 31.5361C24.3358 31.3921 24.1918 31.1761 23.9758 31.1041L23.7598 30.9601V30.6001C23.7598 30.3841 23.6158 30.2401 23.3998 30.2401C23.1838 30.2401 23.0398 30.3841 23.0398 30.6001V30.9601L22.7518 31.1041C22.5358 31.2481 22.3918 31.3921 22.3198 31.5361C22.1758 31.3921 22.0318 31.1761 21.8158 31.1041L21.5998 30.9601V30.6001C21.5998 30.3841 21.4558 30.2401 21.2398 30.2401C21.0238 30.2401 20.8798 30.3841 20.8798 30.6001V30.9601L20.5918 31.1041C20.5198 31.1041 20.5198 31.1761 20.5198 31.1761V29.8081H20.8798C21.0958 29.8081 21.2398 29.6641 21.2398 29.4481C21.2398 29.2321 21.0958 29.0881 20.8798 29.0881H20.5198V28.5121C20.5198 27.7201 20.1598 27.0001 19.4398 26.5681L19.0798 26.3521V25.2001C19.0798 24.9841 18.9358 24.8401 18.7198 24.8401C18.5038 24.8401 18.3598 24.9841 18.3598 25.2001V26.4241L17.9998 26.7121C17.3518 27.1441 16.9198 27.8641 16.9198 28.6561V29.2321H16.5598C16.3438 29.2321 16.1998 29.3761 16.1998 29.5921C16.1998 29.8081 16.3438 29.9521 16.5598 29.9521H16.9198V33.5521H16.5598C16.3438 33.5521 16.1998 33.6961 16.1998 33.9121V38.5921H15.1198C14.9038 38.5921 14.7598 38.7361 14.7598 38.9521V41.1121C14.7598 41.3281 14.9038 41.4721 15.1198 41.4721H16.1998V58.7521H15.1198C14.9038 58.7521 14.7598 58.8961 14.7598 59.1121C14.7598 59.3281 14.9038 59.4721 15.1198 59.4721H56.8798C57.0958 59.4721 57.2398 59.3281 57.2398 59.1121C57.2398 58.8961 57.0958 58.7521 56.8798 58.7521H55.7998V41.4721H56.8798V41.4001ZM52.9198 27.2881L53.2798 27.0721L53.6398 27.2881C54.0718 27.5761 54.3598 28.0801 54.3598 28.5841V29.1601H52.1998V28.5841C52.1998 28.0801 52.4878 27.5761 52.9198 27.2881ZM54.3598 29.8801V33.4801H53.6398V31.6801C53.6398 31.4641 53.4958 31.3201 53.2798 31.3201C53.0638 31.3201 52.9198 31.4641 52.9198 31.6801V33.4801H52.1998V29.8801H54.3598ZM50.5438 31.7521L50.7598 31.6081L50.9758 31.7521C51.2638 31.9681 51.4798 32.2561 51.4798 32.6881V33.4801H50.0398V32.6881C50.0398 32.2561 50.2558 31.9681 50.5438 31.7521ZM48.3838 31.7521L48.5998 31.6081L48.8158 31.7521C49.1038 31.9681 49.3198 32.2561 49.3198 32.6881V33.4801H47.8798V32.6881C47.8798 32.2561 48.0958 31.9681 48.3838 31.7521ZM46.2238 31.7521L46.4398 31.6081L46.6558 31.7521C46.9438 31.9681 47.1598 32.2561 47.1598 32.6881V33.4801H45.7198V32.6881C45.7198 32.2561 45.9358 31.9681 46.2238 31.7521ZM44.0638 31.7521L44.2798 31.6081L44.4958 31.7521C44.7838 31.9681 44.9998 32.2561 44.9998 32.6881V33.4801H43.5598V32.6881C43.5598 32.2561 43.7758 31.9681 44.0638 31.7521ZM41.3998 32.6881C41.3998 32.3281 41.6158 31.9681 41.9038 31.7521L42.1198 31.6081L42.3358 31.7521C42.6238 31.9681 42.8398 32.2561 42.8398 32.6881V33.4801H41.3998V32.6881ZM35.2798 33.4801V32.6881C35.2798 32.3281 35.4958 31.9681 35.7838 31.7521L35.9998 31.6081L36.2158 31.7521C36.5038 31.9681 36.7198 32.2561 36.7198 32.6881V33.4801H35.2798ZM33.1198 33.4801V32.5441C33.1198 32.1841 33.3358 31.8961 33.6238 31.7521L33.8398 31.6081L34.0558 31.7521C34.3438 31.9681 34.5598 32.2561 34.5598 32.6881V33.4801H33.1198ZM37.8718 31.7521L38.0878 31.6081L38.3038 31.7521C38.5918 31.9681 38.8078 32.2561 38.8078 32.6881V33.4801H37.3678V32.6881C37.4398 32.2561 37.5838 31.9681 37.8718 31.7521ZM33.8398 29.5201H38.0878C38.5198 29.6641 38.8798 30.0241 38.8798 30.4561V31.2481L38.7358 31.1041L38.4478 30.9601V30.6001C38.4478 30.3841 38.3038 30.2401 38.0878 30.2401C37.8718 30.2401 37.7278 30.3841 37.7278 30.6001V30.9601L37.4398 31.1041C37.2238 31.2481 37.0798 31.3921 37.0078 31.5361C36.8638 31.3921 36.7198 31.1761 36.5038 31.1041L36.2878 30.9601V30.6001C36.2878 30.3841 36.1438 30.2401 35.9278 30.2401C35.7118 30.2401 35.5678 30.3841 35.5678 30.6001V30.9601L35.2798 31.1041C35.0638 31.2481 34.9198 31.3921 34.8478 31.5361C34.7038 31.3921 34.5598 31.1761 34.3438 31.1041L34.1278 30.9601V30.6001C34.1278 30.3841 33.9838 30.2401 33.7678 30.2401C33.5518 30.2401 33.4078 30.3841 33.4078 30.6001V30.9601L33.1198 31.1041L33.0478 31.1761V30.4561C33.1198 30.0241 33.4078 29.5921 33.8398 29.5201ZM29.6638 31.7521L29.8798 31.6081L30.0958 31.7521C30.3838 31.9681 30.5998 32.2561 30.5998 32.6881V33.4801H29.1598V32.6881C29.1598 32.2561 29.3758 31.9681 29.6638 31.7521ZM27.5038 31.7521L27.7198 31.6081L27.9358 31.7521C28.2238 31.9681 28.4398 32.2561 28.4398 32.6881V33.4801H26.9998V32.6881C26.9998 32.2561 27.2158 31.9681 27.5038 31.7521ZM25.3438 31.7521L25.5598 31.6081L25.7758 31.7521C26.0638 31.9681 26.2798 32.2561 26.2798 32.6881V33.4801H24.8398V32.6881C24.8398 32.2561 25.0558 31.9681 25.3438 31.7521ZM23.1838 31.7521L23.3998 31.6081L23.6158 31.7521C23.9038 31.9681 24.1198 32.2561 24.1198 32.6881V33.4801H22.6798V32.6881C22.6798 32.2561 22.8958 31.9681 23.1838 31.7521ZM21.0238 31.7521L21.2398 31.6081L21.4558 31.7521C21.7438 31.9681 21.9598 32.2561 21.9598 32.6881V33.4801H20.5198V32.6881C20.5198 32.2561 20.7358 31.9681 21.0238 31.7521ZM18.3598 27.2881L18.7198 27.0721L19.0798 27.2881C19.5118 27.5761 19.7998 28.0801 19.7998 28.5841V29.1601H17.6398V28.5841C17.6398 28.0801 17.9278 27.5761 18.3598 27.2881ZM17.6398 30.8881V29.8801H19.7998V33.4801H19.0798V31.6801C19.0798 31.4641 18.9358 31.3201 18.7198 31.3201C18.5038 31.3201 18.3598 31.4641 18.3598 31.6801V33.4801H17.6398V30.8881ZM16.9198 34.2001H55.0798V38.5201H16.9198V34.2001ZM15.4798 40.6801V39.2401H56.5198V40.6801H15.4798ZM50.7598 47.1601H44.2798V41.4001H50.7598V47.1601ZM37.7998 58.6801H34.1998V52.6321C34.1998 51.7681 34.6318 50.9761 35.3518 50.5441L35.9998 50.1121L36.6478 50.5441C37.3678 50.9761 37.7998 51.7681 37.7998 52.7041V58.6801ZM37.0078 49.8961L36.2158 49.3921C36.0718 49.3201 35.9278 49.3201 35.8558 49.3921L34.9918 49.8961C34.0558 50.4721 33.4798 51.4801 33.4798 52.6321V58.6801H32.7598V47.8801H39.2398V58.6801H38.5198V52.6321C38.5198 51.5521 37.9438 50.4721 37.0078 49.8961ZM32.7598 47.1601V41.4001H39.2398V47.1601H32.7598ZM21.2398 41.4001H27.7198V47.1601H21.2398V41.4001ZM28.4398 41.4001H32.0398V47.1601H28.4398V41.4001ZM39.9598 41.4001H43.5598V47.1601H39.9598V41.4001ZM16.9198 41.4001H20.5198V58.6801H16.9198V41.4001ZM21.2398 47.8801H27.7198V58.6801H26.9998V52.6321C26.9998 51.5521 26.4238 50.4721 25.4878 49.8961L24.6958 49.3921C24.5518 49.3201 24.4078 49.3201 24.3358 49.3921L23.4718 49.8961C22.5358 50.4721 21.9598 51.4801 21.9598 52.6321V58.6801H21.2398V47.8801ZM26.2798 58.6801H22.6798V52.6321C22.6798 51.7681 23.1118 50.9761 23.8318 50.5441L24.4798 50.1121L25.1278 50.5441C25.8478 50.9761 26.2798 51.7681 26.2798 52.7041V58.6801ZM28.4398 58.6801V47.8801H32.0398V58.6801H28.4398ZM39.9598 58.6801V47.8801H43.5598V58.6801H39.9598ZM49.3198 58.6801H45.7198V52.6321C45.7198 51.7681 46.1518 50.9761 46.8718 50.5441L47.5198 50.1121L48.1678 50.5441C48.8878 50.9761 49.3198 51.7681 49.3198 52.7041V58.6801ZM50.0398 58.6801V52.6321C50.0398 51.5521 49.4638 50.4721 48.5278 49.8961L47.7358 49.3921C47.5918 49.3201 47.4478 49.3201 47.3758 49.3921L46.5118 49.8961C45.5758 50.4721 44.9998 51.4801 44.9998 52.6321V58.6801H44.2798V47.8801H50.7598V58.6801H50.0398ZM55.0798 58.6801H51.4798V41.4001H55.0798V58.6801Z" fill="white"/>
<path d="M18.7196 53.6399C18.1436 53.6399 17.6396 54.1439 17.6396 54.7199V56.8799C17.6396 57.0959 17.7836 57.2399 17.9996 57.2399H19.4396C19.6556 57.2399 19.7996 57.0959 19.7996 56.8799V54.7199C19.7996 54.1439 19.2956 53.6399 18.7196 53.6399ZM19.0796 56.5199H18.3596V54.7199C18.3596 54.5039 18.5036 54.3599 18.7196 54.3599C18.9356 54.3599 19.0796 54.5039 19.0796 54.7199V56.5199ZM18.7196 34.9199C18.1436 34.9199 17.6396 35.4239 17.6396 35.9999V37.4399C17.6396 37.6559 17.7836 37.7999 17.9996 37.7999H19.4396C19.6556 37.7999 19.7996 37.6559 19.7996 37.4399V35.9999C19.7996 35.4239 19.2956 34.9199 18.7196 34.9199ZM19.0796 37.0799H18.3596V35.9999C18.3596 35.7839 18.5036 35.6399 18.7196 35.6399C18.9356 35.6399 19.0796 35.7839 19.0796 35.9999V37.0799ZM18.7196 48.5999C18.1436 48.5999 17.6396 49.1039 17.6396 49.6799V51.8399C17.6396 52.0559 17.7836 52.1999 17.9996 52.1999H19.4396C19.6556 52.1999 19.7996 52.0559 19.7996 51.8399V49.6799C19.7996 49.1039 19.2956 48.5999 18.7196 48.5999ZM19.0796 51.4799H18.3596V49.6799C18.3596 49.4639 18.5036 49.3199 18.7196 49.3199C18.9356 49.3199 19.0796 49.4639 19.0796 49.6799V51.4799ZM18.7196 42.8399C18.1436 42.8399 17.6396 43.3439 17.6396 43.9199V46.0799C17.6396 46.2959 17.7836 46.4399 17.9996 46.4399H19.4396C19.6556 46.4399 19.7996 46.2959 19.7996 46.0799V43.9199C19.7996 43.3439 19.2956 42.8399 18.7196 42.8399ZM19.0796 45.7199H18.3596V43.9199C18.3596 43.7039 18.5036 43.5599 18.7196 43.5599C18.9356 43.5599 19.0796 43.7039 19.0796 43.9199V45.7199ZM30.2396 42.8399C29.6636 42.8399 29.1596 43.3439 29.1596 43.9199V46.0799C29.1596 46.2959 29.3036 46.4399 29.5196 46.4399H30.9596C31.1756 46.4399 31.3196 46.2959 31.3196 46.0799V43.9199C31.3196 43.3439 30.8156 42.8399 30.2396 42.8399ZM30.5996 45.7199H29.8796V43.9199C29.8796 43.7039 30.0236 43.5599 30.2396 43.5599C30.4556 43.5599 30.5996 43.7039 30.5996 43.9199V45.7199ZM23.0396 42.8399C22.4636 42.8399 21.9596 43.3439 21.9596 43.9199V46.0799C21.9596 46.2959 22.1036 46.4399 22.3196 46.4399H23.7596C23.9756 46.4399 24.1196 46.2959 24.1196 46.0799V43.9199C24.1196 43.3439 23.6156 42.8399 23.0396 42.8399ZM23.3996 45.7199H22.6796V43.9199C22.6796 43.7039 22.8236 43.5599 23.0396 43.5599C23.2556 43.5599 23.3996 43.7039 23.3996 43.9199V45.7199ZM25.9196 42.8399C25.3436 42.8399 24.8396 43.3439 24.8396 43.9199V46.0799C24.8396 46.2959 24.9836 46.4399 25.1996 46.4399H26.6396C26.8556 46.4399 26.9996 46.2959 26.9996 46.0799V43.9199C26.9996 43.3439 26.4956 42.8399 25.9196 42.8399ZM26.2796 45.7199H25.5596V43.9199C25.5596 43.7039 25.7036 43.5599 25.9196 43.5599C26.1356 43.5599 26.2796 43.7039 26.2796 43.9199V45.7199ZM34.5596 42.8399C33.9836 42.8399 33.4796 43.3439 33.4796 43.9199V46.0799C33.4796 46.2959 33.6236 46.4399 33.8396 46.4399H35.2796C35.4956 46.4399 35.6396 46.2959 35.6396 46.0799V43.9199C35.6396 43.3439 35.1356 42.8399 34.5596 42.8399ZM34.9196 45.7199H34.1996V43.9199C34.1996 43.7039 34.3436 43.5599 34.5596 43.5599C34.7757 43.5599 34.9196 43.7039 34.9196 43.9199V45.7199ZM37.4396 42.8399C36.8636 42.8399 36.3596 43.3439 36.3596 43.9199V46.0799C36.3596 46.2959 36.5036 46.4399 36.7196 46.4399H38.1596C38.3756 46.4399 38.5196 46.2959 38.5196 46.0799V43.9199C38.5196 43.3439 38.0156 42.8399 37.4396 42.8399ZM37.7996 45.7199H37.0796V43.9199C37.0796 43.7039 37.2236 43.5599 37.4396 43.5599C37.6556 43.5599 37.7996 43.7039 37.7996 43.9199V45.7199ZM48.2396 46.4399H49.6796C49.8956 46.4399 50.0396 46.2959 50.0396 46.0799V43.9199C50.0396 43.3439 49.5357 42.8399 48.9597 42.8399C48.3836 42.8399 47.8797 43.3439 47.8797 43.9199V46.0799C47.8797 46.2959 48.0236 46.4399 48.2396 46.4399ZM48.5996 43.9199C48.5996 43.7039 48.7437 43.5599 48.9597 43.5599C49.1756 43.5599 49.3196 43.7039 49.3196 43.9199V45.7199H48.5996V43.9199ZM52.5597 46.4399H53.9996C54.2156 46.4399 54.3596 46.2959 54.3596 46.0799V43.9199C54.3596 43.3439 53.8556 42.8399 53.2797 42.8399C52.7037 42.8399 52.1996 43.3439 52.1996 43.9199V46.0799C52.1996 46.2959 52.3437 46.4399 52.5597 46.4399ZM52.9197 43.9199C52.9197 43.7039 53.0636 43.5599 53.2797 43.5599C53.4957 43.5599 53.6396 43.7039 53.6396 43.9199V45.7199H52.9197V43.9199ZM41.7596 42.8399C41.1836 42.8399 40.6796 43.3439 40.6796 43.9199V46.0799C40.6796 46.2959 40.8236 46.4399 41.0396 46.4399H42.4796C42.6957 46.4399 42.8396 46.2959 42.8396 46.0799V43.9199C42.8396 43.3439 42.3356 42.8399 41.7596 42.8399ZM42.1196 45.7199H41.3996V43.9199C41.3996 43.7039 41.5436 43.5599 41.7596 43.5599C41.9756 43.5599 42.1196 43.7039 42.1196 43.9199V45.7199ZM45.3596 46.4399H46.7997C47.0156 46.4399 47.1596 46.2959 47.1596 46.0799V43.9199C47.1596 43.3439 46.6556 42.8399 46.0796 42.8399C45.5036 42.8399 44.9996 43.3439 44.9996 43.9199V46.0799C44.9996 46.2959 45.1437 46.4399 45.3596 46.4399ZM45.7197 43.9199C45.7197 43.7039 45.8636 43.5599 46.0796 43.5599C46.2957 43.5599 46.4396 43.7039 46.4396 43.9199V45.7199H45.7197V43.9199ZM30.2396 53.6399C29.6636 53.6399 29.1596 54.1439 29.1596 54.7199V56.8799C29.1596 57.0959 29.3036 57.2399 29.5196 57.2399H30.9596C31.1756 57.2399 31.3196 57.0959 31.3196 56.8799V54.7199C31.3196 54.1439 30.8156 53.6399 30.2396 53.6399ZM30.5996 56.5199H29.8796V54.7199C29.8796 54.5039 30.0236 54.3599 30.2396 54.3599C30.4556 54.3599 30.5996 54.5039 30.5996 54.7199V56.5199ZM52.5597 57.2399H53.9996C54.2156 57.2399 54.3596 57.0959 54.3596 56.8799V54.7199C54.3596 54.1439 53.8556 53.6399 53.2797 53.6399C52.7037 53.6399 52.1996 54.1439 52.1996 54.7199V56.8799C52.1996 57.0959 52.3437 57.2399 52.5597 57.2399ZM52.9197 54.7199C52.9197 54.5039 53.0636 54.3599 53.2797 54.3599C53.4957 54.3599 53.6396 54.5039 53.6396 54.7199V56.5199H52.9197V54.7199ZM41.7596 53.6399C41.1836 53.6399 40.6796 54.1439 40.6796 54.7199V56.8799C40.6796 57.0959 40.8236 57.2399 41.0396 57.2399H42.4796C42.6957 57.2399 42.8396 57.0959 42.8396 56.8799V54.7199C42.8396 54.1439 42.3356 53.6399 41.7596 53.6399ZM42.1196 56.5199H41.3996V54.7199C41.3996 54.5039 41.5436 54.3599 41.7596 54.3599C41.9756 54.3599 42.1196 54.5039 42.1196 54.7199V56.5199ZM30.2396 48.5999C29.6636 48.5999 29.1596 49.1039 29.1596 49.6799V51.8399C29.1596 52.0559 29.3036 52.1999 29.5196 52.1999H30.9596C31.1756 52.1999 31.3196 52.0559 31.3196 51.8399V49.6799C31.3196 49.1039 30.8156 48.5999 30.2396 48.5999ZM30.5996 51.4799H29.8796V49.6799C29.8796 49.4639 30.0236 49.3199 30.2396 49.3199C30.4556 49.3199 30.5996 49.4639 30.5996 49.6799V51.4799ZM52.5597 52.1999H53.9996C54.2156 52.1999 54.3596 52.0559 54.3596 51.8399V49.6799C54.3596 49.1039 53.8556 48.5999 53.2797 48.5999C52.7037 48.5999 52.1996 49.1039 52.1996 49.6799V51.8399C52.1996 52.0559 52.3437 52.1999 52.5597 52.1999ZM52.9197 49.6799C52.9197 49.4639 53.0636 49.3199 53.2797 49.3199C53.4957 49.3199 53.6396 49.4639 53.6396 49.6799V51.4799H52.9197V49.6799ZM41.7596 48.5999C41.1836 48.5999 40.6796 49.1039 40.6796 49.6799V51.8399C40.6796 52.0559 40.8236 52.1999 41.0396 52.1999H42.4796C42.6957 52.1999 42.8396 52.0559 42.8396 51.8399V49.6799C42.8396 49.1039 42.3356 48.5999 41.7596 48.5999ZM42.1196 51.4799H41.3996V49.6799C41.3996 49.4639 41.5436 49.3199 41.7596 49.3199C41.9756 49.3199 42.1196 49.4639 42.1196 49.6799V51.4799ZM23.0396 34.9199C22.4636 34.9199 21.9596 35.4239 21.9596 35.9999V37.4399C21.9596 37.6559 22.1036 37.7999 22.3196 37.7999H23.7596C23.9756 37.7999 24.1196 37.6559 24.1196 37.4399V35.9999C24.1196 35.4239 23.6156 34.9199 23.0396 34.9199ZM23.3996 37.0799H22.6796V35.9999C22.6796 35.7839 22.8236 35.6399 23.0396 35.6399C23.2556 35.6399 23.3996 35.7839 23.3996 35.9999V37.0799ZM30.2396 34.9199C29.6636 34.9199 29.1596 35.4239 29.1596 35.9999V37.4399C29.1596 37.6559 29.3036 37.7999 29.5196 37.7999H30.9596C31.1756 37.7999 31.3196 37.6559 31.3196 37.4399V35.9999C31.3196 35.4239 30.8156 34.9199 30.2396 34.9199ZM30.5996 37.0799H29.8796V35.9999C29.8796 35.7839 30.0236 35.6399 30.2396 35.6399C30.4556 35.6399 30.5996 35.7839 30.5996 35.9999V37.0799ZM37.4396 34.9199C36.8636 34.9199 36.3596 35.4239 36.3596 35.9999V37.4399C36.3596 37.6559 36.5036 37.7999 36.7196 37.7999H38.1596C38.3756 37.7999 38.5196 37.6559 38.5196 37.4399V35.9999C38.5196 35.4239 38.0156 34.9199 37.4396 34.9199ZM37.7996 37.0799H37.0796V35.9999C37.0796 35.7839 37.2236 35.6399 37.4396 35.6399C37.6556 35.6399 37.7996 35.7839 37.7996 35.9999V37.0799ZM41.7596 34.9199C41.1836 34.9199 40.6796 35.4239 40.6796 35.9999V37.4399C40.6796 37.6559 40.8236 37.7999 41.0396 37.7999H42.4796C42.6957 37.7999 42.8396 37.6559 42.8396 37.4399V35.9999C42.8396 35.4239 42.3356 34.9199 41.7596 34.9199ZM42.1196 37.0799H41.3996V35.9999C41.3996 35.7839 41.5436 35.6399 41.7596 35.6399C41.9756 35.6399 42.1196 35.7839 42.1196 35.9999V37.0799ZM48.9597 34.9199C48.3836 34.9199 47.8797 35.4239 47.8797 35.9999V37.4399C47.8797 37.6559 48.0236 37.7999 48.2396 37.7999H49.6796C49.8956 37.7999 50.0396 37.6559 50.0396 37.4399V35.9999C50.0396 35.4239 49.5357 34.9199 48.9597 34.9199ZM49.3196 37.0799H48.5996V35.9999C48.5996 35.7839 48.7437 35.6399 48.9597 35.6399C49.1756 35.6399 49.3196 35.7839 49.3196 35.9999V37.0799ZM53.2797 34.9199C52.7037 34.9199 52.1996 35.4239 52.1996 35.9999V37.4399C52.1996 37.6559 52.3437 37.7999 52.5597 37.7999H53.9996C54.2156 37.7999 54.3596 37.6559 54.3596 37.4399V35.9999C54.3596 35.4239 53.8556 34.9199 53.2797 34.9199ZM53.6396 37.0799H52.9197V35.9999C52.9197 35.7839 53.0636 35.6399 53.2797 35.6399C53.4957 35.6399 53.6396 35.7839 53.6396 35.9999V37.0799ZM46.0796 34.9199C45.5036 34.9199 44.9996 35.4239 44.9996 35.9999V37.4399C44.9996 37.6559 45.1437 37.7999 45.3596 37.7999H46.7997C47.0156 37.7999 47.1596 37.6559 47.1596 37.4399V35.9999C47.1596 35.4239 46.6556 34.9199 46.0796 34.9199ZM46.4396 37.0799H45.7197V35.9999C45.7197 35.7839 45.8636 35.6399 46.0796 35.6399C46.2957 35.6399 46.4396 35.7839 46.4396 35.9999V37.0799ZM25.9196 34.9199C25.3436 34.9199 24.8396 35.4239 24.8396 35.9999V37.4399C24.8396 37.6559 24.9836 37.7999 25.1996 37.7999H26.6396C26.8556 37.7999 26.9996 37.6559 26.9996 37.4399V35.9999C26.9996 35.4239 26.4956 34.9199 25.9196 34.9199ZM26.2796 37.0799H25.5596V35.9999C25.5596 35.7839 25.7036 35.6399 25.9196 35.6399C26.1356 35.6399 26.2796 35.7839 26.2796 35.9999V37.0799ZM34.5596 34.9199C33.9836 34.9199 33.4796 35.4239 33.4796 35.9999V37.4399C33.4796 37.6559 33.6236 37.7999 33.8396 37.7999H35.2796C35.4956 37.7999 35.6396 37.6559 35.6396 37.4399V35.9999C35.6396 35.4239 35.1356 34.9199 34.5596 34.9199ZM34.9196 37.0799H34.1996V35.9999C34.1996 35.7839 34.3436 35.6399 34.5596 35.6399C34.7757 35.6399 34.9196 35.7839 34.9196 35.9999V37.0799Z" fill="white"/>
</svg>
